<?xml version="1.0" encoding="UTF-8"?><svg id="Layer_2" xmlns="http://www.w3.org/2000/svg" viewBox="0 0 89.86 89.48"><defs><style>.cls-1{fill:#000000;}</style></defs><g id="Wireframe"><path class="cls-1" d="M53.41,58.93c1.24,10.15,2.47,20.31,3.72,30.55h-24.39c1.52-10.48,3.04-20.92,4.6-31.65-8.47,6.7-16.76,13.25-25.13,19.87-4.08-7.04-8.12-14-12.21-21.06,9.58-4.09,19.1-8.17,28.8-12.31C19.12,40.48,9.63,36.7,0,32.87c4.07-7.02,8.1-13.97,12.21-21.06,8.29,6.23,16.5,12.41,25.02,18.82-1.52-10.39-3-20.46-4.49-30.62h24.39c-1.21,9.93-2.42,19.82-3.66,29.99,8.15-6.12,16.11-12.12,24.18-18.18,4.08,7.04,8.11,13.99,12.21,21.06-9.62,3.82-19.15,7.6-28.91,11.47,9.73,4.14,19.25,8.2,28.91,12.31-4.07,7.03-8.1,13.98-12.21,21.06-8.05-6.34-16.03-12.63-24.02-18.92-.08.05-.15.1-.23.15Z"/></g></svg>