<?xml version="1.0" encoding="UTF-8"?><svg id="Layer_2" xmlns="http://www.w3.org/2000/svg" viewBox="0 0 269.38 276.14"><defs><style>.cls-1{fill:#faf0e0;}.cls-2{fill:#f03010;}</style></defs><g id="Wireframe"><path class="cls-2" d="M231.99,27.36c-2.44-.61-5.04-.64-7.44-1.51-.23-.03-.13.75-.18.79-.18.14-.6-.52-1.01-.61-5.23-1.07-16.9,1.84-21.8,3.98-14.25,6.22-24.12,18.32-28.13,33.17-.43,1.59-.27,3.48-.81,4.87-.73,1.88-3.22,4.11-4.43,6.13-1.93,3.22-2.51,5.88-1.52,9.57.23.87,1.62,3.91,2.19,4.48.16.16,3.14,2.51,3.33,2.6.58.27,1.18.01,1.72.27,1.6.75,1.86,3.18,2.62,4.65.32.63.67,1.28,1.03,1.95-.48-.14-1.06-.32-1.11-.35-.3-.17-.03-.98-.48-1.22-.13-.07-1.67-.62-1.76-.62-.46,0-.67.45-1.1.35l-8.59-2.67c-.47-.18-.19-.84-.6-1.08-.91-.52-1.41.54-1.66.53-.13,0-1.16-.29-1.27-.36-.39-.23-.29-.7-.65-.96-.1-.07-1.3-.55-1.44-.58-1.17-.21-1.29.56-1.38.58-.21.02-3.8-1.07-3.96-1.2-.29-.22-.07-1.01-.8-.79-.37.11-.55.88-1.4.38-.24-.14-.11-.56-.24-.8-.27-.54-.91-.4-1.44-.42,21.27-19.49,23.16-56.09-1.28-76.75C121.9-10.66,82.34.61,69.37,31.98c-9.48,22.93-.33,46.66,17.15,59.58-1.26.41-2.53.93-3.87,1.19-.25.05-.49.28-.71.32-.64.1-1.6-.95-2.66.34-.47.57.08,1.24-1.26,1.05-.29-.04-.5-.31-.82-.3-.51.02-1.81.62-2.15,1.05-.3.38-.31.82-.51,1.1-.03.04-.68.76-.73.78-.23.1-.79-.31-1.24-.15-.3.11-.42,1.51-1.54,1.89-.46.15-1.05-.33-1.6,0-.4.24-.33,1.08-.52,1.49-.07.16-1.57,1.86-1.68,1.92-.33.17-2.31-.68-1.02,1.3-.43-.06-.43.43-.74.56-.33.13-.77-.04-1.09.33-.35.41.05.75,0,1.01-.05.2-.4.23-.51.39-.1.14-.03.37-.2.54-.66.66-1.48-.08-1.78.39-.19.29-.12,2.24-.73,2.6-.18.11-.54-.13-.79-.07-.69.14-.46.74-.69,1.09-.27.42-.48.73-.74,1.16-.17.27-.92.17-.75,1.14.11.64.61.5.18,1.56-.32.81-1.79.39-1.5,1.79.09.44.75.34.51.88-.2.46-1.67.25-1.06,1.67.1.24.46.23.48.37.01.13-.53,2.39-.61,2.49-.06.06-1.17-.55-1.2.72-.02,1,1,.6.72,1.3-.47,1.17-.74-.33-1.72.5-.49.41-.27.68-.47,1.04-.05.08-.3.09-.39.31-.15.33-.38,1.49-.1,1.73.13.11.49-.01.56.03.03.02-.18.58-.2.6-.02.03-.43-.22-.7-.21-.47.02-1.65.18-2.17.25-.46.06-1.13.54-1.55.76.19-1.57-1.56-1.09-2.51-1.04-.29.01-.58-.2-.96-.13-.38.07-.65.54-1.01.53-.4,0-1.09-.48-1.65-.47-.36,0-.61.27-.81.3-.09.01-.08-.43-.48-.52-.36-.08-.64.1-.89.06-1.19-.18-2.39-.71-3.6.06-.15.1-.15.71-.54.4-.03-.02,0-.37-.34-.57-.41-.24-1.03.01-1.06-.03-.22-.23.22-1.23-1.11-1.21-1.86.03-1.12,1.44-1.63,1.58-1.02.29-1.77-.66-2.54-.54-.69.1-.76.96-1.24.97-.52.02-.86-.77-1.81-.61-.55.09-1.71,2.18-2.04,2.23-.38.05-.7-.43-1.18-.44-1.28-.02-1.54.99-1.81,2-.17.65.14.21-.31.97-.25.42-.07,2.4.19,2.59.5.36,2.24-.73,2.23-.21-.01.64-1.68,1.21-1.77,1.85-.1.68.31,1.02.33,1.55.02.7-.52,2.27.08,2.87.17.17.57.17.85.46.47.5.46,1.52,1.01,2.01.51.46,1.28.4,1.92.6-.54,1.91-1.94,3.84-1.35,5.87.67,2.31,1.33,1.16,2.82,1.6.52.16.67.85,1.82.57.23-.06,0-.49.33-.4-.29,1.27,1.14,1.14,1.92.6l.89-1.2c-.22,1.95,2.06,1.41,3.35,1.77.49.14.88.54,1.22.61.71.14,1.44-.71,1.26.43-1.92-.3-1.22.99-1.41,1.2-.08.08-1.02.03-1.27.08-.37.07-1.4.61-1.72.3-.07-.06.1-1.05-1.12-.6-1.03.38-.65,1.27-.8,1.44-.06.06-1.1.89-1.23.98-.43.3-1.04-.13-1.26.03-.07.05-.6,1.41-.6,1.49-.05.7.72.79.78,1.02.18.72-1.27,1.04-1.68,1.31-.24.16-.28.56-.45.6-.3.06-.67-.19-.98-.18-.85,0-.82.81-1.29,1.28-.51.51-1.52.58-1.41,1.59.03.25.56,1.1.34,1.48-.02.04-.54.59-.57.61-.08.04-.96-.43-1.57.34-.28.35-.17.82-.49,1.11-.05.05-1.15.57-1.22.59-.15.04-.04-.63-.8-.62-.75,0-.57.48-.73.6-.12.08-.74-.34-1.24,0-.23.15-.81,1.86-1.13,2.14-.15.13-2.24-1.56-1.81.69-1.61-.69-1.95.53-2.33,1.84-.9-.11-2.18.68-2.87.68-.29,0-.46-.26-.73-.3-1.12-.18-.69.59-1.1,1.1-.35.43-1.19.42-1.6.64-.4.21-.95.52-1.39.78-.46.27-.67.97-1.3.9-.1-.01-.07-.39-.54-.48-1.21-.22-1.42.87-.58,1.38-.25.44-.86.18-1.16.35-.13.07-.99,1.61-1.06,1.87-.26.86.2,1.38.82,1.9-1.77,0-.51,2.14-.25,3.16.27,1.05.01,1.36.68,2.54.81,1.43,1.04,2.03,2.12,3.39.22.27.15.67.32.89.11.15.44.16.63.47.48.76.44,1.74.53,2.59.33.2,1.54-.25,1.59-.19.03.03-.03.52.11.79.55,1.11,2.68,4.5,4.17,3.63.12-.07.15-.32.19-.34,1.02-.54.24,1.07.54,1.59.17.3.49.2.66.34,2.81,2.31,3.68.28,5.84.83.17.04.15.55.83.56.72,0,.8-.34.71-.98.14-.25,1.26.75,1.38.93.23.34.26,1.02.47,1.24.19.19.73.22.76.25.03.04-.23.54-.22.9.03.7,1.25,2.25,1.94,2.31,1.56.12,2.12-1.93,1.89-3.21.56.49,1.31.55,2.02.31.86-.28.47-.77.6-1.37.04-.17.51-.17.56-.68.05-.53-.81-2.42-.13-2.85.23-.14,1.82,0,1.95.2.1.16.08,2.62.27,3.24.25.81.97.45.96,2.24-.01,1.59-.4.96-.57,1.45-.83,2.42.31,4.57-.03,6.98.65,1.42.68,3.72,1.43,5.01.4.69,1.2.28,1.33.36.13.09.87,1.61,1.16,1.97.23.3.64.38.68.44.09.12-.21.6-.2.88.04.75,1.23.51,1.62.8.2.15.2.55.42.79.43.49,1.17.59,1.8.52-.58,1.03.96,1.7,1.21.6h.19c0,.77,1.56.49,2.02.9.28.25.13.74.39,1.01.12.12,2.05,1.05,2.47,1.31.24.15.22.59.85.57.51-.02.91-.49,1.46-.25.54.24.05,1.22,1.18,1.27.54.02.67-.1,1.08-.4.08.47.02,1.19.59,1.32.97.23,1.04-.53,1.13-.53.1,0,1.17.35,1.33.43.64.32.55,1.14.75,1.3.44.35,1.21-.6,2.11.06.23.17.04.64.32.93.32.34.86.11,1.02.21.4.26.46,1.09,1.52.73.39-.13.16-.52.58-.44.5.28-.03,1.58,1.58,1.21.14-.03.16-.75.53-.41.22.21-.23,1.63,1.29,1.41.29-.04.89-.6,1.12-.4.05.04-.37.94.34,1.18.68.23.89-.3,1.47-.38-.05,1.35.88.44,1.27.44.14,0,2.66.66,2.75.78.05.06-.37,1.07.55,1.35.69.21,1.22-.2,1.55-.17.15.01.18.39.33.48.7.43,2.29,1.17,3.08.9.26-.09.39-.95.73-.58.18.19-.28,1.49,1.11,1.42.4-.02.61-.31.8-.33.33-.04.99.4,1.43.45.21.02.62-.2.67-.14.09.11-.2,1.08.71,1.21.95.14.87-.65.99-.61.86.32-.2,1.83,1.58,1.4.17-.04,0-.59.94-.2-.13.26-.34,1.01-.19,1.19.12.14,3.23,1.05,3.46.99.45-.11.49-.77.63-.76.13,0,2.37.75,2.47.84.48.4-.34,1.38,1.35,1.38.37,0,.83-.24.99-.23.16.02.15.39.32.5.23.15.55.05.75.16.12.07.13.43.38.51,1.06.37,1.12-.37,1.2-.38.83-.05,1.19,1.03,1.85,1.17.47.1,1.21-.21,1.25-.16.13.15-.3,1.33,1.08,1.01.2-.05.02-.44.39-.38.22.03,1.78.58,1.95.69.34.23.42.76.75.87.5.17,1.42-.23,1.47-.17.05.06-.09.64.33.79.59.21.92-.29,1.3-.29,1.42,0,4.19,1.67,5.81,1.72-.57.77.31,1.79,1.1,1.83.4.02.85-.27,1.17-.19.33.08.6.66.96.86.35.2,2.34.92,2.7.93,1.27.04,1.5-.81,1.59-.8.1,0,.45.27.7.31,5.97,1.02,12.02,3.93,17.97,5.34.46.19.22.81.53,1.08.42.36,2.31.91,2.88.86.57-.05.45-.6.82-.57,1.27.12,3.4,1.15,4.75,1.53.29.08.65-.08.81,0,.6.27.58,2.83,2.6.49.08,1.69.48,1.09,1.41,1.33.61.16,1.38,1.14,1.7-.33.92.52.01,1.65,1.05,1.76.93.1.95-.36.86-1.16.08-.08,1.69.38,1.76.45.13.12,0,.6.37.74,1.03.38,2.2-.64,2.77-.2.32.25-.06,1.82,1.53.62-.39.81,1.15,1.4,1.8,1.53.74.14,1.22.07,1.31-.72.69,1.83,1.24.64,1.97.65.15,0,2.73.8,2.9.9.32.18.36.59.58.65.25.07.6-.18.93-.14.28.04,1.7.42,1.84.53.32.24-.25.87.67.99.64.08.81-.26,1.15-.28.48-.03,1.06.58,1.6.52.27-.03,1.06-.68,1.32-.41.08.09-.23.8.32,1.19,1.21.87,1.72-.39,1.82-.4.06,0,1.21.19,1.25.24.11.12-.09.66.22.89.16.12.56.05.8.2.19.12.24.47.43.58,1.39.78,2.98,1.14,2.6-1.09.88-.17.47.29.7.6.42.57,1.45-.05,1.51,0,.05.04.03.62.34.82.73.47,1.5-.12,2.08.06.53.16.58.75.94.89.12.05,1.24.22,1.38.21.36-.02.58-.31.84-.34.08-.01,1.5.02,1.58.03.29.04.22.76.99.76.78,0,.52-1.07,1.77-.39.48.26.23.77.63,1.18.95.99,2.47-.29,3.47-.57,1.24-.34,2.24-.14,3.35-.26,2.33-.26,5.12-3.17,7.07-3.34.63-.05.94.46,1.7-.15.99-.78.31-1.85.39-1.92.9.35,1.78.11,1.53-1.02-.12-.51-.66-.21-.52-.79,1.4.77,1.39-.54,2-1.46.94-1.4.93-1.75,1.56-3.11.09-.2,0-.6.05-.66.02-.03.41.23.81.13.38-.09.4-.52.48-.51.82.06.63.53.83.76.47.56,2.43.74,3.15.57.19-.04,2.2-1.04,2.27-1.14.47-.69-.32-1.34-.23-1.82.1-.52.61-.36.94-.68.91-.9.05-4.41,1.3-5.54.72.87,1.75.71,2.11,1.91.9-.01,2.48,1.19,3.27,1.07.18-.03,2.45-.79,2.56-.88.49-.42.34-1.36.7-1.71.27-.26,1.56-.57,2.11-1.11.37-.36.37-.71.62-.98,1.14-1.22,2.98-.56,4.5-.72,1.42-.14,4.8-1.28,4.12-3.21,1.06,1.06,1.61-.15,2.4-.31.7-.14,2.33.39,2.74-.88.11-.34-.29-2-.45-2.37-.13-.3-.51-.28-.63-.58-.17-.44-.11-1.29-.43-1.74-.23-.32-.62-.19-.86-.34-.23-.14-.22-.45-.5-.56-.2-.08-.6,0-.66-.05-.07-.07.09-.79-.12-1.2-.13-.26-1.36-1.11-1.61-1.4-1.57-1.81-.94-3.85-2.16-5.38-1.05-1.33-2.12-.47-2.94-.76-.88-.31-2.17-1.84-3.23-2.11.24-.57,1.03-.35,1.57-.53.87-.3,2.01-.95,2.97-1.07,1.29-.16,3.83,1.12,4.55-.66.53-1.3-.42-1.78-.36-2.17.13-.82,1.68-1.9,1.03-2.82-.16-.23-.67-.15-.71-.19-.47-.44.55-.38.58-.41.07-.08.06-.89,0-1.07-.13-.38-.65-.23-.8-.45-.03-.05-.36-1.11-.37-1.19,0-.06.55-.12.57-.8.07-2.07-1.49-1.22-1.59-1.29-.33-.23-.02-1.33-.04-1.67-.06-.91-1.06-.56-1.32-.78-.09-.08-.06-.47-.23-.67-.26-.3-.92-.65-1.18-1.02-.82-1.19-.54-2.02-2.65-1.88-.04-.28.02-.54.1-.81.29-1.04,1.45-2.9,1.67-3.96.13-.64.11-1.58-.11-2.21-.03-.08-.64-1.17-.7-1.21-.19-.15-.6-.09-.81-.25-.22-.17-1.4-1.13-1.45-1.21-.21-.36,0-.85-.2-1.21-.16-.27-1.07-.47-1.42-.79-.31-.3-.31-.6-.49-.86-.15-.21-.53-.25-.6-.47-.12-.41.84-1.51.21-2.37-.17-.23-.56-.07-.62-.12-.04-.03.34-.59.18-1.07-.17-.52-1.24-.44-1.48-.94-.28-.58-.4-2.26-.63-2.99-.18-.56-.7-.85-.83-1.38-.52-2.11-.81-2.13-1.82-3.8-.59-.97-1.58-3.07-2.23-3.8-.52-.59-1.71-.5-2.42-.49-.33-.94.76-1.38.79-2.11.02-.77-.66-.5-.58-1.1,2.37.29.63-1.49.64-1.87,0-.09.5-1.7.56-1.81.18-.35,1.07,0,1.17-.89.06-.56-.24-1.01-.16-1.55.1-.66,1.09-1.31.67-2.28-.13-.3-.5-.13-.45-.51.13-.98,1.42-.2,1.55-1.29.16-1.32-.76-1.01-.77-1.16.23-.49.33-1.35.6-1.76.14-.21.5-.25.66-.59.22-.46.65-2.19.25-2.57-.23-.21-.91-.12-.7-.5.21-.39,1.04-.2,1.2-1.01.05-.26.06-.92-.08-1.12-.2-.27-.76,0-.72-.38.92.07,1.08-1.87.74-2.35-.15-.21-.78-.19-.35-.93.2-.33.81.2,1.08-.77.25-.89-.6-.99-.47-1.27.19-.38.96-.4,1.02-.64.11-.49-.33-1.61-.4-2.2-.04-.3.18-.62.14-.94-.1-.8-.86-.64-.97-.89-.4-.96-.21-1.69-.31-2.5-.31-2.4-.81-4.11-1.69-6.27-.1-.23-.42-.03-.61-.27-.31-.4-.23-1.13-.35-1.41-1.44-3.21-4.24-5.94-6.1-8.78-.16-.24-.53-.3-.55-.35-.08-.15.24-.6.14-1.02-.02-.11-.97-1.47-1.07-1.56-.61-.51-.97.01-1.21-.01-.46-.04-.09-.64-.08-.9.04-1.33-.79-.68-1.68-1.1-.28-.13-1.16-1.25-1.72-1.85,11.93.34,24.16-3.98,32.83-10.93,7.21-5.78,13.29-14.63,15.82-23.55,7.86-27.69-8-55.11-35.38-61.97Z"/><path class="cls-1" d="M75.38,155.4l7.21-22.39-3.29-1.06,1.71-5.32,12.13,3.91-1.71,5.32-3.29-1.06-7.21,22.39-5.55-1.79Z"/><path class="cls-1" d="M85.77,158.75l8.92-27.71,5.52,1.78-3.19,9.9,2.61.84,3.19-9.9,5.52,1.78-8.92,27.71-5.52-1.78,4.05-12.58-2.61-.84-4.05,12.58-5.52-1.78Z"/><path class="cls-1" d="M101.87,163.93l8.93-27.71,11.1,3.57-1.72,5.35-5.45-1.76-1.74,5.39,5.23,1.68-1.68,5.22-5.23-1.68-2.05,6.36,5.81,1.87-1.73,5.39-11.45-3.69Z"/><path class="cls-1" d="M131.63,142.94l7.65,2.46c1.98.64,3.29,1.66,3.92,3.08s.62,3.2-.05,5.36l-4.11,12.99c-.86,2.74-1.99,4.64-3.4,5.7-1.41,1.07-3.24,1.24-5.47.52l-7.45-2.4,8.92-27.71ZM130.83,167.85c1.01.33,1.68,0,1.99-.99l4.6-14.29c.2-.62.3-1.11.31-1.45,0-.34-.11-.61-.33-.8s-.6-.37-1.14-.55l-.61-.2-5.79,17.97.97.31Z"/><path class="cls-1" d="M138.35,175.69l8.93-27.71,5.36,1.72-8.93,27.71-5.36-1.72Z"/><path class="cls-1" d="M145.19,177.89l11.6-26.85,9.39,3.03-6.28,28.56-5.26-1.69,1.06-4.61-3.36-1.08-1.77,4.38-5.39-1.73ZM154.19,170.96l2.52.81,3.31-14.49-.26-.08-5.57,13.77Z"/><path class="cls-1" d="M170.5,155.45l7.52,2.42c2.02.65,3.33,1.62,3.92,2.9.59,1.28.53,3.04-.19,5.28l-.4,1.23c-.85,2.65-2.31,3.92-4.37,3.83,1.06.67,1.66,1.64,1.78,2.88.12,1.25-.11,2.78-.69,4.58-.95,2.95-2.11,5.04-3.48,6.27s-3.21,1.48-5.51.74l-7.52-2.42,8.92-27.71ZM171.94,178.85l1.11-3.45c.27-.84.35-1.51.24-2.02-.11-.51-.47-.87-1.1-1.07l-1.03-.33-2.59,8.03.54.21c1.44.46,2.38,0,2.83-1.37ZM173.69,167.98c.47.15.85.08,1.14-.22.29-.3.53-.77.74-1.42l.89-2.77c.29-.9.04-1.48-.76-1.74l-1.16-.37-1.99,6.16,1.13.36Z"/><path class="cls-1" d="M177.03,188.14l8.93-27.71,5.55,1.79-7.41,23,5.71,1.84-1.52,4.71-11.26-3.62Z"/><path class="cls-1" d="M191.93,190.96c-.72-1.74-.68-3.85.11-6.32l4.25-13.19c.77-2.39,1.93-4,3.48-4.84,1.55-.84,3.45-.9,5.68-.18s3.74,1.88,4.51,3.46c.77,1.59.77,3.58,0,5.96l-4.25,13.19c-.8,2.5-2,4.23-3.6,5.21-1.6.98-3.52,1.11-5.75.39s-3.71-1.95-4.44-3.69ZM199.21,189.23c.31-.37.59-.95.84-1.72l4.36-13.55c.19-.6.27-1.12.23-1.54s-.31-.72-.8-.88c-.92-.3-1.61.25-2.06,1.65l-4.35,13.52c-.26.79-.35,1.43-.29,1.9.06.47.35.79.87.96.49.16.9.05,1.21-.32Z"/><path class="cls-1" d="M108.01,169.8l7.65,2.46c1.98.64,3.29,1.66,3.92,3.08s.62,3.2-.05,5.36l-4.11,12.99c-.86,2.74-1.99,4.64-3.4,5.71s-3.24,1.24-5.47.52l-7.45-2.4,8.92-27.71ZM107.21,194.72c1.01.32,1.67,0,1.99-1l4.6-14.29c.2-.62.3-1.11.31-1.45,0-.34-.11-.61-.33-.8-.22-.19-.6-.38-1.14-.55l-.61-.2-5.79,17.97.97.31Z"/><path class="cls-1" d="M114.24,202.39l11.6-26.85,9.39,3.02-6.28,28.56-5.26-1.69,1.06-4.61-3.35-1.08-1.77,4.38-5.39-1.73ZM123.24,195.46l2.52.81,3.31-14.49-.26-.08-5.57,13.76Z"/><path class="cls-1" d="M139.56,179.96l8.52,2.74c1.35.44,2.3,1.08,2.85,1.93.54.85.77,1.87.67,3.06-.1,1.19-.43,2.65-.98,4.37-.51,1.57-1.1,2.73-1.8,3.48-.69.75-1.6,1.13-2.72,1.15.79.44,1.26,1.06,1.42,1.85.16.79.06,1.75-.31,2.89l-3.44,10.46-5.42-1.75,3.49-10.84c.25-.77.26-1.32.03-1.63-.23-.31-.75-.6-1.54-.85l-4.07,12.65-5.61-1.81,8.92-27.71ZM143.22,192.46c.77.25,1.43-.46,1.97-2.14.24-.73.38-1.29.43-1.68.05-.39.01-.68-.11-.87s-.35-.35-.67-.45l-1.29-.41-1.65,5.13,1.32.43Z"/><path class="cls-1" d="M146.02,212.63l8.92-27.71,11.1,3.57-1.73,5.35-5.45-1.76-1.74,5.39,5.23,1.68-1.68,5.23-5.23-1.68-2.05,6.35,5.81,1.87-1.74,5.39-11.45-3.69Z"/></g></svg>