<?xml version="1.0" encoding="UTF-8"?><svg id="Layer_2" xmlns="http://www.w3.org/2000/svg" viewBox="0 0 541.4 384.8"><defs><style>.cls-1{fill:#faf0e0;}.cls-2{fill:#f03010;}</style></defs><g id="Module_2"><path class="cls-2" d="M540.7,120.38c-.6-3.02-7.72-.83-10.16-.61-25.54,2.21-54.34,8.43-79.76,13.26-34.85,6.63-69.8,10.62-104.3,17.16l-9.83.91c-1.07-18.15,1.1-37.89-4.64-55.27-.74-2.22-3.67-9.3-5-10.63-1.36-1.37-2.94-1.57-3.69-2.27-4.38-4.1-8.4-8.82-13.01-12.67-.6-.5-1.33-.96-2.11-1.43-1.01-1.35-2.22-2.84-2.57-3.01-.82-.42-1.95-.61-3.08-.81-4.54-4.42-5.04-10.75-2.79-16.64,1-2.63,2.56-1.66,3.44-2.72.33-.4.25-1.45.64-1.92.61-.73,1.58-.84,2.13-1.8,1.6-2.79-.42-5.44-.53-8.13-.19-4.78.6-9.8-.61-15.02-1-4.32-3.83-7.96-5.17-12.13-3.3-2.51-7.19-3.05-10.83-4.47-.94-.37-1.55-2.46-4.66-2.15-.53.05-8.66,4-9.6,4.56-3.13,1.85-4.91,4.82-6.78,6.62-.84.81-4.09,1.36-6.02,3.64-7.15,8.45,1.16,7.39,1.63,10.06.23,1.32-.4,5.07-.23,6.63.47,4.42.68,9.53,1.33,14.16.57,4.1,3.82,6.76,2.15,10.86-1.34-.25-2.68-.17-4.06.2-2.85.76-6.17,1.93-9.07,3.45-4.99,1.46-14.52,4.58-19.67,8.38-1.14.5-3.06,1.98-3.44,2.37-.45.46-4.1,4.83-4.23,5.13-.62,1.48-.54,3.07-.47,4.64-.31,2.02-.59,4.68-.94,8.34-.11.64-.22,1.29-.32,1.93-.49,0-1.02.33-1.43.24-.17-.03-.13-.45-.24-.45-.77.02-3.1.86-3.59,1.46-.5.6-.47,3.15-.17,3.87.22.53,2,1.5,2.01,1.65,0,.1-.65,1.12-.79,1.85-.52,2.67,1.42,4,3.33,5.3.1,1.3.23,2.61.38,3.92-1.08.77-1.94,1.78-2.99,2.54-.16.12-.51.04-.56.1-.17.19.1.86-.06,1.1-.08.11-.54.1-.72.25-7.4,6.35-13.53,14.02-19.14,22.09-2.62,3.77-4.76,7.35-7.17,11.46-.25.42-1.38,1.35-.78,1.75.22.14,2.51.74,2.79.7.26-.03,2.01-2.02,2.25-2.37,2.55-3.86,4.25-9.05,7.29-12.9,3.43-4.34,7.88-9.79,11.83-13.24.42-.37.52-1.06,1.16-1.03.34.38-1.34,1.7-1.56,1.99-.98,1.27-1.98,2.54-2.91,3.77-1.82,2.41-4.12,14.56-4.36,17.89-.08,1.02-.44,6.66-.37,7,.04.21.53.07.48.48-.08.59-.88,1.19.15,1.69.37.18,3.68,1.2,3.25,0-1.19-4.07-.39-7.72.41-11.7,1.21-6.08,2.28-10.6,5.63-15.89,1.86-2.94,3.63-4.95,5.59-6.79l-.91,6.96c-.38,2.31-.84,5.84-1.09,8.33v.04s0,0,0,0c-.13,1.35-.2,2.39-.15,2.72.21,1.31,3.9,5.25,4.73,7.11.97,2.16.85,5.93,2.74,8.17-4.45,3.75-12.16,3.5-16.2,6.45-2.14,1.56-4.14,6.78-5.38,7.38-.37.18-6.33-1.57-7.96-1.79-6.96-.94-9.51-2.18-15.69-3.67-13.67-3.3-29.97,3.54-43.73,3.57-11.81.03-24.55-5.02-36.65-5.71-1.9-.11-11.09-.29-12.38-.12,0,0-33.23,7.16-54.14,41.73,0,0-3.69,6.45-22.9,15.45-1.41.66-2.58,1.3-3.6,1.92-3.92,1.35-7.76,2.86-10.63,5.99.42,3.07-.36,7.39-.08,10.19.33,3.31,3.6,10.46,5.02,13.66,4.7,10.61,7.28,15.91,17.58,21.9.82.48.86,1.76,1.77,2.1.42.16,8.29,1.5,8.73,1.49.98-.02,1.88-1.23,3.03-1.45,5.22-.98,16.17,6.47,21.37,8.94,2,.95,3.62,1.2,4.97,1.88,3.4,1.72,19.4,9.75,20.9,11.33,1.33,1.39,2.44,4.78,3.28,5.44,1.07.83,2.9.45,3.79,1.38.34.35,2.18,6.54,3.79,8.91,2.3,3.39,15.37,16.35,15.79,17.71,1.14,3.64,1.32,13.61,1.4,17.85.03,1.38-.89,2.42-.9,3.56-.05,3.97,2.94,6,6.35,7.47,2.17.93,8.45,2.53,10.43,1.5,1.43-.74,1.01-3.53,3.28-2.56,3.51,1.5,1.64,5.85,2.47,7.9,2.57,6.3,8.8,4.32,13.98,4.69,92.81,6.57,185.71,12.03,278.52,18.63l7.1-.41c1.69-3.36,4.65-6.07,6.36-9.27,1.33-2.49,1.32-6.24,4.06-7.17,6.76-.69,13.73.17,20.5-.29,8.3-.57,18.39-3.68,26.89-5.14,2.32-.4,4.81.24,7.2-.25,1.15-.23,7.49-3.74,8.05-4.61,1.31-2.05,1.52-8.49,2.22-11.05.16-.6,1.23-.49,1.56-1.57,8.19-26.49,14.05-51.5,18.33-79.15,4.02-25.98,4.65-52.15,8.47-77.87,2.93-19.73,4.44-32.09,4.37-52.18-.01-4.06.5-5.31.67-8.15.04-.66-.54-6.51-.7-7.31ZM263.45,58.67c-.45.13-.94.27-1.47.41.49-.14.98-.28,1.47-.41ZM390.84,214.3c-4.97-1.52-5.87-1.41-11.27-2.27-11.58-1.83-22.94-4.73-34.77-5.44-2.75-9.02-4.19-18.49-9.02-26.71-.87-1.48-5.71-7.09-5.71-7.56,0-.6,2.7-2.76,2.79-4.44.1-1.86-1.96-4.67-1.34-6.62.29-.9,1.65-1.07,2.17-1.78,3.96-5.46,2.66-2.4,6.95-4.79.99-.55,1.11-2.04,1.73-2.15,1.07-.2,2.42.74,3.49.58,11.78-1.78,28.86-7.97,40.46-7.7,4.08.09,4.46,2.88,5.23,6.22,2.51,10.92,2.26,23.09,3.17,34.03.84,10.06,1.78,20.21,3,30.18-2.12-.96-4.76-.89-6.88-1.54Z"/><path class="cls-1" d="M225.69,240.89l7.69.18c2.33.05,3.97.85,4.93,2.37.96,1.53,1.4,3.73,1.33,6.62-.07,2.89-.56,5.06-1.48,6.51-.92,1.45-2.52,2.14-4.8,2.09l-2.37-.06-.27,11.52-5.73-.14.69-29.1ZM231.46,253.37c.7.02,1.22-.1,1.55-.35s.56-.62.67-1.1c.11-.48.18-1.18.2-2.08.03-1.22-.09-2.1-.34-2.65-.26-.55-.79-.83-1.61-.85l-.64-.02-.17,7.05h.34Z"/><path class="cls-1" d="M242.44,268.64c-1.13-1.38-1.66-3.41-1.6-6.07l.5-21.31,5.66.13-.5,21.07c-.02.93.05,1.65.22,2.18.17.52.55.79,1.13.81.59.01.98-.23,1.17-.73.19-.5.3-1.23.32-2.18l.5-21.07,5.66.13-.5,21.31c-.06,2.67-.69,4.66-1.89,5.99-1.2,1.33-2.99,1.96-5.38,1.91-2.39-.06-4.16-.78-5.29-2.16Z"/><path class="cls-1" d="M258.28,269.09c-1.14-1.34-1.68-3.46-1.61-6.38l.07-2.85,5.73.14-.09,3.62c-.03,1.45.41,2.18,1.34,2.2.52.01.88-.13,1.09-.43.21-.3.32-.81.34-1.53.02-.95-.07-1.74-.28-2.36-.21-.63-.49-1.15-.83-1.58-.34-.43-.95-1.09-1.83-1.99l-2.45-2.57c-1.9-1.94-2.82-4.07-2.76-6.37.06-2.48.67-4.36,1.85-5.63,1.17-1.27,2.85-1.88,5.04-1.83,2.62.06,4.49.8,5.61,2.22,1.12,1.42,1.64,3.6,1.57,6.56l-5.93-.14v-2c.02-.38-.08-.69-.29-.92-.21-.23-.51-.35-.89-.36-.45-.01-.79.11-1.02.35-.23.24-.35.58-.36,1.01-.02.95.5,1.94,1.56,2.99l3.31,3.33c.77.79,1.41,1.53,1.91,2.23.5.7.9,1.53,1.19,2.47.29.95.43,2.06.4,3.35-.07,2.87-.64,5.03-1.73,6.48-1.08,1.46-2.84,2.15-5.25,2.1-2.64-.06-4.54-.76-5.68-2.1Z"/><path class="cls-1" d="M272.67,271.12l.69-29.1,5.79.14-.25,10.4,2.74.07.25-10.4,5.79.14-.69,29.1-5.79-.14.31-13.21-2.74-.07-.31,13.21-5.79-.14Z"/><path class="cls-1" d="M288.8,271.51l3.5-29.04,9.86.23,2.09,29.17-5.52-.13-.3-4.72-3.52-.08-.45,4.7-5.66-.13ZM295.45,262.31l2.64.06-.94-14.84h-.27s-1.44,14.77-1.44,14.77Z"/><path class="cls-1" d="M316.44,272.16l.56-23.51-3.46-.08.13-5.59,12.74.3-.13,5.59-3.46-.08-.56,23.51-5.83-.14Z"/><path class="cls-1" d="M197.47,273.04l8.03.19c2.08.05,3.62.66,4.63,1.84,1.01,1.18,1.5,2.9,1.47,5.16l-.26,13.62c-.05,2.87-.59,5.02-1.64,6.44-1.05,1.42-2.75,2.11-5.1,2.05l-7.83-.19.69-29.1ZM203.78,297.16c1.06.03,1.61-.48,1.63-1.52l.36-15.01c.02-.66-.02-1.15-.12-1.48-.09-.33-.28-.55-.54-.67-.27-.12-.69-.19-1.25-.2h-.64s-.45,18.86-.45,18.86l1.02.02Z"/><path class="cls-1" d="M213.21,302.54l.69-29.1,5.62.13-.69,29.1-5.62-.13Z"/><path class="cls-1" d="M222.4,301.06c-1.14-1.34-1.68-3.46-1.61-6.38l.07-2.85,5.73.14-.09,3.62c-.03,1.45.41,2.18,1.34,2.2.52.01.88-.13,1.09-.43.21-.3.32-.81.34-1.53.02-.95-.07-1.74-.28-2.36-.21-.63-.49-1.15-.83-1.58-.34-.43-.95-1.09-1.83-1.99l-2.45-2.57c-1.9-1.94-2.82-4.07-2.76-6.37.06-2.49.67-4.36,1.84-5.64,1.17-1.27,2.85-1.88,5.04-1.83,2.62.06,4.49.8,5.61,2.22,1.12,1.42,1.64,3.6,1.57,6.56l-5.93-.14v-2c.02-.38-.08-.69-.29-.92-.21-.23-.51-.35-.89-.36-.45-.01-.79.1-1.03.35s-.35.58-.36,1.01c-.02.95.5,1.94,1.56,2.99l3.31,3.33c.77.79,1.41,1.53,1.91,2.23.5.7.9,1.52,1.2,2.47.29.94.42,2.06.39,3.35-.07,2.87-.64,5.03-1.73,6.49-1.08,1.46-2.84,2.15-5.25,2.1-2.64-.06-4.54-.76-5.68-2.1Z"/><path class="cls-1" d="M238.02,301.43c-1.14-1.34-1.68-3.46-1.61-6.38l.07-2.85,5.73.14-.09,3.62c-.03,1.45.41,2.18,1.34,2.2.52.01.88-.13,1.09-.43.21-.3.32-.81.34-1.53.02-.95-.07-1.74-.28-2.36-.21-.63-.49-1.15-.83-1.58-.34-.43-.95-1.09-1.83-1.99l-2.45-2.57c-1.9-1.94-2.82-4.07-2.76-6.37.06-2.49.67-4.36,1.85-5.63,1.17-1.27,2.85-1.88,5.04-1.83,2.62.06,4.49.8,5.61,2.22,1.12,1.42,1.64,3.6,1.57,6.56l-5.93-.14v-2c.02-.38-.08-.69-.29-.92-.21-.23-.51-.35-.89-.36-.45-.01-.79.11-1.03.35-.23.24-.35.58-.36,1.01-.02.95.5,1.94,1.56,2.99l3.31,3.33c.77.79,1.41,1.53,1.91,2.23.5.7.9,1.52,1.2,2.47.29.95.43,2.06.4,3.35-.07,2.87-.65,5.03-1.73,6.48-1.08,1.46-2.84,2.15-5.25,2.1-2.64-.06-4.54-.76-5.68-2.1Z"/><path class="cls-1" d="M262.84,303.71l.56-23.51-3.46-.08.13-5.59,12.74.3-.13,5.59-3.46-.08-.56,23.51-5.83-.14Z"/><path class="cls-1" d="M274.44,274.87l8.95.21c1.42.03,2.52.38,3.28,1.04.76.66,1.27,1.58,1.51,2.75.24,1.17.34,2.66.3,4.46-.04,1.65-.28,2.93-.74,3.85s-1.21,1.54-2.28,1.88c.88.2,1.5.66,1.88,1.37.38.71.55,1.66.53,2.86l-.33,11.01-5.69-.13.27-11.38c.02-.81-.13-1.34-.44-1.57-.31-.23-.88-.36-1.72-.38l-.31,13.28-5.9-.14.69-29.1ZM281.51,285.82c.81.02,1.24-.85,1.28-2.61.02-.77,0-1.34-.06-1.73-.06-.39-.18-.65-.35-.8-.18-.15-.44-.23-.77-.24l-1.35-.03-.13,5.39,1.39.03Z"/><path class="cls-1" d="M289.13,304.34l3.5-29.04,9.86.23,2.09,29.17-5.52-.13-.3-4.72-3.52-.08-.45,4.7-5.66-.13ZM295.79,295.14l2.64.06-.94-14.84h-.27s-1.44,14.77-1.44,14.77Z"/><path class="cls-1" d="M308.06,303.06c-1.25-1.36-1.84-3.21-1.78-5.53l.32-13.42c.07-2.89.7-5.06,1.88-6.5,1.19-1.44,3.01-2.13,5.47-2.07,2.15.05,3.86.68,5.14,1.88,1.28,1.21,1.9,2.92,1.84,5.13l-.12,5.01-5.79-.14.1-4.3c.02-.84-.07-1.41-.26-1.74-.2-.32-.54-.49-1.04-.5-.52-.01-.88.16-1.08.52-.2.36-.31.89-.33,1.59l-.35,14.6c-.02.77.08,1.33.3,1.69.22.35.55.54,1,.55.9.02,1.37-.7,1.41-2.17l.12-5.25,5.86.14-.13,5.49c-.12,4.88-2.62,7.26-7.53,7.14-2.12-.05-3.81-.76-5.05-2.12Z"/><path class="cls-1" d="M322.4,305.13l.69-29.1,5.76.14-.28,11.66,2.99-11.59,5.86.14-3.57,13.24,3.56,15.88-6.03-.14-2.85-14.17-.33,14.09-5.79-.14Z"/><path class="cls-1" d="M339.62,303.84c-1.14-1.34-1.68-3.46-1.61-6.38l.07-2.85,5.73.14-.09,3.62c-.03,1.45.41,2.18,1.34,2.2.52.01.88-.13,1.09-.43s.32-.81.34-1.53c.02-.95-.07-1.74-.28-2.36-.21-.63-.49-1.15-.83-1.58-.34-.43-.95-1.09-1.83-1.99l-2.45-2.57c-1.9-1.94-2.82-4.07-2.76-6.37.06-2.49.67-4.36,1.84-5.64,1.17-1.27,2.85-1.88,5.04-1.83,2.62.06,4.49.8,5.61,2.22,1.12,1.42,1.64,3.6,1.57,6.56l-5.93-.14v-2c.02-.38-.08-.69-.29-.92-.21-.23-.51-.35-.89-.36-.45-.01-.79.1-1.03.35-.23.24-.35.58-.36,1.01-.02.95.5,1.94,1.56,2.99l3.31,3.33c.77.79,1.41,1.53,1.91,2.23.5.7.9,1.52,1.2,2.47.29.94.43,2.06.4,3.35-.07,2.87-.65,5.03-1.73,6.49-1.08,1.45-2.84,2.15-5.25,2.1-2.64-.06-4.54-.76-5.68-2.1Z"/></g></svg>