<?xml version="1.0" encoding="UTF-8"?><svg id="Layer_2" xmlns="http://www.w3.org/2000/svg" viewBox="0 0 43.1 38.95"><defs><style>.cls-1{fill:#0e191f;}</style></defs><g id="Module_3.2"><path class="cls-1" d="M.04,29.61l-.04-9.18c1.1-.36,2.25-.5,3.37-.83,3.74-1.09,7.52-3.25,9.56-6.66.94-1.57,1.25-3.31,2.06-4.9C18.31,1.54,26.14-1.61,33.08.81c5.66,1.97,9.58,7.32,10.01,13.33v24.53c.02.08-.06.27-.12.27h-19.7s-.12-.11-.12-.12v-9.22H.04ZM19.91,21.7c.07.09.04.33.32.32.57.93,2.49,2.17,3.51,2.62,3.39,1.52,7.05.89,10.66,1.01v3.84s-.11.12-.12.12h-7.16v5.1s.1.12.08.2h11.75c.07,0,.14-.19.12-.27V13.68c-.92-8.26-10.51-12.61-17.28-7.55-5.09,3.8-5.67,10.63-1.87,15.57ZM4,23.64v2.02h14.09c-.14-.31-.46-.5-.68-.74-1.67-1.84-3.06-4.24-3.51-6.69-.12-.03-.13.03-.2.08-.27.19-.65.63-.95.87-1.65,1.33-3.54,2.46-5.5,3.28-1.06.45-2.18.75-3.24,1.19Z"/><path class="cls-1" d="M20.22,22.02c-.27.02-.25-.23-.32-.32.27,0,.24.2.32.32Z"/><circle class="cls-1" cx="28.22" cy="14.45" r="2.85"/></g></svg>