<?xml version="1.0" encoding="UTF-8"?><svg id="Layer_2" xmlns="http://www.w3.org/2000/svg" viewBox="0 0 581.24 865.82"><defs><style>.cls-1{fill:#0e191f;}</style></defs><g id="Wireframe"><path class="cls-1" d="M482.41,94.44H192.77v269.28h289.64v-53.3h98.83v200.56c0,.1-1.36,1.4-1.47,1.4h-95.9c-.1,0-1.47-1.3-1.47-1.4v-51.89H192.77v312.29h94.43c.1,0,1.47,1.3,1.47,1.4v93.03H0v-93.5c.96.3,2.12-.94,2.45-.94h90.51v-312.29H1.47c-.1,0-1.47-1.3-1.47-1.4v-93.03c.96.3,2.12-.94,2.45-.94h90.51V95.84c0-.1-1.36-1.4-1.47-1.4H0V1.4c0-.1,1.36-1.4,1.47-1.4h578.31c.1,0,1.47,1.3,1.47,1.4v151.47c0,.1-1.36,1.4-1.47,1.4h-95.9c-.1,0-1.47-1.3-1.47-1.4v-58.44Z"/></g></svg>