<?xml version="1.0" encoding="UTF-8"?><svg id="Layer_2" xmlns="http://www.w3.org/2000/svg" viewBox="0 0 386.84 407.67"><defs><style>.cls-1{fill:#faf0e0;}.cls-2{fill:none;stroke:#faf0e0;stroke-miterlimit:10;stroke-width:2px;}</style></defs><g id="Wireframe"><path class="cls-1" d="M8.63,91.88c-3.62-4.04-5.43-10.55-5.43-19.54v-8.78h17.66v11.18c0,4.46,1.43,6.69,4.28,6.69,1.6,0,2.72-.47,3.34-1.41s.94-2.52.94-4.75c0-2.93-.35-5.34-1.04-7.26-.7-1.92-1.58-3.52-2.66-4.81-1.08-1.29-3.01-3.29-5.8-6.01l-7.73-7.73c-5.99-5.85-8.98-12.33-8.98-19.43,0-7.66,1.76-13.49,5.28-17.5,3.52-4,8.65-6.01,15.41-6.01,8.08,0,13.89,2.14,17.45,6.42,3.55,4.28,5.33,10.99,5.33,20.11h-18.28l-.1-6.16c0-1.18-.33-2.12-.99-2.82-.66-.7-1.58-1.04-2.77-1.04-1.39,0-2.44.38-3.13,1.15-.7.77-1.04,1.81-1.04,3.13,0,2.92,1.67,5.96,5.01,9.09l10.45,10.03c2.44,2.37,4.46,4.61,6.06,6.74,1.6,2.12,2.89,4.63,3.87,7.52.97,2.89,1.46,6.32,1.46,10.29,0,8.85-1.62,15.55-4.86,20.11-3.24,4.56-8.58,6.84-16.04,6.84-8.15,0-14.04-2.02-17.66-6.06Z"/><path class="cls-1" d="M58.04,91.31c-3.76-4.42-5.64-10.64-5.64-18.65V29.93c0-7.73,1.88-13.56,5.64-17.5,3.76-3.93,9.26-5.9,16.51-5.9s12.75,1.97,16.51,5.9c3.76,3.94,5.64,9.77,5.64,17.5v42.73c0,8.08-1.88,14.31-5.64,18.7s-9.26,6.58-16.51,6.58-12.75-2.21-16.51-6.63ZM77.79,79.34c.56-1.39.84-3.34.84-5.85V29.62c0-1.95-.26-3.53-.78-4.75-.52-1.22-1.58-1.83-3.19-1.83-3,0-4.49,2.26-4.49,6.79v43.77c0,2.58.31,4.53.94,5.85.63,1.32,1.78,1.98,3.45,1.98s2.68-.7,3.24-2.09Z"/><path class="cls-1" d="M103.9,97.1V7.36h27.37l7.52,54.74,7.52-54.74h27.58v89.74h-16.4V32.44l-10.34,64.67h-16.09l-10.97-64.67v64.67h-16.19Z"/><path class="cls-1" d="M181.84,97.1V7.36h35.94v17.34h-17.66v17.45h16.92v16.92h-16.92v20.58h18.8v17.45h-37.09Z"/><path class="cls-1" d="M9.88,183.48c-3.76-4.42-5.64-10.64-5.64-18.65v-42.73c0-7.73,1.88-13.56,5.64-17.5,3.76-3.93,9.26-5.9,16.51-5.9s12.75,1.97,16.51,5.9c3.76,3.94,5.64,9.77,5.64,17.5v42.73c0,8.08-1.88,14.31-5.64,18.7s-9.26,6.58-16.51,6.58-12.75-2.21-16.51-6.63ZM29.62,171.51c.56-1.39.84-3.34.84-5.85v-43.88c0-1.95-.26-3.53-.78-4.75-.52-1.22-1.58-1.83-3.19-1.83-3,0-4.49,2.26-4.49,6.79v43.77c0,2.58.31,4.53.94,5.85.63,1.32,1.78,1.98,3.45,1.98s2.68-.7,3.24-2.09Z"/><path class="cls-1" d="M55.74,189.27v-89.74h35.94v17.45h-17.87v14.31h16.92v17.24h-16.92v40.74h-18.07Z"/><path class="cls-1" d="M126.78,183.48c-3.76-4.42-5.64-10.64-5.64-18.65v-42.73c0-7.73,1.88-13.56,5.64-17.5,3.76-3.93,9.26-5.9,16.51-5.9s12.75,1.97,16.51,5.9c3.76,3.94,5.64,9.77,5.64,17.5v42.73c0,8.08-1.88,14.31-5.64,18.7s-9.26,6.58-16.51,6.58-12.75-2.21-16.51-6.63ZM146.52,171.51c.56-1.39.84-3.34.84-5.85v-43.88c0-1.95-.26-3.53-.78-4.75-.52-1.22-1.58-1.83-3.19-1.83-3,0-4.49,2.26-4.49,6.79v43.77c0,2.58.31,4.53.94,5.85.63,1.32,1.78,1.98,3.45,1.98s2.68-.7,3.24-2.09Z"/><path class="cls-1" d="M176.98,183.84c-3.59-4.18-5.38-10.38-5.38-18.6v-65.71h17.45v64.98c0,2.86.28,5.08.84,6.69.56,1.6,1.74,2.4,3.55,2.4s2.99-.78,3.55-2.35c.56-1.57.84-3.81.84-6.74v-64.98h17.45v65.71c0,8.22-1.79,14.42-5.38,18.6-3.59,4.18-9.07,6.27-16.45,6.27s-12.87-2.09-16.45-6.27Z"/><path class="cls-1" d="M222.16,99.53h27.58c4.39,0,7.78.99,10.19,2.98,2.4,1.98,4.02,4.77,4.86,8.36.84,3.59,1.25,8.17,1.25,13.74,0,5.08-.66,9.05-1.99,11.91-1.32,2.86-3.62,4.84-6.89,5.96,2.72.56,4.68,1.92,5.9,4.07,1.22,2.16,1.83,5.08,1.83,8.78l-.21,33.95h-17.55v-35.1c0-2.51-.49-4.11-1.46-4.81-.98-.7-2.75-1.04-5.33-1.04v40.95h-18.18v-89.74ZM244.72,132.76c2.51,0,3.76-2.72,3.76-8.15,0-2.37-.1-4.14-.31-5.33-.21-1.18-.59-2-1.15-2.46-.56-.45-1.36-.68-2.4-.68h-4.18v16.61h4.28Z"/><path class="cls-2" d="M4.97,281.44v-89.74h35.94v17.45h-17.87v14.31h16.92v17.24h-16.92v40.74H4.97Z"/><path class="cls-2" d="M44.25,281.44l8.67-89.74h30.4l8.57,89.74h-17.03l-1.25-14.52h-10.86l-1.04,14.52h-17.45ZM64.1,252.61h8.15l-3.97-45.65h-.84l-3.34,45.65Z"/><path class="cls-2" d="M103.38,281.44l-11.07-89.84h17.13l6.58,61.12,5.85-61.12h17.13l-11.07,89.84h-24.55Z"/><path class="cls-2" d="M149.03,275.65c-3.76-4.42-5.64-10.64-5.64-18.65v-42.73c0-7.73,1.88-13.56,5.64-17.5,3.76-3.93,9.26-5.9,16.51-5.9s12.75,1.97,16.51,5.9c3.76,3.94,5.64,9.77,5.64,17.5v42.73c0,8.08-1.88,14.31-5.64,18.7s-9.26,6.58-16.51,6.58-12.75-2.21-16.51-6.63ZM168.78,263.68c.56-1.39.84-3.34.84-5.85v-43.88c0-1.95-.26-3.53-.78-4.75-.52-1.22-1.58-1.83-3.19-1.83-3,0-4.49,2.26-4.49,6.79v43.77c0,2.58.31,4.53.94,5.85.63,1.32,1.78,1.98,3.45,1.98s2.68-.7,3.24-2.09Z"/><path class="cls-2" d="M194.89,191.7h27.58c4.39,0,7.78.99,10.19,2.98,2.4,1.98,4.02,4.77,4.86,8.36.84,3.59,1.25,8.17,1.25,13.74,0,5.08-.66,9.05-1.99,11.91-1.32,2.86-3.62,4.84-6.89,5.96,2.72.56,4.68,1.92,5.9,4.07,1.22,2.16,1.83,5.08,1.83,8.78l-.21,33.95h-17.55v-35.1c0-2.51-.49-4.11-1.46-4.81-.98-.7-2.75-1.04-5.33-1.04v40.95h-18.18v-89.74ZM217.46,224.93c2.51,0,3.76-2.72,3.76-8.15,0-2.37-.1-4.14-.31-5.33-.21-1.18-.59-2-1.15-2.46-.56-.45-1.36-.68-2.4-.68h-4.18v16.61h4.28Z"/><path class="cls-2" d="M243.89,281.44v-89.74h17.34v89.74h-17.34Z"/><path class="cls-2" d="M276.17,281.44v-72.5h-10.66v-17.24h39.28v17.24h-10.66v72.5h-17.97Z"/><path class="cls-2" d="M309.81,281.44v-89.74h35.94v17.34h-17.66v17.45h16.92v16.92h-16.92v20.58h18.8v17.45h-37.09Z"/><path class="cls-1" d="M4.97,283.87h23.71c7.17,0,12.29,2.32,15.36,6.95,3.06,4.63,4.6,11.41,4.6,20.32s-1.36,15.64-4.07,20.16c-2.72,4.53-7.59,6.79-14.63,6.79h-7.31v35.52H4.97v-89.74ZM23.67,321.9c2.16,0,3.74-.4,4.75-1.2,1.01-.8,1.67-1.95,1.98-3.45.31-1.5.47-3.64.47-6.42,0-3.76-.42-6.48-1.25-8.15s-2.51-2.51-5.01-2.51h-1.99v21.73h1.04Z"/><path class="cls-1" d="M54.28,283.87h27.58c4.39,0,7.78.99,10.19,2.98,2.4,1.98,4.02,4.77,4.86,8.36.84,3.59,1.25,8.17,1.25,13.74,0,5.08-.66,9.05-1.99,11.91-1.32,2.86-3.62,4.84-6.89,5.96,2.72.56,4.68,1.92,5.9,4.07,1.22,2.16,1.83,5.08,1.83,8.78l-.21,33.95h-17.55v-35.1c0-2.51-.49-4.11-1.46-4.81-.98-.7-2.75-1.04-5.33-1.04v40.95h-18.18v-89.74ZM76.84,317.1c2.51,0,3.76-2.72,3.76-8.15,0-2.37-.1-4.14-.31-5.33-.21-1.18-.59-2-1.15-2.46-.56-.45-1.36-.68-2.4-.68h-4.18v16.61h4.28Z"/><path class="cls-1" d="M109.02,367.82c-3.76-4.42-5.64-10.64-5.64-18.65v-42.73c0-7.73,1.88-13.56,5.64-17.5,3.76-3.93,9.26-5.9,16.51-5.9s12.75,1.97,16.51,5.9c3.76,3.94,5.64,9.77,5.64,17.5v42.73c0,8.08-1.88,14.31-5.64,18.7s-9.26,6.58-16.51,6.58-12.75-2.21-16.51-6.63ZM128.76,355.85c.56-1.39.84-3.34.84-5.85v-43.88c0-1.95-.26-3.53-.78-4.75-.52-1.22-1.58-1.83-3.19-1.83-3,0-4.49,2.26-4.49,6.79v43.77c0,2.58.31,4.53.94,5.85.63,1.32,1.78,1.98,3.45,1.98s2.68-.7,3.24-2.09Z"/><path class="cls-1" d="M163.66,372.05c-3.34-1.6-5.97-3.95-7.89-7.05-1.92-3.1-2.87-6.84-2.87-11.23v-22.46h17.66v21.42c0,1.6.33,2.87.99,3.81.66.94,1.69,1.41,3.08,1.41,1.32,0,2.31-.43,2.98-1.31.66-.87.99-2.11.99-3.71v-69.05h18.07v67.28c0,4.67-.92,8.76-2.77,12.28-1.85,3.52-4.42,6.23-7.73,8.15-3.31,1.92-7.09,2.87-11.33,2.87s-7.83-.8-11.18-2.4Z"/><path class="cls-1" d="M203.56,373.61v-89.74h35.94v17.34h-17.66v17.45h16.92v16.92h-16.92v20.58h18.8v17.45h-37.09Z"/><path class="cls-1" d="M251.78,368.29c-3.94-4.11-5.9-9.75-5.9-16.92v-41.37c0-8.91,1.78-15.63,5.33-20.16,3.55-4.53,9.12-6.79,16.72-6.79,6.62,0,11.94,1.81,15.98,5.43,4.04,3.62,6.06,8.85,6.06,15.67v15.46h-17.86v-13.27c0-2.58-.31-4.35-.94-5.33-.63-.97-1.71-1.46-3.24-1.46s-2.7.56-3.29,1.67c-.59,1.12-.89,2.75-.89,4.91v45.03c0,2.37.35,4.09,1.04,5.17.7,1.08,1.74,1.62,3.13,1.62,2.78,0,4.18-2.26,4.18-6.79v-16.19h18.07v16.92c0,15.04-7.56,22.57-22.67,22.57-6.55,0-11.79-2.05-15.72-6.16Z"/><path class="cls-1" d="M303.85,373.61v-72.5h-10.66v-17.24h39.28v17.24h-10.66v72.5h-17.97Z"/><path class="cls-1" d="M341.15,368.39c-3.62-4.04-5.43-10.55-5.43-19.54v-8.78h17.66v11.18c0,4.46,1.43,6.69,4.28,6.69,1.6,0,2.72-.47,3.34-1.41s.94-2.52.94-4.75c0-2.93-.35-5.34-1.04-7.26-.7-1.92-1.58-3.52-2.66-4.81-1.08-1.29-3.01-3.29-5.8-6.01l-7.73-7.73c-5.99-5.85-8.98-12.33-8.98-19.43,0-7.66,1.76-13.49,5.28-17.5,3.52-4,8.65-6.01,15.41-6.01,8.08,0,13.89,2.14,17.45,6.42,3.55,4.28,5.33,10.99,5.33,20.11h-18.28l-.1-6.16c0-1.18-.33-2.12-.99-2.82-.66-.7-1.58-1.04-2.77-1.04-1.39,0-2.44.38-3.13,1.15-.7.77-1.04,1.81-1.04,3.13,0,2.92,1.67,5.96,5.01,9.09l10.45,10.03c2.44,2.37,4.46,4.61,6.06,6.74,1.6,2.12,2.89,4.63,3.87,7.52.97,2.89,1.46,6.32,1.46,10.29,0,8.85-1.62,15.55-4.86,20.11-3.24,4.56-8.58,6.84-16.04,6.84-8.15,0-14.04-2.02-17.66-6.06Z"/></g></svg>