<?xml version="1.0" encoding="UTF-8"?><svg id="Layer_2" xmlns="http://www.w3.org/2000/svg" viewBox="0 0 297.22 368.29"><defs><style>.cls-1{fill:#faf0e0;font-family:Anton-Regular, Anton;font-size:33.89px;}.cls-2{fill:#f03010;}</style></defs><g id="Wireframe"><path class="cls-2" d="M269.24,333.13c-.93-.88-1.23-3.57-1.84-4.74-.72-1.38-3.13-1.73-3.32-3.27-.31-2.49,2.17-8.03,2.52-11.06.27-2.4.35-4.16-.81-6.3-1.97-3.63-3.94-2.43-6.44-4.13-.22-.15-2.75-2.2-3.01-2.45-.34-.32-3.7-4.02-3.54-4.24.04-.05.74-.01,1.08-.46.45-.58,1.59-3.92,2.08-4.97.16-.35.7-.38.92-.98.72-2.01-1.15-5.74,2.17-4.53.87.32,2.27,1.99,2.88,1.94,1.97-.17.24-6.87.2-8.16-.02-.43.05-3.7.1-3.88.43-1.66,3.11-1.3,4.05-3.13.27-.53.63-5.37.49-6.13-.47-2.54-2.11-3.95-4.52-4.74-2.01-.66-5.35.59-5.89-1.9,5.5-1.28,9.71-3.22,10.56-9.28.83-5.88-1.68-15.89-4.69-20.85-.74-1.23-1.97-1.67-2.2-2.03-.4-.63-.37-2.23-1.16-3.52-2.87-4.66-10.3-14.03-14.87-16.81-3.66-2.22-8.01-3.48-11.48-6.24-.44-.35-.55-1.21-.7-1.32-.18-.13-2.77.25-4.38-.27-6.13-1.97-11.87-4.35-18.12-6.27-11.03-3.39-22.48-7.57-34.28-8.07-2.34-.1-5.14.31-7.45.33-5.76.05-14.39.12-22.08,1.06.71-.59,1.33-1.18,1.71-1.8.82-1.32,1.03-3.28,1.58-4.49.11-.24.7-.28.72-.33.1-.24.08-4.4.05-5.14-.13-3.94-3.41-11.61-6.44-14.07-.87-.71-4.79-2.21-5.05-2.97.33-1.38-.26-2.55-.4-3.83-1.43-13.58-1.66-28.94-2.54-42.72-1.58-24.51-2.7-49.18-4.44-73.62-.16-2.25-1.66-11.83-.98-13.3.37-.8,1.99-1.23,1.69-2.43-.09-.37-2.13-3.22-2.32-3.29-.2-.07-.72.3-1.2.23-1.17-.17-2.6-.51-3.88-.59-2.68-.16-3.48.71-6.18-.95-6.88-4.23-11.41-6.55-20.27-6.64-3.06-.03-5.39-.48-8.41-.88-2.37-.31-3.68.54-5.31.63-.19.01-.15-.64-.35-.71-.17-.05-2.42.53-3.41.34-.29-.06-.26-.59-.36-.64-.17-.08-.48.22-.58.14-.39-.29-1.03-1.39-1.54-1.8-1.62-1.32-3.58-2.97-5.27-4.09-1.54-1.02-7.89-4.18-9.48-3.79-1.34.33-2.42,1.89-3.16,2.98-1.12,1.64-2.44,3.89-3.65,5.75-.07.11.22.45.14.57-.82,1.22-2.12,2.16-2.8,3.54-1.32.34-3.21,1.43-4.36,1.76-4.89,1.41-10.41,1.53-15.26,4.05-3.42,1.77-6.44,4.93-9.72,6.51-2.18,1.05-12.12,5.2-13.19,6.64-.05.07.4.63.34.71-.09.11-1.94.71-2.54,1.32-.96.97-1.08,2.61-2.03,3.56-1.15,1.15-6.45,3.34-6.59,4.59-.29,2.57,1.82,3,2.86,4.55,1.95,2.91,2.75,9.97,3.9,13.58,1.29,4.06,2.44,8.14,3.66,12.28,10.83,36.92,21.85,73.81,32.87,110.95.3,1.01,1.35,2.29,1.57,3.37.32,1.56-.42,3.84-.32,5.21.35,4.85,4.08,8.93,5.74,13.64,2.38,6.76,3.97,14.41,6.13,21.32,2.8,8.97,5.94,17.44,8.64,26.44.6,1.98.46,5.71,2.28,6.97.4.28.99.25,1.39.46,1.18.63,1.28.46,2.57.96.62.24,1.12.94,1.78,1.14.45.14,4.58-.49,5.78-.5,8.86-.11,14.88-.82,22.73-1.97,1.08,1.92,2.38,3.44,2.4,4.89,0,.16-.83,2.96-.92,3.13-1.45,2.77-5.94,4.75-8.06,6.85-2.51,2.48-3.96,6.33-5.75,9.16-2.5,3.95-2.4,1.51-4.9,1.36-2.07-.12-3.78,2.78-3.69,4.71.05,1.02,1.51,2.61,1.5,3.95-.03,2.83-2.19,8.67-.66,11.47,1.19,2.18,9.68,4.2,10.25,5.09,1.09,1.69-.83,5.02-.84,7.04-.07,12.71,10.87,20.27,20.73,25.1,7.61,3.73,16.16,7.45,24.02,10.24,12.84,4.56,26.28,7.81,39.69,10.5,15.44,3.11,30.96,6.54,46.63,2.6,4.96-1.25,14.49-8.09,17.89-11.95.79-.89,5.09-7.26,5.55-7.31,2.45.67,3.32,2.6,5.02,3.95.75.6,2.05,1.05,3,1.8.57.45.77,1.35,1.32,1.79,3.4,2.71,3.39-1.71,5.8-3.17.82-.5,1.82.05,2.45-.6.82-.85.23-2.63.63-3.84.33-1.02,1.27-1.09,1.46-1.43.83-1.53,1.91-5.97,2.48-6.87.52-.82,5.03-3.2,4.77-4.33-.23-1-2.56-.86-3.15-1.42ZM247.82,290.15c-.47.67-2.76.44-3.01.11-.47-.63,2.17-5.27,2.56-6.12.43-.92-.24-3.01,2.08-2.31,2.02.61-1.36,7.01-1.63,8.32Z"/><text class="cls-1" transform="translate(95 284.71) rotate(-1.05)"><tspan x="0" y="0">ARBY’S GOOD </tspan><tspan x="20.88" y="32.81">BURGER 2</tspan></text></g></svg>