<?xml version="1.0" encoding="UTF-8"?><svg id="Layer_2" xmlns="http://www.w3.org/2000/svg" viewBox="0 0 272.41 368.29"><defs><style>.cls-1{fill:#faf0e0;}.cls-2{fill:#f03010;}</style></defs><g id="Wireframe"><path class="cls-2" d="M269.24,333.13c-.93-.88-1.23-3.57-1.84-4.74-.72-1.38-3.13-1.73-3.32-3.27-.31-2.49,2.17-8.03,2.52-11.06.27-2.4.35-4.16-.81-6.3-1.97-3.63-3.94-2.43-6.44-4.13-.22-.15-2.75-2.2-3.01-2.45-.34-.32-3.7-4.02-3.54-4.24.04-.05.74-.01,1.08-.46.45-.58,1.59-3.92,2.08-4.97.16-.35.7-.38.92-.98.72-2.01-1.15-5.74,2.17-4.53.87.32,2.27,1.99,2.88,1.94,1.97-.17.24-6.87.2-8.16-.02-.43.05-3.7.1-3.88.43-1.66,3.11-1.3,4.05-3.13.27-.53.63-5.37.49-6.13-.47-2.54-2.11-3.95-4.52-4.74-2.01-.66-5.35.59-5.89-1.9,5.5-1.28,9.71-3.22,10.56-9.28.83-5.88-1.68-15.89-4.69-20.85-.74-1.23-1.97-1.67-2.2-2.03-.4-.63-.37-2.23-1.16-3.52-2.87-4.66-10.3-14.03-14.87-16.81-3.66-2.22-8.01-3.48-11.48-6.24-.44-.35-.55-1.21-.7-1.32-.18-.13-2.77.25-4.38-.27-6.13-1.97-11.87-4.35-18.12-6.27-11.03-3.39-22.48-7.57-34.28-8.07-2.34-.1-5.14.31-7.45.33-5.76.05-14.39.12-22.08,1.06.71-.59,1.33-1.18,1.71-1.8.82-1.32,1.03-3.28,1.58-4.49.11-.24.7-.28.72-.33.1-.24.08-4.4.05-5.14-.13-3.94-3.41-11.61-6.44-14.07-.87-.71-4.79-2.21-5.05-2.97.33-1.38-.26-2.55-.4-3.83-1.43-13.58-1.66-28.94-2.54-42.72-1.58-24.51-2.7-49.18-4.44-73.62-.16-2.25-1.66-11.83-.98-13.3.37-.8,1.99-1.23,1.69-2.43-.09-.37-2.13-3.22-2.32-3.29-.2-.07-.72.3-1.2.23-1.17-.17-2.6-.51-3.88-.59-2.68-.16-3.48.71-6.18-.95-6.88-4.23-11.41-6.55-20.27-6.64-3.06-.03-5.39-.48-8.41-.88-2.37-.31-3.68.54-5.31.63-.19.01-.15-.64-.35-.71-.17-.05-2.42.53-3.41.34-.29-.06-.26-.59-.36-.64-.17-.08-.48.22-.58.14-.39-.29-1.03-1.39-1.54-1.8-1.62-1.32-3.58-2.97-5.27-4.09-1.54-1.02-7.89-4.18-9.48-3.79-1.34.33-2.42,1.89-3.16,2.98-1.12,1.64-2.44,3.89-3.65,5.75-.07.11.22.45.14.57-.82,1.22-2.12,2.16-2.8,3.54-1.32.34-3.21,1.43-4.36,1.76-4.89,1.41-10.41,1.53-15.26,4.05-3.42,1.77-6.44,4.93-9.72,6.51-2.18,1.05-12.12,5.2-13.19,6.64-.05.07.4.63.34.71-.09.11-1.94.71-2.54,1.32-.96.97-1.08,2.61-2.03,3.56-1.15,1.15-6.45,3.34-6.59,4.59-.29,2.57,1.82,3,2.86,4.55,1.95,2.91,2.75,9.97,3.9,13.58,1.29,4.06,2.44,8.14,3.66,12.28,10.83,36.92,21.85,73.81,32.87,110.95.3,1.01,1.35,2.29,1.57,3.37.32,1.56-.42,3.84-.32,5.21.35,4.85,4.08,8.93,5.74,13.64,2.38,6.76,3.97,14.41,6.13,21.32,2.8,8.97,5.94,17.44,8.64,26.44.6,1.98.46,5.71,2.28,6.97.4.28.99.25,1.39.46,1.18.63,1.28.46,2.57.96.62.24,1.12.94,1.78,1.14.45.14,4.58-.49,5.78-.5,8.86-.11,14.88-.82,22.73-1.97,1.08,1.92,2.38,3.44,2.4,4.89,0,.16-.83,2.96-.92,3.13-1.45,2.77-5.94,4.75-8.06,6.85-2.51,2.48-3.96,6.33-5.75,9.16-2.5,3.95-2.4,1.51-4.9,1.36-2.07-.12-3.78,2.78-3.69,4.71.05,1.02,1.51,2.61,1.5,3.95-.03,2.83-2.19,8.67-.66,11.47,1.19,2.18,9.68,4.2,10.25,5.09,1.09,1.69-.83,5.02-.84,7.04-.07,12.71,10.87,20.27,20.73,25.1,7.61,3.73,16.16,7.45,24.02,10.24,12.84,4.56,26.28,7.81,39.69,10.5,15.44,3.11,30.96,6.54,46.63,2.6,4.96-1.25,14.49-8.09,17.89-11.95.79-.89,5.09-7.26,5.55-7.31,2.45.67,3.32,2.6,5.02,3.95.75.6,2.05,1.05,3,1.8.57.45.77,1.35,1.32,1.79,3.4,2.71,3.39-1.71,5.8-3.17.82-.5,1.82.05,2.45-.6.82-.85.23-2.63.63-3.84.33-1.02,1.27-1.09,1.46-1.43.83-1.53,1.91-5.97,2.48-6.87.52-.82,5.03-3.2,4.77-4.33-.23-1-2.56-.86-3.15-1.42ZM247.82,290.15c-.47.67-2.76.44-3.01.11-.47-.63,2.17-5.27,2.56-6.12.43-.92-.24-3.01,2.08-2.31,2.02.61-1.36,7.01-1.63,8.32Z"/><path class="cls-1" d="M95.51,284.7l2.28-29.16,9.86-.18,3.31,29.06-5.52.1-.49-4.7-3.52.06-.25,4.72-5.66.1ZM101.77,275.23l2.64-.05-1.56-14.79h-.27s-.81,14.83-.81,14.83Z"/><path class="cls-1" d="M112.19,255.27l8.95-.16c1.42-.03,2.53.28,3.32.91.79.63,1.33,1.52,1.63,2.68.29,1.16.45,2.64.49,4.45.03,1.65-.16,2.94-.57,3.88-.41.93-1.15,1.59-2.2,1.97.88.17,1.53.59,1.94,1.29.41.69.62,1.64.65,2.84l.13,11.01-5.69.1-.21-11.38c-.01-.81-.18-1.33-.5-1.55-.32-.22-.9-.32-1.73-.31l.24,13.28-5.9.11-.53-29.11ZM119.7,265.92c.81-.01,1.2-.9,1.17-2.67-.01-.77-.06-1.34-.13-1.73-.07-.38-.2-.64-.39-.79-.18-.14-.44-.21-.78-.21l-1.35.02.1,5.39,1.39-.03Z"/><path class="cls-1" d="M128.35,254.98l7.89-.14c2.12-.04,3.67.45,4.65,1.47.98,1.02,1.49,2.71,1.53,5.06l.02,1.29c.05,2.78-.91,4.46-2.89,5.04,1.23.29,2.1,1.01,2.61,2.15.52,1.14.8,2.66.83,4.56.06,3.09-.36,5.45-1.26,7.06-.9,1.61-2.55,2.44-4.97,2.48l-7.89.14-.53-29.11ZM135.43,265.8c.5,0,.83-.2,1.01-.58.17-.38.25-.9.24-1.58l-.05-2.91c-.02-.95-.44-1.42-1.28-1.4l-1.22.02.12,6.47,1.19-.02ZM137.29,276.65l-.07-3.63c-.02-.88-.16-1.54-.43-1.99-.27-.45-.73-.67-1.38-.65l-1.08.02.15,8.44.58.02c1.51-.03,2.26-.76,2.23-2.21Z"/><path class="cls-1" d="M148.64,283.72l-.18-9.59-5-19.43,5.76-.11,1.81,9.83,1.45-9.89,5.76-.11-4.29,19.6.18,9.59-5.49.1Z"/><path class="cls-1" d="M160.39,262.93l1.01-3.95-2.1.04-.09-4.91,6.2-.11.09,4.78-1.62,4.1-3.49.06Z"/><path class="cls-1" d="M169.24,281.65c-1.2-1.29-1.82-3.39-1.88-6.3l-.05-2.85,5.73-.11.07,3.62c.03,1.45.5,2.16,1.43,2.14.52,0,.88-.17,1.08-.48s.29-.82.28-1.55c-.02-.95-.14-1.73-.38-2.35-.24-.62-.54-1.13-.89-1.54-.36-.41-1-1.05-1.92-1.92l-2.55-2.46c-1.98-1.86-2.99-3.95-3.03-6.25-.05-2.49.49-4.39,1.61-5.71,1.12-1.32,2.77-2,4.96-2.04,2.62-.05,4.52.61,5.7,1.98,1.18,1.37,1.79,3.53,1.85,6.49l-5.93.11-.07-2c0-.38-.12-.69-.34-.91-.22-.22-.52-.33-.9-.32-.45,0-.79.14-1.01.39s-.33.59-.32,1.02c.02.95.58,1.92,1.68,2.92l3.45,3.19c.8.75,1.47,1.47,2.01,2.15.53.68.96,1.49,1.3,2.42.33.93.51,2.04.54,3.33.05,2.87-.43,5.05-1.46,6.55-1.02,1.5-2.74,2.27-5.16,2.32-2.64.05-4.56-.57-5.76-1.86Z"/><path class="cls-1" d="M192.9,280.96c-1.05-1.46-1.61-3.69-1.67-6.7l-.23-12.54c-.05-2.69.51-4.73,1.68-6.13,1.17-1.4,2.94-2.12,5.32-2.17,1.92-.04,3.42.32,4.49,1.07,1.08.75,1.83,1.85,2.26,3.31.43,1.46.67,3.34.71,5.65l-5.69.1-.05-2.61c-.01-.7-.12-1.24-.32-1.62-.2-.38-.55-.57-1.04-.56-1.11.02-1.65.75-1.62,2.2l.26,14.1c.02.88.14,1.55.38,1.99.23.45.63.67,1.2.66.56,0,.95-.24,1.17-.7.22-.46.32-1.12.3-2l-.08-4.17-1.56.03-.09-5.01,7.12-.13.31,16.94-2.34.04-1.03-2.42c-1.01,1.83-2.59,2.76-4.76,2.8-2.1.04-3.68-.67-4.73-2.13Z"/><path class="cls-1" d="M209.63,280.72c-1.25-1.41-1.89-3.42-1.94-6.01l-.25-13.86c-.05-2.51.53-4.41,1.73-5.71,1.2-1.3,2.97-1.97,5.32-2.01,2.35-.04,4.15.56,5.39,1.82,1.24,1.25,1.89,3.13,1.93,5.64l.25,13.86c.05,2.62-.52,4.65-1.72,6.1-1.19,1.45-2.97,2.19-5.31,2.23-2.35.04-4.15-.64-5.39-2.05ZM215.96,276.73c.17-.45.25-1.09.24-1.9l-.26-14.23c-.01-.63-.1-1.14-.28-1.54-.18-.39-.52-.58-1.04-.57-.97.02-1.44.76-1.42,2.23l.26,14.2c.02.84.13,1.47.34,1.89.21.43.59.63,1.13.62.52,0,.86-.24,1.04-.7Z"/><path class="cls-1" d="M226.1,280.42c-1.25-1.41-1.89-3.42-1.94-6.01l-.25-13.86c-.05-2.51.53-4.41,1.73-5.71s2.97-1.97,5.32-2.01c2.35-.04,4.15.56,5.39,1.82,1.24,1.25,1.89,3.13,1.93,5.64l.25,13.86c.05,2.62-.52,4.65-1.72,6.1-1.19,1.45-2.97,2.19-5.31,2.23-2.35.04-4.15-.64-5.39-2.05ZM232.43,276.43c.17-.45.25-1.09.24-1.9l-.26-14.23c-.01-.63-.1-1.15-.28-1.54-.18-.39-.52-.58-1.04-.57-.97.02-1.44.76-1.42,2.23l.26,14.2c.02.84.13,1.47.34,1.89.21.43.59.63,1.13.62.52,0,.86-.24,1.04-.7Z"/><path class="cls-1" d="M240.47,252.92l8.03-.15c2.08-.04,3.65.51,4.71,1.64,1.06,1.13,1.62,2.83,1.69,5.09l.32,13.62c.08,2.87-.38,5.04-1.37,6.5-.99,1.46-2.66,2.22-5.01,2.26l-7.83.14-.53-29.11ZM247.79,276.75c1.06-.02,1.58-.55,1.56-1.59l-.28-15.01c-.01-.66-.07-1.15-.18-1.47-.11-.33-.3-.54-.57-.65s-.69-.16-1.26-.15h-.64s.35,18.89.35,18.89l1.02-.02Z"/><path class="cls-1" d="M117.23,288l7.89-.14c2.12-.04,3.67.45,4.65,1.47.98,1.02,1.49,2.71,1.53,5.06l.02,1.29c.05,2.78-.91,4.46-2.89,5.04,1.23.29,2.1,1.01,2.61,2.16.52,1.14.79,2.66.83,4.56.06,3.09-.36,5.45-1.26,7.06-.9,1.61-2.55,2.44-4.97,2.48l-7.89.14-.53-29.11ZM124.31,298.82c.5,0,.83-.2,1.01-.58.17-.38.25-.9.24-1.58l-.05-2.91c-.02-.95-.44-1.42-1.28-1.4l-1.22.02.12,6.47,1.19-.02ZM126.17,309.67l-.07-3.63c-.02-.88-.16-1.54-.43-1.99-.27-.45-.73-.67-1.38-.65l-1.08.02.15,8.44.58.02c1.51-.03,2.26-.76,2.23-2.21Z"/><path class="cls-1" d="M135.37,315.02c-1.19-1.33-1.81-3.33-1.86-6l-.39-21.31,5.66-.1.39,21.08c.02.93.12,1.65.31,2.16.19.52.58.77,1.17.76.59-.01.97-.27,1.14-.78.17-.51.25-1.24.23-2.19l-.39-21.08,5.66-.1.39,21.31c.05,2.67-.5,4.69-1.63,6.06-1.14,1.38-2.91,2.09-5.3,2.13-2.4.04-4.19-.6-5.37-1.94Z"/><path class="cls-1" d="M149.52,287.41l8.95-.16c1.42-.03,2.53.28,3.32.91.79.63,1.33,1.52,1.63,2.68.29,1.16.45,2.64.49,4.45.03,1.65-.16,2.94-.57,3.88-.41.93-1.15,1.59-2.2,1.97.88.16,1.53.59,1.94,1.29s.62,1.64.65,2.83l.13,11.01-5.69.1-.21-11.38c-.01-.81-.18-1.33-.5-1.55-.32-.22-.9-.32-1.73-.31l.24,13.28-5.9.11-.53-29.11ZM157.04,298.05c.81-.01,1.2-.9,1.17-2.67-.01-.77-.06-1.34-.13-1.73-.07-.38-.2-.64-.39-.79-.18-.14-.44-.21-.78-.21l-1.36.02.1,5.39,1.39-.03Z"/><path class="cls-1" d="M167.48,314.25c-1.05-1.46-1.61-3.69-1.67-6.7l-.23-12.54c-.05-2.69.51-4.73,1.68-6.13,1.17-1.4,2.94-2.12,5.32-2.17,1.92-.04,3.42.32,4.49,1.07,1.08.75,1.83,1.85,2.26,3.31.43,1.46.67,3.34.71,5.65l-5.69.1-.05-2.61c-.01-.7-.12-1.24-.32-1.62-.2-.38-.55-.57-1.04-.56-1.11.02-1.65.75-1.62,2.2l.26,14.1c.02.88.14,1.54.38,1.99.23.45.63.67,1.2.66s.96-.24,1.17-.7c.22-.46.32-1.12.3-2l-.08-4.17-1.56.03-.09-5.01,7.12-.13.31,16.94-2.34.04-1.03-2.42c-1,1.83-2.59,2.76-4.76,2.8-2.1.04-3.68-.67-4.73-2.13Z"/><path class="cls-1" d="M182.65,315.92l-.53-29.11,11.66-.21.1,5.62-5.73.1.1,5.66,5.49-.1.1,5.49-5.49.1.12,6.67,6.1-.11.1,5.66-12.03.22Z"/><path class="cls-1" d="M196.08,286.56l8.95-.16c1.42-.03,2.53.28,3.32.91.79.63,1.33,1.52,1.63,2.68.29,1.16.45,2.64.49,4.45.03,1.65-.16,2.94-.57,3.88-.41.93-1.15,1.59-2.2,1.97.88.16,1.53.59,1.94,1.29s.62,1.64.65,2.83l.13,11.01-5.69.1-.21-11.38c-.01-.81-.18-1.33-.5-1.55-.32-.22-.9-.32-1.73-.31l.24,13.28-5.9.11-.53-29.11ZM203.59,297.2c.81-.01,1.2-.9,1.17-2.67-.01-.77-.06-1.34-.13-1.73-.07-.38-.2-.64-.39-.79-.18-.14-.44-.21-.78-.21l-1.36.02.1,5.39,1.39-.03Z"/><path class="cls-1" d="M220.4,313.84c-.02-1.33.16-2.57.56-3.71.4-1.14.89-2.16,1.49-3.08.59-.92,1.38-1.99,2.35-3.23.99-1.28,1.78-2.37,2.36-3.26.58-.89,1.07-1.91,1.47-3.06.4-1.15.58-2.39.56-3.72-.01-.79-.14-1.4-.37-1.84s-.64-.65-1.23-.64c-.97.02-1.44.9-1.41,2.64l.07,3.56-6.13.11-.1-1.79c-.04-2.21.15-4.04.58-5.47.42-1.43,1.2-2.53,2.31-3.3,1.12-.77,2.67-1.17,4.66-1.2,2.44-.04,4.34.6,5.7,1.95,1.36,1.34,2.06,3.27,2.11,5.77.03,1.6-.16,3.06-.58,4.37-.42,1.31-.94,2.45-1.56,3.44-.63.98-1.46,2.14-2.5,3.47-.75.94-1.38,1.78-1.87,2.51-.49.73-.94,1.49-1.33,2.26l7.93-.15.1,5.49-15.11.28-.03-1.39Z"/></g></svg>