<?xml version="1.0" encoding="UTF-8"?><svg id="Layer_2" xmlns="http://www.w3.org/2000/svg" xmlns:xlink="http://www.w3.org/1999/xlink" viewBox="0 0 271.25 271.24"><defs><style>.cls-1{fill:#0e191f;font-family:Anton-Regular, Anton;font-size:33.55px;}</style></defs><g id="Wireframe"><text class="cls-1" transform="translate(135.36 30.97) rotate(3.45)"><tspan x="0" y="0">L</tspan></text><text class="cls-1" transform="translate(147.92 31.66) rotate(10.46)"><tspan x="0" y="0">E</tspan></text><text class="cls-1" transform="translate(160.78 34) rotate(17.52)"><tspan x="0" y="0">T</tspan></text><text class="cls-1" transform="translate(172.85 37.93) rotate(23.01)"><tspan x="0" y="0">’</tspan></text><text class="cls-1" transform="translate(179.52 40.5) rotate(29.05)"><tspan x="0" y="0">S</tspan></text><text class="cls-1" transform="translate(192.4 47.85) rotate(35.1)"><tspan x="0" y="0"> </tspan></text><text class="cls-1" transform="translate(198.45 51.8) rotate(41.22)"><tspan x="0" y="0">C</tspan></text><text class="cls-1" transform="translate(209.8 61.61) rotate(49.61)"><tspan x="0" y="0">H</tspan></text><text class="cls-1" transform="translate(220.11 73.66) rotate(58.13)"><tspan x="0" y="0">A</tspan></text><text class="cls-1" transform="translate(228.23 86.8) rotate(65.8)"><tspan x="0" y="0">T</tspan></text><text class="cls-1" transform="translate(233.34 98.41) rotate(71.3)"><tspan x="0" y="0"> </tspan></text><text class="cls-1" transform="translate(235.74 105.41) rotate(75.66)"><tspan x="0" y="0">◆</tspan></text><text class="cls-1" transform="translate(237.81 113.52) rotate(80.01)"><tspan x="0" y="0"> </tspan></text><text class="cls-1" transform="translate(239.23 120.63) rotate(85.47)"><tspan x="0" y="0">L</tspan></text><text class="cls-1" transform="translate(240.28 133.19) rotate(92.4)"><tspan x="0" y="0">E</tspan></text><text class="cls-1" transform="translate(239.76 146.24) rotate(99.39)"><tspan x="0" y="0">T</tspan></text><text class="cls-1" transform="translate(237.59 158.76) rotate(104.88)"><tspan x="0" y="0">’</tspan></text><text class="cls-1" transform="translate(235.98 165.75) rotate(110.95)"><tspan x="0" y="0">S</tspan></text><text class="cls-1" transform="translate(230.53 179.52) rotate(117.01)"><tspan x="0" y="0"> </tspan></text><text class="cls-1" transform="translate(227.48 186.04) rotate(123.16)"><tspan x="0" y="0">C</tspan></text><text class="cls-1" transform="translate(219.34 198.68) rotate(131.58)"><tspan x="0" y="0">H</tspan></text><text class="cls-1" transform="translate(208.85 210.57) rotate(140.08)"><tspan x="0" y="0">A</tspan></text><text class="cls-1" transform="translate(196.98 220.45) rotate(147.7)"><tspan x="0" y="0">T</tspan></text><text class="cls-1" transform="translate(186.19 227.14) rotate(153.18)"><tspan x="0" y="0"> </tspan></text><text class="cls-1" transform="translate(179.59 230.52) rotate(157.54)"><tspan x="0" y="0">◆</tspan></text><text class="cls-1" transform="translate(171.87 233.71) rotate(161.88)"><tspan x="0" y="0"> </tspan></text><text class="cls-1" transform="translate(165.04 236.11) rotate(167.38)"><tspan x="0" y="0">L</tspan></text><text class="cls-1" transform="translate(152.77 238.92) rotate(174.43)"><tspan x="0" y="0">E</tspan></text><text class="cls-1" transform="translate(139.74 240.22) rotate(-178.64)"><tspan x="0" y="0">T</tspan></text><text class="cls-1" transform="translate(127.04 239.82) rotate(-173.23)"><tspan x="0" y="0">’</tspan></text><text class="cls-1" transform="translate(119.93 239.21) rotate(-167.2)"><tspan x="0" y="0">S</tspan></text><text class="cls-1" transform="translate(105.53 235.77) rotate(-161.13)"><tspan x="0" y="0"> </tspan></text><text class="cls-1" transform="translate(98.61 233.67) rotate(-154.93)"><tspan x="0" y="0">C</tspan></text><text class="cls-1" transform="translate(84.98 227.4) rotate(-146.47)"><tspan x="0" y="0">H</tspan></text><text class="cls-1" transform="translate(71.72 218.67) rotate(-137.95)"><tspan x="0" y="0">A</tspan></text><text class="cls-1" transform="translate(60.28 208.28) rotate(-130.34)"><tspan x="0" y="0">T</tspan></text><text class="cls-1" transform="translate(52.14 198.55) rotate(-124.9)"><tspan x="0" y="0"> </tspan></text><text class="cls-1" transform="translate(47.89 192.52) rotate(-120.59)"><tspan x="0" y="0">◆</tspan></text><text class="cls-1" transform="translate(43.62 185.3) rotate(-116.25)"><tspan x="0" y="0"> </tspan></text><text class="cls-1" transform="translate(40.27 178.86) rotate(-110.75)"><tspan x="0" y="0">L</tspan></text><text class="cls-1" transform="translate(35.76 167.12) rotate(-103.67)"><tspan x="0" y="0">E</tspan></text><text class="cls-1" transform="translate(32.64 154.43) rotate(-96.64)"><tspan x="0" y="0">T</tspan></text><text class="cls-1" transform="translate(31.27 141.76) rotate(-91.2)"><tspan x="0" y="0">’</tspan></text><text class="cls-1" transform="translate(30.89 134.64) rotate(-85.29)"><tspan x="0" y="0">S</tspan></text><text class="cls-1" transform="translate(32.28 119.88) rotate(-79.24)"><tspan x="0" y="0"> </tspan></text><text class="cls-1" transform="translate(33.37 112.75) rotate(-73.06)"><tspan x="0" y="0">C</tspan></text><text class="cls-1" transform="translate(37.65 98.37) rotate(-64.56)"><tspan x="0" y="0">H</tspan></text><text class="cls-1" transform="translate(44.42 84.04) rotate(-56)"><tspan x="0" y="0">A</tspan></text><text class="cls-1" transform="translate(53.11 71.24) rotate(-48.37)"><tspan x="0" y="0">T</tspan></text><text class="cls-1" transform="translate(61.6 61.84) rotate(-42.95)"><tspan x="0" y="0"> </tspan></text><text class="cls-1" transform="translate(66.98 56.77) rotate(-38.66)"><tspan x="0" y="0">◆</tspan></text><image width="480" height="480" transform="translate(12.18 12.19) scale(.47)" xlink:href="../../design/web page workspace_1_Folder/Links/Call Now Sticker by HGreg.gif"/></g></svg>