<?xml version="1.0" encoding="UTF-8"?><svg id="Layer_2" xmlns="http://www.w3.org/2000/svg" viewBox="0 0 33.05 33.05"><defs><style>.cls-1{fill:#0e191f;}</style></defs><g id="Module_3.2"><path class="cls-1" d="M29.12,0H3.94C1.76,0,0,1.76,0,3.94v25.18c0,2.17,1.76,3.94,3.94,3.94h25.18c2.17,0,3.94-1.76,3.94-3.94V3.94c0-2.17-1.76-3.94-3.94-3.94ZM10.23,12.59v14.95h-4.72v-14.95h4.72ZM5.51,8.24c0-1.1.94-1.94,2.36-1.94s2.31.84,2.36,1.94c0,1.1-.88,1.99-2.36,1.99s-2.36-.89-2.36-1.99ZM27.55,27.55h-4.72v-7.87c0-1.57-.79-3.15-2.75-3.18h-.06c-1.9,0-2.69,1.62-2.69,3.18v7.87h-4.72v-14.95h4.72v2.01s1.52-2.01,4.57-2.01,5.66,2.15,5.66,6.5v8.45Z"/></g></svg>