<?xml version="1.0" encoding="UTF-8"?><svg id="Layer_2" xmlns="http://www.w3.org/2000/svg" viewBox="0 0 267.48 66.47"><defs><style>.cls-1{font-size:26.89px;}.cls-1,.cls-2,.cls-3{font-family:SofiaPro-Medium, 'Sofia Pro';font-weight:500;}.cls-1,.cls-2,.cls-3,.cls-4{fill:#fdaaff;}.cls-2,.cls-3{font-size:11.88px;}.cls-2,.cls-5{letter-spacing:-.02em;}.cls-6{fill:none;stroke:#fdaaff;stroke-miterlimit:10;stroke-width:1.11px;}.cls-7{letter-spacing:-.26em;}.cls-8{letter-spacing:-.02em;}.cls-9{letter-spacing:-.02em;}.cls-10{letter-spacing:-.05em;}.cls-11{letter-spacing:-.04em;}.cls-12{letter-spacing:-.04em;}.cls-13{letter-spacing:-.03em;}.cls-14{letter-spacing:-.03em;}.cls-15{letter-spacing:.08em;}.cls-16{letter-spacing:.08em;}.cls-17{letter-spacing:.05em;}.cls-18{letter-spacing:.05em;}</style></defs><g id="Wireframe"><path class="cls-4" d="M251.04.41h16.44v4.3h-6.75v6.9h6.75v4.3h-6.75v11.51h-9.68V.41Z"/><rect class="cls-6" x=".86" y=".93" width="247.25" height="25.85"/><rect class="cls-4" x="41.57" y=".95" width="122.68" height="26.51"/><text class="cls-1" transform="translate(167.04 22.71)"><tspan class="cls-16" x="0" y="0">M </tspan><tspan class="cls-17" x="36.12" y="0">P</tspan><tspan class="cls-15" x="53.87" y="0"> </tspan><tspan class="cls-18" x="62.71" y="0">L</tspan></text><text class="cls-3" transform="translate(0 63.27)"><tspan class="cls-5" x="0" y="0">44</tspan><tspan class="cls-8" x="13.21" y="0">.</tspan><tspan class="cls-12" x="15.91" y="0">7</tspan><tspan class="cls-5" x="21.48" y="0" xml:space="preserve">850° N                                              </tspan><tspan class="cls-7" x="181.2" y="0"> </tspan><tspan class="cls-9" x="181.07" y="0" xml:space="preserve"> -93.26</tspan><tspan class="cls-14" x="217.35" y="0">7</tspan><tspan class="cls-9" x="223.07" y="0">0°</tspan><tspan class="cls-11" x="233.82" y="0" xml:space="preserve"> W</tspan></text><text class="cls-3" transform="translate(.22 43.74)"><tspan class="cls-5" x="0" y="0" xml:space="preserve">500 N                                      </tspan><tspan class="cls-13" x="133.99" y="0">S</tspan><tspan class="cls-10" x="140.38" y="0">T</tspan></text><text class="cls-2" transform="translate(110.55 50.77)"><tspan x="0" y="0" xml:space="preserve">3RD     </tspan></text><path class="cls-4" d="M10.12,17.35l-.02-3.97c.48-.15.98-.22,1.46-.36,1.62-.47,3.25-1.4,4.14-2.88.41-.68.54-1.43.89-2.12,1.44-2.81,4.83-4.17,7.83-3.13,2.45.85,4.15,3.17,4.33,5.77v10.61s-.02.12-.05.12h-8.52s-.05-.05-.05-.05v-3.99h-10ZM18.71,13.92s.02.14.14.14c.25.4,1.08.94,1.52,1.14,1.47.66,3.05.38,4.61.44v1.66s-.05.05-.05.05h-3.1v2.21s.05.05.03.09h5.08s.06-.08.05-.12v-9.07c-.4-3.58-4.55-5.45-7.48-3.27-2.2,1.64-2.45,4.6-.81,6.74ZM11.83,14.76v.87h6.09c-.06-.13-.2-.21-.29-.32-.72-.8-1.33-1.83-1.52-2.9-.05-.01-.06.01-.09.03-.12.08-.28.27-.41.38-.71.58-1.53,1.06-2.38,1.42-.46.19-.94.32-1.4.51Z"/><path class="cls-4" d="M18.85,14.06c-.12,0-.11-.1-.14-.14.12,0,.1.08.14.14Z"/><circle class="cls-4" cx="22.31" cy="10.78" r="1.23"/></g></svg>