<?xml version="1.0" encoding="UTF-8"?><svg id="Layer_2" xmlns="http://www.w3.org/2000/svg" viewBox="0 0 259.31 64.44"><defs><style>.cls-1{font-size:11.52px;}.cls-1,.cls-2{font-family:SofiaPro-Medium, 'Sofia Pro';font-weight:500;}.cls-1,.cls-2,.cls-3{fill:#fdaaff;}.cls-2{font-size:26.07px;}.cls-4{fill:none;stroke:#fdaaff;stroke-miterlimit:10;stroke-width:1.08px;}.cls-5{letter-spacing:-.06em;}.cls-6{letter-spacing:-.2em;}.cls-7{letter-spacing:-.14em;}.cls-8{letter-spacing:-.02em;}.cls-9{letter-spacing:-.02em;}.cls-10{letter-spacing:-.02em;}.cls-11{letter-spacing:-.05em;}.cls-12{letter-spacing:-.05em;}.cls-13{letter-spacing:-.05em;}.cls-14{letter-spacing:-.04em;}.cls-15{letter-spacing:-.04em;}.cls-16{letter-spacing:-.03em;}.cls-17{letter-spacing:-.03em;}.cls-18{letter-spacing:.08em;}.cls-19{letter-spacing:.08em;}.cls-20{letter-spacing:.12em;}.cls-21{letter-spacing:.04em;}</style></defs><g id="Wireframe"><path class="cls-3" d="M243.37.39h15.94v4.17h-6.55v6.69h6.55v4.17h-6.55v11.15h-9.39V.39Z"/><rect class="cls-4" x=".84" y=".9" width="239.7" height="25.06"/><rect class="cls-3" x="40.3" y=".92" width="118.93" height="25.7"/><text class="cls-2" transform="translate(161.94 22.02)"><tspan class="cls-18" x="0" y="0">N </tspan><tspan class="cls-6" x="28.57" y="0"> </tspan><tspan class="cls-21" x="29.93" y="0">Y</tspan><tspan class="cls-20" x="47.63" y="0"> </tspan><tspan class="cls-19" x="57.25" y="0">C</tspan></text><text class="cls-1" transform="translate(118.02 48.12)"><tspan class="cls-9" x="0" y="0"> </tspan><tspan class="cls-11" x="2.64" y="0">8</tspan><tspan class="cls-9" x="8.83" y="0">TH </tspan></text><text class="cls-1" transform="translate(0 61.34)"><tspan class="cls-9" x="0" y="0">4</tspan><tspan class="cls-14" x="6.4" y="0">0</tspan><tspan class="cls-8" x="12.79" y="0">.</tspan><tspan class="cls-9" x="15.4" y="0" xml:space="preserve">7390° N                                               </tspan><tspan class="cls-7" x="178.09" y="0"> </tspan><tspan class="cls-12" x="179.35" y="0">-</tspan><tspan class="cls-9" x="184.31" y="0">73.9989°</tspan><tspan class="cls-15" x="228.36" y="0" xml:space="preserve"> W</tspan></text><circle class="cls-3" cx="23.55" cy="8.87" r="1.11"/><path class="cls-3" d="M32.02,13.44l-2.95-3.35c-.38-3.16-3.04-5.62-6.27-5.62-2.38,0-4.45,1.34-5.53,3.32h0s-7.32,11.94-7.32,11.94l-.77,1.2h16.17s.88,0,.88,0v-4.63c1.11-.72,1.98-1.78,2.46-3.05l3.34.2ZM22.82,15.5h-3.34v1.77h3.3s.11,0,.11,0c.55,0,1.07-.08,1.57-.21v2.11h-12.12l6.5-10.6s.02-.02.02-.03c.79-1.38,2.25-2.31,3.93-2.31,2.04,0,3.77,1.38,4.35,3.27l-1.8,1.05,1.19,2.57h.24c-.78,1.42-2.25,2.38-3.95,2.39Z"/><text class="cls-1" transform="translate(.21 42.41)"><tspan class="cls-9" x="0" y="0">3</tspan><tspan class="cls-17" x="5.78" y="0">7</tspan><tspan class="cls-9" x="11.36" y="0" xml:space="preserve">5     HUDSON         </tspan><tspan class="cls-16" x="101.04" y="0">S</tspan><tspan class="cls-13" x="107.24" y="0">T</tspan><tspan class="cls-9" x="112.99" y="0"> </tspan></text><text class="cls-1" transform="translate(146.14 42.29)"><tspan class="cls-10" x="0" y="0">F</tspan><tspan class="cls-5" x="5.93" y="0">L</tspan><tspan class="cls-9" x="10.97" y="0">OOR </tspan></text></g></svg>