<?xml version="1.0" encoding="UTF-8"?><svg id="Layer_2" xmlns="http://www.w3.org/2000/svg" xmlns:xlink="http://www.w3.org/1999/xlink" viewBox="0 0 258.16 59.03"><defs><style>.cls-1{filter:url(#drop-shadow-1);}.cls-2{fill:#faf0e0;}</style><filter id="drop-shadow-1" x="-8.22" y="-8.24" width="289" height="90" filterUnits="userSpaceOnUse"><feOffset dx="7" dy="7"/><feGaussianBlur result="blur" stdDeviation="5"/><feFlood flood-color="#000" flood-opacity=".25"/><feComposite in2="blur" operator="in"/><feComposite in="SourceGraphic"/></filter></defs><g id="Module_4"><g class="cls-1"><path class="cls-2" d="M126.51,58.42l.17.39h-17.15l-7.25-13.24-7.18,13.24h-17.15s.06-.24.19-.42c1.5-2.1,11.95-15.78,33.61-21.45"/><polygon class="cls-2" points="12.3 58.81 12.3 14.01 0 14.01 0 0 40.79 0 40.79 14.01 28.9 14.01 28.9 58.81 12.3 58.81"/><path class="cls-2" d="M49.04,59.02c-3.35,0-13.96-.46-13.96-12.99,0-11.09,11.35-12.47,14.8-12.62l10.59-.5v-1.73c0-2.1-1.09-5.62-7.86-5.62-4.13,0-8.84,1.64-12.11,3.45l-3.49-10.02c3.23-1.53,9.82-4.09,17.91-4.09,7.6,0,12.07,1.49,15.59,5,3.45,3.45,4.72,8.07,4.72,15v23.9h-14.09l-.55-5.75-1.76,1.89c-1.95,2.18-5.1,4.08-9.79,4.08M60.47,47.55v-9.17l-5.55.4c-3.61.16-5.79,2.13-5.79,5.4s2.13,5.41,5.69,5.41c2.77,0,5.01-1.65,5.75-2.25"/><path class="cls-2" d="M133.1,4.82l-16.97,23.82-.26.37c-7.14,1.11-14.79,3.42-22.81,7.38l-13.56-20.31h17.11l5.65,12.74,14.38-24h16.45Z"/><path class="cls-2" d="M165.44,0h-18.14l-8.99,28.8c4.64.58,8.91,1.31,12.64,2.49l5.41-22.01,6.32,25.67c4.73,3.5,6.52,5.43,6.69,5.57-12.34-4.1-23.24-5.91-32.81-6.16l-7.41,24.07-.07.38h16.04l2.07-9.19h17.46l2.15,9.19h16.85L165.44,0Z"/><path class="cls-2" d="M202.68,58.81c-10.13,0-21.02-6.87-21.02-21.95s10.9-21.95,21.02-21.95c6.74,0,11.26,1.99,12.93,2.88l-2.25,12.03c-1.67-1.01-4.41-2.24-7.91-2.24-5.05,0-8.58,3.71-8.58,9.02,0,5.59,3.35,8.92,8.97,8.92,3.25,0,5.96-1.29,7.55-2.27l2.6,12.17c-1.54,1.01-5.95,3.39-13.33,3.39"/><path class="cls-2" d="M238.35,59.03c-4.49,0-7.65-1.19-10-3.53-2.16-2.24-2.86-6.08-2.86-12.05v-14.49h-6.35v-12.86h6.35V4.82h15.18v11.26h8.19v12.86h-8.2v12.29c0,4.41,2.89,4.41,4.2,4.41,1.04,0,3.31-.15,4.1-.31l-.16,12.08c-2,.49-6.24,1.61-10.45,1.61"/><path class="cls-2" d="M252.05,55.42c0-1.94,1.4-3.37,3.07-3.37s3.05,1.43,3.05,3.37-1.4,3.39-3.05,3.39-3.07-1.43-3.07-3.39M255.11,58.25c1.36,0,2.44-1.2,2.44-2.83s-1.08-2.81-2.44-2.81-2.46,1.21-2.46,2.81,1.08,2.83,2.46,2.83M254.46,57.27h-.41v-3.69h1.22c.82,0,1.23.29,1.23,1.06,0,.7-.39.92-.9.99l.99,1.64h-.59l-.92-1.61h-.62v1.61ZM255.1,55.2c.45,0,.85,0,.85-.61,0-.48-.39-.54-.76-.54h-.73v1.15h.64Z"/></g></g></svg>