<?xml version="1.0" encoding="UTF-8"?><svg id="Layer_2" xmlns="http://www.w3.org/2000/svg" xmlns:xlink="http://www.w3.org/1999/xlink" viewBox="0 0 297.19 58.22"><defs><style>.cls-1{filter:url(#drop-shadow-1);}.cls-2{fill:#faf0e0;}</style><filter id="drop-shadow-1" x="-8.6" y="-8.81" width="328" height="90" filterUnits="userSpaceOnUse"><feOffset dx="7" dy="7"/><feGaussianBlur result="blur" stdDeviation="5"/><feFlood flood-color="#000" flood-opacity=".25"/><feComposite in2="blur" operator="in"/><feComposite in="SourceGraphic"/></filter></defs><g id="Module_4"><g class="cls-1"><path class="cls-2" d="M281.99,26.52c1.21-.25,11.95-5.17,12.91-5.72,2.19-1.26,2.94-4.06,1.67-6.25-1.26-2.19-4.06-2.94-6.25-1.67-.96.55-10.59,7.39-11.41,8.32-.94,1.06-1.11,2.58-.41,3.79.7,1.21,2.09,1.83,3.48,1.54Z"/><path class="cls-2" d="M294.9,37.42c-.96-.55-11.69-5.47-12.91-5.72-1.39-.29-2.79.33-3.48,1.54-.7,1.21-.53,2.73.41,3.79.82.93,10.45,7.76,11.41,8.32,2.19,1.26,4.99.51,6.25-1.67s.51-4.99-1.67-6.25Z"/><path class="cls-2" d="M271.36,37.36c-1.4,0-2.63.9-3.08,2.25-.39,1.18-1.5,12.93-1.5,14.04,0,2.53,2.05,4.57,4.57,4.57s4.57-2.05,4.57-4.57c0-1.11-1.11-12.86-1.5-14.04-.45-1.35-1.68-2.25-3.08-2.25Z"/><path class="cls-2" d="M260.73,31.69c-1.21.25-11.95,5.17-12.91,5.72-2.19,1.26-2.94,4.06-1.67,6.25,1.26,2.19,4.06,2.94,6.25,1.67.96-.55,10.59-7.39,11.41-8.32.94-1.06,1.11-2.58.41-3.79-.7-1.21-2.09-1.83-3.48-1.54Z"/><path class="cls-2" d="M252.4,12.88c-2.19-1.26-4.99-.51-6.25,1.67-1.26,2.19-.51,4.99,1.67,6.25.96.55,11.69,5.47,12.91,5.72,1.39.29,2.79-.33,3.48-1.54.7-1.21.53-2.73-.41-3.79-.82-.93-10.45-7.76-11.41-8.32Z"/><path class="cls-2" d="M271.36,0c-2.53,0-4.57,2.05-4.57,4.57,0,1.11,1.11,12.86,1.5,14.04.45,1.35,1.68,2.25,3.08,2.25s2.63-.9,3.08-2.25c.39-1.18,1.5-12.93,1.5-14.04,0-2.53-2.05-4.57-4.57-4.57Z"/><polygon class="cls-2" points="45.56 8.62 39.99 36.52 33.74 8.62 22.89 8.62 16.65 36.52 11.08 8.62 0 8.62 9.03 51.23 21.93 51.23 28.23 22.94 34.54 51.23 47.15 51.23 56.13 8.62 45.56 8.62"/><path class="cls-2" d="M69.68,16.46c-6.87,0-11.7,2.33-13.46,3.98v9.09c2.05-1.82,6.36-4.49,12.04-4.49,3.52,0,4.83.97,4.83,2.95,0,1.7-1.82,2.39-6.87,3.47-7.67,1.59-12.1,4.37-12.1,11.02,0,6.14,4.03,9.71,9.88,9.71,4.9,0,7.83-2.27,9.43-5.33v4.36h10.57v-20.91c0-9.6-5-13.86-14.32-13.86ZM68.2,45.32c-2.5,0-3.86-1.53-3.86-3.64,0-2.73,2.16-3.81,4.89-4.77,1.42-.53,2.84-1.09,3.81-1.93v4.71c0,3.58-1.87,5.62-4.83,5.62Z"/><rect class="cls-2" x="87.95" y="8.62" width="10.96" height="42.61"/><path class="cls-2" d="M142.92,16.58c-5.32,0-8.76,3.2-10.56,7.45-.96-4.56-4.17-7.45-8.65-7.45-5.07,0-8.38,2.96-10.06,7.11v-6.15h-10.79v33.69h10.96v-18.69c0-4.6,1.53-7.21,4.83-7.21,2.67,0,3.58,1.82,3.58,4.66v21.25h10.96v-18.69c0-4.6,1.53-7.21,4.83-7.21,2.67,0,3.58,1.82,3.58,4.66v21.25h10.96v-22.78c0-7.1-3.35-11.87-9.66-11.87Z"/><path class="cls-2" d="M170.53,16.46c-6.87,0-11.7,2.33-13.46,3.98v9.09c2.05-1.82,6.36-4.49,12.04-4.49,3.52,0,4.83.97,4.83,2.95,0,1.7-1.82,2.39-6.87,3.47-7.67,1.59-12.1,4.37-12.1,11.02,0,6.14,4.03,9.71,9.88,9.71,4.9,0,7.83-2.27,9.43-5.33v4.36h10.57v-20.91c0-9.6-5-13.86-14.32-13.86ZM169.05,45.32c-2.5,0-3.86-1.53-3.86-3.64,0-2.73,2.16-3.81,4.89-4.77,1.42-.53,2.84-1.09,3.81-1.93v4.71c0,3.58-1.87,5.62-4.83,5.62Z"/><path class="cls-2" d="M199.33,27.06v-9.52h-10.74v33.69h10.96v-14.32c0-6.59,4.09-8.35,8.01-8.35,1.31,0,2.56.17,3.12.34v-11.59c-6.17-.3-9.92,3.64-11.36,9.75Z"/><path class="cls-2" d="M231.6,26.06v-8.52h-6.99v-6.53h-10.96v28.97c0,8.12,4.6,11.93,11.93,11.93,3.41,0,5.23-.68,6.02-1.19v-8.46c-.62.45-1.65.8-2.95.8-2.44.06-4.03-1.02-4.03-4.6v-12.38h6.99Z"/></g></g></svg>