<?xml version="1.0" encoding="UTF-8"?><svg id="Layer_2" xmlns="http://www.w3.org/2000/svg" xmlns:xlink="http://www.w3.org/1999/xlink" viewBox="0 0 351.71 47.12"><defs><style>.cls-1{filter:url(#drop-shadow-1);}.cls-2{fill:#faf0e0;}</style><filter id="drop-shadow-1" x="-8.45" y="-8.16" width="383" height="78" filterUnits="userSpaceOnUse"><feOffset dx="7" dy="7"/><feGaussianBlur result="blur" stdDeviation="5"/><feFlood flood-color="#000" flood-opacity=".25"/><feComposite in2="blur" operator="in"/><feComposite in="SourceGraphic"/></filter></defs><g id="Module_4"><g class="cls-1"><path class="cls-2" d="M348.7,6.17c-1.66,0-3.01-1.35-3.01-3.01s1.35-3.01,3.01-3.01,3,1.35,3,3.01-1.35,3.01-3,3.01ZM348.7.39c-1.53,0-2.77,1.24-2.77,2.77s1.24,2.77,2.77,2.77,2.77-1.24,2.77-2.77-1.24-2.77-2.77-2.77Z"/><path class="cls-2" d="M347.5,4.87s-.03-.05-.03-.08V1.55s0-.06.03-.08c.02-.02.05-.03.08-.03h1.15c.36,0,.64.08.84.25.2.17.3.42.3.75,0,.26-.06.47-.19.63-.13.16-.31.27-.56.32l.8,1.36s.01.04.01.05c0,.03,0,.05-.03.07-.02.02-.04.03-.07.03h-.06s-.09-.01-.11-.03c-.02-.02-.05-.06-.08-.1l-.79-1.33h-1.02v1.36s-.01.06-.03.08c-.02.02-.05.03-.08.03h-.09s-.06,0-.08-.03ZM348.71,3.14c.29,0,.5-.06.64-.18.14-.12.21-.29.21-.53s-.07-.41-.21-.53c-.14-.12-.35-.18-.64-.18h-.93v1.41h.93Z"/><path class="cls-2" d="M344.77,0c-.17.89-.33,1.77-.51,2.66-.84,3.94-1.68,7.88-2.52,11.81-.82,3.83-1.63,7.65-2.45,11.48-.5,2.33-.99,4.65-1.48,6.98-.05.24-.16.32-.39.32-1.98,0-3.97.02-5.95.03-.95,0-1.9,0-2.86,0-.08,0-.16-.01-.3-.02,1.71-7.65,3.42-15.28,5.13-22.9l-.12-.05c-.05.08-.11.15-.15.23-1.12,2.36-2.23,4.72-3.36,7.07-1.41,2.95-2.83,5.9-4.25,8.86-1.02,2.14-2.04,4.28-3.05,6.42-.1.22-.22.34-.48.35-2.36,0-4.72.03-7.09.04-.03,0-.07,0-.16-.02-.4-7.64-.8-15.29-1.2-22.94-.04,0-.08,0-.12-.01-.03.1-.07.19-.09.29-.62,3.06-1.23,6.12-1.85,9.19-.78,3.88-1.55,7.76-2.33,11.65-.1.49-.2.99-.27,1.49-.04.24-.14.34-.38.34-.91,0-1.81.03-2.72.03-2.03,0-4.06,0-6.09,0-.27,0-.33-.07-.27-.34.8-3.77,1.58-7.54,2.37-11.32.69-3.31,1.39-6.63,2.09-9.94.77-3.68,1.54-7.37,2.31-11.05.04-.21.08-.43.13-.64,4.73,0,9.45,0,14.18,0,.02.15.06.29.06.44.07,1.97.15,3.94.19,5.91.08,3.7.15,7.41.22,11.11,0,.16.05.32.07.47.16-.11.23-.22.29-.34.31-.61.62-1.23.93-1.84,2.59-5.09,5.18-10.19,7.77-15.28.07-.15.1-.32.16-.48,4.84,0,9.68,0,14.52,0Z"/><path class="cls-2" d="M45.3,0c-.22,1.09-.43,2.17-.66,3.26-.88,4.17-1.77,8.35-2.66,12.52-.88,4.12-1.76,8.23-2.64,12.35-.34,1.59-.67,3.18-1,4.77-.05.26-.16.36-.44.36-2.65,0-5.3.01-7.95.02-.35,0-.71,0-1.13,0,1.72-7.67,3.42-15.29,5.13-22.92-.04-.02-.08-.03-.12-.05-.08.12-.16.24-.23.37-1.35,2.83-2.69,5.67-4.04,8.5-1.51,3.16-3.02,6.32-4.54,9.48-.68,1.41-1.35,2.83-2.02,4.25-.1.21-.21.33-.46.33-2.35.01-4.7.03-7.05.04-.06,0-.11-.01-.22-.02-.4-7.66-.8-15.3-1.21-22.95-.05,0-.09,0-.14,0-.1.48-.21.97-.31,1.45-.54,2.71-1.08,5.43-1.63,8.15-.86,4.34-1.73,8.68-2.59,13.03-.04.22-.13.32-.36.32-2.77,0-5.55,0-8.32,0-.11,0-.23-.01-.34-.01-.45,0-.45-.01-.37-.43.78-3.73,1.55-7.46,2.33-11.19.72-3.44,1.43-6.88,2.15-10.31.75-3.58,1.5-7.16,2.25-10.75C6.82.38,6.86.19,6.91,0c4.73,0,9.45,0,14.18,0,.02.17.05.34.05.51.07,2.15.15,4.31.2,6.46.08,3.53.14,7.06.21,10.59,0,.13.04.25.06.38.03,0,.07.01.1.02.17-.33.34-.66.5-.99,2.83-5.55,5.65-11.1,8.47-16.65.05-.1.07-.21.1-.32,4.84,0,9.68,0,14.52,0Z"/><path class="cls-2" d="M291.65,0l-.89.12s0,.03,0,.05c.28.02.56.04.84.06,1.37.08,2.7.35,3.96.9,1.96.85,3.27,2.28,3.87,4.34.67,2.3.67,4.6-.18,6.85-1.06,2.79-3.14,4.5-5.99,5.3-.36.1-.73.19-1.09.28-.02,0-.03.03-.07.08.07.05.13.12.21.15,1.79.56,2.64,1.9,2.99,3.65.3,1.53.27,3.08.25,4.62-.02,1.6-.02,3.21.03,4.81.02.61.22,1.21.34,1.81.01.07.03.15.05.28-.6,0-1.17,0-1.74,0-2.09,0-4.17,0-6.26,0-.45,0-.89-.04-1.34-.04-.27,0-.4-.12-.46-.36-.3-1.14-.36-2.3-.25-3.48.14-1.45.36-2.89.43-4.34.08-1.73-.85-2.85-2.55-3.18-.63-.12-1.27-.19-1.91-.21-1.29-.03-2.59-.02-3.89-.03-.2,0-.3.04-.35.27-.73,3.54-1.47,7.08-2.22,10.62-.14.69-.15.71-.85.72-2.81.02-5.62.02-8.43.03-.05,0-.09,0-.14,0q-.73,0-.57-.72c1.33-6.37,2.65-12.74,3.98-19.11.89-4.28,1.78-8.56,2.66-12.83.04-.2.05-.4.08-.61,6.49,0,12.98,0,19.47,0ZM282.57,14.58s0,.02,0,.03c1.2-.05,2.42,0,3.6-.17,1.52-.21,2.72-.99,3.31-2.51.62-1.61-.19-3.29-1.84-3.77-.52-.15-1.08-.23-1.62-.25-1.7-.03-3.39-.02-5.09-.03-.22,0-.33.05-.37.29-.42,2.03-.84,4.05-1.27,6.08-.05.24,0,.33.26.33,1.01-.01,2.02,0,3.03,0Z"/><path class="cls-2" d="M254.35,0c-.21,1-.42,1.99-.63,2.99-.36,1.74-.71,3.47-1.06,5.21-.06.28-.2.32-.45.32-4.9,0-9.79,0-14.69-.01-.31,0-.43.09-.49.4-.21,1.11-.47,2.22-.7,3.32-.03.13-.03.27-.05.44h13.08c-.17.8-.33,1.56-.49,2.32-.36,1.76-.73,3.52-1.08,5.28-.05.26-.17.33-.42.33-2.47,0-4.93.02-7.4.01-1.62,0-3.23-.03-4.85-.05-.64,0-.51-.03-.62.48-.83,3.95-1.66,7.9-2.48,11.86-.05.24-.16.34-.41.34-2.01,0-4.01.02-6.02.03-1.25,0-2.5,0-3.78,0,0-.13-.02-.24,0-.34,1.23-5.83,2.46-11.66,3.68-17.49,1.06-5.06,2.11-10.12,3.17-15.18.02-.09,0-.18,0-.27,8.56,0,17.11,0,25.67,0Z"/><path class="cls-2" d="M267.29,0c-.22,1.12-.44,2.24-.67,3.36-1.07,5.15-2.13,10.3-3.2,15.45-.76,3.67-1.53,7.35-2.29,11.02-.21,1.01-.42,2.02-.6,3.03-.06.31-.21.38-.49.38-3.03,0-6.05,0-9.08,0-.21,0-.43,0-.7,0C252.56,22.13,254.87,11.07,257.17,0c3.37,0,6.74,0,10.12,0Z"/><path class="cls-2" d="M216.96,47.12c.07-.16.11-.27.15-.37,1.11-2.29,2.22-4.58,3.32-6.87.12-.24.26-.36.54-.39,1.66-.16,3.33-.35,4.99-.51,1.17-.12,2.35-.2,3.53-.31,1.4-.13,2.8-.26,4.21-.39.97-.09,1.94-.15,2.91-.23,1.88-.15,3.77-.31,5.65-.45,1.83-.14,3.66-.25,5.49-.37,2.44-.16,4.87-.32,7.31-.46,2.28-.13,4.55-.25,6.83-.37,2.64-.14,5.29-.27,7.93-.39,1.72-.07,3.44-.11,5.16-.16,4.18-.11,8.37-.25,12.55-.3,5.34-.06,10.69-.05,16.03-.04,1.94,0,3.87.07,5.81.14,2.34.08,4.67.16,7.01.28,2.15.11,4.3.25,6.45.41,2.14.16,4.27.32,6.4.56,2.48.27,4.95.63,7.42.95.23.03.3.13.26.34-.22,1.15-.45,2.29-.66,3.44-.04.21-.14.22-.31.2-.93-.13-1.86-.27-2.79-.38-1.81-.21-3.61-.41-5.42-.6-1.59-.17-3.19-.33-4.79-.46-.95-.08-1.9-.1-2.85-.15-1.84-.09-3.68-.21-5.53-.28-2.47-.1-4.95-.22-7.42-.25-4.95-.07-9.91-.11-14.86-.14-1.88-.01-3.76.02-5.64.06-2.72.05-5.43.11-8.15.21-2.11.08-4.21.21-6.31.33-1.42.08-2.83.17-4.25.27-2.18.16-4.36.31-6.54.49-1.47.12-2.94.31-4.41.45-1.26.12-2.53.22-3.8.35-1.26.13-2.52.29-3.78.44-1.05.12-2.09.25-3.14.38-1.4.17-2.79.34-4.19.53-2.13.28-4.26.57-6.39.87-1.45.21-2.9.44-4.34.67-1.57.25-3.14.49-4.71.76-2.46.43-4.91.87-7.36,1.31-.65.12-1.3.25-1.95.38-.09.02-.19.02-.35.03Z"/><path class="cls-2" d="M152.41,26.21c.09,0,.19.02.29.01,4.05-.01,8.09-.03,12.14-.05.63,0,1.26,0,1.89-.01.27,0,.31.09.26.33-.46,2.14-.92,4.27-1.36,6.41-.07.32-.25.35-.52.35-5.33,0-10.66.02-16,.02-2.2,0-4.4,0-6.62,0,0-.12-.02-.22,0-.32.56-2.67,1.14-5.35,1.7-8.02,1.15-5.45,2.29-10.9,3.43-16.36.18-.86.36-1.72.52-2.59.05-.26.14-.37.42-.36.57.02,1.15,0,1.72,0,6.77,0,13.53,0,20.3.01.45,0,.45,0,.36.44-.42,2.04-.84,4.08-1.25,6.12-.07.34-.19.49-.58.49-4.42-.01-8.83,0-13.25,0-.63,0-.63-.02-.77.64-.18.83-.35,1.66-.54,2.48-.07.29,0,.38.31.38,4.19-.01,8.37-.01,12.56-.01.38,0,.37.01.3.4-.4,1.95-.8,3.9-1.18,5.85-.04.21-.13.3-.34.3-.47,0-.94.02-1.41.02-3.5,0-7,0-10.49,0-.3,0-.6-.05-.89-.04-.12,0-.31.1-.33.19-.25,1.07-.47,2.14-.69,3.22,0,.02.01.04.03.09Z"/><path class="cls-2" d="M137.12,20.48c.11.08.2.18.32.23,1.55.61,2.21,1.87,2.38,3.41.12,1.02.13,2.06.15,3.08.02,1.32-.03,2.64,0,3.96.01.57.17,1.13.26,1.69.02.11.05.22.09.37-.33.02-.62.05-.91.05-2.25,0-4.49-.03-6.74-.03-.31,0-.45-.13-.52-.42-.25-1.11-.26-2.22-.12-3.35.12-.96.25-1.93.31-2.9.11-1.87-1.05-2.63-2.48-2.84-.61-.09-1.23-.07-1.85-.09-.82-.02-1.65-.02-2.48-.05-.29,0-.39.09-.45.37-.61,2.98-1.24,5.96-1.86,8.94-.05.22-.14.34-.38.34-2.61,0-5.23.02-7.84.02-.03,0-.06-.02-.13-.05.1-.49.2-.98.3-1.46,1.03-4.95,2.05-9.9,3.08-14.85.74-3.56,1.48-7.12,2.22-10.68.02-.09.03-.18.05-.27.03-.21.13-.32.36-.32.52,0,1.03,0,1.55,0,4.27,0,8.53-.01,12.8.02,1.48.01,2.95.21,4.35.73,2.3.85,3.55,2.54,3.88,4.93.25,1.81.13,3.6-.74,5.25-1.08,2.07-2.83,3.25-5.07,3.76-.16.04-.33.03-.5.04-.01.03-.02.06-.03.09ZM129.26,17.76v-.06c.8,0,1.61.04,2.41,0,1.13-.06,2.13-.48,2.85-1.38,1.03-1.3.73-3.34-1.05-3.89-.35-.11-.72-.16-1.08-.17-1.53-.03-3.07-.04-4.6-.05-.08,0-.22.12-.24.21-.36,1.65-.7,3.31-1.06,4.96-.07.33.04.4.34.39.81-.01,1.63,0,2.44,0Z"/><path class="cls-2" d="M186.52,13.99c-.03-.26-.04-.52-.09-.78-.21-.94-.78-1.58-1.69-1.86-1.12-.35-2.26-.35-3.38.01-.36.12-.71.33-1,.57-.67.56-.99,1.87.14,2.66.64.45,1.36.71,2.1.91,1.42.38,2.86.72,4.27,1.17,1.28.41,2.47,1.05,3.52,1.89,1.79,1.43,2.63,3.3,2.61,5.58-.04,3.5-1.7,6.03-4.66,7.77-1.82,1.08-3.82,1.65-5.92,1.85-.82.08-1.65.17-2.46.13-2.56-.13-5.05-.6-7.26-2.02-2.08-1.34-3.33-3.24-3.71-5.69-.1-.63-.1-1.28-.15-1.92-.02-.24.07-.31.31-.31,2.53.01,5.07.01,7.6,0,.24,0,.31.07.33.31.06.54.11,1.1.27,1.62.27.87.85,1.5,1.77,1.71,1.27.29,2.55.41,3.79-.08.51-.2,1.03-.49,1.42-.87,1.04-1.01.84-2.45-.44-3.13-.75-.4-1.57-.69-2.39-.95-1.98-.62-3.97-1.18-5.82-2.15-1.86-.97-3.24-2.37-3.73-4.47-.8-3.4.52-6.7,3.42-8.67,1.77-1.2,3.75-1.84,5.85-2.12,2.51-.34,4.98-.15,7.4.63,1.92.62,3.53,1.68,4.59,3.46.64,1.09.97,2.27,1.06,3.52.02.31.04.62.06.93.01.19-.06.27-.26.27-2.48.01-4.95.03-7.43.05-.02,0-.04,0-.13-.03Z"/><path class="cls-2" d="M198.45,23.97c1.25,0,2.5.01,3.75,0,.29,0,.36.12.38.35.03.35.02.71.08,1.06.25,1.37,1.25,2.26,2.64,2.38.9.08,1.81.18,2.7-.07.74-.21,1.41-.54,1.93-1.14.85-1,.72-2.3-.43-2.93-.86-.48-1.83-.77-2.76-1.11-1.75-.65-3.53-1.2-5.25-1.93-1.63-.69-2.93-1.83-3.68-3.5-1.15-2.59-.69-6.45,1.87-8.82,1.65-1.53,3.6-2.42,5.77-2.85,1.11-.22,2.25-.39,3.37-.39,2.33,0,4.62.31,6.73,1.39,2.52,1.29,3.88,3.37,4.17,6.17.04.36.04.73.07,1.1.03.27-.07.35-.34.35-1.8,0-3.6,0-5.4,0-.6,0-1.19,0-1.79,0-.17,0-.29-.03-.29-.24-.03-1.53-1.02-2.44-2.6-2.63-.92-.11-1.83-.08-2.71.26-.73.28-1.24.76-1.41,1.56-.12.56.05,1.02.45,1.4.53.5,1.18.79,1.87.99,1.39.39,2.8.69,4.18,1.12,1.81.56,3.5,1.38,4.84,2.77,1.45,1.49,1.97,3.31,1.86,5.35-.09,1.67-.56,3.2-1.54,4.56-1.26,1.75-2.98,2.89-4.96,3.66-1.49.58-3.05.91-4.64,1.03-2.75.22-5.42-.14-7.94-1.31-2.55-1.18-4.26-3.1-4.82-5.91-.15-.77-.14-1.57-.21-2.36-.02-.25.09-.3.32-.3,1.26.01,2.52,0,3.78,0,0,0,0,0,0,0Z"/><path class="cls-2" d="M39.68,33.21c.44-.76.86-1.48,1.28-2.2,3.12-5.39,6.25-10.78,9.37-16.18,1.67-2.87,3.35-5.74,4.98-8.63.25-.45.52-.57.99-.57,2.43.02,4.86.02,7.29.02.27,0,.37.12.4.35.48,3.18.96,6.36,1.46,9.54.47,3.03.95,6.06,1.43,9.09.43,2.76.86,5.52,1.3,8.27.04.24,0,.36-.28.36-2.56-.01-5.11-.02-7.67-.02-.23,0-.31-.07-.34-.31-.11-1.09-.26-2.18-.38-3.27-.03-.31-.16-.36-.44-.36-2.49.02-4.98.02-7.47.03-.31,0-.62,0-.93-.03-.23-.01-.38.06-.49.28-.6,1.14-1.2,2.27-1.83,3.39-.07.13-.26.29-.4.29-1.64.02-3.28.02-4.92.02-1.07,0-2.13,0-3.2-.01-.04,0-.08-.02-.18-.05ZM58.85,23.39c-.31-2.79-.61-5.54-.92-8.29-.04-.01-.09-.03-.13-.04-1.48,2.74-2.87,5.53-4.34,8.34h5.39Z"/><path class="cls-2" d="M100.94,12.66c-.3.02-.54.04-.78.04-2.16,0-4.31,0-6.47.01-.29,0-.39-.07-.32-.38.46-2.12.9-4.25,1.34-6.38.05-.25.15-.32.38-.32,1.57,0,3.14,0,4.71,0,6.02,0,12.04,0,18.06,0,.22,0,.43,0,.69,0-.03.22-.04.4-.08.57-.43,2.04-.86,4.07-1.29,6.11-.06.27-.16.39-.45.39-2.2,0-4.4,0-6.6,0-.7,0-.71-.01-.86.7-.96,4.64-1.92,9.27-2.88,13.91-.39,1.89-.78,3.79-1.18,5.68-.02.11-.21.24-.33.25-.43.04-.87.04-1.3.04-2.19,0-4.38,0-6.57,0-.22,0-.3-.03-.24-.29.77-3.66,1.54-7.32,2.3-10.98.61-2.94,1.22-5.89,1.83-8.83.03-.15.03-.31.05-.52Z"/><path class="cls-2" d="M70.83,33.21c1.42-6.85,2.84-13.67,4.26-20.54-.38.02-.66.05-.94.05-2.11,0-4.22,0-6.33,0-.42,0-.42,0-.34-.43.44-2.1.88-4.21,1.31-6.32.05-.23.16-.33.4-.32.49.01.99,0,1.48,0,7.14,0,14.29,0,21.43,0,.17,0,.34,0,.55,0-.02.16-.02.28-.04.4-.45,2.12-.9,4.23-1.34,6.35-.05.23-.15.31-.37.31-2.36,0-4.72,0-7.08-.02-.24,0-.31.09-.36.3-.4,1.95-.81,3.9-1.21,5.85-.96,4.59-1.91,9.18-2.86,13.77-.16.76-.05.65-.79.65-2.52,0-5.04,0-7.57-.01-.04,0-.09-.01-.19-.03Z"/></g></g></svg>