<?xml version="1.0" encoding="UTF-8"?><svg id="Layer_2" xmlns="http://www.w3.org/2000/svg" viewBox="0 0 674.31 37.38"><defs><style>.cls-1{fill:#0e191f;}.cls-2{fill:none;stroke:#0e191f;stroke-miterlimit:10;}</style></defs><g id="Wireframe"><path class="cls-2" d="M.5.5h569.61v5.8h-7.71v9.3h7.71v5.79h-7.71v15.5H.5V.5Z"/><path class="cls-1" d="M613.4.5h7.03v30.59h7.96v5.8h-14.99V.5Z"/><path class="cls-1" d="M635.89,36.93c-1.26-.29-2.29-.76-3.1-1.41-.81-.66-1.4-1.51-1.78-2.56-.38-1.05-.57-2.34-.57-3.87V8.26c0-1.51.19-2.79.57-3.84.38-1.05.97-1.9,1.78-2.56.81-.66,1.84-1.12,3.1-1.41,1.26-.29,2.76-.43,4.51-.43s3.27.14,4.52.43c1.25.29,2.28.76,3.09,1.41.81.66,1.4,1.51,1.79,2.56.39,1.05.58,2.33.58,3.84v20.84c0,1.53-.19,2.82-.58,3.87-.39,1.05-.98,1.9-1.79,2.56-.81.66-1.84,1.13-3.09,1.41-1.25.29-2.76.43-4.52.43s-3.25-.14-4.51-.43ZM641.74,33.75c.37-.12.67-.33.91-.65.24-.31.41-.71.53-1.2.12-.49.18-1.11.18-1.85V7.33c0-.74-.06-1.36-.18-1.85-.12-.49-.29-.89-.53-1.19-.24-.3-.54-.52-.91-.65-.37-.13-.81-.19-1.34-.19s-.94.06-1.32.18c-.38.12-.68.33-.92.65-.24.31-.41.71-.52,1.2-.11.49-.16,1.11-.16,1.85v22.72c0,.74.05,1.36.16,1.85.11.49.28.89.52,1.2.23.31.54.53.92.65.38.12.82.18,1.32.18s.97-.06,1.34-.18Z"/><path class="cls-1" d="M665.75,20.98h1.53l-.02-20.48h7.04v36.38h-9.03l-2.41-20.74h-1.7v20.74h-7.05V.5h9.2l2.44,20.48Z"/><path class="cls-1" d="M586.84.5h-10.73l-5.72,36.38h7.23l1.01-7.33h5.69l.98,7.33h7.26l-5.72-36.38ZM579.34,23.76l1.7-13.08h.87l1.7,13.08h-4.26Z"/><path class="cls-1" d="M595.24.5h7.03v30.59h7.96v5.8h-14.99V.5Z"/></g></svg>