<?xml version="1.0" encoding="UTF-8"?><svg id="Layer_2" xmlns="http://www.w3.org/2000/svg" viewBox="0 0 165.11 142.84"><defs><style>.cls-1{fill:#0e191f;}.cls-2{fill:#231f20;}.cls-3,.cls-4{fill:#faf0e0;}.cls-4{fill-rule:evenodd;}</style></defs><g id="Module_4"><g id="_2_COLOR"><path class="cls-1" d="M75.26,140.23c-8.22-3.98-23.94-13.43-36.9-31.92-13.62-19.43-20.53-43.28-20.53-70.9v-9.41l9.01-2.73c.21-.07,5.92-1.95,6.35-7.22l.67-8.18,7.74-2.75C55.04,2.33,67.89,0,80.88,0s25.75,2.34,38.93,7.14l7.19,2.62,1.04,7.58c.82,5.97,6.37,7.76,6.6,7.84l8.95,2.7.05,9.39c0,26.99-6.71,50.58-19.94,70.11-9.83,14.51-23.54,26.53-37.62,32.97l-5.44,2.49-5.38-2.61Z"/><path class="cls-3" d="M133.63,28.45c-.09-.03-2.1-.65-4.2-2.31-1.19-.94-2.19-2.04-2.96-3.25-.96-1.51-1.58-3.22-1.83-5.08l-.76-5.53-5.25-1.91c-12.8-4.67-25.15-6.94-37.76-6.94s-25.06,2.26-38.15,6.91l-5.65,2.01-.49,5.97c-.61,7.54-8.43,10.12-8.76,10.23h0s0,0,0,0l-6.57,2v6.87c0,26.9,6.7,50.09,19.91,68.93,12.52,17.85,27.67,26.96,35.59,30.8l3.93,1.91,3.97-1.82c13.52-6.19,26.72-17.77,36.21-31.77,12.84-18.95,19.35-41.89,19.35-68.17l-.03-6.86-6.55-1.98ZM116.7,102.65c-8.97,13.24-21.44,24.18-34.2,30.02l-1.62.74-.19.09-.19-.09-1.61-.78c-7.45-3.61-21.71-12.2-33.61-29.17-12.61-17.98-19-40.2-19-66.05v-3.15l.32-.1,2.69-.82c.46-.14,11.42-3.69,12.32-14.63l.2-2.44.02-.29.27-.1,2.31-.82c12.54-4.45,24.47-6.62,36.46-6.62s23.8,2.17,36.04,6.63l2.15.78.26.09.04.27.31,2.26c.36,2.59,1.21,4.98,2.55,7.07,1.07,1.69,2.46,3.21,4.12,4.51,2.93,2.3,5.71,3.14,5.83,3.18l2.7.82.32.1v.33s.02,2.81.02,2.81c0,25.24-6.22,47.22-18.49,65.33Z"/><path class="cls-3" d="M130.94,37.16l-.16-.05s-3.4-1.02-6.95-3.74c-2.08-1.6-3.82-3.46-5.17-5.55-1.69-2.6-2.77-5.56-3.21-8.78l-.02-.13-.13-.05c-11.79-4.3-23.12-6.39-34.66-6.39-.02,0-.03,0-.05,0-11.52,0-22.99,2.1-35.07,6.39l-.14.05v.15c-.27,3.16-1.22,6.08-2.85,8.68-1.3,2.08-3.03,3.96-5.15,5.59-3.61,2.78-7.13,3.87-7.17,3.88l-.16.05v.17c0,13.3,1.78,25.76,5.29,37.02,3.05,9.77,7.43,18.76,13.04,26.73,11.37,16.17,25.05,24.39,32.19,27.86l.1.05.1-.04c5.38-2.46,10.95-6.06,16.1-10.39,6.16-5.18,11.65-11.32,16.32-18.23,5.44-8.05,9.69-17.08,12.65-26.85,3.37-11.13,5.08-23.32,5.08-36.22v-.17Z"/><circle class="cls-2" cx="121.39" cy="14.34" r="1.96"/><circle class="cls-2" cx="39.52" cy="14.34" r="1.96"/><circle class="cls-2" cx="80.69" cy="136.1" r="1.96"/><path class="cls-2" d="M137.72,103.39c.88-3.43.34-7.1-1.49-10.07-1.74-2.83-4.47-4.78-7.69-5.48-2.49-.55-5.04-.36-7.39.56-2.23.87-4.11,2.32-5.47,4.21-3.71-.7-19.77-2.88-34.72-2.75-15.05.14-29.12,1.68-35.16,2.71-1.34-1.89-3.22-3.35-5.44-4.22-2.35-.92-4.91-1.11-7.41-.56-3.23.7-5.98,2.65-7.73,5.49-1.84,2.97-2.4,6.63-1.53,10.05.63,2.51,1.96,4.8,3.78,6.46-.81,2.46-.91,5.21-.29,7.78.86,3.53,2.85,6.37,5.61,8.01,2.35,1.4,5.11,1.78,7.76,1.07,4.29-1.15,7.7-4.68,8.94-9.25,2.59-.69,8.09-1.66,11.59-2.14h.01c4.45-.72,14.45-1.37,19.81-1.28h0s0,0,0,0c5.32-.07,14.93.57,19.41,1.3,3.6.5,9.01,1.47,11.6,2.16,1.25,4.58,4.64,8.12,8.91,9.26h0c.87.23,1.76.35,2.64.35,1.78,0,3.53-.48,5.11-1.41,2.76-1.63,4.76-4.48,5.63-8.01.63-2.57.53-5.31-.27-7.77,1.82-1.66,3.17-3.95,3.81-6.46Z"/><path class="cls-4" d="M47.6,115.12c-.54,4.27-3.5,7.78-7.41,8.82-4.67,1.23-9.38-1.89-10.63-7.22-.64-2.72-.24-5.62,1.14-7.98-2.21-1.31-3.85-3.54-4.5-6.26-1.29-5.33,1.96-11.05,7.46-12.26,4.57-1.01,9.01,1.15,10.91,4.98,4.49-.86,20.49-2.76,36.59-2.9,16.12-.14,32.34,2.27,36.13,2.95,1.94-3.79,6.44-5.97,10.94-4.97,5.55,1.23,8.71,6.89,7.37,12.27-.66,2.72-2.31,4.96-4.53,6.26,1.37,2.36,1.75,5.26,1.11,7.97-1.28,5.39-5.92,8.47-10.65,7.21-3.85-1.02-6.83-4.59-7.38-8.82-3.34-.99-9.76-2.12-13.31-2.6-4.83-.78-14.77-1.38-19.75-1.31-4.98-.09-15.34.51-20.16,1.29-3.56.48-9.98,1.6-13.32,2.58"/><path class="cls-1" d="M40.52,112.84c-.05-.85-.08-1.35-.14-2.23.62-.41.67-.74.6-1.83l-.26-4.37c-.04-.63-.13-2.11-.13-2.11h0c-.06-.58-.26-.82-.78-.96-.05-.82-.08-1.29-.13-2.09.69-.15,1.36-.3,2.06-.45.64-.13,1.26-.26,1.9-.39.64-.13,1.26-.25,1.91-.37.74-.14,1.46-.27,2.21-.4.72-.12,1.34-.18,1.89-.18.25,0,.48.01.7.04.87.1,1.52.39,1.99.89.55.59.85,1.44.9,2.63l.02.58c.04.99-.06,1.85-.3,2.54-.23.65-.57,1.17-1.06,1.59-.44.39-1.01.7-1.73.95-.61.21-1.32.39-2.3.56-.23.04-.41.07-.58.1-.24.04-.45.08-.75.13-.29.05-.45.26-.45.56,0,.26.01.53.1.7.15.29.41.42.78.5.05.87.07,1.37.12,2.25-.77.14-1.49.28-2.26.43-.72.14-1.39.28-2.11.43-.76.16-1.47.31-2.21.48ZM47.05,100.36c-.15,0-.32.02-.51.05-.18.03-.41.09-.52.11-.22.04-.37.24-.36.46.03.53.19,3.5.19,3.5.02.4.27.43.35.43h0s.05,0,.07,0c.06-.01.14-.03.23-.05.1-.02.21-.04.32-.06,1.05-.21,1.47-.69,1.43-1.6l-.08-1.68c-.04-.78-.4-1.15-1.11-1.15Z"/><path class="cls-1" d="M53.45,110.47c-.04-.87-.06-1.37-.1-2.26.45-.41.55-.76.71-1.63.17-.95.34-1.87.52-2.82.15-.8.3-1.58.45-2.39.15-.79.3-1.56.45-2.35.17-.87.34-1.71.51-2.56.87-.11,1.69-.2,2.57-.3.8-.09,1.54-.17,2.35-.24.86-.08,1.67-.16,2.54-.23.23.78.46,1.55.7,2.35.21.72.42,1.44.64,2.19.21.74.42,1.47.63,2.22.24.86.48,1.72.73,2.62.27.95.49,1.45.99,1.67l.05,2.24c-.73.05-1.42.1-2.16.17-.7.06-1.35.11-2.04.18-.73.07-1.42.14-2.15.21-.03-.86-.04-1.36-.07-2.24.25-.17.41-.35.49-.54.02-.04.06-.14.07-.3.01-.17-.04-.33-.16-.45-.12-.12-.28-.2-.45-.2-.02,0-.04,0-.06,0-.69.07-1.16.12-1.86.2-.32.04-.57.31-.57.63,0,.11.02.21.05.32.06.19.24.44.68.55.03.87.05,1.37.08,2.23-.65.07-1.25.15-1.9.23-.62.08-1.19.15-1.81.24-.64.09-1.24.17-1.87.26ZM58.7,103.19c-.02.16.03.32.13.44.1.12.26.19.41.19h0s.04,0,.06,0c.13-.01.63-.08.75-.09.16-.02.31-.11.41-.24.09-.14.12-.31.08-.47-.13-.49-1.16-3.93-1.16-3.93,0,0-.61,3.55-.69,4.11Z"/><path class="cls-1" d="M70.73,106.53c.68-.38.89-.76.88-1.56l-.08-4.74-.04-2.43c0-.13-.1-.21-.23-.21-.01,0-.1,0-.12,0-.14.02-.25.03-.31.05-.49.13-.74.46-.73.99l.04,2.43c-.6.03-1.13.06-1.74.1-.6.04-1.13.07-1.73.12l-.13-5.82c.95-.07,1.8-.12,2.61-.17.81-.05,1.61-.08,2.45-.12.75-.03,1.5-.06,2.28-.08.75-.02,1.5-.04,2.28-.05.8-.01,1.6-.02,2.44-.02.23,0,.47,0,.71,0,.61,0,1.24,0,1.88,0v5.78c-.4,0-.75,0-1.09,0-.22,0-.43,0-.63,0-.44,0-.99,0-1.73.01l-.02-2.41c0-.54-.29-.88-.82-.96-.04,0-.1-.01-.18-.02,0,0-.12,0-.12,0-.07,0-.14.03-.19.08-.05.05-.08.12-.08.19l.07,7.1c0,.83.21,1.18.91,1.5l.02,2.23c-.75.01-1.46.03-2.23.05-.72.02-1.38.05-2.1.08-.75.03-1.46.07-2.22.11l-.04-2.24Z"/><path class="cls-1" d="M96.14,109.18c-.6-.05-1.18-.1-1.8-.15-.59-.05-1.15-.09-1.74-.13-.88-.06-1.59-.11-2.14-.14,0-.45.03-1.65.04-2.51l.02-1.36c0-.59-.08-1.24-.82-1.56-.24-.1-.46-.13-1-.16,0,0-.01,0-.02,0-.19,0-.35.16-.35.35v1.47c-.02.84.07,1.16.64,1.48l-.02,2.22c-.72-.03-1.4-.06-2.13-.09-.69-.02-1.33-.04-2.02-.06-.73-.02-1.41-.03-2.14-.04v-2.22c.55-.25.69-.57.69-1.45v-6.32c0-.87-.13-1.18-.69-1.43v-2.05c.67,0,1.32.02,2.04.04.63.01,1.25.03,1.91.04.63.02,1.25.03,1.91.05.71.02,1.44.05,2.22.07,1.11.04,2.02.17,2.76.39.83.25,1.44.62,1.86,1.13.46.56.67,1.27.65,2.17-.02.83-.22,1.46-.63,1.94-.29.34-.69.6-1.21.78-.16.06-.27.2-.27.38,0,.17.1.32.26.38.46.18.78.38.99.62.3.34.42.79.41,1.48v.75c-.03.91.06,1.38.62,1.66-.02.88-.03,1.38-.05,2.24ZM88.79,97.63c-.22,0-.41.18-.41.4l-.02,2.18c0,.3.23.54.53.55h.32s.06.01.09.01c1.09,0,1.5-.42,1.51-1.55.01-1.08-.34-1.46-1.45-1.57-.09,0-.3-.02-.46-.03,0,0-.11,0-.12,0Z"/><path class="cls-1" d="M105.75,110.43c-.63,0-1.34-.05-2.12-.15-1.32-.17-2.38-.42-3.25-.77-.79-.31-1.4-.69-1.85-1.16-.4-.41-.68-.88-.84-1.44-.14-.47-.2-1-.19-1.62l.14-5.98c.01-.6.1-1.1.26-1.51.19-.49.49-.88.91-1.19.48-.36,1.13-.6,1.93-.72.43-.07.91-.1,1.42-.1.58,0,1.22.04,1.91.13,1.29.16,2.41.43,3.31.81.79.33,1.43.73,1.89,1.2.41.42.68.88.84,1.43.14.46.19.98.17,1.58-.03.78-.05,1.44-.08,2.06l-.07,1.83c-.02.63-.05,1.3-.08,2.11-.02.63-.12,1.14-.29,1.57-.2.51-.5.9-.93,1.2-.48.34-1.12.57-1.92.67-.35.05-.74.07-1.16.07ZM103.8,98.46c-1.03,0-1.06,1.03-1.08,1.59-.02.73-.04,1.34-.06,1.91,0,0-.09,2.95-.11,3.64-.02.61-.05,1.75,1.15,1.91.07,0,.15.01.21.01,1.03,0,1.07-1.07,1.08-1.64.03-.75.05-1.37.06-1.95l.06-1.69c.02-.57.04-1.19.06-1.91.02-.59.06-1.7-1.16-1.85-.08,0-.15-.01-.22-.01Z"/><path class="cls-1" d="M123.59,113.39c-.89-.17-1.73-.34-2.57-.5-.84-.16-1.62-.31-2.41-.45-.79-.15-1.53-.28-2.28-.42-.82-.15-1.61-.29-2.4-.42-.9-.15-1.75-.3-2.6-.44.04-.88.06-1.39.1-2.28.61-.19.73-.55.77-1.38.04-.88.06-1.6.09-2.28l.08-1.97c.03-.67.05-1.38.09-2.23.04-.9-.09-1.21-.65-1.56.03-.84.05-1.31.09-2.09.92.16,1.67.3,2.23.41.68.13,1.33.25,2.13.4.69.13,1.42.27,2.29.44-.04.79-.07,1.27-.1,2.08-.65.1-.87.44-.91,1.31-.04.95-.08,1.74-.11,2.49,0,0-.07,1.63-.1,2.2-.03.69-.07,1.57-.1,2.34,0,.22.15.41.36.44.09.01.29.05.36.05.12.01.24.02.34.02.74,0,1.07-.34,1.11-1.13.05-.98.07-1.51.11-2.4v-.03c.86.16,1.53.29,2.2.42l2.26.44c-.04.84-.08,1.55-.11,2.22-.04.71-.07,1.38-.11,2.1-.03.56-.07,1.3-.13,2.22Z"/><path class="cls-2" d="M52.68,49.49c0-.82-.05-1.67-.14-2.51-.98-8.72-6.63-14.81-11.59-17.6-2.79-1.57-6.37-2.39-10.37-2.39-2.42,0-4.94.31-7.29.89-3.3.82-7.64,2.62-11.59,4.81-2.59,1.43-7.27,4.31-9.56,7.45C.73,42.07.01,43.85.01,45.41c-.02.4-.02.85,0,1.36.03.77.1,1.39.2,1.81.05.25.11.48.19.7.1.26.8,1.67,3.75,7.56,4.32,8.63,11.56,23.08,15.02,30.51.47,1.05,1.69,2.28,3.59,2.28.5,0,1.01-.09,1.5-.26.16-.05.79-.26,1.65-.55l.55-.18c2.53-.84,6.36-2.11,6.69-2.23,1.6-.55,2.7-1.85,2.85-3.41.09-.54.1-1.17.05-1.88-.04-.51-.11-1.01-.21-1.48-.02-.13-.06-.27-.09-.39l-2.18-8.01c2.09-.48,5.11-1.36,8.04-2.87l.16-.08c3.02-1.53,5.35-3.33,7.14-5.5,3.01-3.66,4.28-8.14,3.76-13.31ZM29.99,51.71c.26,0,.5.02.67.04.41.07.75.29,1.04.69.03.04.06.08.09.13-.61.67-1.96,1.15-3.85,1.35-.22-.65-.42-1.27-.61-1.84.91-.25,1.8-.37,2.67-.37v-.23.23Z"/><path class="cls-2" d="M164.6,44.18c-.24-.58-.62-1.11-1.09-1.52-.1-.09-.31-.27-7-4.69-1.55-1.03-6.65-4.39-6.98-4.57-.43-.23-1.09-.59-2.17-.6h-.08c-1.57.02-2.99.89-3.79,2.34-.08.13-.13.26-.16.32l-8.41,19.28-3.41-9.8c-.85-2.44-2.56-3-3.84-3.04-1.61-.05-2.48.65-2.9.99-.25.21-2.26,2.03-4.02,3.62l-2.99-15.68c-.18-1.02-.62-1.97-1.25-2.7-.8-.92-1.84-1.44-3.02-1.48-.5-.03-12.34-.65-13.92-.65-1.77,0-3.22.98-3.8,2.56l-.03.05c-.67,1.42-.35,3.58-.23,4.23,0,.09.01.17.03.26,0,0,.01.08.02.12.05.31,7.68,43.63,7.9,44.86v.05c.28,2.43,1.61,4.08,3.66,4.52,2.17.62,2.46.66,2.7.69h.02c.16.02.35.04.6.04h.08c1.59-.02,3.03-.83,3.97-2.23.14-.21,1.21-1.56,2.25-2.87,1.76-2.23,4.15-5.24,6.25-7.97,4.4,14.23,4.53,14.46,4.62,14.64.89,1.63,2.39,2.68,4.22,2.96l6.12.89c.29.05.56.05.7.05h.09c1.73-.02,3.24-.87,4.14-2.33l.11-.2h0c2.07-3.49,20.91-35.57,21.02-35.74,1.21-2.09,1.44-4.61.59-6.43Z"/><path class="cls-2" d="M104.04,75.1l-.02-.11c-.73-4.05-15.17-46.56-15.31-46.99l-.02-.07c-.74-2.01-2.11-3.05-4.09-3.11h-.12c-.17,0-18.87.16-20.28.25-1.2.08-2.31.63-3.21,1.57-.71.75-1.26,1.73-1.55,2.76-.13.43-13.4,44.93-13.72,46.17-.03.11-.05.22-.08.34-.61,2.22-.32,4.3.8,5.7.78.98,1.9,1.52,3.14,1.52.07,0,.13,0,.2,0,2.43-.11,17.47-1.46,18.2-1.54,1.79-.19,3.01-1.3,3.52-3.21.37-1.39,1.29-4.97,1.72-6.62h5.69c.26,1.54.71,4.09.96,5.33.46,2.31,1.84,3.65,4.11,4,.76.12,11.87,1.25,15.13,1.57,1.76.17,3.12-.27,4.05-1.32.68-.77,1.7-2.6.89-6.24Z"/><path class="cls-3" d="M138.21,85c-1.67-.17-6.12-.89-6.12-.89-1.36-.21-2.42-.95-3.07-2.16-.16-.3-5.49-17.24-5.49-17.24,0,0-9.41,12.17-10.33,13.32s-2.01,1.74-3.16,1.51c-.56-.12-1.76-.39-2.53-.66-1.49-.53-2.05-.8-2.46-3.16s-7.74-43.09-7.93-45.1.92-3.02,2.48-3.02,13.84.65,13.84.65c1.59.06,2.54,1.49,2.78,2.89l3.52,18.46s5.65-5.16,6.03-5.47.87-.67,1.86-.64,1.89.52,2.4,1.98c.51,1.46,4.74,13.61,4.74,13.61l10.02-22.98c.02-.05.05-.12.08-.17.53-.97,1.42-1.53,2.44-1.54h.05c.66,0,1.05.21,1.42.41s13.37,8.77,13.7,9.06c.5.43.8,1.03.85,1.7.06.86-.32,1.56-.6,1.94,0,0-21.18,35.96-21.18,35.97-.6.99-1.66,1.71-3.33,1.54Z"/><path class="cls-3" d="M47.3,78.63c-.48-.69-.7-1.55-.39-2.74.31-1.19,13.6-45.77,13.71-46.14.43-1.55,1.71-3.31,3.66-3.44,1.38-.09,20.04-.25,20.18-.25h.1c1.46.04,2.4.77,2.96,2.3,0,.01,0,.03.01.04.6,1.75,14.57,42.94,15.27,46.81l.02.13c.13.68.34,1.81-.44,2.8-.56.72-1.64,1.15-3.15,1.04-1.52-.11-14.37-1.46-15.06-1.56-1.74-.26-2.67-1-3.09-3.01-.36-1.72-.88-4.96-1.13-6.32-1.81.01-5.73,0-7.7,0-.41,1.77-1.79,7.01-1.95,7.52v.02c-.49,1.82-1.75,2.22-2.45,2.3-.89.1-17.06,1.46-17.99,1.52s-1.96-.14-2.56-1Z"/><path class="cls-3" d="M22.65,86.14c-1.23,0-2.11-.77-2.46-1.55C15.04,73.54,1.71,47.29,1.45,46.6c-.38-1.03-.4-2.87,1.69-5.74,3.48-4.78,14.12-10.22,20.44-11.79,2.26-.56,4.68-.85,6.99-.85,3.78,0,7.15.77,9.76,2.23,4.7,2.64,10.04,8.4,10.97,16.66.55,4.94-.61,9.19-3.45,12.65-1.68,2.04-3.88,3.73-6.74,5.18l-.16.08c-3.52,1.82-7.18,2.7-9.49,3.12l3.11,11.45c.43,1.45-.38,2.87-1.92,3.4-.47.16-8.32,2.77-8.88,2.95-.37.13-.74.2-1.1.2M25.12,49.26c.57,1.87,1.33,4.17,1.94,5.98,2.36-.13,5.88-.74,6.29-3.14.08-.49-.05-1.64-.76-2.63-.48-.67-1.11-1.07-1.85-1.19-.24-.04-.53-.06-.86-.06-1.94,0-3.72.57-4.75,1.04"/><path class="cls-1" d="M99.09,30.36s7.84,44.52,7.9,44.9c.08.43.04,1.49.96,1.63,0,0,2.05.59,2.32.62.27.03.81.07,1.28-.63.62-.93,12.89-16.15,12.89-16.15,0,0,6.08,19.8,6.31,20.22.23.41.68.99,1.62,1.13l6.13.89s.89.16,1.35-.6l21.23-36.06s.5-.58.11-.92c-.39-.34-13.48-8.89-13.48-8.89,0,0-.68-.39-1.11.41l-12.04,27.58-6.43-18.52s-.34-.73-1-.29c-.02,0-.03.02-.05.03-.69.5-8.64,7.56-8.64,7.56l-4.19-21.77s-.2-1.2-.9-1.22l-13.84-.65s-.43-.06-.43.71"/><path class="cls-1" d="M100.82,75.54c-.67-3.68-15.19-46.51-15.19-46.51-.32-.87-.63-.94-1.16-.94-.4,0-18.78.16-20.02.25-1.24.09-1.8,2.09-1.8,2.09,0,0-13.6,45.49-13.82,46.21-.22.71.43,1,.75.98.32-.02,17.21-1.44,18.02-1.52.62-.07.69-.68.78-.95.16-.5,1.82-6.88,1.99-7.75.17-.87.38-1.18.63-1.17.24.01,8.9.04,9.72,0,.82-.04.96.37,1.11,1.15.15.78.92,5.11,1.24,6.89.18,1.05.7,1.23,1.37,1.33.67.1,12.43,1.34,14.91,1.54,1.88.15,1.64-.64,1.46-1.61"/><path class="cls-1" d="M49.27,47.33c-.84-7.5-5.69-12.72-9.94-15.11-2.3-1.29-5.32-1.97-8.75-1.97-2.15,0-4.4.28-6.5.79-5.68,1.41-15.93,6.41-19.28,11.01-1.66,2.27-1.58,3.45-1.43,3.85.26.69,18.69,37.87,18.69,37.87,0,0,.22.56,1.03.27,0,0,8.41-2.8,8.89-2.96.5-.17.75-.5.62-.93l-3.72-13.68s5.78-.48,11.12-3.24c.02,0,.03-.01.05-.02.04-.02.09-.05.13-.07,2.6-1.32,4.6-2.85,6.09-4.66,2.48-3.01,3.49-6.76,3-11.14M25.6,57.3c-.73-2.15-2.16-6.41-2.87-8.9.79-.87,3.93-2.2,7.14-2.2.45,0,.85.03,1.2.09,1.62.26,2.63,1.24,3.18,2.01,1.02,1.41,1.29,3.1,1.11,4.14-.72,4.23-6.26,4.86-9.51,4.86-.08,0-.17,0-.26,0"/><path class="cls-3" d="M80.8,51.88l-.2-.16c-.95-.77-1.23-1-2.11-2.14-.19-.25-.36-.49-.52-.72-.79-1.14-1.41-2.04-3.7-2.14-2.27-.09-2.92.82-3.69,1.89-.17.24-.35.49-.56.74-.86,1.03-1.04,1.16-1.92,1.8l-.29.21c-1.05.76-1.48,2.12-1.3,4.06.21,2.2,2.03,3.68,3.6,3.68.12,0,.25,0,.38-.02.93-.12,1.38-.23,1.75-.32.51-.13.81-.2,2.02-.15,1.2.05,1.42.13,1.85.29.31.11.73.27,1.66.48.19.04.38.06.57.06,1.69,0,3.53-1.68,3.71-3.4.2-1.92-.23-3.31-1.26-4.15Z"/><path class="cls-3" d="M86.7,45.61c-.02-.82-.4-2.29-1.4-3.01-1.01-.72-2.47-.76-3.8-.1-1.05.52-1.8,1.58-2,2.84-.02.11-.04.24-.07.38-.16.84-.44,2.25.23,3.01.22.25.41.49.59.73.39.52.76,1.01,1.39,1.35.33.18.72.27,1.14.27.59,0,1.23-.18,1.75-.49,1.65-.98,2.2-3.29,2.17-4.98Z"/><path class="cls-3" d="M73.78,45.43c.18.01.39.05.61.08.35.06.75.12,1.13.12.45,0,.82-.09,1.13-.27,1.83-1.11,2.35-3.53,1.92-5.24-.17-.65-.7-2.25-2.04-2.94-.56-.29-1.06-.42-1.57-.42-.63,0-1.29.2-2.22.68-1.26.65-2.08,2.27-2.14,3.46,0,.09-.01.18-.02.28-.05.69-.11,1.48.53,2.59.72,1.26,1.56,1.57,2.68,1.67Z"/><path class="cls-3" d="M67.89,49.69c.18-.2.36-.41.58-.62.67-.64.51-1.94.41-2.72-.02-.13-.03-.25-.04-.35-.1-1.16-.71-2.19-1.65-2.74-.66-.39-1.35-.6-2.02-.6-.54,0-1.04.13-1.48.4-.96.57-1.42,1.89-1.49,2.63-.14,1.53.21,3.67,1.67,4.69.53.37,1.2.59,1.8.59.3,0,.59-.05.85-.16.6-.26.97-.68,1.36-1.12Z"/><path class="cls-2" d="M30.08,50.82l.37,3.27s1.42-.35,2.29-1.54c0,0-.72-1.54-2.66-1.73Z"/><path class="cls-2" d="M30.21,54.44l-.45-3.93.35.03c2.07.2,2.86,1.82,2.89,1.89l.07.15-.1.13c-.91,1.26-2.39,1.63-2.45,1.65l-.31.08ZM30.4,51.15l.29,2.56c.41-.16,1.16-.51,1.71-1.19-.2-.33-.81-1.13-2-1.37Z"/><path class="cls-2" d="M27.41,102.22c-.57-2.35-.15-4.9,1.15-6.99.57-.91,1.28-1.69,2.09-2.32-2.87,3.36-2.48,6.98-1.99,9.01.49,2.06,1.69,3.74,3.37,4.73l.7.41s-.54.43-1,.91l-.36-.21c-1.99-1.17-3.4-3.14-3.97-5.54ZM40,122.81c-.58.15-1.17.23-1.76.23-3.2,0-6.05-2.29-7.2-5.67,1.5,2.95,4.32,4.39,7.2,4.39.48,0,.96-.06,1.43-.19,2.68-.71,4.79-3.01,5.46-5.88,0,0,.93-.26,1.39-.4-.59,3.64-3.17,6.64-6.52,7.53ZM131.28,114.13c0,.79-.09,1.59-.27,2.37-.94,3.95-3.93,6.61-7.43,6.61h0c-.6,0-1.22-.08-1.82-.24-3.31-.88-5.88-3.87-6.49-7.51.28.07,1.03.27,1.38.35.67,2.89,2.78,5.22,5.44,5.92.49.13,1,.2,1.49.2,2.89,0,6.53-1.83,7.7-7.69ZM134.43,102.28c-.5,2.17-1.82,4.26-4.16,5.67-.38-.34-.79-.65-1.08-.84,2.43-1.4,3.54-3.28,3.99-5.15.5-2.05.67-5.36-1.62-8.78.69.58,1.3,1.28,1.79,2.08,1.28,2.07,1.64,4.62,1.08,7.01Z"/><polygon class="cls-2" points="137 115.71 137.86 115.71 137.86 117.9 138.55 117.9 138.55 115.71 139.41 115.71 139.41 115.11 137 115.11 137 115.71"/><polygon class="cls-2" points="141.81 115.11 141.2 116.82 140.59 115.11 139.69 115.11 139.69 117.9 140.34 117.9 140.34 116.2 140.93 117.9 141.47 117.9 142.05 116.2 142.05 117.9 142.7 117.9 142.7 115.11 141.81 115.11"/></g></g></svg>