<?xml version="1.0" encoding="UTF-8"?><svg id="Layer_2" xmlns="http://www.w3.org/2000/svg" viewBox="0 0 246.88 40.28"><defs><style>.cls-1{fill:#faf0e0;}</style></defs><g id="Wireframe"><path class="cls-1" d="M0,.52h134.47v6.25h-9.81v10.03h9.81v6.25h-9.81v16.72H0V.52Z"/><path class="cls-1" d="M181.17.52h7.58v33h8.59v6.25h-16.17V.52Z"/><path class="cls-1" d="M205.44,39.82c-1.36-.31-2.47-.82-3.34-1.52-.87-.71-1.51-1.63-1.92-2.76-.41-1.13-.61-2.52-.61-4.17V8.89c0-1.63.2-3.01.61-4.15.41-1.13,1.05-2.05,1.92-2.76.87-.71,1.98-1.21,3.34-1.52,1.36-.31,2.98-.46,4.87-.46s3.53.15,4.88.46c1.35.31,2.46.82,3.33,1.52.87.71,1.51,1.63,1.93,2.76.42,1.13.63,2.51.63,4.15v22.48c0,1.65-.21,3.04-.63,4.17-.42,1.13-1.06,2.05-1.93,2.76-.87.71-1.98,1.21-3.33,1.52-1.35.31-2.98.46-4.88.46s-3.51-.15-4.87-.46ZM211.75,36.39c.4-.13.72-.36.98-.7.25-.34.44-.77.57-1.3.13-.53.19-1.19.19-1.99V7.89c0-.8-.06-1.47-.19-1.99-.13-.53-.32-.96-.57-1.28-.25-.33-.58-.56-.98-.7-.4-.14-.88-.21-1.44-.21s-1.02.06-1.43.19c-.41.13-.74.36-.99.7-.25.34-.44.77-.56,1.3-.12.53-.18,1.19-.18,1.99v24.51c0,.8.06,1.47.18,1.99.12.53.3.96.56,1.3.25.34.58.57.99.7.41.13.88.19,1.43.19s1.04-.06,1.44-.19Z"/><path class="cls-1" d="M237.66,22.61h1.65l-.02-22.09h7.59v39.25h-9.74l-2.6-22.37h-1.84v22.37h-7.61V.52h9.93l2.63,22.09Z"/><path class="cls-1" d="M152.52.52h-11.58l-6.17,39.25h7.8l1.09-7.91h6.14l1.06,7.91h7.83L152.52.52ZM144.42,25.61l1.83-14.11h.93l1.83,14.11h-4.59Z"/><path class="cls-1" d="M161.58.52h7.58v33h8.59v6.25h-16.17V.52Z"/></g></svg>