<?xml version="1.0" encoding="UTF-8"?><svg id="Layer_2" xmlns="http://www.w3.org/2000/svg" xmlns:xlink="http://www.w3.org/1999/xlink" viewBox="0 0 257.17 92.1"><defs><style>.cls-1{filter:url(#drop-shadow-1);}.cls-2,.cls-3{fill:#faf0e0;}.cls-3{fill-rule:evenodd;}</style><filter id="drop-shadow-1" x="-8.45" y="-8.35" width="288" height="123" filterUnits="userSpaceOnUse"><feOffset dx="7" dy="7"/><feGaussianBlur result="blur" stdDeviation="5"/><feFlood flood-color="#000" flood-opacity=".25"/><feComposite in2="blur" operator="in"/><feComposite in="SourceGraphic"/></filter></defs><g id="Module_4"><g id="g1593" class="cls-1"><path id="path1585" class="cls-2" d="M46.06,0c-13.08,0-25.55,5.55-34.28,15.29,8.04,1.59,10.78,8.33,10.78,18.77h-9.84c0-6.15-1.28-9.35-4.93-9.35-1.55-.03-2.98.85-3.66,2.24-.11.24-.21.48-.32.72-.3.87-.45,1.79-.44,2.71,0,12.76,20.96,12.13,20.96,31.74,0,7.66-5.87,14.8-12.48,14.8,9.05,10,21.41,15.06,33.81,15.17,12.4.1,24.84-4.76,34.05-14.61-7.75-1.95-14.49-13.09-14.49-30.8s6.82-30.09,14.98-31.32C72.04,5.35,58.42,0,46.06,0ZM28.35,16.6h10.54v24.37h11.4v-24.37h10.54v60.49h-10.54v-26.21h-11.38v26.21h-10.57V16.6ZM84.06,25.34c-5.41,0-8.37,10.19-8.37,20.37,0,10.73,2.82,21.11,8.37,21.11,4.62,0,8.05-9.85,8.05-20.77,0-4.97-1.62-20.71-8.05-20.71ZM0,45.21c-.1,13.35,4.04,22.25,9.11,22.25,2.94,0,5.03-2.59,5.03-6.35,0-7.8-6.83-9.3-14.14-15.9Z"/><path id="path1582" class="cls-3" d="M106.77,76.28h9.42l5.29-37.27h.17l5.12,37.27h9.75l7.69-58.84h-7.69l-4.21,34.54h-.17l-4.71-34.54h-9.67l-5.12,34.54h-.17l-3.8-34.54h-9.75l7.85,58.84Z"/><path id="path1579" class="cls-3" d="M152.14,76.28h10.74V26.53h9.84v-9.09h-29.84v9.09h9.26v49.75Z"/><path id="path1576" class="cls-3" d="M172.72,76.28h10.74V17.44h-10.74v58.84Z"/><path id="path1573" class="cls-3" d="M188.74,76.28h7.93v-43.14h.17l7.19,43.14h5.95l7.27-43.14h.17v43.14h9.59V17.44h-13.97l-5.04,30.16h-.17l-4.79-30.16h-14.3v58.84Z"/><path id="path1570" class="cls-3" d="M232.29,76.28h24.87v-9.09h-14.13v-16.03h10v-9.59h-10v-15.04h13.55v-9.09h-24.3v58.84Z"/></g></g></svg>