<?xml version="1.0" encoding="UTF-8"?><svg id="Layer_2" xmlns="http://www.w3.org/2000/svg" viewBox="0 0 280.65 49.77"><defs><style>.cls-1,.cls-2{fill:#faf0e0;}.cls-2{fill-rule:evenodd;}</style></defs><g id="Module_4"><g id="Layer"><path id="Layer-2" class="cls-1" d="M115.23,48.66h-9.02v-17.08c0-4.92-4.01-8.93-8.93-8.93s-8.93,4.01-8.93,8.93v17.08h-9.02v-17.08c0-9.89,8.06-17.95,17.95-17.95s17.95,8.06,17.95,17.95v17.08Z"/><path id="Layer-3" class="cls-2" d="M115.46,48.91h-9.48v-17.33c0-4.8-3.9-8.7-8.7-8.7s-8.68,3.9-8.68,8.7v17.33h-9.5v-17.33c0-10.04,8.16-18.18,18.18-18.18s18.18,8.15,18.18,18.18v17.33ZM106.44,48.43h8.56v-16.85c0-9.77-7.95-17.72-17.72-17.72s-17.7,7.95-17.7,17.72v16.85h8.54v-16.85c0-5.06,4.12-9.16,9.16-9.16s9.16,4.1,9.16,9.16v16.85Z"/><path id="Layer-4" class="cls-2" d="M58.45,49.54c-9.93,0-17.95-8.02-17.95-17.95s8.02-17.95,17.95-17.95,17.95,8.02,17.95,17.95-8.02,17.95-17.95,17.95h0ZM67.38,31.59c0-4.94-3.99-8.93-8.93-8.93s-8.93,3.99-8.93,8.93,3.99,8.93,8.93,8.93,8.93-3.99,8.93-8.93h0Z"/><path id="Layer-5" class="cls-2" d="M58.45,49.77c-10.05,0-18.18-8.13-18.18-18.18s8.13-18.18,18.18-18.18,18.18,8.13,18.18,18.18-8.13,18.18-18.18,18.18ZM76.17,31.59c0-9.8-7.91-17.72-17.72-17.72s-17.7,7.91-17.7,17.72,7.91,17.7,17.7,17.7,17.72-7.91,17.72-17.7h0ZM58.45,40.75c-5.06,0-9.16-4.1-9.16-9.16s4.1-9.16,9.16-9.16,9.16,4.08,9.16,9.16-4.08,9.16-9.16,9.16ZM67.15,31.59c0-4.81-3.89-8.7-8.7-8.7s-8.68,3.89-8.68,8.7,3.89,8.68,8.68,8.68,8.7-3.89,8.7-8.68Z"/><path id="Layer-6" class="cls-1" d="M31.09,48.66h-9.02v-17.08c0-9.89,8.06-17.95,17.95-17.95v9.02c-4.92,0-8.93,4.01-8.93,8.93v17.08Z"/><path id="Layer-7" class="cls-2" d="M31.32,48.91h-9.48v-17.33c0-10.04,8.15-18.18,18.18-18.18h.23v9.48h-.23c-4.8,0-8.7,3.9-8.7,8.7v17.33ZM22.3,48.43h8.56v-16.85c0-4.97,3.98-9.04,8.93-9.16v-8.56c-9.66.14-17.49,8.04-17.49,17.72v16.85Z"/><path id="Layer-8" class="cls-1" d="M9.25,18.18v2.32c2.64-1.52,5.69-2.39,8.93-2.39h1.8v9.02h-1.8c-4.92,0-8.93,4.01-8.93,8.93v12.6H.23v-30.48C.23,8.29,8.29.23,18.18.23h1.8v9.02h-1.8c-4.92,0-8.93,4.01-8.93,8.93h0Z"/><path id="Layer-9" class="cls-2" d="M9.5,48.91H0v-30.73C0,8.16,8.16,0,18.18,0h2.05v9.5h-2.05c-4.8,0-8.68,3.89-8.68,8.68v1.93c2.66-1.46,5.65-2.23,8.68-2.23h2.05v9.5h-2.05c-4.8,0-8.68,3.89-8.68,8.68v12.85ZM.48,48.45h8.54v-12.37c0-5.06,4.12-9.16,9.16-9.16h1.57v-8.56h-1.57c-3.08,0-6.13.82-8.81,2.35l-.36.21v-2.73c0-5.06,4.12-9.16,9.16-9.16h1.57V.48h-1.57C8.41.48.48,8.43.48,18.2v30.25Z"/><path id="Layer-10" class="cls-1" d="M136.14,40.52v9.02c-9.59,0-17.5-7.58-17.99-17.04V5.19h9.02v9.13h7.83v9.02h-7.83v8.25c0,4.92,4.05,8.93,8.97,8.93h0Z"/><path id="Layer-11" class="cls-2" d="M136.37,49.77h-.23c-9.73,0-17.74-7.58-18.22-17.26V4.96h9.48v9.13h7.84v9.5h-7.84v8c0,4.8,3.92,8.68,8.73,8.68h.23v9.5ZM118.38,5.44v27.06c.48,9.34,8.15,16.68,17.52,16.81v-8.56c-4.97-.12-8.97-4.19-8.97-9.16v-8.47h7.83v-8.56h-7.83V5.44h-8.56Z"/><path id="Layer-12" class="cls-1" d="M100.79,39.88c-1.59,0-2.87-1.28-2.87-2.85s1.28-2.87,2.87-2.87,2.87,1.28,2.87,2.87-1.28,2.85-2.87,2.85Z"/><path id="Layer-13" class="cls-2" d="M263.55,48.66h-9.02v-17.08c0-9.89,8.06-17.95,17.95-17.95v9.02c-4.92,0-8.93,4.01-8.93,8.93v17.08ZM174.67,32.48c-.48,9.48-8.36,17.04-17.95,17.04s-17.95-8.06-17.95-17.95,8.06-17.95,17.95-17.95c3.24,0,6.29.87,8.93,2.39V5.19h9.02v27.29ZM165.66,31.69v-.27c-.07-4.87-4.05-8.79-8.93-8.79s-8.93,3.99-8.93,8.91,4.01,8.93,8.93,8.93,8.86-3.92,8.93-8.79ZM195.55,49.5c-9.93,0-17.95-8.02-17.95-17.95s8.02-17.93,17.95-17.93,17.93,8.02,17.93,17.93-8.02,17.95-17.93,17.95ZM204.46,31.57c0-4.94-3.98-8.93-8.91-8.93s-8.93,3.99-8.93,8.93,3.99,8.91,8.93,8.91,8.91-3.99,8.91-8.91ZM233.66,49.5c-9.93,0-17.95-8.02-17.95-17.95s8.02-17.93,17.95-17.93,17.95,8.02,17.95,17.93-8.02,17.95-17.95,17.95ZM242.59,31.57c0-4.94-3.99-8.93-8.93-8.93s-8.93,3.99-8.93,8.93,3.99,8.91,8.93,8.91,8.93-3.99,8.93-8.91ZM274.43,45.53v-.02c0-1.69,1.37-3.14,3.1-3.14s3.12,1.43,3.12,3.12v.02c0,1.71-1.37,3.14-3.12,3.14s-3.1-1.41-3.1-3.12ZM280.29,45.51v-.02c0-1.52-1.18-2.76-2.76-2.76s-2.75,1.27-2.75,2.78v.02c0,1.53,1.18,2.78,2.75,2.78s2.76-1.27,2.76-2.8h0ZM276.32,43.87h1.44c.7,0,1.21.34,1.21,1,0,.52-.3.84-.73.96l.84,1.21h-.73l-.77-1.11h-.66v1.11h-.61v-3.17ZM277.71,45.44c.41,0,.64-.21.64-.52,0-.34-.23-.52-.64-.52h-.78v1.03h.78Z"/></g></g></svg>