<?xml version="1.0" encoding="UTF-8"?><svg id="Layer_2" xmlns="http://www.w3.org/2000/svg" viewBox="0 0 359.27 226.78"><defs><style>.cls-1{fill:#0e191f;}</style></defs><g id="Wireframe"><path class="cls-1" d="M81.78,70.4l-6.97-65.06h12.73l3.64,41.05,3.64-41.05h12.12l3.48,41.05,3.48-41.05h12.88l-7.12,65.06h-15.6l-3.26-31.36-3.11,31.36h-15.91Z"/><path class="cls-1" d="M127.08,70.4l6.29-65.06h22.04l6.21,65.06h-12.35l-.91-10.53h-7.88l-.76,10.53h-12.65ZM141.47,49.5h5.91l-2.88-33.1h-.61l-2.42,33.1Z"/><path class="cls-1" d="M165.33,70.4V5.34h13.41l5.98,31.13V5.34h12.57v65.06h-12.73l-6.51-32.57v32.57h-12.73Z"/><path class="cls-1" d="M202.82,70.4V5.34h13.41l5.98,31.13V5.34h12.57v65.06h-12.73l-6.51-32.57v32.57h-12.73Z"/><path class="cls-1" d="M238.57,70.4l6.29-65.06h22.04l6.21,65.06h-12.35l-.91-10.53h-7.88l-.76,10.53h-12.65ZM252.96,49.5h5.91l-2.88-33.1h-.61l-2.42,33.1Z"/><path class="cls-1" d="M9.11,144.66v-65.06h19.85l5.45,39.69,5.45-39.69h20v65.06h-11.89v-46.89l-7.5,46.89h-11.67l-7.95-46.89v46.89h-11.74Z"/><path class="cls-1" d="M63.64,144.66l6.29-65.06h22.04l6.21,65.06h-12.35l-.91-10.53h-7.88l-.76,10.53h-12.65ZM78.03,123.75h5.91l-2.88-33.1h-.61l-2.42,33.1Z"/><path class="cls-1" d="M101.89,144.66v-65.06h12.88v26.06l6.06-26.06h13.1l-7.27,29.77,8.79,35.3h-13.48l-7.12-31.51v31.51h-12.95Z"/><path class="cls-1" d="M137.42,144.66v-65.06h26.06v12.57h-12.8v12.65h12.27v12.27h-12.27v14.92h13.63v12.65h-26.89Z"/><path class="cls-1" d="M188.54,140.87c-2.63-2.93-3.94-7.65-3.94-14.16v-6.36h12.8v8.1c0,3.23,1.03,4.85,3.11,4.85,1.16,0,1.97-.34,2.42-1.02.45-.68.68-1.83.68-3.45,0-2.12-.25-3.88-.76-5.26-.5-1.39-1.15-2.55-1.93-3.48-.78-.93-2.18-2.39-4.2-4.36l-5.61-5.6c-4.34-4.24-6.51-8.94-6.51-14.09,0-5.55,1.27-9.78,3.83-12.69,2.55-2.9,6.27-4.36,11.17-4.36,5.86,0,10.07,1.55,12.65,4.66s3.86,7.97,3.86,14.58h-13.26l-.08-4.47c0-.86-.24-1.54-.72-2.04-.48-.5-1.15-.76-2.01-.76-1.01,0-1.77.28-2.27.83-.51.56-.76,1.31-.76,2.27,0,2.12,1.21,4.32,3.64,6.59l7.57,7.27c1.77,1.72,3.23,3.35,4.39,4.89,1.16,1.54,2.09,3.36,2.8,5.45.71,2.1,1.06,4.58,1.06,7.46,0,6.41-1.17,11.27-3.52,14.58-2.35,3.31-6.22,4.96-11.63,4.96-5.91,0-10.18-1.46-12.8-4.39Z"/><path class="cls-1" d="M224.14,140.45c-2.73-3.21-4.09-7.71-4.09-13.52v-30.98c0-5.61,1.36-9.83,4.09-12.69,2.73-2.85,6.71-4.28,11.97-4.28s9.24,1.43,11.97,4.28c2.73,2.85,4.09,7.08,4.09,12.69v30.98c0,5.86-1.36,10.38-4.09,13.56-2.73,3.18-6.72,4.77-11.97,4.77s-9.24-1.6-11.97-4.81ZM238.46,131.78c.4-1.01.61-2.42.61-4.24v-31.81c0-1.41-.19-2.56-.57-3.45-.38-.88-1.15-1.33-2.31-1.33-2.17,0-3.26,1.64-3.26,4.92v31.74c0,1.87.23,3.28.68,4.24.45.96,1.29,1.44,2.5,1.44s1.94-.5,2.35-1.52Z"/><path class="cls-1" d="M257.17,144.66v-65.06h19.85l5.45,39.69,5.45-39.69h20v65.06h-11.89v-46.89l-7.5,46.89h-11.67l-7.95-46.89v46.89h-11.74Z"/><path class="cls-1" d="M313.44,144.66v-65.06h26.06v12.57h-12.8v12.65h12.27v12.27h-12.27v14.92h13.63v12.65h-26.89Z"/><path class="cls-1" d="M96.44,153.83l-2.88,3.94.08,46.73h-18.86v-.45l4.09-3.94-.08-35.75h-.45l-12.65,31.13h-.83l-14.92-30.45h-.38v5.08c0,7.93,1.17,14.59,3.52,20,2.35,5.4,5.95,10.07,10.79,14.01v.38h-15.98v-43.1l-4.24-7.57v-.45l16.36-.15,10.98,23.18h.38l9.24-23.03h15.83v.45Z"/><path class="cls-1" d="M129.99,153.38l17.27,50.67v.45h-20.53v-.45l3.86-3.94-4.54-13.33h-12.42c.1,3.64.62,6.94,1.55,9.92.93,2.98,2.23,5.43,3.9,7.35v.45h-19.39v-.45l17.95-41.05-3.26-9.17v-.45h15.6ZM125.6,185.42l-6.89-20.3h-.45l-1.74,4.92c-1.77,5.05-2.73,10.18-2.88,15.38h11.97Z"/><path class="cls-1" d="M192.03,177.24l.38.38-.3,28.1h-.53l-10.76-10.6h-.45l-1.89,2.65c-1.82,2.63-3.23,4.56-4.24,5.79-1.01,1.24-1.82,1.86-2.42,1.86-4.54-.05-8.63-1.25-12.27-3.6-3.64-2.35-6.48-5.53-8.52-9.54s-3.07-8.39-3.07-13.14c0-6.97,1.69-12.45,5.08-16.44,3.38-3.99,7.07-6.72,11.06-8.18,3.99-1.46,7.09-2.2,9.32-2.2,4.44,0,8.33.92,11.66,2.76,3.33,1.84,5.71,4.13,7.12,6.85l-12.8,11.74-.38-.08c-.45-2.68-1.4-5.37-2.84-8.07-1.44-2.7-3.14-4.93-5.11-6.7-1.97-1.77-3.94-2.65-5.91-2.65-1.72,0-3.11.76-4.17,2.27-1.06,1.52-1.59,3.69-1.59,6.51,0,4.44.86,9.03,2.58,13.75,1.72,4.72,3.98,8.65,6.78,11.78,2.8,3.13,5.74,4.7,8.82,4.7.35,0,.61-.03.76-.08v-14.39l-11.21-3.03v-.45h24.92Z"/><path class="cls-1" d="M202.18,199.81v-41.74l-3.86-4.24v-.45h22.57v.45l-3.86,4.24v41.74l3.86,4.24v.45h-22.57v-.45l3.86-4.24Z"/><path class="cls-1" d="M237.63,201.74c-3.94-2.2-7.03-5.29-9.28-9.28-2.25-3.99-3.37-8.66-3.37-14.01,0-6.41,1.54-11.58,4.62-15.49,3.08-3.91,6.55-6.67,10.42-8.26s7.06-2.39,9.58-2.39c4.44,0,8.38.9,11.82,2.69,3.43,1.79,5.83,3.98,7.2,6.55l-12.42,12.2-.46-.15c-1.87-6.62-4.12-11.2-6.74-13.75-2.63-2.55-5.07-3.83-7.35-3.83-1.62,0-2.98.73-4.09,2.2-1.11,1.46-1.69,3.69-1.74,6.67,0,4.09.88,8.41,2.65,12.95,1.77,4.54,4.54,8.41,8.33,11.59,3.79,3.18,8.48,4.77,14.09,4.77,2.12,0,4.47-.46,7.04-1.36l.3.46c-2.83,2.37-6.24,4.97-10.23,7.8-3.99,2.83-6.39,4.24-7.2,4.24-4.85-.2-9.24-1.4-13.18-3.6Z"/><path class="cls-1" d="M286.48,189.43c2.37-8.53,3.58-15.55,3.64-21.06,0-3.18-.44-5.77-1.33-7.76-.88-1.99-2.18-2.99-3.9-2.99-1.31,0-2.26.44-2.84,1.33-.58.88-.87,2.26-.87,4.13,0,2.17.4,5.48,1.21,9.92l-13.71,3.86-.23-.38c2.22-5.25,4.72-9.68,7.5-13.29,2.78-3.61,5.53-6.3,8.26-8.07s5.2-2.65,7.42-2.65c4.34,0,7.54,1.2,9.58,3.6,2.05,2.4,3.07,5.26,3.07,8.6,0,2.47-.49,4.77-1.48,6.89-.98,2.12-2.26,4.06-3.83,5.83s-3.79,4.07-6.67,6.89c-1.67,1.62-3.38,3.33-5.15,5.15h-.68ZM282.13,203.26c-1.24-1.14-1.86-2.64-1.86-4.51s.62-3.29,1.86-4.43c1.24-1.14,2.87-1.7,4.89-1.7s3.47.57,4.66,1.7c1.19,1.14,1.78,2.61,1.78,4.43s-.59,3.37-1.78,4.51c-1.19,1.14-2.74,1.7-4.66,1.7-2.02,0-3.65-.57-4.89-1.7Z"/></g></svg>