<?xml version="1.0" encoding="UTF-8"?><svg id="Layer_2" xmlns="http://www.w3.org/2000/svg" viewBox="0 0 248.56 361.51"><defs><style>.cls-1{fill:#faf0e0;}.cls-2{fill:#f03010;}</style></defs><g id="Wireframe"><path class="cls-2" d="M142.82,2.21c.5.33,1.1,1.17,2.22,1.8.97.55,2,1.35,3.48,2.22,2.23,1.3,1.91,2.6,2.51,4.47.12.36.78.26.97,1.22.39,2.09-.37,7.15-.56,9.44-.16,1.89-.34,5.95-.84,7.67-.24.85-1.83,2.24-1.94,3.65-.16,1.95.6,4.41,2.96,3.41.84-.36,1.07-1.29,1.73-1.81,2.05-1.62,4.53-3.21,6.92-4.28,3.31-1.48,7.98-2.98,12.07-3.17.75-.03,2.71.06,3.13.72,1.14,7.09,2.11,14.24,2.96,21.36.26,2.17-.04,4.94.5,6.9.76,2.76,3.56,4.74,5.12,7.21,1.09,1.72,1.07,2.25,1.55,4.09.77,2.94,2.13,5.6,2.71,8.92.74,4.24.6,11.81,2.06,15.21.96,2.22,1.44,3.52,2.2,5.84.1.32.7.27.68.41-.13,1.14-1.09,2.81-.87,4.48.07.51,1.04.91,1.36,1.72,1.39,3.48-1.01,3.69-.85,5.42.1.99,1.45,1.81,1.68,2.57.1.32.4,2.43.38,2.76-.04,1.04-.93,1.37-1.19,2.08-.73,1.97.83,6.33.43,8.78-.02.15-1.08,2.58-1.16,2.71-.33.51-1.14.58-1.22.93-.19.81.5,1.79.32,2.67-.11.54-.68.94-.77,1.31-1.58,6.49-.22,8.43.42,14.68.65,6.35,1.14,16.35-.47,22.34-.56,2.1-4.55,6.1-4.67,7.26-.17,1.59.37,4.57.41,6.31.07,2.86-.15,4.64.55,7.69,2.02,8.79,4.07,18.02,6.35,27.47,1.91,7.94,3.66,16.84,5.53,25.19,2.77,12.39,3.92,22,4.02,34.81.04,4.42.79,14.3-.67,18.07-.21.53-1.54,1.17-1.78,1.74-.93,2.21-1.04,6.69-4.31,6.62,1.07.79,1.14,3,1.49,3.62.15.26,1.41.66,1.94,1.76.96,2.02.28,6.11.96,7.14.35.53,2.03.69,2.48,1.04,1.16.89,2.55,3.74,2.62,5.17.06,1.28-.58,2.61-.02,4.12-.35.29-2.53,1.94-2.69,1.98-2.93.86-6.68,1.09-9.68,1.88-4.78,1.25-9.57,3.18-14.09,4.23-6.17,1.43-15.4,2.89-21.61,2.76-1.14-.02-2.72.63-3.5-1.1-.57-1.26.91-1.43.84-2.22-.08-.96-1.27-1.2-1.36-1.55-.15-.55-.09-3.33-.37-3.6s-6.36.34-6.67-.91c-.2-.8,1.09-.71,1.43-1.11,1.2-1.43-.93-1.34-1.33-1.97-.08-.13-.72-2.78-.72-2.97,0-2.34,5.48-1.92,6.98-2.37,1.89-.57,6.79-4.06,8.89-5.2.45-.25,1.86-.53,1.96-.69.21-.34-.11-1.23.2-1.73.59-.96,2.55.87,2.68-1.92.04-.91-1.23-.49-1.7-.95-.19-.19-.76-1.85-.63-2.05,1.03-1.7,6.12-1.22,7.9-2.5-.27-.82.22-1.48.37-2.29.06-.34-.24-.8-.2-1.04.09-.54,1.62-.59,1.28-1.74-.17-.56-2.22-.83-2.8-1.43-.43-.44-.43-1.28-.86-1.61-.25-.2-2.45-.86-2.51-.98-.31-.59-.05-1.63-.18-1.78-.37-.41-3.68.59-2.93-3.2.31-1.55,2.9-3.24,2.53-4.66-.06-.23-1.12-2.37-1.36-2.83-3.37-6.74-8.86-13.1-11.53-20.26-2.41-6.47-6.79-11.5-9.12-18.36-4.67-13.71-5.1-28.35-7.2-42.84-.64-4.41-1.41-12.35-2.44-16.24-.26-1-.9-1.03-1.2-1.62-1.07-2.16.57-6.71.17-9.3-.13-.86-.99-1.16-1.37-1.83-1.53-2.67-1.62-6.9-2.02-10.23-.78-6.41-2.46-13.06-2.96-19.7-.22-2.96.17-6.51,0-9.45-.02-.32-.18-1.34-.68-1.28-.45,1.88-1.16,3.68-1.67,5.56-.92,3.42-.79,6.88-3.74,9.47-.62.55-3.06,1.67-3.05,2.42,0,.24.58.08.7.43.79,2.37.59,5.38,1.08,7.61.05.25.58.24.66.52,1.88,6.25,2.04,11.87,5.21,18.33,1.27,2.59.6,3.34,1.17,5.84.51,2.27,1.39,5.31,2.12,8.11.08.3.71.25.72.43.01.53-.7,1.09-.7,2.06,0,1.84.83,4.44.96,6.39.14,2.18-.2,5.13.1,7.37.12.89,1.24,2.9.96,3.55-.13.3-.7.17-.99,1.07s-.37,4.8-.35,5.95c.13,7.91,1.43,15.74.94,23.59-.57,8.99-2.33,18.16-2.16,27.19.07,3.72.92,7.9.68,11.52-.13,1.89-.92,7.46-1.5,9.02-.52,1.38-1.98,1.86-2.61,3.37-.66,1.58-.78,3.09-2.03,4.66-.46.57-1.6,1.01-1.73,1.46-.14.47.33,1.17.32,1.73,0,1.1-.58,4.2-1.17,4.99-.34.46-3.01,1.94-3.34,2.29-.35.37-.23,1.18-.54,1.59-.35.48-1.49.53-1.93,1.41-1.06,2.13-1.51,7.33-.49,9.5,1.02,2.16,4.19,6.17,5.69,8.13,2.64,3.45,6.33,6.07,7.37,10.52.4,1.71.39,4.68-1.63,5.35-2.03.67-6.34,1.73-8.39,1.85-1.68.1-6.69-.54-7.89-1.6-.64-.56-.21-1.9-.8-2.55-.22-.24-3.4-1.38-4.14-1.69-.65-.27-.45-.09-1.29-.51-.77-.39-1.82-.32-2.15-1.32-.91-2.77-.34-6.24-.42-9.06-.04-1.27-.74-3.27-.64-4.52.08-.95.92-2.49.96-3.66.03-.94-.53-1.87-.28-2.69.19-.62,1.19-.95,1.66-1.53,1.18-1.45,1.29-7.9.53-9.61-.43-.97-1.21-1.16-1.46-1.68-.47-1.03-.82-2.69-1.46-3.76-.4-.67-1.12.39-2.2-1.76-1.01-2.01-.64-2.78-1.01-4.56-.05-.23-1.42-1.25-1.44-2.89-.04-2.96,2.08-4.83,4.97-4.77-3.28-2.67-4.69-5.8-4.92-10.02.72-1.72,1.03-4.1,1.66-5.71,1.09-2.83,4.07-6.33,2.93-9.48-.88-2.42-1.75-3.56-3.25-5.58-3.06-4.14-3.22-4.99-3.82-10.26-.85-7.54-1.07-15.1-.88-22.74-1.22,2.09-1.95,4.62-2.58,6.97-3.24,12.12-.88,25.02-2.02,37.49-.04.48-.43.99-.48,1.57-.64,8.17-.54,16.71-5.39,23.51-.55.78-2.9,2.19-3.04,2.95-.21,1.07,2,2.62,2.06,2.85.17.61.67,5.22.63,5.83-.09,1.26-1.24,2.97-2.2,3.79-.48.41-3.29,1.96-3.38,2.33-.31,1.38.84,1.28,1.06,1.81.36.83.68,3.17.28,4.04-.55,1.19-1.73.94-2.29,2.03-.89.52-2.47.92-3.11,1.74-.83,1.05-1.42,6.55-1.06,7.79.39,1.34,1.46.83,2.17,1.37,1.26.97.4,3.38.53,4.74.37,3.75,2.22,8.37,2.76,12.05.39,2.66-.17,2.97-2.37,3.94-3.43,1.51-7.29,1.82-10.57,3.24-4.58,1.99-9.29,5.11-14.44,6.27-5.9,1.33-8.62.33-14.16-.74-2.3-.44-1.97-1.63-1.64-3.8.93-6.09,6.04-6.52,9.92-9.45,1.39-1.04,1.84-2.76,2.79-3.9.72-.86,2.18-1.37,2.56-1.84.58-.71.82-1.89,1.98-2.98.29-.27,1.8-.23,1.25-1.98-.37-1.17-3.53-1.18-1.72-3.59.29-.38,3.87-2.52,4.11-2.57.43-.1.89.26,1.5.11.57-.14,1.55-1.53,2.39-1.73-.15-.82-.51-2.07-.45-2.86.04-.47.49-.92.54-1.43.03-.37-2.59-5.63-2.99-6.14-.55-.69-1.43-.57-1.59-.95-.43-1.01-.59-3.98.71-4.51-2.56-1.23-3.81-3.52-3.8-6.35,0-1.48,1.2-4.43,2.23-5.45.83-.82,2.67-1.08,2.98-3.03.28-1.75-.8-2.2-1.2-3.35-.67-1.93-2.13-5.76-2.28-7.59-.27-3.25,1.63-11.19,2.76-14.41.89-2.56,2.4-4.18,2.42-7.06,0-1.35-.66-3.23-.64-4.56.03-2.01,1.42-4.01,1.44-6.39,0-.65-.66-.43-.72-.74-1.1-4.85-.07-8.14.69-12.67,1.09-6.5-2.21-14.05-1.64-20.72.1-1.15.78-2.92.9-4.32.42-5.01.04-10.3.39-15.48.22-3.3,1.44-6.78.71-10.14-.06-.29-.66-.1-.73-.75-.2-1.68.65-3.14.74-4.6.69-10.37-.81-21.28-1.05-31.72-.01-.49.24-.92.31-1.39-.27-.69-1.12-.39-1.62-.67-.18-.1-.18-.66-.78-.81-.7-.18-1.54.16-1.81.04s-3.74-4.09-3.91-4.53c-1.01-2.6-.89-7.24-1.44-10.18-.97-5.17-2.17-8.78-2.6-14.24-.79-10.15-2.2-19.64,1.56-29.27.24-.62.81-2.07,1.23-2.46.27-.25,4.67-2.49,5.24-2.69,1.96-.69,4.85-1.07,6.95-1.33.26-1.47.4-3.55,1.43-4.74.69-.79,2.22-1.27,2.93-1.91.38-.34.81-1.51,1.58-2.12.64-.51,3.82-1.96,3.94-2.15.47-.69-.84-1.71-1.39-1.89-.39-.13-.97.24-1.06.14-.12-.13.5-1.53.36-2.22-.06-.27-.56-.26-.71-.5-.2-.32-.2-.83-.44-1.07-.4-.4-1.44-.36-1.85-1.15-.49-.96-.91-3.78-1.33-5.01-1.28-3.75-2.73-6.93-4.08-11.07-.16-.49-.68-.45-.75-.73-.09-.37-.34-5.25-.29-5.53.08-.38.67-.62.78-.94.53-1.43.7-2.42,2.11-3.51,1.65-1.28,4.39-2.44,6.16-3.38.47-.25.98-1.5,1.75-1.74,1.68-.51,6.92-1.49,8.63-1.52.83-.01,4.79.54,5.57.72,2.88.65,5.68,1.75,7.41,4.25.78,1.13.98,2.86,1.65,3.99.51.86,1.48,1.31,1.7,1.82.79,1.85.73,6.6,1.14,8.73.15.79.95,1.03,1.07,1.78.19,1.25-.85,1.95-.91,2.79-.04.66.48,1.59.4,2.15-.1.77-1.94,1.93-2.09,2.36-.23.64.28,2.16-.06,3.27-.24.8-1.15,1.65-1.4,2.45-.37,1.22.16,2.69,0,3.4-.12.5-.81.88-.87,1.55-.08.82.24,3.52,1.39,3.16,1.6-.5,2.7-2.34,4.71-.83,1.67,1.25.7,1.86.99,2.86.18.62,1.42,1.19,1.01,2.38,1.47-.22,1.98-1.46,3.6-.68,1.6.77.74.18,2.13.39.55.08,1.04.8,1.76.6.43-.12.71-.79,1.2-.95.52-.16,1.79,0,1.87-.07.21-.2-.49-1.63.52-1.41.77.69,1.09,1.82,1.65,2.6.65.92.8,1.18,1.38,2.13.26.42.97.48,1.04.8.2.93-.62,1.81-.73,2.42-.03.15.71.13.72.36.02.4-.53.77-.21,1.55.41,1,1.77.94,2.49,1.41,1.21.78,1.18,2.83,3.05,1.76.93-.53,1.5-4.43,1.17-4.92s-1.12.08-.87-1.54c.2-1.33.85-2.19,2.12-2.55-.14-2.66.41-5.16.84-7.73,2.88-5.19,3.12-11.36,4.19-16.84.57-2.96.16-5.95,1-8.8.15-.5.89-.82.95-1.17.04-.2-1.41-3.51-1.55-3.65-.53-.54-3.02-1.26-3.86-1.77-3.75-2.27-3.83-4.25-5.39-8-1.79-4.3-1.41-7.01-2.27-11.47-.74-3.88-.03-2.18.44-5.03.11-.65-.68-.44-.73-.73-.23-1.24,1.58-3.27.9-4.7-.18-.38-.91-.61-.9-1.24.01-.48.66-.89.71-1.43.06-.62-.45-1.23-.3-2.02.19-1.02,1.74-2.62,2.15-3.52.35-.78.24-2.48.97-2.92s1.6.13,2.47.02c1.47-.19,2.55-1.56,2.71-1.6.66-.17,1.6.16,2.33,0s.87-.96,3.2-.67c4.05.5,6.57.48,10.42,2.22.29.13.77-.2.97-.07Z"/><path class="cls-1" d="M25.75,200.38l-1.49-29.21,9.76-1.45,7.02,28.39-5.46.81-1.09-4.6-3.49.52.36,4.71-5.6.83ZM30.74,190.19l2.62-.39-3.45-14.46-.27.04,1.1,14.81Z"/><path class="cls-1" d="M38.5,169.06l8.85-1.31c1.41-.21,2.54-.05,3.41.47.87.52,1.52,1.34,1.96,2.45.44,1.11.79,2.56,1.05,4.35.24,1.63.22,2.94-.07,3.92-.29.98-.93,1.73-1.93,2.24.9.05,1.59.39,2.09,1.03.49.63.83,1.54,1,2.73l1.55,10.9-5.63.83-1.67-11.26c-.12-.8-.35-1.3-.7-1.47-.35-.18-.93-.2-1.76-.08l1.95,13.14-5.83.87-4.27-28.8ZM47.33,178.65c.8-.12,1.08-1.05.82-2.79-.11-.76-.23-1.32-.35-1.7-.12-.37-.29-.61-.49-.73-.2-.12-.47-.15-.8-.1l-1.34.2.79,5.33,1.38-.2Z"/><path class="cls-1" d="M54.49,166.69l7.81-1.16c2.1-.31,3.7-.02,4.81.86,1.1.89,1.83,2.49,2.17,4.82l.19,1.27c.41,2.75-.33,4.54-2.22,5.37,1.25.13,2.21.73,2.87,1.8.66,1.07,1.13,2.54,1.41,4.42.45,3.06.34,5.45-.34,7.16-.68,1.71-2.22,2.74-4.61,3.1l-7.81,1.16-4.27-28.8ZM62.91,176.51c.49-.07.8-.31.92-.7.12-.4.14-.93.04-1.6l-.43-2.88c-.14-.94-.62-1.35-1.45-1.22l-1.21.18.95,6.4,1.17-.17ZM66.14,187.02l-.53-3.59c-.13-.87-.36-1.51-.68-1.92s-.81-.57-1.46-.47l-1.07.16,1.24,8.35.57-.05c1.5-.22,2.14-1.05,1.93-2.48Z"/><path class="cls-1" d="M78.31,192.59l-1.41-9.49-7.46-18.63,5.7-.85,3.06,9.52.16-10,5.7-.84-1.73,19.99,1.41,9.49-5.43.81Z"/><path class="cls-1" d="M87.29,170.46l.5-4.05-2.08.31-.72-4.86,6.13-.91.7,4.73-1.08,4.27-3.45.51Z"/><path class="cls-1" d="M98.48,187.88c-1.35-1.12-2.25-3.13-2.67-6.01l-.42-2.82,5.67-.84.53,3.59c.21,1.43.78,2.08,1.69,1.94.51-.08.85-.28,1.01-.61.16-.33.18-.85.07-1.57-.14-.94-.37-1.7-.68-2.28-.31-.58-.67-1.05-1.08-1.42s-1.12-.91-2.15-1.65l-2.85-2.11c-2.2-1.59-3.47-3.53-3.81-5.81-.36-2.46-.08-4.41.86-5.87.94-1.45,2.49-2.34,4.66-2.66,2.59-.38,4.56.03,5.91,1.23,1.34,1.21,2.23,3.27,2.67,6.2l-5.87.87-.33-1.97c-.06-.38-.21-.67-.45-.86-.25-.19-.56-.26-.94-.2-.45.07-.76.24-.95.52-.19.28-.25.63-.19,1.05.14.94.82,1.83,2.04,2.68l3.83,2.72c.9.64,1.65,1.27,2.27,1.87.62.61,1.15,1.35,1.6,2.23.45.88.77,1.96.96,3.23.42,2.84.22,5.07-.6,6.69-.82,1.62-2.43,2.6-4.82,2.96-2.62.39-4.6.02-5.95-1.1Z"/><path class="cls-1" d="M121.77,184.43c-1.35-1.12-2.25-3.13-2.67-6.01l-.42-2.82,5.67-.84.53,3.59c.21,1.43.78,2.08,1.69,1.94.51-.08.85-.28,1.01-.61.16-.33.18-.85.07-1.57-.14-.94-.37-1.7-.68-2.28-.31-.58-.67-1.05-1.08-1.42-.41-.36-1.12-.91-2.15-1.65l-2.85-2.11c-2.2-1.59-3.47-3.53-3.81-5.81-.36-2.46-.08-4.41.86-5.87.94-1.45,2.49-2.34,4.66-2.66,2.59-.38,4.56.03,5.91,1.23,1.34,1.21,2.23,3.27,2.67,6.2l-5.87.87-.33-1.97c-.06-.38-.21-.67-.45-.86-.25-.19-.56-.26-.94-.2-.45.07-.76.24-.95.52-.19.28-.25.63-.19,1.05.14.94.82,1.83,2.04,2.68l3.83,2.72c.89.64,1.65,1.27,2.26,1.87.62.61,1.15,1.35,1.6,2.23.45.88.77,1.96.96,3.23.42,2.84.22,5.07-.6,6.69-.82,1.62-2.43,2.6-4.82,2.96-2.62.39-4.6.02-5.95-1.1Z"/><path class="cls-1" d="M136.3,183.98l-4.27-28.8,8.78-1.3,5.02,17.21-.19-17.92,8.85-1.31,4.27,28.8-5.26.78-3.08-20.75-.24,21.24-5.16.77-6.6-20.23,3.08,20.75-5.2.77Z"/><path class="cls-1" d="M162.61,178.18c-1.42-1.24-2.32-3.14-2.7-5.72l-2.03-13.71c-.37-2.48-.04-4.44.98-5.88,1.02-1.44,2.69-2.34,5.02-2.68s4.18.03,5.58,1.11c1.39,1.08,2.27,2.87,2.64,5.35l2.03,13.71c.38,2.59.08,4.68-.92,6.27-1,1.59-2.66,2.55-4.98,2.9s-4.2-.1-5.61-1.34ZM168.38,173.4c.11-.47.11-1.11-.01-1.92l-2.09-14.08c-.09-.62-.25-1.12-.48-1.49-.22-.37-.59-.51-1.11-.43-.96.14-1.33.94-1.12,2.39l2.08,14.05c.12.83.32,1.44.58,1.83.26.4.66.55,1.2.47.51-.08.83-.35.94-.83Z"/><path class="cls-1" d="M177.61,177.86l-4.27-28.8,5.7-.85,1.71,11.53.97-11.93,5.8-.86-1.26,13.65,6.21,15.04-5.97.88-5.22-13.48,2.07,13.95-5.73.85Z"/><path class="cls-1" d="M193.43,175.51l-4.27-28.8,11.53-1.71.83,5.57-5.66.84.83,5.6,5.43-.81.81,5.43-5.43.8.98,6.6,6.03-.89.83,5.6-11.9,1.76Z"/><path class="cls-1" d="M202.97,144.67l7.95-1.18c2.06-.3,3.68.04,4.88,1.02,1.2.99,1.97,2.6,2.33,4.83l2.07,13.47c.44,2.83.27,5.04-.53,6.62-.79,1.58-2.35,2.54-4.68,2.89l-7.74,1.15-4.27-28.8ZM213.29,167.36c1.05-.16,1.5-.75,1.35-1.78l-2.2-14.85c-.1-.65-.22-1.13-.37-1.44-.15-.31-.36-.5-.65-.57-.29-.07-.71-.07-1.27.02l-.64.09,2.77,18.67,1.01-.15Z"/><path class="cls-1" d="M81.82,223.53c-1.35-1.12-2.25-3.13-2.67-6.01l-.42-2.82,5.67-.84.53,3.59c.21,1.43.78,2.08,1.69,1.94.51-.08.85-.28,1.01-.61.16-.33.18-.85.08-1.57-.14-.94-.37-1.7-.68-2.28s-.68-1.05-1.08-1.42c-.41-.36-1.12-.91-2.15-1.65l-2.85-2.11c-2.2-1.59-3.47-3.53-3.81-5.81-.36-2.46-.08-4.41.86-5.87.94-1.45,2.49-2.34,4.66-2.66,2.59-.38,4.56.03,5.9,1.23s2.23,3.27,2.67,6.2l-5.87.87-.33-1.97c-.06-.38-.21-.67-.45-.86-.25-.19-.56-.26-.94-.2-.45.07-.76.24-.95.52-.19.28-.25.63-.19,1.06.14.94.82,1.83,2.04,2.68l3.83,2.72c.89.64,1.65,1.27,2.26,1.87.62.61,1.15,1.35,1.6,2.23.45.88.77,1.96.96,3.23.42,2.84.22,5.07-.6,6.68-.82,1.62-2.43,2.6-4.82,2.96-2.62.39-4.6.02-5.95-1.1Z"/><path class="cls-1" d="M98.59,222.75l-7.36-28.34,5.63-.84,4.3,17.93-1.09-18.41,5.36-.79,4.24,17.94-1.15-18.4,5.7-.84,1.12,29.26-6.91,1.02-3.5-13.67.68,14.08-7.04,1.04Z"/><path class="cls-1" d="M120.22,219.54l-4.27-28.8,11.53-1.71.83,5.57-5.67.84.83,5.6,5.43-.81.81,5.43-5.43.81.98,6.6,6.03-.9.83,5.6-11.9,1.76Z"/><path class="cls-1" d="M133.26,217.61l-1.49-29.21,9.76-1.45,7.02,28.39-5.46.81-1.09-4.6-3.49.52.36,4.71-5.6.83ZM138.26,207.41l2.62-.39-3.45-14.46-.27.04,1.1,14.81Z"/><path class="cls-1" d="M152.77,214.72l-3.45-23.26-3.42.51-.82-5.53,12.61-1.87.82,5.53-3.42.51,3.45,23.26-5.77.86Z"/><path class="cls-1" d="M164.49,211.26c-1.35-1.12-2.25-3.13-2.67-6.01l-.42-2.82,5.67-.84.53,3.59c.21,1.43.78,2.08,1.69,1.94.51-.08.85-.28,1.01-.61s.18-.85.08-1.57c-.14-.94-.37-1.7-.68-2.28-.31-.58-.68-1.05-1.08-1.42-.41-.36-1.12-.91-2.15-1.65l-2.85-2.11c-2.2-1.59-3.47-3.53-3.81-5.81-.36-2.46-.08-4.41.86-5.87.94-1.45,2.49-2.34,4.66-2.66,2.59-.38,4.56.03,5.9,1.23,1.34,1.21,2.23,3.27,2.67,6.2l-5.87.87-.33-1.97c-.06-.38-.21-.67-.45-.86-.25-.19-.56-.26-.94-.2-.45.07-.76.24-.95.52s-.25.63-.19,1.06c.14.94.82,1.83,2.04,2.68l3.83,2.72c.89.64,1.65,1.27,2.26,1.87.62.61,1.15,1.35,1.6,2.23.45.88.77,1.96.96,3.23.42,2.84.22,5.07-.6,6.69-.82,1.62-2.43,2.6-4.82,2.96-2.62.39-4.6.02-5.95-1.1Z"/></g></svg>