<?xml version="1.0" encoding="UTF-8"?><svg id="Layer_2" xmlns="http://www.w3.org/2000/svg" viewBox="0 0 897.52 565.39"><defs><style>.cls-1,.cls-2,.cls-3{fill:none;}.cls-4{fill:#faf0e0;}.cls-2{stroke-width:1.42px;}.cls-2,.cls-3{stroke:#faf0e0;stroke-miterlimit:10;}.cls-3{font-family:PPMigra-Extrabold, 'PP Migra';font-size:192.11px;font-weight:700;stroke-width:2.12px;}.cls-5{fill:#fdaaff;}.cls-6{fill:#f03010;}.cls-7{letter-spacing:-.05em;}.cls-8{letter-spacing:-.03em;}</style></defs><g id="Wireframe"><polygon class="cls-5" points="500.08 565.39 477.73 543.03 504.21 516.55 374.98 516.55 374.98 487.24 436.59 376.42 470.67 376.42 407.55 487.62 503.84 487.62 477.17 460.95 498.77 439.34 563.2 503.77 500.08 565.39"/><path class="cls-5" d="M64.35,195.44V67.44h39.04l10.73,78.08,10.73-78.08h39.34v128h-23.39v-92.24l-14.75,92.24h-22.95l-15.65-92.24v92.24h-23.1Z"/><path class="cls-5" d="M175.52,195.44V67.44h51.26v24.74h-25.18v24.88h24.14v24.14h-24.14v29.36h26.82v24.89h-52.9Z"/><path class="cls-5" d="M236.91,195.44V67.44h51.26v24.74h-25.18v24.88h24.14v24.14h-24.14v29.36h26.82v24.89h-52.9Z"/><path class="cls-5" d="M309.33,195.44v-103.42h-15.2v-24.59h56.03v24.59h-15.2v103.42h-25.63Z"/><path class="cls-5" d="M401.39,195.44v-42.17l-20.42-85.83h25.33l7.15,43.36,7.15-43.36h25.33l-20.42,85.83v42.17h-24.14Z"/><path class="cls-5" d="M459.36,187.17c-5.36-6.31-8.05-15.17-8.05-26.6v-60.95c0-11.03,2.68-19.35,8.05-24.96,5.36-5.61,13.21-8.42,23.54-8.42s18.18,2.81,23.54,8.42c5.36,5.61,8.05,13.93,8.05,24.96v60.95c0,11.53-2.68,20.42-8.05,26.67-5.36,6.26-13.21,9.39-23.54,9.39s-18.18-3.15-23.54-9.46ZM487.52,170.11c.79-1.99,1.19-4.77,1.19-8.35v-62.59c0-2.78-.37-5.04-1.12-6.78-.75-1.74-2.26-2.61-4.54-2.61-4.27,0-6.41,3.23-6.41,9.69v62.44c0,3.68.45,6.46,1.34,8.34.89,1.89,2.53,2.83,4.92,2.83s3.82-.99,4.62-2.98Z"/><path class="cls-5" d="M530.96,187.69c-5.12-5.96-7.67-14.8-7.67-26.52v-93.73h24.88v92.69c0,4.07.4,7.25,1.19,9.54.79,2.29,2.48,3.43,5.07,3.43s4.27-1.12,5.07-3.35c.79-2.24,1.19-5.44,1.19-9.61v-92.69h24.88v93.73c0,11.72-2.56,20.56-7.67,26.52-5.12,5.96-12.94,8.94-23.47,8.94s-18.35-2.98-23.47-8.94Z"/><path class="cls-5" d="M595.41,67.44h39.34c6.26,0,11.1,1.42,14.53,4.25,3.43,2.83,5.74,6.81,6.93,11.92,1.19,5.12,1.79,11.65,1.79,19.59,0,7.25-.95,12.92-2.83,16.99-1.89,4.07-5.17,6.91-9.83,8.49,3.88.8,6.68,2.73,8.42,5.81,1.74,3.08,2.61,7.25,2.61,12.52l-.3,48.43h-25.03v-50.07c0-3.58-.7-5.86-2.09-6.86-1.39-.99-3.92-1.49-7.6-1.49v58.41h-25.93V67.44ZM627.6,114.83c3.58,0,5.36-3.87,5.36-11.62,0-3.38-.15-5.91-.45-7.6-.3-1.69-.85-2.85-1.64-3.5-.8-.64-1.94-.97-3.43-.97h-5.96v23.69h6.11Z"/><path class="cls-5" d="M64.35,341.52v-128h26.38l11.77,61.24v-61.24h24.74v128h-25.04l-12.81-64.08v64.08h-25.04Z"/><path class="cls-5" d="M138.56,341.52v-128h51.26v24.74h-25.18v24.88h24.14v24.14h-24.14v29.36h26.82v24.89h-52.9Z"/><path class="cls-5" d="M196.23,341.52l13.71-67.95-10.88-60.2h25.03l6.71,44.11,5.81-44.11h25.18l-11.03,60.2,13.71,67.95h-25.93l-8.05-50.07-8.2,50.07h-26.08Z"/><path class="cls-5" d="M283.1,341.52v-103.42h-15.2v-24.59h56.03v24.59h-15.2v103.42h-25.63Z"/><path class="cls-1" d="M370.7,341.52v-103.42h-15.2v-24.59h56.03v24.59h-15.2v103.42h-25.63Z"/><path class="cls-1" d="M418.68,341.52v-128h51.26v24.74h-25.18v24.88h24.14v24.14h-24.14v29.36h26.82v24.89h-52.9Z"/><path class="cls-1" d="M476.65,341.52l12.37-128h43.36l12.22,128h-24.29l-1.79-20.71h-15.5l-1.49,20.71h-24.89ZM504.96,300.39h11.62l-5.66-65.12h-1.19l-4.77,65.12Z"/><path class="cls-1" d="M552.34,341.52v-128h39.04l10.73,78.08,10.73-78.08h39.34v128h-23.39v-92.24l-14.75,92.24h-22.95l-15.65-92.24v92.24h-23.1Z"/><text class="cls-3" transform="translate(340.36 343.9) scale(1.08 1)"><tspan class="cls-8" x="0" y="0">TE</tspan><tspan class="cls-7" x="235.53" y="0">A</tspan><tspan class="cls-8" x="349.64" y="0">M</tspan></text><path class="cls-4" d="M0,59.69c32.87,14.81,44.88,26.82,59.69,59.69,14.81-32.87,26.82-44.88,59.69-59.69C86.51,44.88,74.5,32.87,59.69,0,44.88,32.87,32.87,44.88,0,59.69Z"/><path class="cls-2" d="M109.18,33.4c17.23,3.45,20.03,6.24,23.47,23.47,3.45-17.23,6.24-20.03,23.47-23.47-17.23-3.45-20.03-6.24-23.47-23.47-3.45,17.23-6.24,20.03-23.47,23.47Z"/><path class="cls-2" d="M9.52,133.45c17.23,3.45,20.03,6.24,23.47,23.47,3.45-17.23,6.24-20.03,23.47-23.47-17.23-3.45-20.03-6.24-23.47-23.47-3.45,17.23-6.24,20.03-23.47,23.47Z"/><path class="cls-6" d="M31.01,60.6v-14.02h2.79v5.01h1.32v-5.01h2.79v14.02h-2.79v-6.37h-1.32v6.37h-2.79Z"/><path class="cls-6" d="M39.15,60.6v-14.02h5.62v2.71h-2.76v2.73h2.64v2.65h-2.64v3.22h2.94v2.73h-5.8Z"/><path class="cls-6" d="M47.58,60.6v-4.62l-2.24-9.4h2.78l.78,4.75.78-4.75h2.78l-2.24,9.4v4.62h-2.64Z"/><path class="cls-6" d="M57.12,60.6v-14.02h2.81v11.64h2.89v2.38h-5.7Z"/><path class="cls-6" d="M64.37,59.7c-.59-.69-.88-1.66-.88-2.91v-6.68c0-1.21.29-2.12.88-2.73.59-.61,1.45-.92,2.58-.92s1.99.31,2.58.92c.59.62.88,1.53.88,2.73v6.68c0,1.26-.29,2.24-.88,2.92-.59.69-1.45,1.03-2.58,1.03s-1.99-.35-2.58-1.04ZM67.46,57.83c.09-.22.13-.52.13-.91v-6.86c0-.3-.04-.55-.12-.74s-.25-.29-.5-.29c-.47,0-.7.35-.7,1.06v6.84c0,.4.05.71.15.91.1.21.28.31.54.31s.42-.11.51-.33Z"/><path class="cls-6" d="M72.31,59.7c-.59-.69-.88-1.66-.88-2.91v-6.68c0-1.21.29-2.12.88-2.73.59-.61,1.45-.92,2.58-.92s1.99.31,2.58.92c.59.62.88,1.53.88,2.73v6.68c0,1.26-.29,2.24-.88,2.92-.59.69-1.45,1.03-2.58,1.03s-1.99-.35-2.58-1.04ZM75.39,57.83c.09-.22.13-.52.13-.91v-6.86c0-.3-.04-.55-.12-.74s-.25-.29-.5-.29c-.47,0-.7.35-.7,1.06v6.84c0,.4.05.71.15.91.1.21.28.31.54.31s.42-.11.51-.33Z"/><path class="cls-6" d="M79.47,60.6v-14.02h2.78v5.62l1.31-5.62h2.82l-1.57,6.42,1.89,7.61h-2.91l-1.53-6.79v6.79h-2.79Z"/><path class="cls-6" d="M87.49,62.48l.52-1.88h-1.01v-2.38h2.97v2.3l-.8,1.96h-1.68Z"/><path class="cls-6" d="M38.73,75.46v-14.02h2.71v14.02h-2.71Z"/><path class="cls-6" d="M43.78,75.46v-11.33h-1.67v-2.69h6.14v2.69h-1.67v11.33h-2.81Z"/><path class="cls-6" d="M49.3,65.55l.52-1.89h-1.01v-2.37h2.99v2.3l-.82,1.96h-1.68Z"/><path class="cls-6" d="M53.39,74.65c-.57-.63-.85-1.65-.85-3.05v-1.37h2.76v1.75c0,.7.22,1.04.67,1.04.25,0,.42-.07.52-.22.1-.15.15-.39.15-.74,0-.46-.05-.83-.16-1.13-.11-.3-.25-.55-.42-.75-.17-.2-.47-.51-.91-.94l-1.21-1.21c-.94-.91-1.4-1.93-1.4-3.04,0-1.2.27-2.11.82-2.73s1.35-.94,2.41-.94c1.26,0,2.17.33,2.73,1,.55.67.83,1.72.83,3.14h-2.86l-.02-.96c0-.19-.05-.33-.15-.44-.1-.11-.25-.16-.43-.16-.22,0-.38.06-.49.18-.11.12-.16.28-.16.49,0,.46.26.93.78,1.42l1.63,1.57c.38.37.7.72.95,1.05.25.33.45.72.6,1.18s.23.99.23,1.61c0,1.38-.25,2.43-.76,3.14s-1.34,1.07-2.51,1.07c-1.27,0-2.19-.32-2.76-.95Z"/><path class="cls-6" d="M64.85,74.61c-.56-.65-.84-1.62-.84-2.91v-10.27h2.73v10.16c0,.45.04.79.13,1.04.09.25.27.38.55.38s.47-.12.56-.37c.09-.25.13-.6.13-1.05v-10.16h2.73v10.27c0,1.28-.28,2.25-.84,2.91-.56.65-1.42.98-2.57.98s-2.01-.33-2.57-.98Z"/><path class="cls-6" d="M72.48,74.65c-.57-.63-.85-1.65-.85-3.05v-1.37h2.76v1.75c0,.7.22,1.04.67,1.04.25,0,.42-.07.52-.22.1-.15.15-.39.15-.74,0-.46-.05-.83-.16-1.13-.11-.3-.25-.55-.42-.75-.17-.2-.47-.51-.91-.94l-1.21-1.21c-.94-.91-1.4-1.93-1.4-3.04,0-1.2.27-2.11.82-2.73s1.35-.94,2.41-.94c1.26,0,2.17.33,2.73,1,.55.67.83,1.72.83,3.14h-2.86l-.02-.96c0-.19-.05-.33-.15-.44-.1-.11-.25-.16-.43-.16-.22,0-.38.06-.49.18-.11.12-.16.28-.16.49,0,.46.26.93.78,1.42l1.63,1.57c.38.37.7.72.95,1.05.25.33.45.72.6,1.18s.23.99.23,1.61c0,1.38-.25,2.43-.76,3.14s-1.34,1.07-2.51,1.07c-1.27,0-2.19-.32-2.76-.95Z"/><path class="cls-6" d="M79.81,71.64l-.56-10.2h2.86l-.57,10.2h-1.73ZM79.25,75.46v-2.38h2.86v2.38h-2.86Z"/></g></svg>