<?xml version="1.0" encoding="UTF-8"?><svg id="Layer_2" xmlns="http://www.w3.org/2000/svg" viewBox="0 0 1277.66 811.61"><defs><style>.cls-1{fill:#faf0e0;}.cls-2{stroke-width:2px;}.cls-2,.cls-3{fill:none;stroke:#faf0e0;stroke-miterlimit:10;}.cls-4{fill:#fdaaff;}.cls-5{fill:#f03010;}.cls-6{letter-spacing:-.05em;}.cls-7{letter-spacing:-.03em;}.cls-8{letter-spacing:-.03em;}.cls-3{font-family:PPMigra-Extrabold, 'PP Migra';font-size:271.5px;font-weight:700;stroke-width:3px;}</style></defs><g id="Wireframe"><polygon class="cls-4" points="705.1 811.61 673.51 780.02 710.94 742.59 528.29 742.59 528.29 701.18 615.37 544.55 663.53 544.55 574.33 701.71 710.41 701.71 672.71 664.01 703.24 633.48 794.29 724.54 705.1 811.61"/><path class="cls-4" d="M100.2,288.8V107.9h55.17l15.16,110.35,15.16-110.35h55.6v180.9h-33.06v-130.36l-20.85,130.36h-32.43l-22.11-130.36v130.36h-32.64Z"/><path class="cls-4" d="M257.3,288.8V107.9h72.44v34.96h-35.59v35.17h34.12v34.12h-34.12v41.49h37.91v35.17h-74.76Z"/><path class="cls-4" d="M344.06,288.8V107.9h72.44v34.96h-35.59v35.17h34.12v34.12h-34.12v41.49h37.91v35.17h-74.76Z"/><path class="cls-4" d="M446.4,288.8v-146.15h-21.48v-34.75h79.18v34.75h-21.48v146.15h-36.22Z"/><path class="cls-4" d="M576.52,288.8v-59.6l-28.85-121.3h35.8l10.11,61.28,10.11-61.28h35.8l-28.85,121.3v59.6h-34.12Z"/><path class="cls-4" d="M658.44,277.11c-7.58-8.91-11.37-21.44-11.37-37.59v-86.13c0-15.58,3.79-27.34,11.37-35.27,7.58-7.93,18.67-11.9,33.27-11.9s25.69,3.97,33.27,11.9c7.58,7.93,11.37,19.69,11.37,35.27v86.13c0,16.29-3.79,28.85-11.37,37.7-7.58,8.85-18.67,13.27-33.27,13.27s-25.69-4.46-33.27-13.37ZM698.24,253c1.12-2.81,1.68-6.74,1.68-11.79v-88.45c0-3.93-.53-7.12-1.58-9.58-1.05-2.45-3.2-3.69-6.42-3.69-6.04,0-9.06,4.56-9.06,13.69v88.24c0,5.2.63,9.13,1.9,11.79,1.26,2.67,3.58,4,6.95,4s5.4-1.4,6.53-4.21Z"/><path class="cls-4" d="M759.62,277.85c-7.23-8.42-10.85-20.92-10.85-37.49V107.9h35.17v130.99c0,5.76.56,10.25,1.68,13.48,1.12,3.23,3.51,4.84,7.16,4.84s6.04-1.58,7.16-4.74c1.12-3.16,1.68-7.69,1.68-13.58V107.9h35.17v132.46c0,16.57-3.62,29.06-10.84,37.49-7.23,8.42-18.29,12.64-33.17,12.64s-25.94-4.21-33.17-12.64Z"/><path class="cls-4" d="M850.71,107.9h55.6c8.85,0,15.69,2,20.53,6,4.84,4,8.11,9.62,9.79,16.85,1.69,7.23,2.53,16.46,2.53,27.69,0,10.25-1.34,18.25-4,24.01-2.67,5.76-7.3,9.76-13.9,12,5.48,1.13,9.44,3.86,11.9,8.21,2.46,4.35,3.69,10.25,3.69,17.69l-.42,68.44h-35.38v-70.76c0-5.05-.98-8.28-2.95-9.69-1.97-1.4-5.55-2.11-10.74-2.11v82.55h-36.64V107.9ZM896.19,174.87c5.05,0,7.58-5.48,7.58-16.43,0-4.77-.21-8.35-.63-10.74-.42-2.39-1.19-4.03-2.32-4.95-1.13-.91-2.74-1.37-4.84-1.37h-8.42v33.48h8.63Z"/><path class="cls-4" d="M100.2,495.24v-180.9h37.27l16.64,86.55v-86.55h34.96v180.9h-35.38l-18.11-90.55v90.55h-35.38Z"/><path class="cls-4" d="M205.07,495.24v-180.9h72.44v34.96h-35.59v35.17h34.12v34.12h-34.12v41.49h37.91v35.17h-74.76Z"/><path class="cls-4" d="M286.57,495.24l19.38-96.03-15.37-85.08h35.38l9.48,62.33,8.21-62.33h35.59l-15.58,85.08,19.38,96.03h-36.64l-11.37-70.76-11.58,70.76h-36.85Z"/><path class="cls-4" d="M409.34,495.24v-146.15h-21.48v-34.75h79.18v34.75h-21.48v146.15h-36.22Z"/><path class="cls-5" d="M533.14,495.24v-146.15h-21.48v-34.75h79.18v34.75h-21.48v146.15h-36.22Z"/><path class="cls-5" d="M600.95,495.24v-180.9h72.44v34.96h-35.59v35.17h34.12v34.12h-34.12v41.49h37.91v35.17h-74.76Z"/><path class="cls-5" d="M682.87,495.24l17.48-180.9h61.28l17.27,180.9h-34.33l-2.53-29.27h-21.9l-2.11,29.27h-35.17ZM722.88,437.11h16.43l-8-92.03h-1.68l-6.74,92.03Z"/><path class="cls-5" d="M789.85,495.24v-180.9h55.17l15.16,110.35,15.16-110.35h55.6v180.9h-33.06v-130.36l-20.85,130.36h-32.43l-22.11-130.36v130.36h-32.64Z"/><text class="cls-3" transform="translate(490.26 498.59) scale(1.08 1)"><tspan class="cls-7" x="0" y="0">TE</tspan><tspan class="cls-6" x="332.86" y="0">A</tspan><tspan class="cls-8" x="494.13" y="0">M</tspan></text><path class="cls-1" d="M0,84.36c46.46,20.93,63.43,37.9,84.36,84.36,20.93-46.46,37.9-63.43,84.36-84.36C122.26,63.43,105.29,46.46,84.36,0,63.43,46.46,46.46,63.43,0,84.36Z"/><path class="cls-2" d="M154.3,47.21c24.36,4.87,28.3,8.82,33.17,33.17,4.87-24.36,8.82-28.3,33.17-33.17-24.36-4.87-28.3-8.82-33.17-33.17-4.87,24.36-8.82,28.3-33.17,33.17Z"/><path class="cls-2" d="M13.46,188.59c24.36,4.87,28.3,8.82,33.17,33.17,4.87-24.36,8.82-28.3,33.17-33.17-24.36-4.87-28.3-8.82-33.17-33.17-4.87,24.36-8.82,28.3-33.17,33.17Z"/><path class="cls-5" d="M43.82,85.65v-19.82h3.95v7.08h1.87v-7.08h3.95v19.82h-3.95v-9h-1.87v9h-3.95Z"/><path class="cls-5" d="M55.33,85.65v-19.82h7.94v3.83h-3.9v3.85h3.74v3.74h-3.74v4.54h4.15v3.85h-8.19Z"/><path class="cls-5" d="M67.24,85.65v-6.53l-3.16-13.29h3.92l1.11,6.71,1.11-6.71h3.92l-3.16,13.29v6.53h-3.74Z"/><path class="cls-5" d="M80.73,85.65v-19.82h3.97v16.45h4.08v3.37h-8.05Z"/><path class="cls-5" d="M90.97,84.37c-.83-.98-1.25-2.35-1.25-4.12v-9.44c0-1.71.42-3,1.25-3.86.83-.87,2.05-1.3,3.65-1.3s2.81.43,3.65,1.3,1.25,2.16,1.25,3.86v9.44c0,1.79-.42,3.16-1.25,4.13-.83.97-2.05,1.45-3.65,1.45s-2.81-.49-3.65-1.46ZM95.33,81.72c.12-.31.18-.74.18-1.29v-9.69c0-.43-.06-.78-.17-1.05-.12-.27-.35-.4-.7-.4-.66,0-.99.5-.99,1.5v9.67c0,.57.07,1,.21,1.29.14.29.39.44.76.44s.59-.15.72-.46Z"/><path class="cls-5" d="M102.19,84.37c-.83-.98-1.25-2.35-1.25-4.12v-9.44c0-1.71.42-3,1.25-3.86.83-.87,2.05-1.3,3.65-1.3s2.81.43,3.65,1.3,1.25,2.16,1.25,3.86v9.44c0,1.79-.42,3.16-1.25,4.13-.83.97-2.05,1.45-3.65,1.45s-2.81-.49-3.65-1.46ZM106.55,81.72c.12-.31.18-.74.18-1.29v-9.69c0-.43-.06-.78-.17-1.05-.12-.27-.35-.4-.7-.4-.66,0-.99.5-.99,1.5v9.67c0,.57.07,1,.21,1.29.14.29.39.44.76.44s.59-.15.72-.46Z"/><path class="cls-5" d="M112.32,85.65v-19.82h3.92v7.94l1.85-7.94h3.99l-2.21,9.07,2.68,10.75h-4.11l-2.17-9.6v9.6h-3.95Z"/><path class="cls-5" d="M123.64,88.3l.74-2.65h-1.43v-3.37h4.2v3.25l-1.13,2.77h-2.38Z"/><path class="cls-5" d="M54.74,106.65v-19.82h3.83v19.82h-3.83Z"/><path class="cls-5" d="M61.87,106.65v-16.01h-2.35v-3.81h8.67v3.81h-2.35v16.01h-3.97Z"/><path class="cls-5" d="M69.67,92.64l.74-2.68h-1.43v-3.34h4.22v3.25l-1.15,2.77h-2.38Z"/><path class="cls-5" d="M75.46,105.49c-.8-.89-1.2-2.33-1.2-4.31v-1.94h3.9v2.47c0,.98.31,1.48.95,1.48.35,0,.6-.1.74-.31.14-.21.21-.56.21-1.05,0-.65-.08-1.18-.23-1.6-.15-.42-.35-.78-.59-1.06-.24-.28-.67-.73-1.28-1.33l-1.71-1.71c-1.32-1.29-1.98-2.72-1.98-4.29,0-1.69.39-2.98,1.17-3.86.78-.88,1.91-1.33,3.4-1.33,1.78,0,3.07.47,3.85,1.42.78.95,1.18,2.43,1.18,4.44h-4.04l-.02-1.36c0-.26-.07-.47-.22-.62-.15-.15-.35-.23-.61-.23-.31,0-.54.08-.69.25s-.23.4-.23.69c0,.65.37,1.31,1.11,2.01l2.31,2.21c.54.52.98,1.02,1.34,1.49.35.47.64,1.02.85,1.66.22.64.32,1.4.32,2.27,0,1.95-.36,3.43-1.07,4.44-.72,1.01-1.9,1.51-3.54,1.51-1.8,0-3.1-.45-3.9-1.34Z"/><path class="cls-5" d="M91.64,105.45c-.79-.92-1.19-2.29-1.19-4.11v-14.51h3.85v14.35c0,.63.06,1.12.18,1.48s.38.53.78.53.66-.17.78-.52c.12-.35.18-.84.18-1.49v-14.35h3.85v14.51c0,1.82-.4,3.18-1.19,4.11-.79.92-2,1.38-3.63,1.38s-2.84-.46-3.63-1.38Z"/><path class="cls-5" d="M102.43,105.49c-.8-.89-1.2-2.33-1.2-4.31v-1.94h3.9v2.47c0,.98.31,1.48.95,1.48.35,0,.6-.1.74-.31.14-.21.21-.56.21-1.05,0-.65-.08-1.18-.23-1.6-.15-.42-.35-.78-.59-1.06-.24-.28-.67-.73-1.28-1.33l-1.71-1.71c-1.32-1.29-1.98-2.72-1.98-4.29,0-1.69.39-2.98,1.17-3.86.78-.88,1.91-1.33,3.4-1.33,1.78,0,3.07.47,3.85,1.42.78.95,1.18,2.43,1.18,4.44h-4.04l-.02-1.36c0-.26-.07-.47-.22-.62-.15-.15-.35-.23-.61-.23-.31,0-.54.08-.69.25s-.23.4-.23.69c0,.65.37,1.31,1.11,2.01l2.31,2.21c.54.52.98,1.02,1.34,1.49.35.47.64,1.02.85,1.66.22.64.32,1.4.32,2.27,0,1.95-.36,3.43-1.07,4.44-.72,1.01-1.9,1.51-3.54,1.51-1.8,0-3.1-.45-3.9-1.34Z"/><path class="cls-5" d="M112.79,101.25l-.78-14.42h4.04l-.81,14.42h-2.45ZM112.01,106.65v-3.37h4.04v3.37h-4.04Z"/></g></svg>