<?xml version="1.0" encoding="UTF-8"?><svg id="Layer_2" xmlns="http://www.w3.org/2000/svg" viewBox="0 0 563.98 87.41"><defs><style>.cls-1{fill:none;stroke:#f03010;stroke-miterlimit:10;stroke-width:1.22px;}.cls-2{fill:#faf0e0;}.cls-3{fill:#f03010;}</style></defs><g id="Module_2"><path class="cls-3" d="M135.08,12.02l-4.3.85c2.48.13,5.04-.16,7.52.01,9.39.66,18.63,2.48,27.94,2.8,14.04.49,28.21,2.75,43.01,3.63,2.45.15,4.93.5,7.31.64,1.04.06,2.48-.49,3.66-.21l-.86.85c3.33-.87,6.74.15,10.1.35,10.5.61,21.96,1.43,32.25,1.8,1.39.05,8.26.25,8.96.43.33.09.27.83.47.81,2.14-.11,2.69-.07,4.78.06,14.44.88,28.99.58,42.58,2.98,1,.18,10.06.39,10.71.21,3.05-.85,5.23-5.24,4.13,3.05-.11.82-.86.57-.91.9-.21,1.25.15,5.22.06,6.8-.54,9.4-1.72,19.07-2.6,27.92-.45,4.47-1.9,12.72-1.69,16.75.14,2.64,4.4,1.74,3.39,3.19-.1.15-3.04,1.58-3.21,1.56-.33-.03-.76-.63-1.31-.69-.93-.09-2.13.72-3.2.41.3-2.65-1.46-2.87-3.77-3.32-5.66-1.11-14.09-2.35-19.66-2.7-8.34-.52-17.07-1.12-25.77-1.76-4.09-.3-9.32-1.88-12.54-2.07-.82-.05-1.69.57-2.49.44-.32-.05-.1-.83-.91-.92-1.25-.13-2.75.6-3.41.5-.29-.05-.24-.88-.51-.9-.7-.05-2.35.76-3.41.66-7.33-.74-15.1-1.79-22.8-2.79-1.94-.25-5.25.17-7.25-.49-.73-.24-.48-1.75-1.99-1.22l.44.85c-1.69.22-3.28-.38-4.95-.47-.81-.04-1.64.5-2.12.48-.26-.01-.2-.78-.53-.87-1.03-.27-2.16.32-2.96.23-7.89-.93-15.62-1.9-23.63-2.41-1.57-.1-5.71.26-6.82.05-.3-.06-.25-.84-.56-.89-.8-.15-1.73.49-2.54.48-.96-.02-1.44-.81-2.1-.85-9.89-.52-20.57-1.72-31.01-2.63-1.43-.12-5.53.19-6.36.03-.31-.06-.25-.84-.56-.89-.8-.15-1.72.48-2.54.47-6.04-.05-14-1.67-20.3-2.49-2.66-.34-5.47-.97-8.14-1.32-.95-.12-1.87.57-2.84.35-.32-.07-.26-.83-.57-.88-.87-.16-1.92.6-2.91.45-10.95-1.62-23.1-2.07-34.42-3.47-2.49-.31-2.41-.08-4.78-.02-.21,0-.14-.77-.45-.83-.22-.04-3.36-.13-4.24-.2-8.09-.6-16.67-1.63-24.51-2.44-1.96-.2-5.15-1.17-6.45-1.24-.91-.05-1.85.56-2.53.49-.31-.03-.27-.81-.79-1.02-1.12-.45-2.1-.1-3.05-.3-.35-.07-.32-1.05-1.47-1.2-2.33-.31-5.61.09-7.94-.22-1.62-.22-6.47-.97-7.25-2.19-1.14-1.77.13-12.71.49-15.45.74-5.66,2.1-13.29,4.3-18.8.18-.46.94-.42,1.04-1.13.14-.91-.57-2.33-.55-3.4.03-1.72.3-8.73,1.46-9.54.62-.43,3.03-.06,3.82-1.3-.5,3.04,1.43-.21,3.42,0,.67.07,1.18.8,2.16.89,4.72.45,10.34.09,14.51,1.8,1.26.52,13.17.77,15.54.72,1.7-.04,1.86-.19,3.83-.1.89.04,2.38-.67,3.14-.69.2,0,.14.74.46.82,1,.24,2.06-.53,2.93-.44,3.89.41,7.89,1.02,11.93,1.4,1.97.19,3.96.54,5.92.74l-1.29.85c1.97-.41,4.66-1.06,6.67-.47.79.23.56.93,1.27.96,1.73.05,3.82-.59,6.03-.47,2.76.14,5.22,1.36,7.96.86l-.44.85c1.7-.89.96.37,1.91.47,6.86.76,18.39-.03,24.88,1.69,1.88.5,3.94.86,6.14,1.25.88.16,1.87-.04,2.77.03l-2.15.85h6.45Z"/><line class="cls-1" x1="474.95" y1="54.66" x2="330.22" y2="56.8"/><path class="cls-3" d="M553.38,43.4c-.38.68-1.88,4.38-1.48,4.77,1.93-.05,4.07.42,5.9,1.01,1.33.43,4.72,1.95,5.43,3.03,2.52,3.86-2.03,3.82-3.09,4.9-.95.96-2.3,3.84-3.58,4.92-.4,1.17,1.15,2.25,1.1,3.72-.02.69-1.88,4.21-2.31,4.62-1.78,1.69-12.76-.14-14.4-1.64-.83-.76-.47-2.86-1.7-2.68-1.53.23-6.79,7.65-8.54,9.31-.47.44-1.26.39-1.42.57-.38.43.05,2.01-.85,2.62-1.03.69-3.08-.18-4.71.07-1.54.24-2.96,1.47-4.42,1.82-2.22.54-4.8.4-7.07.11-.8-1.15-4.09-2.69-4.36-3.7-.11-.42,1.42-4.61,1.76-5.21.47-.81,1.34-.93,1.74-1.5s2.54-3.76,2.22-4.12c-2.12-.71-4.35-.21-6.42-.49-4.75-.64-14.81-3.07-19.05-2.55-1.87.23-3.51,1.47-5.47,1.7-1.07.12-8.75-.02-9.29-.41-1.34-.96.45-4.68.31-6.2-.38-4.08-4.47-10.6-4.61-13.74-.04-.94.71-1.4.88-2.21.45-2.13-.8-3.65,2.62-3.97,2.18-.2,6.1-.2,7.96.99,1.18.75,3.7,4.15,5.3,4.47.99.2,3.35-1.78,5.04-1.94.87-.08,4.18.2,4.95.44,2.1.67,2.13,4.96,4.21,5.17l17.85-3.97c4.13-1.41,8.49,1.49,11.99-1.37.73-.6.9-1.77,1.54-2.47,1.12-1.22,2.64-2.12,3.56-3.13,1.88-2.05,3.2-5.06,5.65-6.39,1.47-.8,7.06-2.31,8.81-2.34,3.33-.05,2.03.69,3.38,1.56,1.23.79,2.53.17,3.01,2.82.17.95-.91,9.92-1.31,10.56-.26.42-.99.59-1.13.85Z"/><path class="cls-2" d="M72.37,44.07l2.55-29,8.84.78.87,17.9,3.99-17.48,8.91.79-2.55,29-5.3-.47,1.84-20.9-5.18,20.6-5.2-.46-1.7-21.21-1.84,20.9-5.23-.46Z"/><path class="cls-2" d="M97.28,46.27l2.55-29,5.6.49-2.55,29-5.6-.49Z"/><path class="cls-2" d="M106.54,45.38c-1.05-1.41-1.45-3.56-1.2-6.47l.25-2.84,5.71.5-.32,3.61c-.13,1.44.27,2.2,1.19,2.28.52.04.89-.07,1.12-.36.23-.29.38-.79.44-1.51.08-.95.04-1.74-.13-2.38s-.41-1.18-.72-1.63c-.31-.45-.88-1.15-1.7-2.11l-2.28-2.72c-1.77-2.06-2.55-4.24-2.35-6.54.22-2.48.95-4.31,2.2-5.5,1.25-1.19,2.97-1.69,5.15-1.5,2.61.23,4.43,1.09,5.46,2.57,1.03,1.49,1.41,3.7,1.15,6.65l-5.91-.52.14-2c.03-.38-.05-.7-.24-.94-.19-.24-.48-.38-.86-.42-.45-.04-.8.05-1.05.28-.25.23-.39.56-.43.98-.08.95.37,1.97,1.36,3.08l3.09,3.54c.72.83,1.31,1.62,1.77,2.35.46.73.8,1.58,1.04,2.54.23.96.29,2.08.18,3.37-.25,2.86-.97,4.98-2.14,6.36-1.18,1.38-2.97,1.97-5.38,1.75-2.63-.23-4.48-1.05-5.53-2.46Z"/><path class="cls-2" d="M122.11,46.76c-1.05-1.41-1.45-3.56-1.2-6.47l.25-2.84,5.71.5-.32,3.61c-.13,1.44.27,2.2,1.19,2.28.52.05.89-.07,1.12-.36s.38-.79.44-1.51c.08-.95.04-1.74-.13-2.38-.17-.64-.41-1.18-.72-1.63-.31-.45-.88-1.15-1.7-2.11l-2.28-2.72c-1.77-2.06-2.55-4.24-2.35-6.54.22-2.48.95-4.31,2.2-5.5,1.25-1.19,2.97-1.69,5.15-1.5,2.61.23,4.43,1.09,5.46,2.57,1.03,1.49,1.41,3.7,1.15,6.65l-5.91-.52.14-2c.03-.38-.05-.7-.24-.94-.19-.24-.48-.38-.86-.42-.45-.04-.8.05-1.05.28-.25.23-.39.56-.43.98-.08.95.37,1.97,1.36,3.08l3.09,3.54c.72.83,1.31,1.62,1.77,2.35.46.73.8,1.58,1.03,2.54.23.96.29,2.08.18,3.37-.25,2.86-.97,4.98-2.14,6.36-1.18,1.38-2.97,1.97-5.38,1.75-2.63-.23-4.48-1.05-5.53-2.46Z"/><path class="cls-2" d="M136.07,49.69l2.55-29,5.6.49-2.55,29-5.6-.49Z"/><path class="cls-2" d="M144,50.38l2.55-29,5.97.53,1.45,14.11,1.22-13.88,5.6.49-2.55,29-5.67-.5-1.62-14.77-1.28,14.52-5.67-.5Z"/><path class="cls-2" d="M162.29,50.04c-.89-1.56-1.21-3.84-.95-6.84l1.1-12.49c.24-2.68,1.01-4.65,2.32-5.92,1.31-1.27,3.15-1.8,5.52-1.59,1.91.17,3.36.68,4.36,1.54.99.86,1.62,2.04,1.9,3.54.28,1.5.31,3.4.11,5.69l-5.67-.5.23-2.6c.06-.7.01-1.25-.14-1.65-.16-.4-.48-.62-.98-.67-1.1-.1-1.72.58-1.85,2.02l-1.24,14.04c-.08.88-.02,1.55.16,2.02.18.47.56.73,1.12.78s.98-.14,1.24-.57c.26-.43.43-1.08.51-1.96l.37-4.15-1.55-.14.44-5,7.09.62-1.49,16.88-2.33-.21-.77-2.52c-1.19,1.71-2.87,2.47-5.03,2.28-2.09-.18-3.59-1.06-4.48-2.62Z"/><path class="cls-2" d="M185.09,54l2.55-29,8.84.78.87,17.9,3.99-17.48,8.91.79-2.55,29-5.3-.47,1.84-20.9-5.18,20.6-5.2-.46-1.7-21.21-1.84,20.9-5.23-.46Z"/><path class="cls-2" d="M210.27,56.22l2.55-29,11.61,1.02-.49,5.6-5.71-.5-.5,5.64,5.47.48-.48,5.47-5.47-.48-.58,6.65,6.08.54-.5,5.64-11.98-1.05Z"/><path class="cls-2" d="M224.18,57.45l2.55-29,5.97.53,1.44,14.11,1.22-13.88,5.6.49-2.55,29-5.67-.5-1.62-14.77-1.28,14.52-5.67-.5Z"/><path class="cls-2" d="M242.55,57.3c-1.04-1.45-1.44-3.51-1.21-6.16l1.87-21.24,5.64.5-1.85,21c-.08.92-.05,1.65.08,2.19.13.53.49.83,1.08.88.58.05.99-.17,1.21-.66.22-.49.38-1.21.46-2.15l1.85-21,5.64.5-1.87,21.24c-.23,2.66-.99,4.61-2.27,5.86-1.28,1.25-3.11,1.77-5.5,1.56s-4.1-1.04-5.14-2.49Z"/></g></svg>