<?xml version="1.0" encoding="UTF-8"?><svg id="Layer_2" xmlns="http://www.w3.org/2000/svg" viewBox="0 0 410.63 301.53"><defs><style>.cls-1{fill:#faf0e0;}.cls-2{fill:#f03010;}</style></defs><g id="Wireframe"><path class="cls-2" d="M334.56,123.15c-2.67-2.03-6.49-3.28-9.29-4.93-.94-.56-1.88-1.72-3.05-2.08-.53-.34.27-1.71,0-1.98-.69-.69-1.18,1.43-1.28,1.4-.93-.57-1.53-1.38-2.46-1.96-.53-.33-1.85-.52-1.81-1.13.03-.6,1.53-3.24,1.13-3.66-.76-.78-1.91,2.74-1.87,3.26-.9-.33-5.06-1.35-4.79-2.58l3.29-5.56c.2-.78-.54-.99-1.04-.33-.99,1.32-1.97,3.71-2.84,5.2-.63.45-3.75-2.17-4.64-2.08-.37-.39,2.94-3.19,1.51-3.49-.41-.09-2.42,2.55-2.79,3.03-1.62-.7-2.82-2.11-4.55-2.56.23-.61,1.47-.97.58-1.63-.72-.16-.98.78-1.44.9-1.21.31-4.81-3.25-6.13-3.7l7.23-3.85c.35-.08.04-1.01,0-1.05-.31-.24-6.03,3.34-6.99,3.62-.47.12-.42.99-.47,1.05-.12.13-2.97-1.23-3.19-1.35-1.5-.89-2.25-1.94-4.26-2.5-2.61-.73-2.21.27-3.62,1.52-1.95,1.73-3.39,1.96-5.23,3.16-.71.46-1.56,1.51-2.36,2.07-.75.52-3.33,2.41-3.85,2.67-.69.35-1.34.17-2.04.52-.63.32-.89,1.08-1.34,1.46-1.71,1.45-3.84,2.04-5.82,3.51-1.72,1.27-3.29,1.92-4.87,3.05-.83.6-1.53,1.64-2.36,2.3-2,1.57-4.83,2.4-6.96,4-3.76,2.83-7.35,5.75-11.46,8.12-.51.3-1.17.33-1.69.64-.75.44-1.08,1.43-1.56,1.71-1.22.71-2.23.67-3.72,1.87-1.44,1.15-1.35,1.13-3.01,2.12-1.43.85-3.02,2.42-4.5,3.42-4.01,2.71-8.44,4.95-12.37,7.67-.14-.11-.27-.21-.39-.28-.78-.49-2.19-.65-3.14-1.25-1.43-.9-4.96-4.02-5.76-5.14-.18-.25-.08-.79-.29-1.19-.13-.25-.64-.27-.72-.39-.12-.16-.43-3.77-.38-3.97.06-.26.58-.22.73-.62,1.04-2.69,2.13-6.04,1.02-8.87-.31-.78-.85-1.44-1.25-2.17-.2-.37-.1-.98-.25-1.19-.33-.47-1.81-.05-1.58-.88l2.23-7.26c-.27-2.79.99-5.36,1.79-7.98.28-.93.54-3.83,1.53-4.32.66-.33,4.33.98,5.87-.94,1.57-3.07,3.26-6.12,4.78-9.23,1.51-3.09,2.18-5.59,4.12-8.4.58-.84,2.01-3.61,2.09-4.59.05-.62-.81-1.76-.61-3.22.09-.63.69-.45.7-.65.02-.65-1.09-3.64-1.71-4.17-1.08-.91-4.46-.7-4.49-2.01,0-.14.57-.11.64-.36.14-.52-.13-1.43.37-2.47.3-.61,1.62-1.21,2-2.32.46-1.33.02-.91.88-2.42.61-1.09,2.57-5.91,2.51-6.75-.22-3.02.33-2.97.89-5.66.21-1.02-.21-1.97-.15-2.81.13-1.76,1.38-3.58.22-5.89-.58-1.15-.42.3-.69-1.93-.09-.73-1.15-1.87.81-1.79.16-.7-.91-1.22-.86-1.79.02-.25.76-.81.53-1.13-.05-.07-.85-.07-.96-.53-.08-.36.26-.75.26-.95,0-.19-.5-.15-.59-.4-.63-1.88-1.11-3.13-1.88-4.87-.77-1.74-2.37-4.03-3.51-5.63-1.45-2.03-3.97-2.05-5.17-3.62-.4-.53.14-1.17-.77-.72-.58-.94-2.05-1.04-2.71-1.99-.83-1.21.06-.98.31-1.43.9-1.61-.38-.87-.87-1.42-.07-.08.56-.8-.95-1.15-.43-.1-.91.19-1.3.12-.65-.11-6.17-2.38-6.5-2.62-.73-.54-.7-1.03-2.11-1.64-4.59-1.98-16.23-3.84-21.23-3.66-.62.02-1.26.44-2.06.43-.92-.01-3.05-.9-3.52-.9-.16,0-.15.65-.37.69-.5.09-1.29-.37-1.39-.3-.1.07-.1.59-.37.75-1.41.87-3.08.55-4.15,1.06-.62.29-.72,1.05-1.2,1.27-.67.32-3.48-.33-4.23-.22-.92.14-4.49,1.91-6.19,2.38-.18.05-.14.51-.37.54-.67.09-1.78-.57-2.71-.15-1,.45-2.37,3.43-2.71,4.47-.47,1.45-.05,1.04-.99,2.62-.19.31-.14,1.1-.25,1.19-.2.16-.96-.06-1.37.03-.26.06-.22.57-.44.64-1.75.51-.9-1.95-1.97-2.28-1.39-.42-1.47.64-1.61.67-.53.1-1.59-.48-1.74-.34-.11.1.19,2.44-.33,2.93-.09.08-1.57-.65-2.27,0-.03.78.72,1.03,1,1.76.32.81.22,1.66.46,2.47.67,2.27.78,1.01.59,3.46-.04.46.28.89.16,1.5-.18.9-1.44,1.39-1.71,2.22-.18.55-.5,4.09-.33,4.56.11.29.94.73.8.95-1.01.39-3.17,1.06-2.27,2.28h-.98c-.15.12.88,1.22.88,1.47,0,.31-1.64,2.08.75.48,1.23,1.43-.3,2.02-.31,2.15-.03,1.04-.35,1.86-.34,2.25,0,.64.83.92.87,1.29.05.42-.59,1.14-.57,1.62,0,.14,1,.08.68,1.27-.1.38-1.33.44-1.31,1.35.01.85,1.16,1.44,1.23,1.64.26.78-.68,1.69-.54,2.08.03.07,1.23.59,1.28.92.06.45-.25.94-.21,1.25.06.4.79.6.84,1.27.02.28-1.63,4.84-1.88,5.29-.71,1.29-2.04,1.28-2.18,3.01-.03.4.33.69.33,1.02-.11,5.4,1.15,11.77,1.77,17.41.3,2.74,1.15,4.8,1.57,6.82.12.58-.1,2.41.12,2.73.13.18.9.16,1.2.44.3.28.07.87.26,1.24.09.18.6.23.7.38.18.3,0,5.94.07,6.92.19,2.75,1.27,7.61,1.01,10.12-.16,1.54-2.26,2.94-2.8,5.03-.59,2.29-.18,3.97.02,6.22-3.45,1.03-7.04,1.66-10.6,2.47-.29.07-.6.51-.97.61-1.58.4-1.67-.45-1.85-.49-1.33-.35-1.06.66-1.57.86-.14.05-2.8.08-2.95.04-.22-.06-.17-.55-.56-.68-5.14-1.74-10.41-1.41-15.67-2.19-.95-.14-1.97-1.06-2.95-.96-.34.04-3.55,1.08-4.51,1.31-.17.04-.66,1.12-1.85.31.3,1.84-1.11.61-2.06.75-1.45.21-5.13,2.23-6.87,2.85-6.28,2.25-11.68,3.74-17.3,7.44-1.36.89-.9.72-1.65,1.36-.55.47-2.6,1.01-3.21,1.61-1.48,1.48-3.57,4.4-5.14,6.2-6.63,7.63-11.43,14.88-17.27,22.65-.25.33-.86.39-1.06.77-.19.36.22.93.18.96-.07.08-1.36.19-1.96.91-1.13,1.37-2.38,3.3-3.57,4.81-.36.46-1.81,1.73-1.97,2.03-.41.77.06,1.34,0,1.38-.66.48-1.55.67-2.47,1.76-2.99,3.57-5.39,7.85-8.27,11.11-2.55,2.89-3.68,2.92-6.57,4.82-1.61,1.06-3.32,2.55-4.57,3.37-.15.1-.55-.25-.57-.22-.06.07.09.6-.09.87-.22.34-1.03.44-1.32.74-.18.18-2.02,2.63-2.18,2.86-.3.44-1.75,3.15-1.62,3.33l266.62,97.03c-.63-2.57-.54-5.24-.73-7.87-.04-.49-.37-1.02-.4-1.52-.03-.73.44-1.91.39-2.2-.06-.37-.88-.33-.91-.65-.02-.24.36-.99.36-1.61,0-4.98-1.39-9.79-2.46-14.48-.8-3.53-1.1-7.11-1.72-10.68-.76-4.35-1.93-9.71-2.93-13.57-.66-2.53-.31-12.56-.21-15.52.31-9.28,2.16-16.2.6-25.71-.1-.63-.22-1.24-.34-1.86,3.24,1.73,6.28,3.54,9.31,5.48,1.3.83,3.28,2.34,4.68,2.78.45.14,1.04-.08,1.46.17.29.17.65,1.12,1.31,1.48.6.33,1.33.29,1.93.63.96.54,1.96,1.57,3.19,2.17,5.88,2.85,11.17,6.73,17.1,9.47,2.34,1.08,5.26,4.01,7.23,4.65.62.2,1.24.04,1.8.3.45.2.89,1.14,1.47,1.56,2.37,1.76,4.77,2.51,7.38,3.58,1.36.56,2.75,2.62,4.13,2.38,1.85-.31,1.74-4.36,2.06-5.88,1.21-5.84,1.44-11.92,2.28-17.76.72-5.04,1.78-10.03,2.53-14.95.15-.99-.29-1.79-.22-2.53.09-.99,1.15-2.7,1.17-4,.02-.83-.54-1.27-.47-2.06.17-2.04.8-5.82,1.22-7.89.1-.51.53-.89.62-1.47.14-.86-.22-1.72-.15-2.29.09-.77,1.09-1.04.86-2.57-.07-.49-.51-.85-.42-1.36.07-.45.63-.87.79-1.33.83-2.37.09-4.89.35-6.87.36-2.71,1.87-6.83,1.99-9.45.04-.8-.44-1.31-.35-2.19.6-5.95,2.04-11.81,2.54-17.78.04-.51-.22-.91-.21-1.35.04-.97,1.21-3,1.37-3.99.15-.92-.07-2.05.02-3.01.26-2.93,2.31-6.31-.72-8.61Z"/><path class="cls-2" d="M341.99,105.84c.08-.25.65-2.2.66-2.33.15-1.16-.44-3.18-.11-4.57.03-.13.65-1.89.71-1.98.09-.15.59-.19.65-.4.14-.51-.95-.55-.94-1.16,0-.44,1.01-1.45,1.14-1.93.19-.75-.42-.9-.43-1.34,0-.14.45-.1.49-.26.13-.61-.42-1.01-.42-1.15,0-.25.77-.61.84-.96.12-.61-1-1.21-.9-1.6.06-.21.87-.21.82-1.17-.03-.71-.78-1.61-.78-2.14,0-.48.57-.63.6-.88.02-.17-.47-.75-.43-1.4.01-.19.71-2.35.84-2.68.12-.3.88-1.31.81-1.4-.04-.05-.85-.25-1.09-.54-.98-1.18.67-2.65,1.24-3.51.71-1.08-.19-1.23-.12-1.64.04-.26.69-.49.69-.96,0-.53-.86-.86-.88-1.16-.02-.26.53-.79.57-1.2.04-.4-.28-.81-.13-1.32.11-.37.67-.53.67-.98,0-.4-.71-1.02-.7-1.17.02-.26,1-.5,1.26-.83.96-1.21-.33-1.27-.52-1.78-.46-1.18.24-2.17.17-2.47-.06-.25-.51-.49-.64-.81-.23-.57-.07-1.36-.51-1.8-.07-.07-1.47-.98-1.56-1.01-.54-.15-1.25.11-1.7-.16-.23-.14-.33-.66-.87-1-.69-.44-2.62-.85-3.47-.96-2.48-.31-3.7.73-5.81.64-.48-.02-.84-.5-1.38-.45-.73.07-.73.92-.97.96-.47.08-2.32-1.12-3.2-.97-.22.04-.2.57-.53.68-.43.14-1.16-.11-1.51.13-.24.17-.16.87-.56,1.31-.99,1.12-4.4,2.75-5.39,3.94-.33.4-.53,1.34-.6,1.39-.24.16-.93-.1-1.12.06-.06.05.06.44-.17.68-.37.39-1.62.7-1.95,1.03-.45.46,0,1.31-.46,1.64-.31.23-1.46.46-2.08.94-.48.37-.92,1.2-.99,1.24-.26.15-.72-.26-.91-.11-.18.14-.21.66-.46.94-.45.48-1.68.93-2.3,1.42-.42.33-.56.87-.95,1.15-.36.26-.95.28-1.17.46-.43.37-.12,1.13-.24,1.27-.06.06-1.27.04-1.62.36-.3.27-.17.73-.36,1.04-.16.26-.59.33-.82.58-.19.22-.15.69-.26.78-.19.15-.81-.05-1.02.26-.2.3.04.94-.33,1.31-.35.36-1.25.21-1.66.67-.28.31-.25.85-.44,1.14-.56.85-.53.73-1.07,1.78-1.14,2.2-1.81,2.43-1.74,5.25,0,.4.17,2.25.24,2.53.05.21.59.32.82.63,1.62,2.19,1.42,1.81,3.5,3.5,3.55,2.9,7.22,5.43,11.47,7.41.85.4,2.35,1.05,3.04,1.6.62.49.91,1.32,1.79,1.73,2.04.96,3.5,1.36,5.65,2.51,1.93,1.03,7.08,1.93,9.28,1.92,1.2,0,2.38-.71,3.51-.73.77,0,1.41.36,2.3.23.31-.05,2.59-.67,2.95-.79.19-.06,1.54-1.36,1.58-1.46ZM335.16,87.82c-.3.28-.28.91-.83,1.27-2.88,1.88-9.38-.79-11.65-3.01-.4-.39-.59-.63-1.04-1.05-.66-.61-2.37-2.63-2.68-3.39-.28-.7.71-.12.93.12.18-.14.24-2.36.93-2.56.02.87-.57,1.85-.59,2.68,0,.41.12.71.59.58-.02-.85.27-1.97.63-2.74.06-.13.94-1.33,1.23-1.22-.18.88-1.29,4.1-1.13,4.74.04.17.35.47.43.39l.7-2.33c-1,2.99,3.05,6.63,5.73,6.97,1.51.19,3.24-.33,4.35-1.37.38-.36,1.29-2.46,1.77-.77.32,1.1-2.21,2.21-3.02,2.73-.3.19-.56.02-.44.6.4.34,4.48-2.32,4.54-3.26.81,1.81.09,1.11-.46,1.63Z"/><path class="cls-2" d="M359.48,21.99c.22.89-3.24,6.11-4.07,6.84-.46.41-1.14.43-1.22.53-.05.06-.33,1.53-.28,1.59.21.23,5.27,1.03,5.95,1.86,1.29-1.9.28-1.36-.36-1.97-.57-.55.19-1.89.59-2.45,1.27.92,2.81,1,4.31.93-1.26,1.27-1.29,2.57-1.14,4.29.05.56.62,1.59.33,2.01-.11.16-.57.16-.61.38-.04.22.45,1.7.63,1.73.77.15,5.04-1.1,5.91-1.54l2.57-1.98c.41,2.67-4.42,3.55-3.09,6.47.52,1.13,3.47.88,3.79,1.22.05.05-.27,1-.22,1.48.17,1.95,1.96,1.71,3.49,1.78-1.46,3.29,1.68,2.7,3.96,2.8-1.01.49-1.33,2.37-.72,3.17.48.62,4.5,1.33,4.67,1.5.08.08.06,1.93-.03,2.17-.13.38-.73.4-.86.77-.08.23-.11,1.34,0,1.45.15.18,4.16.52,4.75.51,3.61-.07,6.41-2.42,4.75-6.17-.74-1.67-2.51-1.41-3.72-2.12-.21-.13-.03-.51-.2-.7-.46-.51-1.46-.94-1.88-1.63,0-.19,1.46-1.12,1.77-1.26.49-.23,1.28-.2,1.5-.36.27-.19.33-1.04.19-1.27-.11-.17-3.77-.97-4.04-.95-.79.05-1.54,1.16-1.64,1.15-.24,0-.36-1.11-1.12-.9-1.39.38-.41,1.5-.44,1.92-.12,1.66-3.94,2.23-3,.25,1.23-2.58,4.19-1.5,2.39-5.62-1.3-2.98-3.7-1.96-6.1-3.57.15-1.53,4.6-3,1.75-3.98-1.04.4-2.31.08-3.26.26-.59.11-1.04.92-1.17.92-.05,0-.52-.52-.74-.67-.2-.14-.67-.19-.74-.3-.12-.19,0-.65-.1-.94-.97-2.88-2.05-3.21-5.07-2.98,1.2-1.4,1.6-2.91.82-4.66-.99-2.22-2.46-1.07-4.31-1.17.28-.54.7-1.54.18-2.04-.28-.27-4.24-1-4.5-.78-1.4,1.13.28,1.81.33,2.03ZM388.15,51.6c.19-.23.96-.23,1.15-.11.7.43-.31,4.55-2.06,3.7-.29-.29.6-3.2.91-3.59ZM385.46,48.21c.06.01,1.04.64,1.08.69.34.41-1.08.92-1.4,1.27-.34.38-.92,2.18-1.75.82-.69-1.12,1.73-2.84,2.07-2.78ZM376.42,43.76c-.69-.17.04-1.27.68-1.3.25-.01,1.05.28,1.05.49-.39.47-1.08.97-1.73.81ZM375.01,37.24c1.03,1.61,3.58,1.56,4.37,3.32.95,2.12-1.94.22-2.56,0-.42-.15-1.25-.44-1.64-.47-.77-.05-2.01,1.3-2.16-.18-.06-.63,1.5-2.12,1.99-2.66ZM367,30.74c.15-.09,1-.09,1.11,0,.43.35.61,4.42-1.02,3.93-.61-.18-.42-3.73-.09-3.93ZM364.1,25.9c-.13,1.88-1.76,1.71-2.95.84.28-1.57,3.16-3.81,2.95-.84Z"/><path class="cls-2" d="M410.45,91.3c-.29-.94-2.69-2.48-2.69-2.67,0-.17,1.65-1.56,1.35-2.98-.17-.84-3.12-3.26-3.96-3.51-2.04-.6-3.42.74-4.24.56-.91-.2.54-2.98,1.38-3.06,1.09-.11.86.92,1.17,1.4.56.87,3.04.29,3.15-.14.1-.4,0-1.83-.3-2.12-.45-.44-3.48-1.22-4.27-1.45-1.18-.34,1.15-1.03,1.59-.91.38.11,2.13,1.81,2.95,2.19,2.59,1.22,4.28.1,3.97-2.81-.15-1.42-1.11-1.97-2.32-2.57-3.57-1.78-6.22.05-9.51,1.49-.4.13-1.04-.36-.97-.75.39-1.2,4.25-1.75,4.6-2.29.3-.47.31-2.82.17-3.46-.24-1.13-1.92-2.51-2.94-2.9-.53-.21-1.29.29-1.37.74-.06.32,1.69,1.68,1.34,2.94-.05.17-.47.63-.55.63-.23,0-2.09-2.42-2.83-2.76-1.23-.56-2.77-.25-3.06-2.07-.21-1.33.53-2.57,1.43-3.47,1.29-1.3,4.17-2.57,4.77.09.29,1.29-.54,1.63-.57,2.05-.01.2.52,1.2.73,1.23.39.06,3.37-1.3,3.35-1.88-.09-2.89-4.16-5.71-6.83-5.78-2.73-.07-6.11,2.77-6.41,5.5-.27,2.48.45,4.88,3.26,5.02-.62.7-1.01,1.9-.58,2.8.31.64,2.45,1.03,2.44,1.51,0,.12-1.46,1.27-.89,2.18.11.18,2.25.82,2.53,1.32-1.53-.04-.91,2.96.12,3.15.85.16,1.8-.26,2.68,0-.36,1.03-2.22,2.24-2.11,3.37.08.85,2.69,1.34,2.81,1.88.05.21-1.4,2-1.17,3.24.06.36,2.02,2.06,2.57,2.22-2.93,2.47.79,8.14,4.1,6.77,1.91-.79,1.02-3.99,2.43-5.15.14.58.32,1.14.25,1.76-.08.78-1.19,1.4-.62,2.22.23.33,2.73.03,2.94-.11.47-.32.28-2.88.11-3.41ZM407.94,75.76c0,.11-.18.81-.21.84-.39.34-2.18-.28-2.53-.79,0-.31,2.79-1.12,2.75-.05ZM395.4,70.57c-.56-.82,1.57-1.77,2.09-.35-.27.53-1.87.67-2.09.35ZM404.45,90.22c-.27.64-.58,3.4-1.24,3.42-1.12.05.38-3.78.32-4.03-.24-.92-2.69-1.96-.55-3.66.48.63,2.35,2.01,2.41,2.72.02.26-.74,1.06-.95,1.54ZM404.37,85.26c-.22-.15.13-.4.26-.44,2.46-.68,1.41,2.77-.26.44Z"/><path class="cls-2" d="M302.07,17.89c.18.45-.3.99-.09,1.35.04.06,1.2.69,1.28.7.68.06,3.77-3.79,4.23-4.55.33-.55.67-1.28.92-1.88.18-.43.55-2.84,1.01-1.61.37.99.31,3.88-.04,4.91-.18.52-.67.82-.7,1.19-.02.25.45,1.27.62,1.28.33.03,3.83-1.38,3.94-1.63.07-.14-.37-1.74-.33-2.43.05-.74.7-3.48,1.83-2.7.27.19-.06,2.93.02,3.6.12,1.13,1.04,2.81,2.1,3.26.55.24,2.34-1.61,3.03-1.75.29,4.04,2.26,1.34,4.43.7.07.89,1.43,2.44,2.25,2.52.36.03,4.88-1.91,4.94-2.19.05-.25-.26-.7-.2-1.03-.14-.13-2.33.59-2.96.3-.44-.2-1-1.03-.67-1.48.36-.48,4.17-1,4.32-1.16.17-.18-.35-1.26.59-.92.4.14.21.38.2.64-.03.97-.76,4.05-1.35,4.74-.5.58-1.21.27-.78,1.68.35,1.14,3.33-.13,4.35.14.34-1.42.15-2.73.99-4.02.24-.36,1.12-1.41,1.59-1.09.1.07.37,2.38,1.52,1.17.12-.12,1.27-2.99,1.27-3.16,0-.42-.96-1.13-1.34-1.23-1.36-.34-1.75,1.15-2.62,1.82,1.51-3.84-2.43-2.72-4.66-1.86-.74-3.06-2.95-2.44-5.21-1.37-1.19.57-2.32,1.37-2.61,2.75-.18.86.25,2.33-.8,2.34-.7-.78,1.19-8.58,1.18-10.14,0-1.4-.62-1.85-1.94-1.69-.45.05-3.77.97-3.89,1.13-.05.07.17,1.33.22,1.38.14.13,2.57-1.04,1.63,2.33-1.45-.66-2.46.38-3.73.93-.11-.37.39-1.13.21-1.38-.08-.11-1.94-.72-2.17-.67-.67.13-1.24,2.29-1.42,2.28-.09-3.79-2.33-1.88-4.54-1.17-.07-2.04-3.24-4.75-5.19-4.39-.47.09-3.37,2.3-3.79,2.75-1.77,1.91-2.01,4.49-.62,6.7.62.99,2.79,2.44,2.96,2.87ZM328.49,13.48c.87.55-.64,1.69-1.37,1.61-.23-.76.56-2.12,1.37-1.61ZM318.41,12.28c.25-.06,1.35.13,1.45.28.28.44,0,4.17-1.01,3.93-.75-.18-1.18-4.05-.43-4.21ZM302.11,9.07c2.91-.88,5.15,5.53,2.71,5.98-1.42.26-5.42-5.16-2.71-5.98Z"/><path class="cls-2" d="M269.71,16c.78.19,2.28-2.04,3.2-.66.44.66,2.09,6.34,2.13,7.21.03.66-.46,1.03-.34,1.47.14.52.76,1.26,1.36.98.87-.42,2.9-2.4,3.72-2.57.27-.06,1.02.41,1.76.37,2.55-.13,1.61-2.22,1.79-4.06.07-.78.47-3.07,1.16-1.45.58,1.36-.09,3.22,1.53,4.07,1.6.84,2.56-1.43,3.35-2.53h.34c.7.77,2.11,1.92,3.22,1.59.38-.11,3.83-3.34,3.87-3.61.05-.29-.47-.65-.45-1.01-1.46.66-2.85,2.17-4.18.33l3.73-2.84c.31-1.31-1.91-3.34-3.16-3.34-.94,0-3.5,2.39-3.97,3.26-.31.56-.59,1.35-.59,1.99,0,.73.8,2.35.72,2.44-.03.03-.73.22-.79.21-.89-.18-.7-4.25-1.12-4.82-.08-.12-1.26-.48-1.49-.51-1.65-.16-1.96,1.01-2.62,2.24l-.73,1.95c.07-.6-.57-1.59-.36-2.09.37-.88,2.83-2.34,3.27-3.96.56-2.04-1.18-3.06-3.04-3.06-2.18,0-1.98,1.69-3.14,2.44-.45.29-2.87,1.13-3.56,1.37-1.32.47-3.17.73-4.31,1.27-.67.32-2.93,2.91-1.3,3.3ZM292.15,13.11c1.05.5-.14,1.66-.93,1.51.04-.98-.39-2.13.93-1.51ZM282.37,11.22c-.04.71-.84,1.08-.94,1.77-.33.06-.31-.45-.35-.69-.54-3.08,1.35-2.24,1.29-1.08ZM277.94,13.22c-.31,1.07,2.12,6.96,1.87,7.23-.03.03-.83.15-.94.11-.8-.29-2.4-5.17-2.51-6.12-.12-1.12.63-1.21,1.58-1.22Z"/><path class="cls-2" d="M395.87,99.71c-.08.06-.45,1.84-1.17,1.28l.46-1.05c-.88-.24-1.84,1.08-2.33,0,1.7-.2.85-1.25-.47-.7.04-.26.89-.47.46-.93-.1-.1-1.72.65-2.09.23-.41-.45,1.7-1.09.93-1.51-.84-.47-.8.52-1.1.59-.36.08-.84-.05-1.23,0l1.63-1.05c-.42-.6-.46-.22-.81-.12-.98.29-1.64.67-1.75-.69,1.62-.19,3.23.3,4.64-.6.2-.12,1.5-1.18,1.54-1.27.15-.3-.14-.68-.08-.99.15-.74.61-1.41.41-2.27-.88-.15-.26,1.15-.59,1.86-.05.11-1.35,1.81-1.46,1.86-.85.37-2.8.39-3.78.47.25-.48.8-.61,1.17-1.04.43-.51,1.22-2.5.34-2.68-.7-.15-.59,1.36-.73,1.83-.42,1.34-2.33,1.64-3.58,1.67l1.4.69c-.35.08-2.56-.06-2.56-.35.83-.02,4.3-2.43,2.68-3.15-.47-.21-.39.6-.65.87-.99,1.01-2.45,1.68-3.66.65.03-.21,2.08.06,1.4-.58-.15-.14-1.85-.1-2.1-.82.74-.29,1.64.73,1.4-.58-.44,0-1.43.13-1.63-.35l.93-.47c-1.14-1.72,1.02-.72,2.01-.61,1.06.12,5.76.7,5.45-1.25-.16-.98-1.3,1.01-1.87.58,0-.37,1.18-2.08.35-2.09-.86,1.21-.3,2.36-2.22,2.33.35-.88,1.16-1.58.7-2.56-.73-.07-.73.62-.7,1.16-.43.06,0-.5-.57-.49-.9.03-2.04,1.76-3.62.72l2.42-.49c.38-.1.83-.92.61-1.13-.26-.26-2.52,1.74-3.49.7l1.57-.42.76-.74c-1.49-.03-3.14.75-4.44-.34-.28-.23-1.28-1.5-1.03-1.76.8.97,1.94,1.77,3.27,1.65.84-.07,1.23-.71.35-.84-.95-.14-2.13.59-2.8-.81.28-.03,2.12.88,2.09.11,0-.26-4.53-1.54-3.84-2.91.58.53,1.11,1.36,1.98,1.4.59-.56-2.62-1.58-1.98-2.33l.82.46c.11-.56-.58-2.47-.23-2.8.13-.13,1.81.72.7-.7,1.75.7,3.56,1.67,4.43-.7.4-.27,1.27,1.16,1.85,1.3,1.43.33-.48-1.17-.59-1.29-.45-.48-1.37-1.91-1.86-2.11-1.01-.42.44,1.5.35,1.63-2.15,1.39-1.34.29-1.63,0-.17-.16-1.16.24-1.5.22-.91-.05-2.18-1.7-2.69-2.44.96-.41.78.57.92.69.23.21,2.39,1.22,2.34.47-.02-.33-1.69-.86-2.09-.82l.35-.7c-.87-.35-1.64-.44-2.21-1.28l.7-.35c.18-.18-.95-1.24-.11-1.4.22-.04,2.68,1.81,3.96,1.88,1.86.1,3.19-1.27.45-1.41-.79-.04-1.78.31-2.67,0,.08-.44,1.47-.22,1.63-.47.13-.2-.04-.84-.37-.91-.42-.09-1.87.77-2.66.21.02-.4.78-.21,1.17-.34,1.32-.42.13-1.02-.71-1.3l.46-.23c-.1-.64-2.24-1.3-2.31-1.42-.03-.05.27-.42.12-.68-.15-.25-.88-.45-1.06-.82l.7-.23c.03-.41-1.08-1.07-.7-1.51.06-.07,1.41.68.7-1.04.2-.55.86-.04.93-.12.48-.58-.56-1.07-1.28-.94-.87.16-1.57,2.97-1.53,3.85.09,2.09,1.94,3.58,2.08,4.48.08.5-.34.86-.42,1.37-.16,1.04.7,2.97,1.2,3.89.22.41,1.03,1.29,1.07,1.48.12.6-1.02,2.37-1.12,3.23-.38,3.1.45,4.93,2.34,7.23.41.49,1.95,1.77,2.06,2.16.13.5-.33,1.8-.18,2.73.12.78,1.1,1.5.22,1.64.73.89,1.61,1.46,2.8,1.52l-.24.7c1.58.55,2.7-.46,3.58,1.2.74,1.39-.31.67-.67,2.06-.5,1.88.52,5.33,1.75,6.82.16.19,2.31,2.03,1.87,1-.13-.32-.83-.51-.69-1.05.46.32,3.58,1.53,3.73,1.4.57-.54-2.23-1.34-2.41-1.43-.71-.34-1.47-.64-2.01-1.25,1.06-.15,2.8,2.21,3.26.35-.59-.11-1.3-.15-1.85-.37-.18-.07-2.26-1.4-2.35-1.5-.02-.03-.09-.49.11-.46.94.55,1.81,1.43,2.91,1.63.52-.5-3.02-2.14-3.26-2.68-.05-.1-.06-.38.11-.35l1.52.93-.7-1.05c.2-.23.59.02.47-.46-.55-.53-1.1-.89-.93-1.75,2.47.52,3.15,3.13,6,3.45,1.79.2,1.65-2.94.76-2.28Z"/><path class="cls-2" d="M282.78,35.89c.16.09,1.11,2.02,1.8,2.28.09-1.01,1.14.47,1.77.79,1.49.75,1.29-.02,1.54-.09.36-.09.75.04,1.23-.13.68-.24,1.89-1.62,2.49-1.68.39-.04,2.47.74,3.26.85,2.53.35,4.97-.13,6.96-1.84.51-.44,1.92-2.47,2.14-2.53.28-.08.91.22,1.35.22,1.44.01,2.96-.14,4.21-.94.48-.31,1.04-1.1,1.2-1.15.32-.11,1.44.24,2.06.23,1.1-.03,3.02-.54,3.85-1.29.47-.41,1.74-2.06,1.51-2.68-.54-1.44-2.15-1.05-.82-.13-.32.72-1.45.29-1.17,1.17.05.16.55.03.47.23-.32.82-1.82-.49-1.63,1.05-.69-.5-1.63-.21-2.08-.35-.61-.19-1.68-1.76-1.99-.58l-1.52-.7.35,1.86c-1.12-.42-.68-1.92-1.63-2.56-.79.52-.02,1.24-.23,1.86-.78-.94-.99-1.81-1.89-2.65-.18-.17-.23-.45-.44-.6-2.15,2.43,3.83,4.42,3.84,4.77,0,.03-.2.56-.23.58-.18.15-1.04-.35-1.16-.23l.46.93c-1.04.55-2.16-1.1-2.48-1.15-.28-.04-.53.39-.67.4-.2,0-1.14-1.33-1.74-1.11-.24.23.75,1.16.94,1.27.69.41,1.46.18,1.86.82-1.1.04-3.03-.07-3.55-1.23-.29-.65.09-1.45-.82-1.03-.03.01-.16.86-.4.16-.26-.73.2-1.21-.11-1.87.11-.07,2.35.21,1.63-.47-.24-.23-2.13-.18-2.63-.29-.19-.04-1.84-1.09-1.79-.3.03.6,1.79.79,2,1.04.26.32-.56,1.37-.33,2.17.17.59,1.77,1.71,2.29,2.15l-.93.12c.47.4,1.07.79.24,1.28-.39.23-.86.03-1.23.12-.17.04-.17.32-.26.37-.24.14-.57.06-.61.09-.47.36.81.67.7.93-.67.28-2.42-1.26-2.8-.93-.27.25.33.63.53.75.48.28,1.32.21,1.56.65-1.65.14-3.25-.91-4.31-2.09-.69.45.44,1.32.8,1.53.59.97-1.31-.39-1.39-.48-.34-.4-.49-1.62-1.04-1.52-.72.14.3,1.45.46,1.64.58.7,1.25,1.26,2.22,1.16-.08.44-1.42.26-1.7.18-1.65-.47-1.83-3.02-2.27-3.45-.76-.75-.57,1.87,0,2.1-1.78-.02-.81-2.9-.93-3.03-.06-.06-.57-.06-.72.13-.37.5-.22,1.71.07,2.26.19.37,1.58,1.1.77,1.09-.66-.3-1.35-1.08-1.48-1.81-.11-.63.27-1.25.18-1.55-.1-.35-.66-.34-.69-.38-.07-.08,1.23-2.02-.36-.94-.41.28-.9,1.79-1.27,1.41-.04-.04-.23-1.1-.2-1.24.1-.41,1.35-1.26,1.36-1.44.05-1.23-1.65,1.04-1.86,1.05-.23-.69.72-2.29-.35-1.86-.63.25-.36,2.17-.17,2.73.38,1.16,2.84,3.32,3.55,4.49-1.2.2-1.28-.39-1.17,1.17l-1.05-1.16c-.86.47.39,1.12.12,1.39-.52.5-1.51-1.69-2.1-1.16-.25.22.53.89.7,1.05-1.69.1-1.63-1.92-1.31-3.22.12-.47.87-2.19-.57-.75-1.16,1.15-.16,2.29-.57,3.62-.33-.42-1.22-1.17-.93-1.63l.82.46c-.81-1.03-1.3-2.94-.36-3.97.28-.31.73-.45.95-.68,1.17-1.27-.46-1.18-1.41-.01l-1.04,2.1c-.11-.96-1.33-2.31-1.35-3.19,0-.44,1.17-2.02.88-2.41-1.49.46-1.72,1.67-1.65,3.15.06,1.25,1.15,2.1,1.66,3.25.57,1.29-.57,1.01-.97.5-.34-.44-.57-3.73-.91-.14-1.28-.3.16-1.59-.58-1.86-1.04-.38-.39,1.17-.58,1.4-1.17,0-.68-1.28-1.28-1.86l-.58,1.16c.06-1.66-1.02-2.19-1.05-.23-.8-.27-.41-1.99-.94-2.1-.67-.14-.36.95-.81.93-.25-.85.98-1.46.11-2.09-2.32,1.55-.67,3.06,1.2,3.92.61.28,3.99.94,3.81,1.78-.43.69-.98.07-1.5.12-.45.04-1.05.75-1.76.47l1.16,1.16c-.6-.05-3.53-1.81-3.73-1.63-.2.19.26.69.54.74l2.13,1.36c-1.01.3-3.95-2.38-4.19-2.33-1.5.31,1.59,1.79,1.81,1.92.28.17.77.38.05.41-1.76-.25-2.66-2.58-4.31-2.45.82,1.01,1.99,2.08,3.26,2.45l-1.63.46c2.13,1.44,8.57.37,9.42-2.09.09-.25-.16-.65-.1-.7.08-.06,1.89-.05,2.05.05ZM310.68,30.01l1.75.93.11-.69,1.29.69c-1.19.28-2.32.18-3.49-.11l.35-.82Z"/><path class="cls-2" d="M342.16,23.94c.05.32-.4.52-.34,1.01.05.42.58,1.07,1.03,1.11.48.05,4.02-1.94,4.61-2.38.93-.69,1.86-1.61,2.14-2.76.43.31.33.5.26.94-.11.62-1.23,3.07-1.67,3.48-.44.41-1.23.46-1.39.7-.34.5-.23,1.51.47,1.64.44.08,3.89.1,4.02-.05.42-.58,1.52-4.66,1.71-4.82.2-.17,2.28.07,2.77-.02.23-1.71-.17-1.39-1.63-1.64-.14-.8.88-2.85,1.85-2.45.77.32.66,2.02,1.53,1.94.42-.04,1.75-2.47,1.7-3.05-.06-.61-1.74-1.74-2.31-1.69-.36.04-3.62,1.27-4.06,1.51-.74.41-1.96,2.04-2.12,2.07-.16.03-1.09-.37-1.19-.5-.27-.33-.41-1.31-1-1.92-1.55-1.61-3.43-1.18-5.36-.47-2.53.93-2.87,2.97-2.04,5.31.2.57.96,1.64,1.01,2.02ZM344.5,18.37c1.46-.49,2.35,3.56,1.12,3.93-1.12.33-2.05-3.62-1.12-3.93Z"/><path class="cls-2" d="M349.14,33.97c-.79.08.33.58.36.62.31.47.52,1.82.96,2.5.94,1.46,4,2.39,5.67,2.5.67.04,1.69-.28,2.15-.1.2.08,1.38,1.85,2.09,2.37.43.32,1.77,1.1,2.25,1.25.42.13,1.53.04,1.75.23.09.08.13.67.31.97.27.43,1.52,2.26,1.76,2.5.51.51,3.34,1.09,3.33.34,0-.23-2.25-.75-2.8-1.16-.22-.16-1.75-1.89-1.87-2.1-.42-.71.16-.38-.91-1.4-.16-.15-.42-.81-.58-.81-.1,0-.94.88-1.75.22l.82-.46c-.48-1.19-2.12.51-2.68-1.17,2.35.01,1.23-.99-.47-.7.11-.32.82-.72.23-1.05-.06-.04-1.37-.06-1.49-.04-.33.04-.61.42-.96.41-.12,0-.1-.46-.27-.49-.44-.09-1.01.3-1.48.24l.7-.93c-2.29.49-4.07,1.16-5.36-1.4,2.9.65,1.54-.58-.23-.7l.47-1.86c-.65.16-1.31.16-1.98.23Z"/><path class="cls-2" d="M325.42,26.24c-.42-.07-.72-.55-1.03-.62-.47-.1-2.27.21-2.87.05-.14-.04-1.87-1.57-1.39-.21.07.2.58-.03.47.34-1.06.42-1.84-1.55-2.45-1.86-.81-.41-.02,1.55.35,1.63-1.03.71-1.86-2.01-1.63-2.8-1.49-.24-.86.57-.7,1.63-1.37-.67.03-2.02-.82-2.8-.75-.16-.65,1.59-.57,1.98.18.94,3.57,3.08,4.53,3.4.86.28,3.04.49,3.98.47,1.45-.03,2.86-.67,4.31-.71.05-1.78-1.37-.37-2.17-.5Z"/><path class="cls-2" d="M382.18,61.89c.62-.17,1.64-.97.75-1.57-.84.37-1.07,1.22-2.21.93.06-.45.78-.17,1.05-.69.62-1.17-1.16-.18-1.51-.11-1.53.32-1.56-.38-2.81-.95-.5-.45-.13-.43.25-.25.81.38,2.51,1.38,2.31-.09-.97-.21-2.61.17-2.8-.93l.7-.46c-1.49-.18-1.19-.73-1.71-1.57-.21-.35-.64-1.09-.84-1.37-.28-.39-1.09-.46-1.3-.8-.24-.4-.06-1.44-.58-1.75-.31-.19-.65,0-.7.25-.22,1.08,2.35,5.66,3.15,6.62.98,1.18,4.71,3.16,6.22,2.75Z"/><path class="cls-2" d="M338.9,28.82c-.26.01-1.97-.19-2.29-.26-1.32-.28-1.76-1.67-2.96-2.04-.41.49,1.04,2.11,1.47,2.39.29.19,2.79.57,3.35.63.52.06,1.06-.34,1.48-.12.32.17.57.88.93,1.19.58.5,2.26,1.52,2.97,1.69.57.14,1.55-.07,2.01.27.49.35.81,1.63,2.32,2.39.15.07,1.28.71,1.09.08-.11-.27-2.06-1.18-1.63-1.52.23-.18,1.66.44,1.63-.12-.03-.48-1.98-.47-2.35-.69-.12-.07-.57-2.81-1.38-1.99-.11.11.22.78-.23.7-.18-1.53-1.97-1.65-.94,0-1.39.38-.85-1.16-1.75-1.86-.87.02-.27.85-.35.93-.03.03-.75-.34-.83-.47-.19-.31.34-.78-.1-1.06-.16-.1-.56.15-.93.03-.3-.09-.63-.54-.81-.54-.15,0-.37.35-.69.37Z"/><path class="cls-2" d="M304.04,23.01l-1.05-1.86c-.8-.39-.01,1.52.11,1.75,1.03,1.94,3.7,3.43,5.82,3.74.51.07,1.91-.18,2.35,0,.38.16.57.91,1.16.79l-2.22-3.03-.35,1.05c-.49-.24-.85-1.92-.93-1.98-.94-.71-.56,2.21.23,2.45-1.36.56-1.94-2.78-2.12-2.89-1.26-.8-.24,1.61-.1,2.08l-2.33-2.8-.58.69Z"/><path class="cls-2" d="M384.68,69.64c.25-.5,1.38-.2,1.75-.69.23-.3-.07-.68-.24-.7-.42-.05-2.24.98-3.15.22-.14-.37,2.83-.74,1.87-1.28-.54-.31-2.23.31-3.03-.12l1.63-.23c.85-.77-3.31-.77-3.61-1.17-.35.84,1.24.92,1.74.94l-.46.35c1.56,2.46,4.19,4.94,7.34,4.8.28-.01,2.03-.54,1.52-.95h-3.5l1.63-.58c-.94-.78-2.38-.04-3.49-.59Z"/><path class="cls-2" d="M289.47,25.35c-.29-.64-.17-1.99-.47-2.1-.75-.26-.86.78-.81,1.26.27,2.69,5.53,4.93,7.92,5.03.16-.7-.5-.44-.86-.77-.9-.81-.25-1.73-.3-2.73-1.32-.03-.52,2.11-.7,2.33-2.25.2-.71-3.26-1.51-3.26-.77,0,.1,2.23-.47,2.33-1.03.17-1.59-2.28-1.28-3.03-.95.04-.92,1.21-.7,1.86-.41-.14-.64-.56-.81-.93Z"/><path class="cls-2" d="M391.33,81.54c-1.29,1.23-1.71,1.72-3.38.69l1.71-.96c.36-.08.52-.76.38-.9-.32-.34-1.44.96-1.78,1.09-.67.25-1.44-.25-1.94-.62-.29.37,1.94,2.38,2.33,2.68,1.41,1.11,3.84,2.34,5.66,1.93,1.15-.26,1.38-1.59.75-1.58-.16,0-2.03,1.43-2.91.69.04-.45.82-.29,1.05-.69,1.12-1.92-1.38-.04-1.89,0-.56.03-.96-.42-1.5-.47.55-.87,2.98-.77,1.51-1.85Z"/><path class="cls-2" d="M355.67,101.78c-.48-.19-.65.05-.82.02.16.67,1.6,2.29,1.86,1.28.14-.53-.62-1.14-1.04-1.3Z"/><path class="cls-2" d="M350.53,97.38c-1.41-1.16-2.92-2.2-4.31-3.39-.23-.26-.66.06-.7.24-.1.48,5.18,4.86,5.95,5.47,1.05.82,2.07,1.89,3.37,2.1-.33-1.36-3.02-3.36-4.32-4.42Z"/><path class="cls-2" d="M360.91,67.07c-.14-.02-.32-.21-.59-.22-.75-.02-8.7,3.03-9.89,3.59-1.13.53-1.06,1.32-.06,1.14.55-.1.95-.55,1.41-.71,1.32-.47,8.55-2.69,9.02-3.34.12-.16.07-.38.12-.46Z"/><path class="cls-2" d="M363.01,66.26c-.16-.6-1.62.04-1.86.24-.28.23-.17.45-.23.57.57.09,2.42.39,2.1-.81Z"/><path class="cls-2" d="M314.85,57.51c.07.11.79,2.65,1.54,1.87.55-.57-.88-1.79-1.02-2.09-.09-.21.08-.56-.08-.86-1.34-2.48-3.25-4.95-4.49-7.54-.24-.17-.94.37-.83.71,1.58,2.41,2.81,5.06,4.33,7.51.13.21.46.25.56.4Z"/><path class="cls-2" d="M309.28,63.1c-.36-.32-.69-.67-.89-.84-2.08-1.83-4.58-3.49-6.69-5.33l-.93.23,8.75,7.56c1.47-.05.34-1.1-.24-1.63Z"/><path class="cls-2" d="M361.14,91.32h-.23c0-.18-.1-.48-.23-.59-.81-.71-8.29-3.21-9.84-3.68-.37-.11-.73-.2-1.12-.16-.18.94.71,1.06,1.4,1.29,3.01,1.03,6.55,2.3,9.79,3.29.52.16,1.22.9,1.97.79.89-1.02-1.92-1.94-1.75-.94Z"/><path class="cls-2" d="M305.51,71.47c.27-.08.54-.47.39-.67l-10.95-3.73c0,.31-.06.64.11.94.18.3,5.59,2.17,6.42,2.44.73.23,3.55,1.18,4.03,1.03Z"/><path class="cls-2" d="M324.08,55.31l-1.91-10.21c-.03-.42-.77-.51-.88-.4-.62.64,2.07,9.8,1.86,11.42.43.08.93-.42.93-.81Z"/><path class="cls-2" d="M362.2,78.72c-3.46-.39-7.54.34-11.06.03-.31.7-.28.84.55.93,2.41.24,8.13.25,10.51,0,1.09-.12,1.12-.83,0-.95Z"/><path class="cls-2" d="M332.69,54.24c.4-.37,1.08-7.52,1.54-8.61.06-.19-.08-.89-.14-.93-.61-.4-.72.26-.85.64-.27.84-1.8,8.6-1.47,8.91.24-.04.82.07.92-.01Z"/><path class="cls-2" d="M348.67,62.41c.66-.79,6.18-5.01,6.18-5.47,0-.11-.69-.79-.93-.48-1.41,1.78-4.77,3.48-5.96,5.25-.19.28-.56.93-.34,1.18.16.17.87-.31,1.04-.47Z"/><path class="cls-2" d="M302.33,52.47c.88.99,3.04,3.95,4.04,4.47.41.21.45.04.7-.24.11-.42-.96-1.6-1.28-1.98-1.34-1.58-3.12-2.8-4.44-4.42l-.58.35c-.21.78,1.16,1.39,1.55,1.83Z"/><path class="cls-2" d="M359.05,62.53c.64-.34,1.22-.91,1.71-1.2.34-.21,3.01-.94,2.02-1.6-.74-.5-1.87.83-2.29,1.03-1,.48-2.09.78-3.08,1.3-.53.28-3.04,1.47-2.32,2.22.23.24,3.45-1.47,3.97-1.74Z"/><path class="cls-2" d="M361.36,98.44c-1.81-1.43-4.64-2.48-6.51-3.98-.59-.38-.9.64-.67,1.02.06.09,1.61.75,1.95.96,1.17.73,2.49,1.46,3.47,1.99.4.22,2.01,1.7,2.24.69.07-.31-.27-.52-.48-.68Z"/><path class="cls-2" d="M367.2,74.07c.15-1.65-1.87-.56-2.92-.47-.76.07-1.57-.08-2.32,0-.67.07-4.02.37-3.38,1.39.3.48,7.4-.94,8.62-.93Z"/><path class="cls-2" d="M358.03,86.42c.74.41,3.91,1.13,4.92,1.36.72.16.68.04,1.4.26.35.1,2.88.47,2.15-.44-.25-.32-6.9-1.58-7.83-2.1-.53-.21-1.15.64-.64.93Z"/><path class="cls-2" d="M352.62,49.11c-.33.36-.41.87-.64,1.11-.44.46-1.16.87-1.68,1.47-.43.5-2.15,2.43-2.33,2.8-.22.46-.16.63.24.93.53.1,3.34-3.48,3.84-4.09.17-.21.17-.55.31-.72.27-.34,1.2-.74,1.44-1.25.51-1.1-.51-.97-1.18-.25Z"/><path class="cls-2" d="M338.74,49.8c.64-.4,2.06-6.54,2.79-7.6.26-.54-.62-1.1-.89-.61-.21.37-.33,1.46-.54,1.99-.61,1.53-1.85,4.02-2.13,5.54-.1.54.28,1,.78.69Z"/><path class="cls-2" d="M299.84,64.41c.68.17,1.06-.47.41-.89-1.48-.95-3.05-1.82-4.62-2.62-.24-.12-.55.11-.64.06-.09-.05-.15-.46-.41-.61-.45-.26-.97-.39-1.38-.72-.97.76.35,1.37,1.07,1.74.55.28.57.29,1.2.65.88.51,3.61,2.21,4.37,2.4Z"/><path class="cls-2" d="M297.28,72.09c-1.34-.57-5.16-1.42-6.7-1.69-.75-.13-1.65-.27-1.09.66,1,.22,7.91,2.34,8.24,2.07.02-.02.23-.55.23-.58,0-.18-.5-.38-.69-.46Z"/><path class="cls-2" d="M349.14,101.58c-.61.51-.62.51-.22,1.14.46.72,2.62,2.88,3.36,3.59.21.2.52.13.62.23.25.23,1.92,2.72,2.18,1.44-1.57-2.39-3.99-4.29-5.94-6.4Z"/><path class="cls-2" d="M329.23,118.48c.14-1.42.04-4.24-.09-5.68-.05-.53-.04-2.51-.74-2.37-.29.06-.33.54-.36.8-.13,1.14.1,6.04.23,7.25.13,1.13.85,1.08.96,0Z"/><path class="cls-2" d="M313.16,44.51c.06.16.33.2.35.24.56,1.45.97,3.07,1.68,4.53.37.75,1.09,2.48,1.4.71-.69-.94-2.83-7.61-3.57-7.62-.77-.01.02,1.84.14,2.14Z"/><path class="cls-2" d="M326.64,47.39c.12,1.09.83,1.12.95,0,.09-.77.09-7.83-.25-8.05-1.35-.89-.71,2.21-.69,2.66.04,1.7-.19,3.77-.01,5.39Z"/><path class="cls-2" d="M339,108.34l3.14,7.46c.15.27.96.3,1.05.23.3-.26-2.82-6.48-2.91-7.46l-1.29-.23Z"/><path class="cls-2" d="M345.4,49.81c.08-.23.25-.75.13-.91-.02-.03-.56-.27-.8,0-1.33,1.46-2.34,4.64-3.62,6.29l1.13.21c.6-1.82,2.56-3.93,3.17-5.58Z"/><path class="cls-2" d="M294.95,83.62c-1.59.6-4.31.32-5.78.87-.3.11-.84.2-.74.64.17.82,2.2-.04,2.7-.09,1.34-.13,2.72.01,4.06-.26l-.24-1.17Z"/><path class="cls-2" d="M350.38,75.28c-.88.02-3.72.25-4.46.46-.46.14-.59.68-.85,1.01.31.49.39.2.64.19,1.68-.08,3.33-.64,5.03-.58.62-.19.62-1.11-.36-1.08Z"/><path class="cls-2" d="M322.33,113.69c.15-.21,1.02-4.55,1.04-5.04.03-.76-.67-1.09-.92-.63-.29.52-1.14,5.7-.93,5.91.12.12.63,0,.81-.24Z"/><path class="cls-2" d="M350.65,83.63c-.15-.22-4.61-1.26-5.12-1.3-1.22-.1-1.23.6-.29,1,.44.19,4.82,1.21,5.08,1.18.31-.05.46-.7.34-.88Z"/><path class="cls-2" d="M302.16,101.92c.37-.66,3.83-3.12,3.75-3.49-.08-.37-.86-.48-1.16-.24-.45.75-4.31,3.02-3.73,3.84.1.15.98.19,1.15-.12Z"/><path class="cls-2" d="M332.77,109.37c-.03.2.58,3.57.69,3.92.27.78,1.08.94,1.06-.1-.03-1.33-.57-2.81-.65-4.15-.37-.02-1.04-.08-1.1.34Z"/><path class="cls-2" d="M346.92,111.6c.2-.19-.55-1.66-.77-1.81-.2-.13-.58-.02-.63-.06-.04-.03.29-.47.15-.93-.07-.22-2.13-3.96-2.36-3.96-.84,0-.16,1.66.03,2.07.59,1.31,1.5,2.25,2.07,3.52.2.46.91,1.73,1.52,1.16Z"/><path class="cls-2" d="M297.75,78.96h-4.89c0,.25-.06.48.1.71.18.25,5.01.78,4.79-.71Z"/><path class="cls-2" d="M334.57,114.16c-.09-.07-.51,0-.7.11-.58.37.33,1.52.41,1.93.14.76-.47,2.57.99,2.38.43-.99-.52-1.94-.59-2.44-.04-.28.18-1.75-.11-1.99Z"/><path class="cls-2" d="M357.4,55.08c.52-.25.91-1.16,1.25-1.45.48-.4,2.71-1.42,2.48-2.29-.25-.94-1.89.75-2.22,1.04-.31.27-.43.67-.64.87-.66.61-1.36.37-1.79,1.7.17,0,.4.37.92.12Z"/><path class="cls-2" d="M356.48,54.95c-1.45.02-2.51,1.94-1.1,1.59,1.15-.29.9-.97,1.1-1.59Z"/><path class="cls-2" d="M368.25,78.73c-.81,1.65,3.85,1,3.14,0-.37-.52-2.5.14-3.14,0Z"/><path class="cls-2" d="M287.74,94.71c.13-.01,2.22-.88,2.32-.96.28-.22.17-.46.23-.58-1.05-.15-1.67-.09-2.69.45-.95.51-.42,1.12.14,1.08Z"/><path class="cls-2" d="M292.38,92.81c.24-.19.22-.55.25-.57.12-.09.34.35.57.38.49.06,1.83-.57,1.52-1.31-.92-.3-1.6.61-2.09.79-.42.15-1.21-.07-1.95.42-.48.32-.27.45-.39.65.92.13,1.16.39,2.09-.37Z"/><path class="cls-2" d="M365.93,92.48c-.15.03-.4.38-.35.58.08.39,3.09,1.75,3.26.93.14-.65-2.64-1.56-2.91-1.51Z"/><path class="cls-2" d="M335.5,36.54c-1.08-.72-1.44,3.13-.81,3.26.74.16,1.14-3.05.81-3.26Z"/><path class="cls-2" d="M321.05,39.8c.27-.18-.33-3.17-.47-3.26-.28-.18-.89.05-.89.53,0,.45.49,3.27,1.36,2.73Z"/><path class="cls-2" d="M348.21,113.93c-1.01.22,1,3.72,1.74,2.8.18-.22-1.17-2.92-1.74-2.8Z"/><path class="cls-2" d="M287.72,79.32c-.13-.6-4.06-.66-3.26.58.1.16,3.44.27,3.26-.58Z"/><path class="cls-2" d="M334.59,119.2c-.08.31.43,2.79.8,2.88.94.22.24-3.14.11-3.26-.15-.14-.82.03-.91.38Z"/><path class="cls-2" d="M299.15,55.19c.08.5-.49.75.62,1.37,1.88,1.05.88-1.36-.62-1.37Z"/><path class="cls-2" d="M297.07,52.96c-.24-.3-2.27-1.83-2.59-1.51-.59.59,1.75,2.23,2.56,2.33-.03-.19.31-.47.02-.82Z"/><path class="cls-2" d="M297.87,53.76c-.6-.29-.7.04-.82.03.08.46.78,1.33,1.18,1.52.52.25.75-.13.92-.12-.1-.62-.72-1.16-1.28-1.43Z"/><path class="cls-2" d="M368.25,63.82c-.21-.02-2.8.97-2.68,1.5.14.65,2.33-.15,2.66-.37.56-.37.41-1.1.02-1.14Z"/><path class="cls-2" d="M371.86,49.59c.19-.75-.86-.63-.93-.7-.05-.05.33-.6.24-.7-.15-.16-1.9-.04-2.21,0-.31.05-.72.08-.35.46.27.28,2.72,1.16,3.26.94Z"/><path class="cls-2" d="M331.78,26.05v.46h-.23c-.24-1.15-1.52-.97-.6.25.24.31,2.06,1.56,2.23,1.39.2-.49-.94-2.49-1.4-2.1Z"/><path class="cls-2" d="M348.59,42.05c-.27.35-1.27,2.12-.96,2.42.27-.03.67.09.89-.04.1-.06.92-1.87,1.01-2.14.26-.75-.46-.87-.94-.24Z"/><path class="cls-2" d="M290.06,65.21c-.07-.1-2.12-.81-2.32-.84-.8-.15-1.03.65-.31,1.02.13.07,2.16.75,2.28.74.25-.02.48-.73.35-.92Z"/><path class="cls-2" d="M307.58,45.45c.02.07.63,1.27.7,1.3,1.26.76,1.26-1.28-.5-2.06-.02.17-.3.35-.19.75Z"/><path class="cls-2" d="M307.77,44.7c.12-1.06-.77-2.65-1.86-3.03-.28.32.89,2.8,1.32,2.99.19.08.44,0,.54.04Z"/><path class="cls-2" d="M358.58,105.19c.1.67,2.32,2.39,2.79,1.98.28-.25-2.53-3.35-2.79-1.98Z"/><path class="cls-2" d="M347.86,90.73c.12-.55-2.44-1.88-2.56-1.74-.73.81,2.29,2.98,2.56,1.74Z"/><path class="cls-2" d="M353.45,93.99c.09-.43-1.92-1.57-2.21-1.51-1.65.34,1.95,2.7,2.21,1.51Z"/><path class="cls-2" d="M296.51,29.32c.3.18,1.77.5,1.93-.01-1.93-.11-1.99-1.2-2.33-2.8-1.33.23-.12,2.5.4,2.81Z"/><path class="cls-2" d="M354.38,64.63c-.17-.8-2.47.47-2.55.59-.18.25.05.93.53.89.35-.03,2.12-1,2.02-1.48Z"/><path class="cls-2" d="M337.02,53.32c1,.28,1.16-1.95,1.28-2.56-.67-.64-2.13,2.32-1.28,2.56Z"/><path class="cls-2" d="M388.49,80.56c.4-.12.52-.76.39-.89-.17-.18-1.92.54-2.4.43-.44-.1-.83-.98-1.32-1.13.12,1.64,2.05,1.99,3.34,1.6Z"/><path class="cls-2" d="M354.39,84.91c-.2.52-.01.46.3.63.38.21,2.04.63,2.26.41.76-.73-2.25-1.84-2.56-1.05Z"/><path class="cls-2" d="M328.88,25.33c-.14,0-.7-.36-.83-.22-.42.44.93,1.21,1.05,1.63l.23-.7,1.28.93-1.29-2.09c-.46-.15-.31.45-.44.45Z"/><path class="cls-2" d="M373.64,50.82s-.28-.04-.3-.1c-.08-.19.37-.63-.22-.85-.27-.1-1.52.36-1.95.2l1.17.47-.47.69c.71-.05,2.37.76,1.77-.4Z"/><path class="cls-2" d="M346.61,100.26c.38.49.85,1.59,1.48.73.18-.68-2.12-2.89-2.11-1.39,0,.49.46.45.62.66Z"/><path class="cls-2" d="M354.85,74.77c-.91,1.43,2.77.75,2.79.11.02-.58-2.64-.35-2.79-.11Z"/><path class="cls-2" d="M312.67,62.06c-.32-.16-.65-.02-.7.24-.06.29,1.8,2.44,2.33,1.74.38-.5-1.26-1.79-1.63-1.98Z"/><path class="cls-2" d="M391.68,93.88c.69.75,1.85-3.52.81-3.96l-.81,3.96Z"/><path class="cls-2" d="M348.33,91.09c-.54.51,1.91,2.2,2.33,1.63.46-.63-1.69-2.02-2.33-1.63Z"/><path class="cls-2" d="M318.84,56.82c.72-.15-.25-2.71-.93-2.56-.82.18.29,2.7.93,2.56Z"/><path class="cls-2" d="M326.88,49.24c-.04.34-.05,2.3.02,2.42.07.11.75.37.88-.12.19-.71.24-2.96-.9-2.3Z"/><path class="cls-2" d="M285.39,28.61c-1.45.05-2.96,1.13-3.26,2.56l2.8-1.98.46-.58Z"/><path class="cls-2" d="M316.39,51.46c-.19.55.68,2.69,1.28,2.56.86-.19-.61-3.23-1.28-2.56Z"/><path class="cls-2" d="M351.59,66.03c-.17-.79-2.31.48-2.46.81-.05.1.1.68.13.7.13.11,2.42-.87,2.33-1.51Z"/><path class="cls-2" d="M311.38,61.71c.9-.17-.61-2.3-1.39-2.1-.95.25.79,2.19,1.39,2.1Z"/><path class="cls-2" d="M298.69,73.02c-.05.88,2.17.88,2.79.82.65-.55-2.73-1.78-2.79-.82Z"/><path class="cls-2" d="M303.43,65.24c-.31-.24-1.91-.96-2.18-.73-.44.38,1.65,1.57,1.94,1.68.75.27.87-.47.24-.95Z"/><path class="cls-2" d="M308.24,58.56c.4.46.7,1.59,1.4.71.21-.44-1.39-1.95-1.52-1.98-.42-.09-.75.55-.55.9.03.04.47.14.67.37Z"/><path class="cls-2" d="M318.25,107.86c.1-.07,1-2.07.36-2.32-.65-.25-1.22,1.41-1.25,1.79-.03.5.64.7.89.52Z"/><path class="cls-2" d="M351.72,83.88c-.34.07-.5.76-.37.91.09.11,2.78.83,2.56-.11-.06-.27-1.97-.85-2.19-.8Z"/><path class="cls-2" d="M327.23,52.16c-.5.1-.51,2.18-.13,2.46.17.13.66.16.71.1.1-.1.22-2.73-.58-2.56Z"/><path class="cls-2" d="M306.37,67.54c.61-.6-2.14-2.15-2.33-1.28-.05.7,2.04,1.56,2.33,1.28Z"/><path class="cls-2" d="M394.13,107.65c-.7-.07-1.31-.4-1.99-.47.23.99,3.08,1.51,3.5.93.63-.88-1.37-.44-1.5-.45Z"/><path class="cls-2" d="M351.82,75.35c-.19.93,2.47.45,2.56.34.1-.11,0-.83-.34-.88-.22-.03-2.16.23-2.22.53Z"/><path class="cls-2" d="M270.71,37.93c-.73-.29-1.75-2.67-1.89-2.76-1.05-.66-.59.98-.08,1.59.4.48,1.36.98,1.97,1.17Z"/><path class="cls-2" d="M367.64,79.64c.27-.17.23-.8-.2-1-.14-.07-1.8.03-1.87.09-.06.06-.09.12-.11.18-.02-.06-.06-.12-.12-.18-.08-.08-2.26-.2-2.1.58.14.68,2,.41,2.22-.17.21.51,1.7.8,2.18.5Z"/><path class="cls-2" d="M346.34,57.98c.11,0,1.51-1.35,1.28-1.74l-.58-.35c-.23.32-1.22,1.03-1.27,1.31-.04.25.49.78.56.78Z"/><path class="cls-2" d="M299.26,29.31c.2,0,.16-.42.12-.47-.04-.05-.69-.28-1.06-.7-.21-.24-1.06-2.07-1.27-1.05-.19.89,1.35,2.19,2.21,2.21Z"/><path class="cls-2" d="M319.77,59.61c.06,0,.81-.47.81-.57,0-.08-.69-1.4-.75-1.46-1.16-1.38-.84,1.98-.07,2.04Z"/><path class="cls-2" d="M357.07,103.21c-1.17.21.7,1.95,1.16,1.87,1.13-.22-.57-1.97-1.16-1.87Z"/><path class="cls-2" d="M363.24,66.26c.33.86,2.71-.46,2.09-1.05-.18-.17-2.43.17-2.09,1.05Z"/><path class="cls-2" d="M347.39,86.07c0-.31-1.67-.83-1.98-1.04-1.43,1.11,1.98,2.01,1.98,1.04Z"/><path class="cls-2" d="M321.06,44.46c.07.06.7-.03.92,0,.41-.88-.54-1.79-.59-2.21-.04-.34.31-1.95-.11-2.22-1.21-.77-1.01,2.08,0,2.45-.68-.17-.31,1.9-.23,1.98Z"/><path class="cls-2" d="M307.07,67.54c-.68,1.4,2.91,2.04,2.07.73-.06-.09-1.94-.87-2.07-.73Z"/><path class="cls-2" d="M363.47,92.6c.43.41,2.63,1.04,1.82-.31-.31-.51-3.12-.91-1.82.31Z"/><path class="cls-2" d="M387.94,78.5c-1.22.19-2.13-.2-3.26-.47.48.98,3.02,1.93,3.26.47Z"/><path class="cls-2" d="M287.96,79.89c.13.14,2.9.1,2.33-.7-.14-.2-1.93-.42-2.23-.02-.13.17-.16.66-.1.71Z"/><path class="cls-2" d="M348.56,79.31c.16-.74-1.53-.67-1.94-.54-1.67.5,1.73,1.56,1.94.54Z"/><path class="cls-2" d="M347.86,44.7c-1.31-.28-1.43,1.11-1.4,2.1.97-.32,1.32-1.11,1.4-2.1Z"/><path class="cls-2" d="M346.63,47.33c.03-.28-.17-.46-.17-.54-.22.07-.45-.16-.72.15-.04.04-.51.9-.57,1.02-.46.99,1.27.99,1.46-.63Z"/><path class="cls-2" d="M344.13,97.38c-.24.29,1.39,1.99,1.86,1.63.77-.59-1.35-2.24-1.86-1.63Z"/><path class="cls-2" d="M292.62,66.73c-.1.45,1.58,1.08,1.74,1.05.27-.05.49-.7.34-.92-.1-.15-1.93-.84-2.08-.13Z"/><path class="cls-2" d="M334.46,40.03c-.4.1-.75,1.94-.58,2.1.03.03.87.02.92-.02.09-.08.56-2.29-.33-2.08Z"/><path class="cls-2" d="M333.88,42.36c-.18.15-.95,2.5.34,2.1.73-.23.33-2.63-.34-2.1Z"/><path class="cls-2" d="M347.53,112.05c-1.24-.99-.89,1.01-.31,1.59.95.94,1.12-.94.31-1.59Z"/><path class="cls-2" d="M346.81,69.17c.5,0,2.73-1.96,1.2-1.83-.72.06-2.03,1.81-1.2,1.83Z"/><path class="cls-2" d="M290.66,65.45c-.32.07-.5.77-.37.92.08.09,2.31.86,2.1-.11-.06-.25-1.5-.85-1.73-.81Z"/><path class="cls-2" d="M381.42,65.21s.03-.67,0-.7c-.09-.1-2.18-.51-2.56-.7-.22.91,2.34,1.63,2.56,1.4Z"/><path class="cls-2" d="M314.76,27.21l-2.33-1.86c.03,1.25,1.15,2.03,2.33,1.86Z"/><path class="cls-2" d="M292.36,79.87c.08-.05.39-.74-.12-.88-.93-.25-2.11-.25-1.72.9.44-.09,1.56.15,1.84-.02Z"/><path class="cls-2" d="M311.61,66.14c1.04-.21-.76-2.03-1.28-1.63-.64.48.75,1.74,1.28,1.63Z"/><path class="cls-2" d="M309.1,102.43c.26-.23,1.15-1.36.41-1.56-1.2-.32-1.76,2.73-.41,1.56Z"/><path class="cls-2" d="M295.74,91.78c1.11-.04.89-.54.6-1.39-1.26-.12-2.1,1.45-.6,1.39Z"/><path class="cls-2" d="M347.97,85.96c-1.29,1.04,1.35,1.82,1.52,1.04.13-.6-1.21-.78-1.52-1.04Z"/><path class="cls-2" d="M308.94,47.03c-.27.28.52,1.97,1.04,1.86,1-.2-.51-2.42-1.04-1.86Z"/><path class="cls-2" d="M350.66,79.66s.03-.9,0-.93c-.32-.34-2.6.2-1.86.93.07.07,1.8.07,1.86,0Z"/><path class="cls-2" d="M347.39,72.08c.15.68,1.78-.02,1.85-.13.82-1.22-2.06-.84-1.85.13Z"/><path class="cls-2" d="M352.05,37c-.78.63,2.34.87,2.56.7-.05-1.17-1.75-.57-2.56-.7Z"/><path class="cls-2" d="M317.56,61.24c.27-.61-.93-2.09-1.4-1.63-.23.22.51,2.25,1.4,1.63Z"/><path class="cls-1" d="M100.92,137.15l7.71-22.22-3.27-1.13,1.83-5.28,12.04,4.18-1.83,5.28-3.27-1.13-7.71,22.22-5.51-1.91Z"/><path class="cls-1" d="M111.23,140.72l9.55-27.5,5.47,1.9-3.41,9.83,2.59.9,3.41-9.83,5.47,1.9-9.55,27.5-5.47-1.9,4.33-12.49-2.59-.9-4.33,12.49-5.47-1.9Z"/><path class="cls-1" d="M127.21,146.27l9.55-27.5,11.01,3.82-1.84,5.31-5.41-1.88-1.86,5.35,5.19,1.8-1.8,5.19-5.19-1.8-2.19,6.31,5.76,2-1.86,5.35-11.37-3.95Z"/><path class="cls-1" d="M150.01,152.19c-.68-1.76-.6-3.86.25-6.32l4.55-13.09c.82-2.37,2.02-3.96,3.59-4.76,1.57-.81,3.47-.82,5.69-.05,2.22.77,3.7,1.96,4.43,3.57.73,1.61.69,3.59-.13,5.96l-4.55,13.09c-.86,2.48-2.1,4.19-3.72,5.13-1.62.94-3.54,1.03-5.76.26-2.22-.77-3.67-2.03-4.35-3.79ZM157.34,150.63c.32-.37.61-.94.88-1.7l4.67-13.45c.21-.6.3-1.11.27-1.54-.03-.43-.29-.73-.78-.9-.92-.32-1.62.21-2.1,1.6l-4.66,13.41c-.27.79-.39,1.42-.33,1.89.05.47.33.8.84.97.49.17.9.07,1.22-.29Z"/><path class="cls-1" d="M173,131.35l8.45,2.93c1.34.47,2.28,1.13,2.8,2,.53.86.73,1.89.6,3.08-.12,1.19-.49,2.64-1.08,4.34-.54,1.56-1.17,2.71-1.88,3.44s-1.62,1.1-2.75,1.09c.77.46,1.23,1.08,1.38,1.88.14.79.02,1.75-.37,2.88l-3.68,10.38-5.38-1.87,3.73-10.76c.27-.77.29-1.31.06-1.63-.22-.32-.73-.61-1.52-.89l-4.36,12.55-5.57-1.93,9.55-27.5ZM176.38,143.93c.77.27,1.44-.43,2.02-2.1.25-.72.41-1.28.47-1.67.06-.38.03-.68-.09-.87-.12-.2-.34-.35-.66-.46l-1.28-.44-1.77,5.09,1.31.46Z"/><path class="cls-1" d="M188.27,136.65l7.59,2.63c1.96.68,3.25,1.74,3.85,3.17s.55,3.21-.17,5.36l-4.4,12.89c-.92,2.72-2.1,4.59-3.53,5.62-1.43,1.03-3.26,1.16-5.48.39l-7.39-2.57,9.55-27.5ZM186.91,161.54c1,.35,1.67.03,2.02-.95l4.92-14.18c.21-.62.33-1.1.34-1.44,0-.34-.09-.61-.31-.81-.22-.2-.6-.39-1.13-.57l-.61-.21-6.19,17.83.96.33Z"/><path class="cls-1" d="M194.51,169.63l9.55-27.5,11.01,3.82-1.84,5.31-5.41-1.88-1.86,5.35,5.19,1.8-1.8,5.19-5.19-1.8-2.19,6.31,5.76,2-1.86,5.35-11.37-3.95Z"/><path class="cls-1" d="M217.24,146.71l8.45,2.93c1.34.47,2.28,1.13,2.8,2,.53.86.73,1.89.6,3.08-.13,1.19-.49,2.64-1.08,4.34-.54,1.56-1.17,2.71-1.88,3.44s-1.62,1.1-2.75,1.09c.77.46,1.23,1.08,1.38,1.88.14.79.02,1.75-.37,2.88l-3.68,10.38-5.38-1.87,3.73-10.76c.27-.77.29-1.31.06-1.63-.22-.32-.73-.61-1.52-.89l-4.36,12.55-5.57-1.93,9.55-27.5ZM220.62,159.29c.77.27,1.44-.43,2.02-2.1.25-.72.41-1.28.47-1.67s.03-.68-.09-.88c-.12-.2-.34-.35-.66-.46l-1.28-.45-1.77,5.09,1.31.46Z"/><path class="cls-1" d="M232.58,180.86c-.68-1.76-.6-3.86.25-6.32l4.55-13.1c.82-2.37,2.02-3.96,3.59-4.76,1.57-.81,3.47-.82,5.69-.05s3.7,1.96,4.43,3.57c.73,1.61.69,3.59-.13,5.96l-4.55,13.09c-.86,2.48-2.1,4.19-3.72,5.13-1.62.94-3.54,1.03-5.76.26s-3.67-2.03-4.35-3.79ZM239.9,179.29c.32-.37.61-.94.88-1.71l4.67-13.45c.21-.6.3-1.11.27-1.54-.03-.43-.29-.73-.78-.9-.92-.32-1.62.21-2.1,1.6l-4.66,13.42c-.27.79-.39,1.42-.33,1.89.05.47.33.8.84.97.49.17.9.07,1.22-.29Z"/><path class="cls-1" d="M246.02,187.51l9.55-27.5,11.01,3.82-1.86,5.35-5.48-1.9-1.52,4.38,5.19,1.8-1.83,5.28-5.19-1.8-4.33,12.48-5.54-1.92Z"/><path class="cls-1" d="M61.43,158.17l7.71-22.22-3.27-1.13,1.83-5.28,12.04,4.18-1.83,5.28-3.27-1.13-7.71,22.22-5.51-1.91Z"/><path class="cls-1" d="M71.74,161.75l9.55-27.5,5.47,1.9-3.41,9.83,2.59.9,3.41-9.83,5.47,1.9-9.55,27.5-5.47-1.9,4.33-12.48-2.59-.9-4.33,12.49-5.47-1.9Z"/><path class="cls-1" d="M87.71,167.29l9.55-27.5,11.01,3.82-1.84,5.31-5.41-1.88-1.86,5.35,5.19,1.8-1.8,5.19-5.19-1.8-2.19,6.31,5.76,2-1.86,5.35-11.37-3.95Z"/><path class="cls-1" d="M117.94,146.97l7.27,2.52c2.2.76,3.52,2.02,3.97,3.76.45,1.75.2,3.99-.75,6.72-.95,2.73-2.08,4.65-3.39,5.75-1.31,1.1-3.05,1.27-5.2.53l-2.24-.78-3.78,10.88-5.41-1.88,9.55-27.5ZM119.63,160.61c.66.23,1.19.28,1.58.14.4-.14.72-.42.98-.85s.53-1.07.83-1.92c.4-1.15.56-2.03.48-2.63s-.5-1.04-1.27-1.3l-.61-.21-2.31,6.66.32.11Z"/><path class="cls-1" d="M125.63,178.46c-.68-1.76-.6-3.86.26-6.32l4.54-13.09c.82-2.37,2.02-3.96,3.59-4.76,1.57-.81,3.47-.82,5.69-.05,2.22.77,3.7,1.96,4.43,3.56s.69,3.59-.13,5.96l-4.54,13.09c-.86,2.48-2.1,4.19-3.72,5.13-1.62.95-3.54,1.03-5.76.26-2.22-.77-3.67-2.03-4.35-3.79ZM132.95,176.9c.32-.37.61-.93.88-1.7l4.67-13.45c.21-.6.3-1.11.27-1.54-.03-.43-.29-.73-.78-.9-.92-.32-1.62.21-2.1,1.6l-4.66,13.42c-.27.79-.38,1.42-.33,1.89.05.47.33.8.85.97.49.17.89.07,1.21-.3Z"/><path class="cls-1" d="M141.44,185.94l7.71-22.22-3.27-1.13,1.83-5.28,12.04,4.18-1.83,5.28-3.27-1.13-7.71,22.22-5.51-1.91Z"/><path class="cls-1" d="M151.01,189.27l12.2-26.58,9.32,3.23-6.92,28.41-5.22-1.81,1.16-4.58-3.33-1.16-1.87,4.34-5.35-1.86ZM160.16,182.54l2.5.87,3.64-14.41-.26-.09-5.88,13.63Z"/><path class="cls-1" d="M169.64,195.73l7.71-22.22-3.27-1.13,1.83-5.28,12.04,4.18-1.83,5.28-3.27-1.13-7.71,22.22-5.51-1.91Z"/><path class="cls-1" d="M182.07,198.06c-.68-1.76-.6-3.86.25-6.32l4.55-13.09c.82-2.37,2.02-3.96,3.59-4.76,1.57-.81,3.47-.82,5.69-.05,2.22.77,3.7,1.96,4.43,3.57.74,1.61.69,3.59-.13,5.96l-4.54,13.1c-.86,2.48-2.1,4.19-3.72,5.13-1.62.95-3.54,1.03-5.76.26-2.22-.77-3.67-2.04-4.35-3.79ZM189.4,196.49c.32-.37.61-.93.88-1.7l4.67-13.45c.21-.6.3-1.11.27-1.54-.03-.43-.29-.73-.78-.9-.92-.32-1.62.22-2.1,1.6l-4.66,13.42c-.27.79-.39,1.42-.33,1.89.05.47.33.8.84.97.49.17.9.07,1.22-.3Z"/><path class="cls-1" d="M205.15,206.23c-.77-1.68-.77-3.62,0-5.82l4.4-12.68c.95-2.73,2.21-4.6,3.78-5.61,1.57-1.01,3.52-1.11,5.84-.3,2.03.7,3.47,1.83,4.32,3.36.85,1.54.92,3.36.19,5.45l-1.64,4.74-5.48-1.9,1.41-4.06c.27-.79.37-1.37.28-1.73-.09-.37-.37-.63-.84-.79-.49-.17-.89-.12-1.19.16-.3.28-.57.75-.79,1.41l-4.79,13.8c-.25.72-.33,1.29-.23,1.7.1.4.36.68.79.83.85.29,1.52-.25,2-1.64l1.72-4.96,5.54,1.92-1.8,5.19c-1.6,4.61-4.72,6.11-9.35,4.5-2-.7-3.39-1.88-4.16-3.56Z"/><path class="cls-1" d="M217.44,212.33l12.2-26.58,9.32,3.23-6.92,28.41-5.22-1.81,1.16-4.58-3.33-1.16-1.87,4.34-5.35-1.86ZM226.59,205.6l2.5.87,3.64-14.41-.26-.09-5.88,13.63Z"/><path class="cls-1" d="M233.71,217.97l9.55-27.5,5.44,1.89-3.82,11.01,6.39-10.12,5.54,1.92-7.44,11.52-1.46,16.21-5.7-1.98,1.61-14.36-4.62,13.32-5.47-1.9Z"/><path class="cls-1" d="M248.82,223.22l9.55-27.5,11.01,3.82-1.84,5.31-5.41-1.88-1.86,5.35,5.19,1.8-1.8,5.19-5.19-1.8-2.19,6.31,5.76,2-1.86,5.35-11.37-3.95Z"/><path class="cls-1" d="M263.68,226.58c-.68-1.62-.54-3.81.42-6.57l.93-2.69,5.41,1.88-1.19,3.43c-.47,1.37-.27,2.2.6,2.5.49.17.88.15,1.17-.08.29-.22.56-.67.79-1.36.31-.9.46-1.67.45-2.33s-.11-1.25-.31-1.76c-.19-.51-.57-1.33-1.14-2.46l-1.55-3.19c-1.21-2.43-1.44-4.73-.69-6.91.82-2.35,1.97-3.95,3.48-4.8,1.5-.85,3.29-.92,5.36-.2,2.48.86,4.03,2.13,4.66,3.82.63,1.69.46,3.93-.51,6.73l-5.6-1.95.62-1.9c.13-.36.12-.69,0-.97-.13-.29-.37-.49-.74-.62-.43-.15-.79-.14-1.08.02-.29.16-.51.44-.65.85-.31.9-.12,2,.57,3.32l2.13,4.19c.5.98.88,1.89,1.14,2.71.26.82.39,1.73.38,2.72s-.22,2.09-.65,3.31c-.94,2.71-2.15,4.59-3.63,5.65-1.48,1.05-3.36,1.18-5.64.39-2.5-.87-4.09-2.11-4.77-3.74Z"/></g></svg>