<?xml version="1.0" encoding="UTF-8"?><svg id="Layer_2" xmlns="http://www.w3.org/2000/svg" viewBox="0 0 292.96 292.96"><defs><style>.cls-1,.cls-2{fill:#faf0e0;}.cls-2{font-family:SofiaPro-Black, 'Sofia Pro';font-size:60.24px;font-weight:800;}</style></defs><g id="Wireframe"><text class="cls-2" transform="translate(93.18 123.32) rotate(-42.65)"><tspan x="0" y="0">O</tspan></text><text class="cls-2" transform="translate(128.44 92.46) rotate(2.61)"><tspan x="0" y="0">U</tspan></text><text class="cls-2" transform="translate(169.4 95.58) rotate(42.06)"><tspan x="0" y="0">T</tspan></text><text class="cls-2" transform="translate(194.86 118.24) rotate(78.15)"><tspan x="0" y="0">S</tspan></text><text class="cls-2" transform="translate(205.96 153.91) rotate(124.64)"><tspan x="0" y="0">M</tspan></text><text class="cls-2" transform="translate(172.61 196.9) rotate(173.19)"><tspan x="0" y="0">A</tspan></text><text class="cls-2" transform="translate(132.61 201.33) rotate(-145.81)"><tspan x="0" y="0">R</tspan></text><text class="cls-2" transform="translate(101.35 179.3) rotate(-108.35)"><tspan x="0" y="0">T</tspan></text><circle class="cls-1" cx="84.44" cy="134.1" r="5"/><path class="cls-1" d="M163.54,123.24h-19.49v18.96h19.49v-3.75h6.65v14.12s-.09.1-.1.1h-6.45s-.1-.09-.1-.1v-3.65h-19.49v21.99h6.35s.1.09.1.1v6.55h-19.42v-6.58c.06.02.14-.07.16-.07h6.09v-21.99h-6.16s-.1-.09-.1-.1v-6.55c.06.02.14-.07.16-.07h6.09v-18.86s-.09-.1-.1-.1h-6.16v-6.55s.09-.1.1-.1h38.92s.1.09.1.1v10.67s-.09.1-.1.1h-6.45s-.1-.09-.1-.1v-4.12Z"/></g></svg>