<?xml version="1.0" encoding="UTF-8"?><svg id="Layer_2" xmlns="http://www.w3.org/2000/svg" viewBox="0 0 54.1 34.82"><defs><style>.cls-1{fill:#0e191f;}</style></defs><g id="Module_3"><ellipse class="cls-1" cx="34.06" cy="9.31" rx="2.64" ry="2.36"/><path class="cls-1" d="M54.1,18.98l-6.99-7.08c-.9-6.69-7.21-11.9-14.84-11.9-5.64,0-10.54,2.84-13.1,7.02h0S1.83,32.29,1.83,32.29l-1.83,2.53h38.29s2.08-.01,2.08-.01v-9.8c2.63-1.52,4.68-3.77,5.83-6.44l7.91.41ZM32.33,23.35h-7.92v3.74h7.81s.25,0,.27,0c1.29,0,2.53-.16,3.72-.44v4.47H7.51l15.4-22.42s.04-.04.06-.07c1.87-2.93,5.33-4.88,9.31-4.88,4.83,0,8.94,2.91,10.3,6.91l-4.26,2.22,2.81,5.43.56.03c-1.84,2.98-5.33,5-9.34,5.02Z"/></g></svg>