<?xml version="1.0" encoding="UTF-8"?><svg id="Layer_2" xmlns="http://www.w3.org/2000/svg" viewBox="0 0 210.6 210.78"><defs><style>.cls-1{fill:#fdaaff;}</style></defs><g id="Module_3"><path class="cls-1" d="M100.41,142.8c-12.17,19.94-24.33,39.89-36.6,60.01-14.59-11.53-29.07-22.97-43.7-34.54,17.57-16.62,35.08-33.18,53.08-50.2-24.67,0-48.8,0-73.18.01,2.65-18.39,5.28-36.59,7.94-55.03,22.97,6.23,45.8,12.42,69.05,18.73-11.89-20.61-23.54-40.82-35.37-61.33C58.85,13.64,75.92,6.88,93.32,0c6.02,22.9,12,45.61,18.19,69.16,11.98-20.78,23.6-40.92,35.31-61.24,14.59,11.53,29,22.92,43.71,34.54-16.24,16.08-32.4,32.08-49.03,48.56,23.27.56,46.04,1.11,69.09,1.67-2.65,18.39-5.28,36.57-7.94,55.03-22.65-6.79-45.07-13.51-68.04-20.39,11.57,21.21,22.88,41.95,34.36,63-17.25,6.82-34.31,13.57-51.7,20.45-5.44-22.75-10.84-45.34-16.24-67.92-.21-.02-.42-.04-.62-.05Z"/></g></svg>