<?xml version="1.0" encoding="UTF-8"?><svg id="Layer_2" xmlns="http://www.w3.org/2000/svg" viewBox="0 0 327.81 197.05"><defs><style>.cls-1{fill:#0e191f;}</style></defs><g id="Wireframe"><path class="cls-1" d="M1.9,70.3V.63h21.37c3.56,0,6.25.81,8.07,2.43,1.82,1.62,3.04,3.89,3.66,6.81.62,2.92.93,6.34.93,10.27s-.48,6.84-1.44,9.1c-.96,2.27-2.78,3.84-5.44,4.71,2.19.45,3.73,1.54,4.61,3.27.88,1.73,1.33,3.96,1.33,6.71v26.36h-13.74v-27.27c0-2.03-.42-3.29-1.25-3.78-.83-.49-2.17-.73-4.02-.73v31.79H1.9ZM16.07,26.44h3.36c1.93,0,2.89-2.1,2.89-6.29,0-2.72-.21-4.5-.63-5.34-.42-.84-1.21-1.27-2.38-1.27h-3.25v12.9Z"/><path class="cls-1" d="M40.61,70.3V.63h27.87v13.46h-13.7v13.58h13.14v13.1h-13.14v15.95h14.61v13.58h-28.78Z"/><path class="cls-1" d="M72.16,70.3L78.89.63h23.63l6.61,69.67h-13.18l-.99-11.24h-8.39l-.87,11.24h-13.54ZM87.56,47.94h6.33l-3.05-35.43h-.63l-2.65,35.43Z"/><path class="cls-1" d="M113.49,70.3V.63h19.16c5.01,0,8.79,1.39,11.32,4.18s3.8,6.85,3.8,12.21v32.62c0,6.6-1.16,11.69-3.46,15.28-2.31,3.59-6.35,5.38-12.13,5.38h-18.68ZM127.5,57.99h2.41c2.56,0,3.84-1.24,3.84-3.72V18.33c0-2.32-.31-3.82-.93-4.49s-1.88-1.01-3.78-1.01h-1.54v45.16Z"/><path class="cls-1" d="M161.98,70.3v-22.92L150.86.63h13.81l3.88,23.59,3.88-23.59h13.77l-11.08,46.75v22.92h-13.14Z"/><path class="cls-1" d="M208.89,70.3V.63h27.87v13.58h-13.85v11.08h13.14v13.42h-13.14v31.59h-14.01Z"/><path class="cls-1" d="M257.94,70.93c-5.57,0-9.82-1.68-12.77-5.05-2.94-3.36-4.41-8.23-4.41-14.59V18.21c0-5.96,1.46-10.49,4.37-13.58,2.92-3.09,7.18-4.63,12.81-4.63s9.89,1.54,12.81,4.63c2.92,3.09,4.37,7.61,4.37,13.58v33.09c0,6.36-1.47,11.22-4.41,14.59-2.94,3.36-7.2,5.05-12.77,5.05ZM258.06,58.11c2.11,0,3.17-2.04,3.17-6.14V17.97c0-3.43-1.03-5.15-3.09-5.15-2.32,0-3.48,1.76-3.48,5.26v33.96c0,2.16.26,3.71.79,4.65.53.94,1.4,1.41,2.61,1.41Z"/><path class="cls-1" d="M280.82,70.3V.63h21.37c3.56,0,6.25.81,8.07,2.43,1.82,1.62,3.04,3.89,3.66,6.81.62,2.92.93,6.34.93,10.27s-.48,6.84-1.44,9.1c-.96,2.27-2.78,3.84-5.44,4.71,2.19.45,3.73,1.54,4.61,3.27.88,1.73,1.33,3.96,1.33,6.71v26.36h-13.74v-27.27c0-2.03-.42-3.29-1.25-3.78-.83-.49-2.17-.73-4.02-.73v31.79h-14.09ZM294.99,26.44h3.36c1.93,0,2.89-2.1,2.89-6.29,0-2.72-.21-4.5-.63-5.34-.42-.84-1.21-1.27-2.38-1.27h-3.25v12.9Z"/><path class="cls-1" d="M0,149.77l6.73-69.67h23.63l6.61,69.67h-13.18l-.99-11.24h-8.39l-.87,11.24H0ZM15.4,127.4h6.33l-3.05-35.43h-.63l-2.65,35.43Z"/><path class="cls-1" d="M76.64,150.4c-5.04,0-9.1-1.57-12.17-4.71-3.07-3.14-4.61-7.53-4.61-13.18v-32.14c0-6.75,1.34-11.93,4.02-15.52,2.68-3.59,7.04-5.38,13.08-5.38,3.3,0,6.23.61,8.81,1.82,2.57,1.21,4.6,3.03,6.08,5.44,1.48,2.41,2.22,5.46,2.22,9.12v12.03h-13.85v-10.29c0-2.08-.26-3.49-.79-4.22s-1.35-1.09-2.45-1.09c-1.29,0-2.16.47-2.61,1.41-.45.94-.67,2.18-.67,3.74v34.87c0,1.93.28,3.29.85,4.08s1.38,1.19,2.43,1.19c1.19,0,2.02-.49,2.51-1.46.49-.98.73-2.24.73-3.8v-12.55h14.01v13.18c0,6.12-1.54,10.56-4.63,13.32-3.09,2.76-7.4,4.14-12.94,4.14Z"/><path class="cls-1" d="M98.93,149.77v-69.67h13.85v24.9h6.57v-24.9h13.85v69.67h-13.85v-31.59h-6.57v31.59h-13.85Z"/><path class="cls-1" d="M137.56,149.77l6.73-69.67h23.63l6.61,69.67h-13.18l-.99-11.24h-8.39l-.87,11.24h-13.54ZM152.96,127.4h6.33l-3.05-35.43h-.63l-2.65,35.43Z"/><path class="cls-1" d="M178.89,149.77v-69.67h14.33l6.41,33.37v-33.37h13.46v69.67h-13.62l-6.97-34.83v34.83h-13.62Z"/><path class="cls-1" d="M233.71,150.4c-9.95,0-14.92-7.13-14.92-21.37v-30.04c0-13.01,5.7-19.52,17.1-19.52,4.7,0,8.3.94,10.81,2.83,2.51,1.89,4.24,4.64,5.19,8.25.95,3.62,1.43,8.02,1.43,13.22h-13.62v-6.17c0-1.5-.2-2.76-.61-3.78-.41-1.02-1.26-1.52-2.55-1.52-1.61,0-2.67.54-3.19,1.62s-.77,2.27-.77,3.56v33.77c0,1.87.24,3.4.73,4.57.49,1.17,1.45,1.76,2.87,1.76s2.46-.59,2.95-1.76c.49-1.17.73-2.72.73-4.65v-9.94h-3.72v-12.03h17.02v40.57h-5.58l-2.38-5.86c-2.43,4.33-6.25,6.49-11.48,6.49Z"/><path class="cls-1" d="M258.73,149.77v-69.67h27.87v13.46h-13.7v13.58h13.14v13.1h-13.14v15.95h14.61v13.58h-28.78Z"/><path class="cls-1" d="M294.12,131.76v-16.47c3.3,0,6.13-.17,8.49-.51,2.36-.34,4.3-1.07,5.82-2.18,1.52-1.11,2.64-2.78,3.36-5.03.73-2.24,1.09-5.25,1.09-9.03,0-1.72-.22-3.22-.65-4.51-.44-1.29-1.44-1.94-3.03-1.94-1.14,0-1.97.36-2.49,1.09-.53.73-.87,1.65-1.01,2.77-.15,1.12-.22,2.29-.22,3.5v5.78h-14.49v-10.05c0-5.33,1.69-9.28,5.09-11.86,3.39-2.57,7.76-3.86,13.12-3.86,4.7,0,8.4.85,11.1,2.53,2.7,1.69,4.63,4.15,5.78,7.38,1.15,3.23,1.72,7.18,1.72,11.86s-.75,8.64-2.24,12.23c-1.49,3.59-3.75,6.41-6.79,8.47-3.03,2.06-6.86,3.09-11.48,3.09v6.73h-13.18ZM293.69,149.73v-11.8h14.17v11.8h-14.17Z"/><path class="cls-1" d="M24.11,181.71v14.45H.28v-.27l2.4-2.31-.04-24.67-2.31-2.49v-.27h13.29v.27l-2.31,2.49v26.45h1.47c1.21,0,2.33-.44,3.36-1.31,1.02-.87,1.98-2.05,2.87-3.51.89-1.47,2.09-3.62,3.6-6.47l1.24-2.36h.27Z"/><path class="cls-1" d="M51.72,183.54v12.63h-24.76v-.27l2.4-2.31v-24.85l-2.4-2.31v-.27h24.5v12.63h-.27l-2.49-3.87c-1.54-2.46-2.7-4.19-3.49-5.18-.79-.99-1.67-1.7-2.65-2.13-.98-.43-2.34-.64-4.09-.64h-.44v13.69h.44c.89,0,1.67-.14,2.36-.42.68-.28,1.39-.87,2.13-1.76.74-.89,1.57-2.21,2.49-3.96h.27v13.03h-.27c-1.33-2.4-2.51-4.02-3.53-4.87-1.02-.84-2.17-1.27-3.45-1.27h-.44v13.96h.71c1.75,0,3.11-.21,4.09-.64.98-.43,1.86-1.14,2.65-2.13.78-.99,1.95-2.72,3.49-5.18l.58-.93,1.91-2.93h.27Z"/><path class="cls-1" d="M81.59,178.78h-.27c-2.28-3.91-3.92-6.68-4.91-8.29-.99-1.62-1.65-2.61-1.98-2.98s-.64-.56-.93-.56h-.58v26.45l2.31,2.49v.27h-13.29v-.27l2.31-2.49v-26.45h-.49c-.36,0-.7.18-1.02.53-.33.36-1.07,1.5-2.22,3.42-1.16,1.93-2.68,4.55-4.58,7.87h-.27v-12.63h25.92v12.63Z"/><path class="cls-1" d="M101.91,178.87c2.31,1.36,4.02,2.7,5.11,4.02,1.1,1.32,1.64,2.88,1.64,4.69,0,1.63-.44,3.17-1.31,4.62-.87,1.45-2.18,2.62-3.91,3.51-1.73.89-3.83,1.33-6.29,1.33-1.22,0-2.36-.1-3.45-.29-1.08-.19-2.45-.48-4.11-.87-.39-.09-1.03-.23-1.93-.42-.9-.19-1.73-.35-2.47-.47l-.76-13.69.31-.04c1.63,3.26,3.6,5.88,5.91,7.87,2.31,1.99,4.54,3.39,6.69,4.2,2.15.82,3.93,1.22,5.36,1.22.92,0,1.58-.16,1.98-.49.4-.33.6-.74.6-1.24,0-.77-.45-1.5-1.36-2.18-.9-.68-2.41-1.63-4.51-2.85l-2-1.16-5.16-3.16c-1.45-.86-2.65-1.68-3.6-2.47-.95-.78-1.72-1.73-2.31-2.82-.59-1.1-.89-2.39-.89-3.87,0-3.05,1.03-5.28,3.09-6.67,2.06-1.39,4.79-2.09,8.2-2.09,1.45,0,2.8.17,4.05.51,1.24.34,2.31.79,3.2,1.36l2.85-1.78h.22v12.89h-.27c-2.49-3.35-5.16-6.02-8-8-2.85-1.99-5.39-2.98-7.65-2.98-.71,0-1.26.16-1.64.47-.39.31-.58.73-.58,1.27,0,.59.24,1.16.73,1.71.49.55,1.18,1.1,2.07,1.67.89.56,2.5,1.54,4.85,2.93l5.34,3.25Z"/><path class="cls-1" d="M127.2,194.54c-2.31-1.29-4.13-3.1-5.45-5.45-1.32-2.34-1.98-5.08-1.98-8.22,0-3.76.9-6.79,2.71-9.09,1.81-2.3,3.85-3.91,6.11-4.85,2.27-.93,4.14-1.4,5.62-1.4,2.61,0,4.92.53,6.93,1.58,2.02,1.05,3.42,2.33,4.22,3.85l-7.29,7.16-.27-.09c-1.1-3.88-2.42-6.57-3.96-8.07-1.54-1.5-2.98-2.24-4.31-2.24-.95,0-1.75.43-2.4,1.29-.65.86-.99,2.16-1.02,3.91,0,2.4.52,4.93,1.56,7.6,1.04,2.67,2.67,4.93,4.89,6.8,2.22,1.87,4.98,2.8,8.27,2.8,1.24,0,2.62-.27,4.13-.8l.18.27c-1.66,1.39-3.66,2.92-6,4.58-2.34,1.66-3.75,2.49-4.22,2.49-2.84-.12-5.42-.82-7.74-2.11Z"/><path class="cls-1" d="M153.76,194.74c-2.12-1.39-3.78-3.27-4.98-5.65-1.2-2.37-1.8-4.99-1.8-7.87,0-3.91.92-7.03,2.76-9.36,1.84-2.33,3.85-3.96,6.05-4.91,2.19-.95,3.87-1.42,5.02-1.42,2.58,0,4.93.7,7.05,2.09,2.12,1.39,3.79,3.28,5,5.67,1.21,2.39,1.82,5,1.82,7.85,0,3.91-.92,7.03-2.76,9.36-1.84,2.33-3.85,3.96-6.05,4.91-2.19.95-3.85,1.42-4.98,1.42-2.64,0-5.02-.7-7.14-2.09ZM167.17,193.25c.41-.7.62-1.71.62-3.05,0-2.9-.9-6.61-2.71-11.11-1.39-3.5-2.88-6.21-4.45-8.14-1.57-1.93-3.04-2.89-4.4-2.89-.8,0-1.43.36-1.89,1.07-.46.71-.69,1.76-.69,3.16,0,2.43.76,5.66,2.27,9.69,1.42,3.79,2.99,6.79,4.71,9,1.72,2.21,3.3,3.31,4.76,3.31.77,0,1.36-.35,1.78-1.04Z"/><path class="cls-1" d="M192.64,166.16h10.14v30.1h-7.51l-14.54-23.7h-.22v2.93c0,4.03.82,7.71,2.45,11.05,1.63,3.33,3.91,6.45,6.85,9.36v.27h-10.31v-25.07l-3.02-4.71v-.22h10.58l14.49,23.7h.27v-2.62c0-3.65-.85-7.33-2.56-11.05-1.7-3.72-3.91-6.97-6.6-9.76v-.27Z"/><path class="cls-1" d="M222.61,166.16h10.14v30.1h-7.51l-14.54-23.7h-.22v2.93c0,4.03.82,7.71,2.45,11.05,1.63,3.33,3.91,6.45,6.85,9.36v.27h-10.31v-25.07l-3.02-4.71v-.22h10.58l14.49,23.7h.27v-2.62c0-3.65-.85-7.33-2.56-11.05-1.7-3.72-3.91-6.97-6.6-9.76v-.27Z"/><path class="cls-1" d="M261.91,183.54v12.63h-24.76v-.27l2.4-2.31v-24.85l-2.4-2.31v-.27h24.5v12.63h-.27l-2.49-3.87c-1.54-2.46-2.7-4.19-3.49-5.18-.79-.99-1.67-1.7-2.65-2.13-.98-.43-2.34-.64-4.09-.64h-.44v13.69h.44c.89,0,1.67-.14,2.36-.42.68-.28,1.39-.87,2.13-1.76.74-.89,1.57-2.21,2.49-3.96h.27v13.03h-.27c-1.33-2.4-2.51-4.02-3.53-4.87-1.02-.84-2.17-1.27-3.45-1.27h-.44v13.96h.71c1.75,0,3.11-.21,4.09-.64.98-.43,1.86-1.14,2.65-2.13.78-.99,1.95-2.72,3.49-5.18l.58-.93,1.91-2.93h.27Z"/><path class="cls-1" d="M273.06,194.54c-2.31-1.29-4.13-3.1-5.45-5.45-1.32-2.34-1.98-5.08-1.98-8.22,0-3.76.9-6.79,2.71-9.09,1.81-2.3,3.85-3.91,6.11-4.85,2.27-.93,4.14-1.4,5.62-1.4,2.61,0,4.92.53,6.93,1.58,2.02,1.05,3.42,2.33,4.22,3.85l-7.29,7.16-.27-.09c-1.1-3.88-2.42-6.57-3.96-8.07-1.54-1.5-2.98-2.24-4.31-2.24-.95,0-1.75.43-2.4,1.29-.65.86-.99,2.16-1.02,3.91,0,2.4.52,4.93,1.56,7.6,1.04,2.67,2.67,4.93,4.89,6.8,2.22,1.87,4.98,2.8,8.27,2.8,1.24,0,2.62-.27,4.13-.8l.18.27c-1.66,1.39-3.66,2.92-6,4.58-2.34,1.66-3.75,2.49-4.22,2.49-2.84-.12-5.42-.82-7.74-2.11Z"/><path class="cls-1" d="M318.94,178.78h-.27c-2.28-3.91-3.92-6.68-4.91-8.29-.99-1.62-1.65-2.61-1.98-2.98s-.64-.56-.93-.56h-.58v26.45l2.31,2.49v.27h-13.29v-.27l2.31-2.49v-26.45h-.49c-.36,0-.7.18-1.02.53-.33.36-1.07,1.5-2.22,3.42-1.16,1.93-2.68,4.55-4.58,7.87h-.27v-12.63h25.92v12.63Z"/></g></svg>