<?xml version="1.0" encoding="UTF-8"?><svg id="Layer_2" xmlns="http://www.w3.org/2000/svg" viewBox="0 0 396.15 252.08"><defs><style>.cls-1,.cls-2{fill:#0e191f;}.cls-2{font-family:PPMigra-Extrabold, 'PP Migra';font-size:52.39px;font-weight:700;}</style></defs><g id="Wireframe"><path class="cls-1" d="M3.63,6.73h25.22c4.01,0,7.12.91,9.31,2.72s3.68,4.36,4.44,7.64c.76,3.28,1.15,7.47,1.15,12.56,0,4.65-.61,8.28-1.82,10.89-1.21,2.61-3.31,4.43-6.31,5.45,2.48.51,4.28,1.75,5.4,3.73,1.11,1.97,1.67,4.65,1.67,8.02l-.19,31.05h-16.05v-32.1c0-2.29-.45-3.76-1.34-4.39-.89-.64-2.52-.96-4.87-.96v37.45H3.63V6.73ZM24.26,37.11c2.29,0,3.44-2.48,3.44-7.45,0-2.17-.1-3.79-.29-4.87-.19-1.08-.54-1.83-1.05-2.25-.51-.41-1.24-.62-2.2-.62h-3.82v15.19h3.92Z"/><path class="cls-1" d="M49.29,88.8V6.73h32.86v15.86h-16.14v15.95h15.48v15.48h-15.48v18.82h17.2v15.95h-33.91Z"/><path class="cls-1" d="M86.55,88.8l7.93-82.06h27.8l7.83,82.06h-15.57l-1.15-13.28h-9.94l-.96,13.28h-15.95ZM104.7,62.43h7.45l-3.63-41.75h-.76l-3.06,41.75Z"/><path class="cls-1" d="M135.17,6.73h22.64c5.86,0,10.25,1.62,13.18,4.87,2.93,3.25,4.43,8.06,4.49,14.42l.19,38.4c.06,8.09-1.34,14.17-4.2,18.25-2.87,4.08-7.61,6.11-14.23,6.11h-22.07V6.73ZM154.57,74.28c2.99,0,4.49-1.46,4.49-4.39V27.56c0-1.85-.14-3.23-.43-4.16-.29-.92-.81-1.54-1.58-1.86-.76-.32-1.94-.48-3.53-.48h-1.82v53.21h2.87Z"/><path class="cls-1" d="M192.3,88.8v-27.04l-13.09-55.03h16.24l4.59,27.8,4.58-27.8h16.24l-13.09,55.03v27.04h-15.48Z"/><path class="cls-1" d="M247.52,88.8V6.73h32.86v15.95h-16.34v13.09h15.48v15.76h-15.48v37.26h-16.53Z"/><path class="cls-1" d="M290.22,83.49c-3.44-4.04-5.16-9.73-5.16-17.05V27.37c0-7.07,1.72-12.4,5.16-16,3.44-3.6,8.47-5.4,15.09-5.4s11.66,1.8,15.09,5.4c3.44,3.6,5.16,8.93,5.16,16v39.07c0,7.39-1.72,13.09-5.16,17.1-3.44,4.01-8.47,6.02-15.09,6.02s-11.65-2.02-15.09-6.07ZM308.27,72.56c.51-1.27.76-3.06.76-5.35V27.08c0-1.78-.24-3.23-.72-4.35s-1.45-1.67-2.91-1.67c-2.74,0-4.11,2.07-4.11,6.21v40.03c0,2.36.29,4.14.86,5.35.57,1.21,1.62,1.81,3.15,1.81s2.45-.64,2.96-1.91Z"/><path class="cls-1" d="M332.25,6.73h25.22c4.01,0,7.12.91,9.31,2.72s3.68,4.36,4.44,7.64c.76,3.28,1.15,7.47,1.15,12.56,0,4.65-.61,8.28-1.82,10.89-1.21,2.61-3.31,4.43-6.31,5.45,2.48.51,4.28,1.75,5.4,3.73,1.11,1.97,1.67,4.65,1.67,8.02l-.19,31.05h-16.05v-32.1c0-2.29-.45-3.76-1.34-4.39-.89-.64-2.52-.96-4.87-.96v37.45h-16.62V6.73ZM352.89,37.11c2.29,0,3.44-2.48,3.44-7.45,0-2.17-.1-3.79-.29-4.87-.19-1.08-.54-1.83-1.05-2.25-.51-.41-1.24-.62-2.2-.62h-3.82v15.19h3.92Z"/><path class="cls-1" d="M1.43,182.44l7.93-82.06h27.8l7.83,82.06h-15.57l-1.15-13.28h-9.94l-.96,13.28H1.43ZM19.58,156.08h7.45l-3.63-41.75h-.76l-3.06,41.75Z"/><path class="cls-1" d="M77.24,177.57c-3.6-3.76-5.4-8.92-5.4-15.48v-37.83c0-8.15,1.62-14.3,4.87-18.44,3.25-4.14,8.34-6.21,15.28-6.21,6.05,0,10.92,1.66,14.62,4.97,3.69,3.31,5.54,8.09,5.54,14.33v14.14h-16.34v-12.13c0-2.36-.29-3.98-.86-4.87-.57-.89-1.56-1.34-2.96-1.34s-2.47.51-3.01,1.53c-.54,1.02-.81,2.52-.81,4.49v41.17c0,2.17.32,3.74.96,4.73.64.99,1.59,1.48,2.87,1.48,2.55,0,3.82-2.07,3.82-6.21v-14.81h16.53v15.48c0,13.76-6.91,20.63-20.73,20.63-5.99,0-10.78-1.88-14.38-5.64Z"/><path class="cls-1" d="M117.88,182.44v-82.06h16.34v29.33h7.74v-29.33h16.34v82.06h-16.34v-37.26h-7.74v37.26h-16.34Z"/><path class="cls-1" d="M163.45,182.44l7.93-82.06h27.8l7.83,82.06h-15.57l-1.15-13.28h-9.94l-.96,13.28h-15.95ZM181.6,156.08h7.45l-3.63-41.75h-.76l-3.06,41.75Z"/><path class="cls-1" d="M212.08,182.44v-82.06h16.91l7.55,39.26v-39.26h15.86v82.06h-16.05l-8.22-41.08v41.08h-16.05Z"/><path class="cls-1" d="M263.42,176.95c-2.9-4.17-4.35-10.49-4.35-18.96v-35.35c0-7.58,1.69-13.31,5.06-17.2,3.38-3.88,8.41-5.83,15.09-5.83,5.41,0,9.62,1.08,12.61,3.25,2.99,2.17,5.06,5.32,6.21,9.46,1.15,4.14,1.72,9.46,1.72,15.95h-16.05v-7.36c0-1.97-.27-3.5-.81-4.58-.54-1.08-1.51-1.62-2.91-1.62-3.12,0-4.68,2.04-4.68,6.11v39.74c0,2.48.32,4.36.96,5.64.64,1.27,1.75,1.91,3.34,1.91s2.71-.64,3.34-1.91c.64-1.27.96-3.15.96-5.64v-11.75h-4.39v-14.14h20.06v47.77h-6.59l-2.77-6.88c-2.93,5.1-7.45,7.64-13.57,7.64s-10.33-2.09-13.23-6.26Z"/><path class="cls-1" d="M306.17,182.44v-82.06h32.86v15.86h-16.14v15.95h15.48v15.48h-15.48v18.82h17.2v15.95h-33.91Z"/><path class="cls-1" d="M347.92,141.84c5.73,0,10.11-.43,13.14-1.29,3.02-.86,5.27-2.69,6.74-5.49,1.46-2.8,2.2-7.13,2.2-12.99,0-2.36-.29-4.2-.86-5.54-.57-1.34-1.72-2.01-3.44-2.01s-2.96.76-3.53,2.29-.86,3.63-.86,6.3v6.88h-17.1v-11.85c0-6.11,1.94-10.73,5.83-13.85,3.88-3.12,9.11-4.68,15.67-4.68,7.96,0,13.61,2.12,16.96,6.35,3.34,4.24,5.02,10.65,5.02,19.25s-2.05,15.19-6.16,20.35c-4.11,5.16-10.11,7.74-18.01,7.74v7.93h-15.57v-19.39ZM347.44,182.44v-13.95h16.62v13.95h-16.62Z"/><text class="cls-2" transform="translate(0 236.67)"><tspan x="0" y="0">LETS CONNECT </tspan></text></g></svg>