<?xml version="1.0" encoding="UTF-8"?><svg id="Layer_2" xmlns="http://www.w3.org/2000/svg" viewBox="0 0 349.36 379.69"><defs><style>.cls-1{fill:#faf0e0;}.cls-2{fill:#f03010;}</style></defs><g id="Wireframe"><path class="cls-2" d="M336.99,294.7c-.31-.49-1.7-1.32-2.24-1.85-3.28-3.25-5.38-12.02-5.59-16.56-.23-4.89,0-8.93-2.09-13.57-2.38-5.29-7.51-8.03-12.23-10.91-.16-5.11-1.46-10.4-3.85-14.91-.69-1.29-2.24-3.23-2.54-4.52-.14-.63.29-1.71-.53-1.87-.73-.14-1.5-.01-2.04-.78,1.32-.77.76-1.33,0-2.25-.96-1.16-1.19-.89-2.19-1.48-1.17-.68-3.13-3.28-4.37-4.24-.29-.23-.58-.49-.98-.43-.48.07-.53.78-.84.7-2.69-2.16-5.61-3.96-8.69-5.5,0-.41.44-.44.44-.91,0-.96-2.51-1.72-3.37-1.37-.26.11-1.07,1.05-.92.21.09-.52.48-1.33-.25-1.66-.56-.25-.88.1-1.19.5-.29.38-.03.67-.67.53-.25-.06-2.67-.99-2.83-1.09-.19-.13-.35-.61-.6-.85-1.24-1.21-3.34-1.25-4.44-2.19-.21-.18-.11-.2.07-.35.37-.31.84-.35,1.2-.77.91-1.06.04-1.76-1.1-1.87-1.07-.11-4.24.67-5.1,1.32-.78.59-.1,1.06-1.63.9-.32-.03-1.85-.33-1.89-.5-.1-.41.56-1.24-.68-1.58-.84-.23-3.33-.66-4.2-.73-.51-.04-1.56.15-1.82.11-.21-.04-.43-.46-.66-.59-1.05-.61-3.46-.49-4.71-.65-1.3-.17-3.29-.76-4.67-.56-.38.05-.55.31-.97.3-.43-.01-.68-.33-1.02-.4-.73-.15-2.32-.37-3.09-.44-.78-.07-1.83.11-2.52-.02-.41-.08-.5-.48-.79-.62-.55-.27-2.48-.17-3.04.05-.75.31-.4.9-.48,1-.06.07-1.4-.15-1.87,0-.18.06-.18.4-.38.5-.18.09-.39-.12-.57-.01-.05.03-.67.71-.81.77-.15.06-1.14.29-1.22.27-.34-.08-.24-1.1-1.53-.51-.23.11-.5.55-.79.37-.11-.06-.02-.52-.65-.56-.64-.04-1.62.64-2.11.58-.08,0-.12-.8-.86-.85-.6-.04-1.87.78-2.36.68-.42-.09-1.86-1.5-2.78-1.74-2.56-.66-5.51,1.58-3.1,3.67.09.08.83.28.56.5-.22.18-1.04-.25-1.33-.26-.82-.02-.74.03-1.59-.13-1.4-.27-4.76,1.95-5.98,2.7-1,.61-3.01,1.36-3.2,2.6-.04.28.2.94.12,1.02-.03.03-.48,0-.76.16-.4.22-.6.91-1.03.95-.19.01-.39-.23-.63-.33,0-.37.01-.7.03-.78.08-.28,1,.18,1-1.04,0-1.4-1.31-.49-.99-1.54.06-.2.98-.12.79-1.29-.12-.76-2.05-1.11-.31-2.08,0-.94.39-6.95.04-7.29-.12-.11-1.03.19-1.03-.13.28-1.11,1.07-2,1.65-2.99.15-.25.13-.71.16-.73.31-.32.66.74,1.41.74.89,0,.89-.73,1.06-.75.33-.03.65.25,1.12.16.1-.02,1.72-.72,1.79-.78.38-.34.14-.92.29-1.12.16-.21,1.44-.21,1.82-.32.21-.06.22-.86,1.31-.45.41.15.42,1.14,1.65.82,1.26-.33.95-1.53,1.07-1.63.56-.47,1,.71,1.34.86,1.17.51,1.58-.14,2.38-.2.69-.06,3.2.18,3.43-.18.18-.29-.27-1.43.68-.99.38.18.34.95.64,1.16.4.28,1.99.32,2.57.38-.11.32-.48,1.94-.55,2.02-.1.1-.65,0-.97.18-.33.18-.99.57-1.29.78-.26.18-.25.58-.29.61-.1.08-1.83-.97-2.55-.51.84-2.21-.25-1.47-1.38-1.84-.42-.14-.32-.94-1.31-.95-1.48-.01-.7,1.29-.9,1.5-.65.13-1.44-.48-2.05-.14-.09.05-1.08,1.56-1.11,1.72-.14.81.45,3.08,1.29,3.28.32.07.81-.26.85-.23.06.05-.03.91.54,1.4.99.85,2.6,1.26,3.31-.11-.06,1.63,2.07,1.34,3.15.97.6-.2.57-.82.75-.92.31-.18.91.05,1.25-.16.32-.21.05-1.58,1.13-2.22.54-.32,1.28.36,1.82-.22l-.15-1.56c.32.27,1.45.27,1.55-.17.06-.26.23-2.45.19-2.72-.15-1.17-.93-.45-1.26-.86-.35-.44.11-1.22-.02-1.71-.09-.38-.59-.65-.63-1.09-.09-.95.99-.47,1.32-.9.06-.08.62-1.83.62-1.94,0-.41-.41-.74-.41-1.03,0-.29.42-.65.41-1.25,0-.29-.41-1.79-.55-2.04-.38-.66-1.19-.64-1.24-.7-.02-.04.3-.52.23-.84-.12-.52-.84-.57-.94-.75-.19-.34.11-1.11-.29-1.38-.41-.27-1.44-.07-1.95-.23-.1-.03-1.73-.82-1.81-.88-.48-.37-.21-1.1-.52-1.34-.54-.41-1.2.06-1.7-.03-1.04-.2-1.7-.74-3.14-.45-.85.17-.79.42-2.27.6-.47.06-1.57.44-1.82.38-.37-.09-.23-1-1.48-.92-1.24.07-1.97.3-2.38,1.47-1.7-2.21-2.57.65-2.88.78-.11.05-2.31.61-2.38.51-.06-.08.14-.57-.16-.79-1.1-.83-2.06.85-2.51.78-.94-.15-.49-1.83-.8-2.31-.13-.21-1.05-.23-.64-.75.02-.03.43-.05.63-.27.7-.78-.21-1.66-.12-1.79,1.4-.62,2.88,1.05,4.14-.64.33-.45-.08-.88-.03-.91.17-.13,1.39.19,1.81-.11.4-.28.09-1.24.48-1.85.25-.39,1.17-.2,1.28-.37.16-.24-.1-1.13.03-1.26.11-.11,1.82.28,1.25-1.39-.14-.41-.79-.34-.74-.54.36-1.38,1.46-.97,1.56-2.07.09-1.08-.81-.64-1.03-.91-.06-.07.2-1.5.21-1.87,0-.41-.31-.85-.23-1.28.01-.08.92-.39.53-1.2.69.03,1.07,1.12,1.45,1.24.52.17,1.28-.15,1.78.27.39.32.27.94.5,1.29.12.18,1.95,1.78,2.09,1.82.32.07.91-.1,1.08.03.1.08.02.98.55,1.38.47.36,1.31.24,1.77.54.75.49,1.43.84,2,1.21.21.13.14.68.71.72.45.04.71-.35,1.03-.42.39-.08,1.35.53,1.11-.96-.01-.08-.68-1.46-.73-1.53-.64-.8-3.24-2.36-4.17-3.27-.31-.3-.22-.8-.7-1.17-.61-.47-1.72-.33-1.78-.4-.08-.09.04-.59-.06-.84-.12-.32-1.18-.57-.72-.94.09-.08,2.21.48,2.38.57.68.34.82,1.67,2.18,1.06.42-.19.18-.76.7-.6.6.23.44,1.39,1.16.77-.29,1.82.54,1.21,1.28,1.69.22.15.21.52.59.7.46.23,2.91,1,3.27.82,1.55-.79-.91-3.78-1.98-3.94-.35-.05-.8.24-.84.22-.04-.03-.07-.73-.32-.97-.56-.56-2.3-1.29-2.99-1.75-.67-.45-1.35-1.63-2.59-1.64-.06-.46.56-.23.83-.19.93.16,7.22,3.07,6.74.43-.27-1.48-3.5-2.29-4.82-2.86-.32-.14-.52-.49-.9-.64-.53-.22-1.5-.23-2.11-.58-.06-.48.52-.19.78-.14,1.24.23,3.38,1.38,3.95-.38.87-2.69-4.82-2.88-5.5-3.85-.06-.08.45-.53.51-.91.23-1.28-.62-1.86-1.8-1.92-.09-.4.36-.14.51-.44.27-.54-.05-1.45.67-2.35.48-.59,2-1.22,2.17-1.48.36-.56.42-1.99.57-2.7.05-.27.37-.52.43-.87.31-1.72-.83-1.21-1.01-1.4-.11-.12.88-2.33-.95-2.24-.44.02-.68.45-.72.45-.13,0-1.25-1.89-1.41-2.12-.16-.23-.54-.13-.51-.31.05-.25,1.02-1.43,1.29-1.54.46-.2,1.27.36,1.61-.44.43-1.01.35-3.17-1.11-3.03v-.25c.66-.1,1.43-1.92,1.66-2.6.12-.36-.15-.72-.12-.74.08-.06.57.14.79-.15.54-.72-.38-2.46-1.04-2.58-.61-.11-.81.45-1.13.4-.32-.05-.64-.81-1.11-.95-.58-.17-1.27,0-1.87-.05-.27-.83.44-.69.59-1.08.49-1.24-.55-3.87-.34-4.05.15-.14,1.38.41,1.46-1.2.07-1.56-1.04-1.22-1.2-1.38-.47-.45.42-.52.44-.56.26-.37-.3-2.6-.47-2.74-.22-.19-1.12.22-1.65-.28-.6-.57,0-.98.02-1.41.06-1.15-1.65-2.26-2.7-1.42.63-2.4.03-1.82-1.23-2.75-.37-.27-.57-.8-.88-.93-1.82-.77-2,.61-2.13.61-.5-.02-1.2-.71-1.4-1.17l3.59-.64c.14.16-.47,1.34.9,1.17.87-.11.81-1.24,1.53-.91.4.19.36.97.63,1.17.58.42,1.6-.25,1.77-.12.09.07.12.54.41.76.24.18.58.16.82.33.17.12.23.46.53.63,1.67.96,2.88-1.89,2.64-3.16-.12-.65-.65-.75-.88-1.18-.2-.38-.25-1.34-.45-1.48-.18-.12-.65,0-.96-.18-.23-.14-.31-.57-.55-.75-.39-.29-2.38-.65-2.89-.6-.82.08-.73.99-1.33.99-.69,0-.48-1.05-1.54-1.07-1.3-.02-.75,1.14-.9,1.31-.17.19-2.05-.92-2.56-.52.28-.92,1.69-1.6,2.06-2.17.35-.52.24-1.4.68-1.7.89-.63,2.62,1.78,2.91-.75.31.61,1.64,1.34,2.26.72.42-.43-.04-2.43.06-2.5.37-.29,1.32.29.97-1.37-.35-1.66-3.3-2.11-4.71-2-.83.07-1.18.36-1.91.52.07-.86.8-.75,1.09-1.01.28-.24.32-.58.56-.79.32-.28.98-.22,1.14-.67.56-1.58-.51-2.1-1.45-2.91-1.3-.05-4.31-.9-3.13,1.27-.68.13-2.35-.23-2.83.12-.2.15-.22.63-.41.89-.58.79-.43.91-.65,1.26-.12.18-.87.16-1.11.56-.58.97.27,2.48-2.18,2.05.74-.78-.95-3.15-1.45-3.31-.83-.27-1.08,1.08-2.63-.43-.49-.48-.66-1.15-1.22-1.61-.57-.46-3.1-1.5-3.76-1.33-.46.12-.04,1.2-1.72.26,0-1.32,1.41-.96,1.49-1.97.03-.4-.74-2.21-.96-2.47-.07-.08-1.68-1.05-1.78-1.07-.37-.08-1.04.26-1.32.12-.06-.03.3-.81-.06-1.22-.17-.19-.62-.15-.78-.3-.52-.48-1.55-1.38-.96-2.07.34-.39.74.68,1.08.84,1.07.52,3.4-.3,3.66-1.61.9,1.28,2.44.71,1.92-1.03.56-.06,1.12.35,1.67.28.58-.08.51-.58.71-.72.31-.2,1.29-.14,1.44-.36.32-.49-.31-1.79-.2-1.98.44-.76,2.12-.51,2.54-.93.55-.56-.29-1.86.74-2.79.33-.3.81-.11,1.06-.28.67-.48.89-6.82.44-7.91-.43-1.04-1.08-.53-1.81-.71-.2-.05-.17-.43-.22-.45-.18-.08-.61.31-.72.2-.04-.03.01-.62-.23-.92-.4-.48-1.23-.33-1.68-.64-.47-.33-.34-1.06-.82-1.23-.14-.05-2.05-.41-2.26-.42-1.77-.09-2.41.86-3.68,1.85-.27,1.21-.22,2.57-.41,3.75-.04.25-.36.52-.41.85-.14.91,1.25,2.6,2.31,2.42-.6.61-.46,2.67-1.08,3.02-.76.44-1.64-.59-2.53-.36-.77.2.16.35-1.4.46-1.36.09-.91,1.48-1.79,1.5-.32,0,.1-.8-.28-1.06-.53-.37-2.65-.13-2.67-.61,0-.06.41-.5.47-.83.17-.99-.59-1-.93-1.53-.14-.21-.83-1.19-.83-1.27-.03-.4.32-.77.17-1.39-.18-.75-.9-.36-1.14-.93-.37-.91-.72-2.92.82-2.68.22.03.3,1.2,1.55.76.32-.11.33-.58.47-.67.35-.21,1.07.04,1.73-.45.38-.28.5-.83.78-1.02.44-.3,1.57.44,1.72-.83.16-1.36.23-2.06,1.33-3.23.51-.54,2.66-.41,1.9-2.18-.24-.56-1.14-.13-.85-.7.28-.57,1.92-.48,1.5-2-.2-.72-1.4-.81-1.65-1.21-.32-.5.47-1.47.04-2.07-.29-.39-1.79-.07-2.4-1.71-.22-.59.25-1.54-.71-1.63-.46-.04-1.08.4-1.28.03-.3-.54.13-1.2-.49-1.83-1.5-1.51-3.28-.05-3.48-.24.36-1.94-2.94-2.97-3.85-1.29.29-.74-.77-1.03-.78-1.18-.01-.18.27-.51.23-.75-.06-.44-.46-2.77-.54-3.01-.3-.86-1.63-.85-1.49-2.08.02-.15,1-.25.68-1.47-.11-.44-.51-.44-.59-.57-.16-.27-.04-.73-.2-.96-.23-.33-.85-.2-.91-.25-.46-.44.62-.59.74-.92.5-1.47-.55-1.42-.86-1.91-.41-.66-.36-2.72.37-2.05.04.04,0,1.22.64,1.03.18-.05,1.21-2.21,1.16.26,1.22-.22,2.63.83,3.73.79.61-.03.83-.51,1.45-.49.88.03,2.44.67,2.98,1.41,1.11,1.52.07,1.37.04,1.5-.26.9.7.33.52,1.16-1.26.55-2.55-1.13-3.41-.52-.23.17-.04.61-.43.52.09-1,.05-1.73-1.16-1.55-.76.11-.52.79-.9,1.17-.67.66-2.22.36-2.3,2.34-.06,1.25,1.03.9,1.65,1.39.75.6.49,1.68.69,2,.11.18,3.47.64,3.93.56.13-.02,2.35-1.06,2.44-1.16.24-.23.24-.68.41-.87.33-.37.95-.5,1.09-.97.17-.58-.13-1.21-.05-1.83.15-1.19,1.27-1.85,1.01-2.88-.21-.81-.82-.41-.92-.5-.07-.07.58-1.36-.17-1.82-.31-.19-.82-.15-1.17-.3-.85-.38-.89-1.08-2.25-.45.46-2.33-.66-1.38-1.62-1.63-.5-.13-.94-.68-1.59-.66-.6.02-.91.59-1.27.63-.14.02-2.71-.3-2.84-.34-.47-.17-.48-.61-.94-.88-.58-.34-1.65-.28-1.74-.34-.22-.15-.27-.6-.52-.75-.3-.19-.76-.05-.96-.18-.37-.23-.23-1.59-.38-2.06-.16-.5-.78-1.26-.84-1.73-.06-.43.64-.73.28-1.82-.03-.11-1.07-1.86-1.16-1.92-.31-.2-2.1-.19-2.54-.92-.05-.08.26-.5.19-.81-.09-.42-.94-.82-.93-1.08,0-.19.63-.51.42-1.23-.13-.44-.98-.74-.69-1.17.08-.12.79.16.35-1.08-.28-.8-.89-.8-1.09-1.09-.4-.59-.69-1.81-1.43-2.41-2.42-1.98-3.51,4.24-4.24,5.5-.18,1.17.58.96,1.1,1.34,1.24.92.28.69.12.94-.23.38-.12.89-.27,1.18-.13.26-.46.24-.57.51-.43,1.01-.7,2.62-1.19,3.69.61,1.34,1.08,3.31,2.3,4.08-1.03.47-.99,2.17-1.03,3.21-.7.21-.38-.41-.82-.6-1.6-.68-1.97.85-2.17.87-.45.06-1.02-.51-1.71-.04-.5.34-.43,1.83-.74,2.03-.18.12-.64,0-.97.19-.3.17-1.42.94-1.86,1.23-1.26.85-1.72,2.94-2.05,3.2-.3.24-1.77-.14-1.2,1.44.16.44.79.23.74.67-.86-.04-1.7-.42-2.43.26-.7,1.81-1.6,3.51-1.68,5.5,0,.19.2,2.4.26,2.51.62,1.13.48.93.94,2.22.79,2.23,1,1.56,2.58,2.18.18.07,2.79,2.45,2.91,2.6.27.34-.08.95.3,1.36.14.15,3.46,1.51,3.7,1.53.93.07,1.01-.92,1.23-.93.11,0,.41.33.65.37.32.04.93-.03,1.12.09.42.28,0,1.62,1.86,1.83,1.38.15,1.15-.92,2.27-.78.07.67,1.13,1.41.79,1.82-.34.41-1.38.02-1.11,1.6.24,1.44.82,3.21,1.85,4.21.79.77.48.1,1.19,1.46.09.17.52.14.52.32.01.42-.37,1.07-.29,1.79.06.56.64.29.54.5-.07.16-2.25,1.18-2.43,1.17-.11,0-.08-.92-.91-.41-.93.57-.42,1.63-.5,1.68-.28.15-1.56-.63-2.25.07-.65.66.04,1.84-.27,2.65-.06.16-.91,1.13-.99,1.13-.16.02-.46-.22-.7-.18-.36.05-.71.52-.94.34-.19-.15-.29-.59-.51-.8-.23-.22-.68-.35-.72-.41-.11-.16.63-1.33-.97-1.48-1.55-.15-1.12.56-1.56.74-.78.31-1.01-.63-1.27-.73-1.32-.47-1.6.76-2.06.94-.72.28-1.92-.11-1.77,1.22.04.36.4.7.4.76-.01.47-1.33.18-1.77.79-.08.11-.53,2.57-.53,2.8-.02.96.24,1.72,1.29,1.42-.74.92.1,1.67.15,2.19.01.15-.5.57-.15,1.22.21.39,1.12.26,1.26.47.36.55-.69,1.29.97,1.41.27.02.78-.22.85-.16.13.14-.24.83.65,1.03,1.26.29,1.21-.55,1.28-.52,1.28.55,2.56,1.26,3.97,1.55.25.6-.76,1.09-.76,1.17,0,.25.33.55.14.87-.25.42-1.27.43-1.39,1.74-.1,1.05,1.23.86,1.18,2.04-.03.7-1.15.75-.52,2.07.53,1.12,1.54.51,1.61.58.16.17-1.01,1.04.04,2.67.46.71,1.83,2.37,2.54,2.83.22.14,1.56.85,1.71.88,1.06.19,1.06-.67,1.12-.71.81-.47,1,1.49,1.25,1.66.33.24,1.14-.04,1.44.36.12.16-.3,1.17-.16,1.65.07.26.78.15,1.07.51.1.13.78,2.38.75,2.56-.02.14-1.7,1.13-.26,2.34.45.38,1.17.17,1.27.64-1.02-.09-.67,1.18-.77,1.29-.3.33-1.54-.5-1.92-.5-.49,0-.84.55-1.48.46-1.13-.15-.79-1.11-1.19-1.65-.24-.32-3.22-1.13-3.75-1.15-.79-.03-2.08.58-2.54.53-.22-.02-.19-.61-.56-.74-.3-.11-4.56-.28-4.98-.17-.15.04-1.4.64-1.48.71-.29.28.01,1.06-.44,1.22-.22.08-.02-.45-.29-.52-2-.51-1.06.65-1.62,1.62-.11.19-.51.25-.61.43-.57,1.02.11,1.57-1.71,1.03,0,.53-.09,1.93.32,2.25.23.18.75.11,1.04.3.44.3.74,1.08,1.72,1.17-1.41.99-3.81-.56-3.59,2.18-1.57-1.39-2.72.52-3.87,1.39-.35.27-.94.27-1.4.66-.16.14-1.83,2.6-1.88,2.76-.16.59.21,1.05.15,1.45-.05.33-.64.84-.82,1.31-.38,1.01.03,2-.39,2.96,1.41-.31.17,1.3,1.66,1.3,1.38,0,1.69-.7,2.47-1.4,1.38-1.23.61-.57,1.4-1.94.49-.83,1.42-.93.97-2.27-.15-.44-.99-.21-.35-.71.7-.55,1.65-.48,2.41-.93.62-.36,1.02-1.11,1.58-1.5.78-.55,2.77-1.01,2.95-1.93.1-.51-.29-1.44.64-1.3.27.04.53.42,1.03.43,1.3.03,1.43-1.5.9-2.42-.09-.17-.53-.18-.52-.3.12-1.12.98-.38,1.64-.41,1.5-.08,3.15-.67,4.87-.82.62-.05.97-.94,1.7.2.19.81-1.58.31-1.72,1.57-.11.92.42.34-.3,1.34-.12.17-.09.54-.27.71-.16.14-.9-.3-1.39-.13-.45.15-.59,1.48-1.06,1.48-.12,0-.54-.6-1.28-.49-.59.08-.52.6-.71.72-.81.49-1.51-.25-1.22,1.87-2.56-.98-1.22,1.39-1.81,2.16-.41.54-.94.3-1.27.53-.09.06-1.23,1.73-1.23,1.84-.04.46.24.86.21,1.2-.01.16-.44.13-.57.53-.7,2.1,1.42,1.26,1.59,1.43.07.07-.09,1.01.04,1.38.12.36.68.36.74.55.31.99-2.05,1.55-2.45,1.91-.84.76.04,1.49.04,1.93,0,.29-.41.59-.37,1.21.09,1.51,1.56,3.67,2.26,5.16.08.17.51.15.52.32,0,.2-.16,2.45-.21,2.57-.23.54-.95.5-.52,1.74.31.88,3.56,1.11,3.54,1.58-.98.62-.99,2.18-.59,3.16.22.55,1.19,2.7,1.29,3.3.07.44-.32.83-.02,1.57.14.34,1.68,1.3,1.89,2,.42.24,1.73-.18,2.01.16.1.12.03.65.18.97.12.27.94,1.02.37,1.56-.41.39-1.01-.73-1.69-.76-.64-.03-2.81.28-3.19.69-1.54,1.66.05,2.29,1.68,2.33.8.02,2.3-.7,2.95.31-.78-.16-1.53.47-2.2.5-.47.02-.87-.26-1.45-.2-.63.07-4.75,1.35-4.95,1.75-.27.53-.19,1.39.39,1.68.99.49,2.03-.44,2.96-.63.56-.12,1.24.1,1.73,0,.34-.08.28-.97.95-.78-.03,1.81,1.33.66,2.12.82.4.08.74.71,1.34.71.52,0,3.02-1.45,3.61-1.53.25-.03,1.34.19,1.39.27.51.78-1.61,1.51-2.15,1.84-.59.36-1.65,1.23-2.24,1.59-.96.59-2.13.63-2.22,1.9-.15,2.08,2.15,1.14,3.27.71,1.79-.69,3.46-2.19,5.48-2.73l2.86-2.01c1.29,1.43-.61.97-1.16,1.4-.41.32-.18,1.1-.25,1.16-.12.13-.99-.2-1.32-.13-.11.03-1.92.96-2.01,1.03-.16.11-1.5,2.49-1.87,2.87-.36.37-2.42,1.29-2.62,1.61-.81,1.32.6,3.05,1.85,1.98,1.27-1.08,2.69-2.4,4.44-2.62l1.53-.77c-.8,1.29-1.34,2.08-2.82,2.58,1.28,2.45-.8,1.48-1.42,2.17-.4.44-.23,1.65-.5,2.06-.27.41-1.33.31-1.79.77-.7.71-.07,1.48-.13,1.54-.05.05-.93.02-1.23.32-.37.37-.17,1.36-.55,1.89-.31.43-1.12.46-1.33.79-.47.77-1.11,2.83-1.66,3.66-.37.56-1.56.71-.97,2.01.26.58,1.51.54,1.89.2.37-.34.14-.85.3-1.11.09-.13,2.45-1.39,2.71-1.66.22-.23.17-.73.38-.9.25-.21.92-.09,1.35-.58.43-.49.32-1.41.42-1.5.1-.1,1.92-.63,2.53-1.2.36-.33.35-.8.6-1.07.46-.5,1.4-.67,1.44-1.74.03-.96-.7-.85-.74-.91-.59-.95,2.13-.68,2.64-1,.79-.5.53-2.23.72-2.55.23-.38,1.7-.19,2.09-.29.14-.04,1.27-1.9,1.86-.52.46,1.07-1.07.37-1.66.91-.58.53-.35,1.11-.6,1.59-1.07,2.03-2.34,4.75-3.08,6.81-.65,1.8-1.44,4.35,1.48,3.01,1.21-2.49,3.41-4.94,4.45-7.37.13-.31-.04-.85.09-1.06.13-.2,1-.15,1.2-.35.39-.39-.3-1.36.62-1.81,1.74-.84,1.73,1.6,1.45,1.84-.16.14-.92-.1-1.27.14-.72.49.1,3.24,1.23,3.44,2.19.4,2.47-3.13,2.64-4.57,1.53.62,3.15-.29,4.46-.26.12,0,.13.49.7.61,1.1.24,2.05-.51,3.17.92.45.58-1.18.79-.65,2.06-1.57-1.3-2.38.65-2.75.77-1.5.47-4.46-.44-5.58.78-.29.32-.35.99-.4,1.02-.11.08-1.44-.68-2.43.52-1,1.22-.99,2.64-1.43,3.9-.08.23-.76.55-1.04,1.08-.2.37-.21,1.08-.27,1.14-.13.14-1.1,0-1.45.35-.31.32-.17.98-.33,1.28-.14.26-.42.22-.63.69-1,2.31.5,2.11.53,2.97.04,1.04-.73.94-.86,1.32-.13.39-.12,1.57,0,1.97.22.71,1.67,1.06,1.88,1.45.12.22-.19.75-.13,1.14.02.12.76,1.81.83,1.89.59.62,1.62-.12,2.01.17.43.32,0,1.43.66,1.66,1.25.43,1.41-.78,1.51-.74,1.01.37.83,1.01,1.15,1.6.22.41,5.76,1.44,6.52,1.18.35-.12.32-.66.59-.74.15-.04,2.62.01,2.77.06.15.04.96,1.14,2.06,1.2,1.21.07.71-1.3,2.06-1.51.26,1.89,2.81.74,3.97.25.05.44-.14,1.22.11,1.56.3.42,1.41-.28,1.65,1.72.09.76-.43,1.07-.37,1.35.14.64,1.01.8,1.16,1.16.27.66-.33.54-.48.82-.53.96.31,1.21.44,1.79.07.32-.18.7-.12.93.11.46.65,2.37.86,2.5.3.19,1.08.2,1.12.24.03.03-.29.42-.14.76.03.08.09.15.15.21-.77,0-1.49.04-2.03.13-1.17.18-1.8.78-3.12.7-.63-.04-.62-.37-.99-.44-.46-.09-2.27-.32-2.68-.29-.32.03-1,.26-1.2.5-.24.29-.11.75-.58.98-.13.06-1.07.26-1.12.22.22-.48.32-1.18-.28-1.35-.34-.1-.57.07-.86.02-.59-.09-1.65-.56-2.39-.72-.72-.15-2.73-.66-3.31-.63-.78.05-1.19.98-.08,1.34.35.11,1.93.32,2.12.49.31.29-.93.47-1.08.54-.5.23-1.24.71-.89,1.29-.37.07-.71-.12-1.06-.14-.53-.03-.9-.13-1.27-.16-1.11-.07-1.63.1-2.85-.38-1.39-.54-2.31-2.31-2.3.68l-5.08-.85c-.12-.11.54-.68.22-1.14-.18-.26-1.93-.09-2.41-.13-1.05-.09-2.15-.63-3.21-.38-.35.08-.56.51-.63.52-.39.08-.89-.04-1.35.04-.78.13-1.46.68-2.22.81,1.18-3.07-2.27-3.86-4.02-1.69-.5.62-.87,2.21-1.73,2.38-.34.07-.53-.3-.84-.37-.9-.22-2.91.62-3.37.26-.51-.39-.21-.82-1.36-.68-.9.11-3.72,1.33-4.48,1.88-.17.12-.27.29-.38.44-.03,0-.07,0-.1,0-.15-.04-.31-.27-.55-.33-.29-.06-.88-.08-1.17-.03-.11.02-.51.3-.87.59-.38.08-.73.25-1.06.46-.08-.29-.11-.72-.17-.91-.46-1.25-.88-.67-1.54-.94-.04-.02-.05-.2-.15-.26-.41-.25-.92-.49-.95-1.12-.07-1.18,1.62-.74,1.86-1.32.39-.92-.82-1.68-.65-1.91,1.02-.42,2.32-.38,1.69-1.92-.18-.43-.59-.49-.79-.75-.77-1,.13-.7.54-1.23.22-.28.21-.73.36-.85.18-.14,1.55.54.68-1.41l-1.57-1.2c.4-.24.64.12.97.12.66.01,2.3-.37,2.15-1.22-.01-.07-.61-1.24-.66-1.3-.21-.27-.65-.28-.67-.31-.03-.04.24-.87.36-1.06.46-.66,1.93-.8,2.01-1.45.03-.26-.19-1.07-.31-1.28-.16-.3-.52-.32-.65-.7-.18-.52-.18-1.35.46-1.51.06-.01.17.65.95.5.7-.14.45-1.47.16-1.91-.12-.19-.42-.25-.51-.4-.11-.18-.04-.45-.11-.56-.12-.19-.72-.03-.72-.33.86.12.98-.21,1.46-.61.11-.09.36-.06.45-.18.19-.22.07-.73.11-1.01.02-.15.2-.33.23-.54.07-.69-.42-.77-.83-1.11-.14-.11-.18-.38-.25-.42-.21-.12-.81.14-.57-.41.16-.38,1.04-.11,1.36-.45.2-.22.07-.56.24-.69.41-.33,1.12.6,1.31-.31.2-.99-.84-.73-1.06-1.59-.28-1.09.41-.78.58-1.04.11-.15-.04-.49.06-.65.19-.33.75-.28.69-.83-.05-.46-1.13-.92-1.23-1.08-.03-.05-.4-1.12-.4-1.18.01-.19.53-.45.7-.46.29-.02.36.37.68.38.1,0,1.66-.47,1.73-.52.5-.41.07-1.98-.63-1.85-.34.06-.61.57-.67.58-.12.02-1.35-.12-1.45-.18-.39-.21-.16-.74-.56-.95-.22-.12-.58-.07-.86-.19-1.59-.69-3.61-1.86-5.19-2.63-.85-.42-.94.07-1.3-.03-.64-.17-.33-1-1.1-1.32-.56-.23-1.19.24-1.8-.26-.22-.18-.05-.56-.32-.77-.23-.18-.59-.09-.83-.22-.71-.37-1.49-.96-2.28-1.32-.27-.13-1.77-.83-1.87-.84-.56-.06-.77.63-.97.45-.15-.14.17-1.02-.8-.75-.12.03-.1.3-.19.31-.23.01-.77-.34-1.05-.45-.28-.1-.67-.08-.86-.16-.2-.08-.13-.86-.78-.76-.08.01-.07.3-.17.32-.07,0-1.22-.29-1.31-.34-.37-.19-.18-.87-1.39-1.32-.23-.09-1.32-.49-1.44-.52-.54-.12-.65.21-.95.2-.66-.02-2.15-1.08-2.74-1.17-.47-.08-.68.23-.86.23-.12,0-.74-.5-1.22-.54-.62-.05-.75.3-1.29.26-.84-.06-.45-.82-1.26-.87-.69-.04-.72.6-1.02.6-1.31-.03-.79-.97-1.44-1.14-.27-.07-.55.11-.82.09-.28-.02-.96-.1-1.2-.17-.62-.16-.99-.86-1.74-.14-.03-.95-.71-.49-1.4-.63-.4-.08-.74-.42-1.29-.48-.55-.07-1.59.13-2.04.07-.41-.05-.52-.58-.91-.61-.91-.07-2.88.14-3.73-.33-.23-.13-.17-.39-.57-.47-.67-.14-.72.32-.84.35-.85.21-.72-.26-1.08-.38-.58-.18-1.89-.06-2.46.11-.28.09-.36.48-.71.42.02-1.4-2.02-.92-2.92-1.06-1.04-.16-.69-1.05-1.44-1.42,2.03-.69-.94-2.71-1.29-1.44-.22.79.12,1.06.31,1.67.2.64-1.08.17-1.21.15-.39-.06-.96.09-1.27-.24-.21-.22-.08-.74-.81-.63-.26.04-.42.29-.66.38-.47.16-.71-.17-1.09.48-.19-1.37-1.76-1.08-2.67-1.31-2.96-.74-6.2-2.18-9.15-2.72-2.03-.37-4.5-.87-6.53-1.42-.92-.25-1.81-.75-2.79-.96-.95-.2-1.45.02-2.05-.04-.12-.01-.1-.32-.34-.43-.32-.14-1.75-.27-2.06-.16-.22.08-.21.41-.31.42-.8.01-.42-.82-.78-1.05-.84-.14-2.63-1.14-3.41-.87-.29.1-.12.57-.54.43.07-1.19-.68-.79-1.42-.91-.31-.05-.66-.28-.92-.28-.38,0-.58.41-.89.42-.16,0-1.96-.22-2.03-.29-.08-.08.05-.54,0-.59-.04-.04-.82.03-1.09-.03-.64-.13-.94-.75-1.8-.53-.15.04-.31.26-.34.26-.09,0-.83-1.4-1.28-.15h-.14c-.14-.8-.83-.42-1.28-.45-1.14-.08-2.18-.1-3.29-.16-.5-.03-1.43-.35-1.89-.05-.22.14-.16.59-.88.42-.55-.13-.23-.51-.57-.63-.63-.22-2.3-.43-3-.46-.43-.01-.98.27-1.45.14-.14-.04-.18-.35-.44-.49-.18-.1-2.93-.89-3.25-.93-.59-.09-.66.36-.7.37-.42.1-.29-.19-.49-.29-.1-.05-.36.05-.46-.03-.13-.11.11-.71-.69-.57-.28.05-.4.37-.72.16-.22-.15-.37-.67-.63-.91-.72-.65-1.51-.24-1.58-.3-.02-.02,0-.37-.14-.54-.03-.03-.51-.33-.68-.45-.29-.21-.87-.57-1.19-.69-.87-.34-2.88-.47-3.16.66-.18.73.82,1.31,1.09,1.89.11.24.19.78.32,1.08-.51-.14-2.25.21-2.4.71-.06.21-.15,1.17-.09,1.4.14.57,1.02.42,1.29.6.06.04-.07,1.27,0,1.49h-.45c.7-1.09-.88-1.02-1.36-.53-.14.14-.35,1.43-.28,1.63.09.26,1,.92,1.33.93-.24.65-.31.22-.67.26-.98.11-.56.41-.69.55-.17.16-1.42-.2-1.12.93.03.13.5.94.58,1.01.23.19.69.17.71.19.04.04-.13,1-.18,1.1-.17.39-.71.26-1.01.49-.17.12-.18.42-.41.49-.46.15-.77-.26-.71.64.06,1.08.81.96.94,1.44.1.37-.19.95.02,1.39-.2.19-1.6-.58-2.02.61-.22.63.06.61.18,1.01.06.23,0,.49.07.68.17.47,1.15.32.88,1.2-.13.41-1.33.51-1.59.7-.16.12-.67,1.05-.68,1.29-.05.88.88,1.29,1.67,1.13.05.23-.21.11-.3.25-.36.53.2,1.06.16,1.1-.85-.08-.4.62-.83,1.05-.23-.45-1.01-.64-1.29-.2-.72,1.13,1.07,2.23.61,3.5-.52.01-.32-.69-.95-.43-.08.03-.83.83-.86.95-.21,1.07.26.96.75,1.36.22.17.41.48.62.59.28.15.7-.1.59.38-.69-.22-.9.47-1.15.57-.24.09-.62.02-.85.17-.25.15-.15.6-.29.73-.18.17-.81-.02-.54.83.1.31.52.35.7.66.1.18.27,1,.17,1.09-.06.06-1.17.28-1.49.54-.88.69.45,2.04,1.16,2.14.07.01,1.45-.16.94.32-.02.02-.31-.03-.45.08-.17.12-.11.38-.19.48-.1.13-.41.12-.55.27-.19.2-.98,1.19-1.03,1.39-.07.3.07.52.05.71-.02.16-.26.31-.24.59.03.41,1.35.86.73,1.7-.17.24-1.18.02-.87,1.08-.72-.46-1.72-1.04-2.06.11-.55,1.84,1.07,1.7,2.06,2.81-.31.66-1.05,1.08-.89,1.88-.08.1-1.91-1.24-1.65.81.11.9.52.8,1.09,1.13.13.08.16.32.26.37.29.15.68,0,.9.31l-2.12.92c-.26,1.2.27,2.19,1.6,2.17.5,0,.66-.62,1.03-.32.18.15-.02.48.33.75.34.26.86-.07.96.01.02.02,0,.3.09.43.31.49,2.56,1.02,3.26,1.4.46.25.76.74,1.05.91.24.14,1.75.58,1.99.56.42-.03.29-.61.59-.46.28.16.17.57.3.75.11.16.38.1.49.18.15.12.08.45.29.58.1.06,2.12.72,2.25.73.33.04.76-.16.8-.14.04.03.08.34.22.45.37.28.98.23,1-.31.19.25.98.27,1.03.32.08.08-.03.71.27.9.19.12,1.83.65,2.2.76.37.11.76.05,1.04.13.12.03.11.25.32.32.85.29.94-.54,1.21-.48.14.03.24.85,1.16,1.1.15.04,1.32.27,1.39.27.35-.02.52-.31.88-.31.1,0,1.83.38,1.89.45.07.08-.05.56.01.74.6-.07,1.11.62,1.67.31.16-.09.4-.72.72-.45.05.04-.03.82.6.99.38.11.6-.24.68-.23.08,0,.19.36.41.49.37.22,1.43.37,1.82.23.22-.08.2-.42.33-.44.13-.01,2.4.57,2.51.63.35.18.2.75.81.85.59.09.66-.43.73-.43.07,0,1.25.27,1.31.3.18.08.08.4.25.53.48.37,1.29.32,1.69.41.48.1,1.26.55,1.72.22.1-.07.12-.35.28-.38.14-.03,2.06.3,2.22.42.14.1.1.38.25.53.29.3,1.91.57,2.33.55.31-.02.54-.28.6-.28.07,0,.7.62,1.24.69.47.06.65-.23.95-.2.84.07,1.97.66,2.8.79.9.14.84-.07,1.64.34.4.2.95.22,1.37.05.24-.1.09-.38.33-.35.03.16.07.46.19.57.44.41,1.41.56,1.95.67.6.13,1.96.64,2.43.28.2-.15-.05-.51.24-.47-.08,1.06.31.77.79,1.06,1.12.69,1.86.83,3.03,1.08.18.04.29.32.51.37.58.15,2.36.6,2.83.64.26.02.73-.18.79-.14.06.04.06.35.32.51.72.43,1.61.26,2.29.41.63.14,3.1,1.13,3.47.86.21-.16.16-.45.39-.44-.11,1.24,1.28,1.14,2.06,1.47.63.26,1.34.9,2.07,1.1.45.12.79-.09,1.17-.01.12.02.1.31.39.39.57.16.91-.09,1.27-.04.23.03.65.33,1.09.39.53.07,2.14-.13,2.39.16.21.25.01.65.44.78.89.29,1.01-.35.84-1.08.55.39.78-.04,1.13-.15.09-.03.04.27.17.3.81.22.84-.31.89-.31.61-.04.51.65.85.81.92.42,2.18.13,3.04.33.6.14.93.83,1.5-.23.57.2.32,1.04,1.19.73.29-.1.05-.49.57-.4.87.15.61.55.9.84.28.28,1.93.27,2.43.35,1.09.17,2.07.19,2.99.31.33.05.71.51,1.22.14.18-.13.01-.5.16-.46.57.12.29.55.4.72.13.2,1.4.38,1.7.32.34-.07.42-.35.63-.43.54-.19.24.29.5.5.2.17,1.3.6,1.56.51.28-.1.12-.57.54-.44,0,.28-.06.61.25.73,1.89.29,3.85,1.44,5.73,1.64.48.05.81-.14,1-.12.14.01.11.38.41.45-.02.04-.04.07-.05.12-.09.2-.47,1.01-.49,1.07-.07.27.26.61.06.9-.05.07-1.14.62-1.42.84-.75.6-1.69,1.56-1.48,2.6.07.34.52.5.42.85-.11.39-.68.07-.92.06-.58,0-.53.47-.83.72-.21.17-.72.23-.76.3-.18.27.33.68-.58.54l-.36,3.17c-.17.72-1.24,2.09-1.75,2.68-.33.38-.85.52-1.15,1.1-.64,1.2.44.94.46,1.17.05.55-1.98,4.25-1.56,4.72.72-.08.74-.37.56-.99,1.09.23.41-.48,1.13-.85v2.19c0,.05-.15.23-.15.42,0,.23.21.85.15.92-.06.06-.54-.15-.42.21.01.04.38.69.42.71.36.25.81-.29.42.77-.7-.86-1.23.01-.35.15.71.11.14.07.23.48.05.2.47.24.52.45.04.18-.25.87-.12,1.19l-.85-1.83c-.06-.04-.67.27-.69.3-.02.04.13.89.16.93.1.17.91.29.81.74-.12.12-.69-.67-1.06.15-.17.38.13.63.34.91-.28.22-1.08,1.78-1.04.63.02-.79-.19-.84-.35-1.61-.12-.58-.5-.45-.56.13-.32,2.91.76,8.87,1.7,11.72.21.63,1.54,3.58,1.55,3.81,0,.2-.22.45-.26.72-.06.37-.01,1.05-.05,1.24-.11.5-2.02,1.53-2.37,2.13-.13.23-.11.59-.15.62-.04.04-.42,0-.7.22-1.11.87-2.72,4.69-3.05,6.12-.73,3.12-.44,5.79,1.34,8.46,1.37,2.05,2.98,2.65,5.39,2.01.1.11-.42,1.42-.43,1.77,0,.44.35.87.28,1.1-.17.59-3.72,1.56-4.4,1.82-1.65.63-4.83,2.24-5.54,3.91-.6,1.42-1.66,5.65-1.45,7.09.15.99,1,1.92.78,2.96-.06.3-.33.53-.38.89-.59,3.71,2.25,8.98,5.25,11.1,1.07.75,2.45.74,3.07,2.01-3.25,1.93-6.55,3.85-9.64,6.02-1.73,1.22-2.51,2.21-3.97,3.51-.25.23-.52.26-.71.42-.68.55.45.56.6.74.11.13.21.98.34,1.28.38.9.96,1.81,1.52,2.58.26.35.38.58.63.92.57.8,1.26.66,1.95.87.31.09.78.49,1.19.64.78.28,2.5.35,3.36.33,1.18-.03,2.35-1.86,3.88-1.42-.09.43-.37.54-.43,1.05-.11.96-.16,3.59.05,4.48.41,1.81,2.12,4.87,4.37,4.46,1.15-.21,3.96-1.68,5.29-2.19.27-.1,1.6-.65,1.73-.54.66,2.29,1.86,4.48,2.6,6.72,1.36,4.09,2.22,7.49,4.23,11.43,1.53,2.99,4.94,8.43,8.36,9.27,3.7.91,9.78-.05,13.64-.41,18.62-1.75,37.04-5.5,55.48-8.57,11.49-1.91,22.93-4.31,34.43-6.21,2.69-.44,4.63-.92,7.25-1.5,18.04-4.01,36.41-7.32,54.15-12.44,9.16-2.65,27.15-6.62,21.17-20.12-.22-.5-1.36-2.28-1.4-2.55-.11-.81.17-2.28.16-3.26-.03-1.98-.05-4.07-.14-6.07-.02-.52-.46-3.08-.29-3.31,1.15,1.21,2.11.52,3.09-.5,1.91-1.98,5.94-6.96,6.95-9.42.5-1.21.65-2.41,1.02-3.64.33-.27,2.63-.09,3.27-.12,1.82-.1,3.36-.46,5.04-1.17,1.33-.56.98-.49,1.48-1.62.14-.3.47-.39.47-.81,0-.43-.62-.87-.79-1.34-.18-.5-.1-1.03-.43-1.55ZM207.21,90.17c.25-.25.68-.32.99-.5.18-.11.17-.51.35-.52.53-.04,1.38.41,2.15.02-1.83,1.41-3.42,3.07-4.87,4.88.44-1.55-1.24-1.49-1.28-2.82,2.5.76,1.72-.09,2.68-1.05ZM111.67,245.31c.44-.02-.17,1.56-.2,1.78-.04.24.11.47.09.67-.04.38-.54.72-.54,1.15,0,.37.31.45.3.77h-.56c-.09-.57.47-4.35.92-4.37ZM111.18,260.13c-.37-.24-.34-2.75.35-3.1.17.15.3.26.35.49.08.4.06,3.1-.7,2.61ZM113.99,260.82c-.09.08-.52-.02-.69.01l.42-1.27c.41.08.44,1.11.27,1.25ZM121.76,325.59c.06-.5-.7-1.48.14-1.55l.56,1.19-.7.36ZM129.03,357.63c-.11-.98.7.05.98-.02.28-.07.04-.7.5-.56v.7c-.65-.25-1.36.96-1.48-.12ZM150.62,239.38c-.62.04.4-1.5.78-1.41.02.23-.7,1.4-.78,1.41Z"/><path class="cls-2" d="M107.23,254.62c-.31-.05-.28.02-.35.27-.12.43-.1.97-.21,1.42.36.41.54-1.58.56-1.69Z"/><path class="cls-2" d="M348.51,189.93c-.08-.1.22-.75.08-.92-.02-.03-.47-.05-.66-.18-.93-.61-.19-.67-1.82-1.06-.22-.05-.29-.88-1.32-.17,0-.36-.64-.63-.72-.8-.13-.27-.05-.71-.31-.88-.75-.5-1.24.52-1.43.32.48-.82-1.15-1.71-1.81-1.43-.18.08-.17.35-.28.36-.63.06-1.15-.22-1.17-.89-.79-.32-2.25-1.56-3.09-1.42-.31.05-.78.6-1.09.15-.13-.19,0-.64-.32-.75-.38-.14-.83-.01-.83.44-.06.04-.3-.19-.3-.23,0-.07.63-1.12.84-1.15-.05,1,.98.91,1.46.23.14-.2.13-.52.15-.54.19-.17,1.08.69,1.46.16.12-.16.04-.66.31-.77.29-.12.19.27.33.31,1.04.28.68-.62.89-.93.09-.14.39-.1.49-.19.14-.13.17-.4.35-.49.31-.15.73.03,1.01-.22.31-.44-.4-.95-.24-1.08,1.09.4.89-2.01.54-2.45-.24-.3-.52-.23-.65-.35-.14-.12-.1-.41-.23-.54-.22-.22-.83-.14-1.18-.27-.64-.24-1.6-1.02-2.19-1.34-.43-.24-.85-.59-1.4-.39-.22.08-.21.43-.34.45-.08,0-1.58-.4-1.65-.45-.2-.14-.29-.95-1.01-1.17-.93-.29-1.48.29-1.54.24-.03-.02-.06-.45-.31-.68-.46-.43-.98-.32-1.36-.47-.19-.07-.36-.41-.61-.46-.32-.07-.78.59-1.24.39,0-.59-.05-1.02-.71-1.07-.24-.02-.49.12-.61.1-.16-.02-.18-.34-.32-.42-.2-.12-.96-.14-.96-.37,0-.07.35-.35.27-.88-.09-.69-.6-.2-.58-.64.01-.23.67-2.9.75-3.05.09-.16.38-.11.53-.26.38-.36.52-1.59.37-2.05-.07-.2-.72-.29-.44-.55.11-.11.7.19.63-.69-.03-.38-.56-.28-.47-.61.94-.19,1.54-1.89.61-2.23v-.15c.74.07,1.08-.91.82-1.5-.1-.21-.37-.16-.36-.26.01-.26.43-.6.43-.94,0-.19-.21-.34-.22-.46,0-.16.05-1.11.09-1.18.11-.19.44-.05.62-.17.28-.18.39-1.36.28-1.67-.11-.31-.49,0-.42-.76.02-.24.51-2.22.58-2.31.17-.24.67.19.75-.51.08-.71-.44-.47-.42-.96.46.03.67.09.73-.42.08-.7-.45-.63-.54-.9-.03-.1.05-1.06.14-1.12.23-.14.62.24.71-.44.07-.61-.29-.58-.58-.96.81.4,1-1.25.72-1.64-.08-.1-.34-.11-.38-.29-.08-.32.22-2.01.38-2.33.12-.25.43-.27.55-.53.18-.39.38-2.79.07-3-.04-.03-.82-.11-.42-.49.05-.05.44.07.59-.02.22-.14.21-1.21,0-1.34-.19-.12-.62.14-.59-.17,1.18-.03.36-.88.36-1.15,0-.12.32-.35.26-.77-.05-.37-.39-.32-.45-.42-.02-.03-.04-.69,0-.72.09-.06.4,0,.53-.16.17-.21-.19-2.23-.11-2.67-.1-.31-.49-.25-.75-.25.12-.3.55-.43.45-.81-.03-.12-.8-.7-.86-.95-.22-.8.32-.7.4-.93.26-.71-.27-.94-.9-.83-.13-.43.31-.71.28-1.11-.04-.68-.65-.34-.74-.42-.15-.14.43-1.68-.76-1.38-.04-.25.26-.09.36-.34.11-.28-.61-1.58-.69-1.63-.18-.11-.68.04-.74-.02-.02-.02.02-.44-.04-.64-.4-1.21-.5-1.71-1.69-2.31-.16-.08-.39.05-.4.03-.21-.28.12-1.32-1.02-.94-.26.09-.16.35-.42.34-.11,0-.8-.16-.83-.19-.1-.09,0-.46-.28-.56-.82-.3-.85.32-1.01.42-.07.04-.71-.2-1.01.06-.16.13-.16.56-.19.58-.03.02-.39-.19-.67-.16-.33.04-.58.39-.86.53-.57.27-.99-.09-1.07,1-.26-.02-.09-.31-.45-.4-.7-.18-.63.22-.94.46-.18.14-.45.13-.61.32-.18.2-.11.62-.45.7.15-.6-.32-.73-.53-1.08-.15-.25-.41-.65-.49-.8-.23-.44.07-.96-.74-1-.28-.01-.68.37-.66-.28,0-.33.49-.55.2-1.12-.18-.34-.77-.31-1-.53-.28-.27-.11-.89-.61-.85.01-.26.31-.09.4-.45.27-1.1-.67-.68-1.01-.85-.34-.18-.16-.43-.21-.5-.07-.11-.6-.19-.4-.48.02-.03.31.08.31-.23,0-1.29-1.33-.94-1.39-1-.18-.18.71-1.73-1.22-1.23.62-.82-1.14-1.52-1.59-1.36-.34.12-.01.72-.85.19-.11-.07-.14-.29-.2-.32-.8-.48-.93.36-1.08.53-.05.05-1.2.65-1.27.65-.11,0-.09-.37-.32-.44-.44-.15-2.06.64-1.74,1.37-.52-.07-.61-.42-1.19-.2-.04.02-.61.57-.62.61-.07.2,0,.63-.03.67-.06.06-.83-.11-1.08.06-.23.16-.09.63-.14.7-.03.04-.58-.35-1.07-.08-.18.1-.48.78-.7.98-.33.3-.83.32-1.12.88-.36.7.14.81.07,1.14-.01.06-.53.99-.57,1.03-.04.03-.6-.08-.9.26-.18.21-.12.49-.24.68-.18.28-.63.31-.87.97-.07.18-.3,1.29-.28,1.4.03.16.39-.04.32.32-.03.14-.26.01-.31.19-.04.15.05.45,0,.5-.07.07-.89-.14-1.12.35-.05.1-.37,1.08-.38,1.14-.04.45.62.54.26,1.46-.05.12-.23.13-.27.24-.09.26-.11.98-.2,1.08-.12.13-.65-.02-.93.53-.07.13-.44,1.17-.44,1.26,0,.57.37.44.46.55.02.03-.12.71-.14.74-.06.06-.46-.03-.65.03-.71.25-.11,1.43-.3,1.87-.19.44-1.08.35-.62,1.44.08.19.36.17.36.27,0,.26-.53,2.14-.66,2.55-.15.5-.56.89-.42,1.5-.28-.07-.12-.58-.26-.88-.26-.56-1.25-.45-1.4.07-.08.29.08.54.06.73-.18,1.16.02.79.06,1.52.02.39-.42.87-.14,1.31-.48-.32-1.92,1.17-2.13.36-.21-.79.68-.62.77-.76.4-.55.12-1.87.27-2.56-.12-.43-.82-.39-.86-.64-.11-.55.55-.53.71-.79.19-.3.55-1.9.18-2.13-1.12-.67-1.95,2.08-1.45,2.68.1.12.42.15.37.23-.08.14-.35.15-.46.35-.11.2-.07.65-.19.77-.17.17-.7-.04-.82.49-.14.61.53,1.03.39,1.22-.02.03-.27.04-.36.17-.14.19-1.1,2.63-1.13,2.87-.06.37.17.66.14.86-.02.14-.38.13-.46.35-.11.32.15.77.12.81-.03.04-.31.07-.43.26-.09.14-.51.95-.64,1.2-.32.61-.41,1.26.32,1.55-.59.35-.9.32-.77,1.15-.79.13-.93-.47-1.14-1.08-.4-1.18-.07-.67.12-1.1.17-.38-.11-1.13-.25-1.53-.39-1.17-.96-2.12-1.29-3.3-.4-1.46-.25-2.89-2.42-2.48-.87.17-.44,1.39-.55,2.06-.15.92-.2.76-.14,1.84,0,.18.11.85-.16.85-.19-.39-.28-1.32-.47-1.6-.18-.26-.55-.22-.68-.39-.38-.51-.96-2.25-1.39-2.9-.17-.26-.74-.4-.8-.5-.11-.2.01-.75-.06-1.09-.02-.08-.55-1.12-.6-1.15-.1-.06-.93-.07-1.03,0-.08.05-.09.43-.25.59-.32.32-.83.04-.69,1.13.12.92.52,1.62.84,2.39.17.41.2,1.37.36,1.6.15.21.99-.17,1.08.79,0,.05-.5.11-.45.75.01.16.36,1.04.45,1.21.07.13.3.09.31.1.33.41-.45.33-.77-.07-.2-.25-.19-.65-.34-.81-.29-.31-1.38-.43-1.42-.5-.16-.26.48-1.47-1.15-1.23.78-.95-.41-1.41-.84-1.99-.34-.46-.73-1.4-1.15-1.77-.3-.26-.59-.18-.86-.37-.37-.26-.57-.84-1.38-.92-1.45-.15-.3,1.18-.15,1.54.14.32.07.7.18,1.04.12.36,1,1.72-.16,1.41-.12-.03-.21-.51-.5-.75-.6-.5-1.36-.44-1.42-.49-.04-.03-.06-.37-.18-.51-.13-.16-.32-.2-.44-.36-.09-.13-.04-.46-.19-.61-.23-.24-1.11-.24-1.34-.42-.16-.12-.15-.43-.31-.61-.5-.54-1.75-.59-1.65.42.06.63.87.56,1.35.72.08.1-.57.42-.46.84.15.56.96-.23,1.23.08-.46,1.23-.01,1.06.54,1.69.14.16.19.55.25.59.41.25.58-.33,1.17.75.45.82.67,1.27,1.31,1.98.15.16,1.11,1.16,1.18,1.2.28.17.8.02,1.19.18.34.14.23.53.38.64.12.08.38,0,.42.03.03.02-.22.36-.09.77.13.42.81.79.9,1.33.57.56,1.76-.62,1.03.96-.62-.11-1.13-.49-1.59-.87-.09-.08-.33-.02-.37-.07-.07-.08-.02-.53-.09-.75-.22-.68-1.08-.6-1.6-.85-.45-.21-.76-.7-1.16-.85-.26-.09-.59.04-.66-.01-.31-.22-.69-.69-1.22-.85-1.42-.42-1.06,1.29-.04,1.5-.55.67-1.34-.02-1.04,1.27.21.9.8,1.51,1.61,1.91.3.15,1.1.27,1.23.38.16.14.19.7.34.93.35.54,1.25.66,1.84.57-.29,1.19.21.94.92,1.53-.6-.34-1.17.01-1.6,0-.1,0-.08-.28-.27-.36-.33-.13-.72-.07-1.05-.17-1.48-.49-2.81-1.1-4.24-1.42-.27-.06-.92-.18-1.16-.16-.45.04-.28.37-.56.43.21-1.13-1.14-.78-1.76-.93-.39-.09-1.04-.28-1.44-.4-.36-.11-.81-.5-1.03-.52-.34-.03-.51.3-.75.31-.26.01-.55-.33-.92-.32-.34,0-.53.3-.76.31-.4.02-1.32-.68-1.37.29-.05.96,1.01,1.21,1.75,1.4-.36.32-.43.92.11,1.05.51.13.71-.91,1.42-.75.13.61-1.15,1.26-.46,1.76.18.13,1.77.56,2.12.64.34.08,1.19.02,1.24.06.07.06.08.46.43.73.21.17,1.59.72,1.84.75.48.05.51-.42.6-.42.07,0,1.28.26,1.34.3.2.11.02.5.25.7.21.18,1.77.66,2.13.75.82.19,1.21.53,2,.79.5.16.78-.07,1.02-.04.14.02.16.34.41.46.31.16,1.73.32,1.8.42.11,1.11-.71.53-1.06,1-.6.82.14,1.29.27,1.71.13.43-.1,1.08.1,1.43.22.38.73.12.81.17.04.03.55.7.57.75.17.37,0,1.12.09,1.21.13.15.72,0,.74.02.07.09.03.49.25.75.41.5,1.31.72,1.91.46-.16.33-.07.95.19,1.19.05.04,1.12.57,1.18.59.39.11.7-.12.92-.02.28.13.39.6.57.71.28.16.68.1.97.22.36.16,1.06.66,1.31.69.5.07.58-.28.98-.31.35,1.3-.29.87-.54,1.22-.04.06-.37,1.24-.37,1.31,0,.35.33.56.45.84-1.38-.05-1.29.64-.92,1.69-1.27-.23-.68.57-.81,1.13-.05.2-.34.3-.38.51-.16.71-.43,2.36.04,2.96.17.22.85.05,1,.69.04.17-.7-.02-.28.74.49.89,1,.36,1.05.41.04.03.01.66.38.93.14.1,1.83.73,2,.74.78.04.35-.64.84-.9-.18.46.37.51.41.68.03.14-.12.36,0,.66.08.19.36.18.37.29.04.48-.63,1.6-1,1.9-.28.23-.72.23-.86.4-.45.54-.41,1.8-.47,1.87-.07.08-.58-.01-.72.43-.16.51.28,1.15-.06,1.78-.22.41-.85.12-.9,1.26-.01.3.17.56.16.75,0,.05-.68.36-.32.9.1.14.37.02.31.26-.9-.31-1.49,1.65-1.35,2.19.07.26.64.51.44,1.02-1.31-.05-.82.48-1.01,1.08-.1.32-.58.57-.73.78-.11.15-.07.42-.09.45-.03.04-.59-.2-.95-.12-.6.14-.98.7-1.18.81-.11.06-.48-.1-.79-.02-.25.06-1.69,1.32-1.89,1.64-.11.18-.56,1.12-.56,1.29,0,.65.46.82.57,1.05.32.67.29,1.6,1.32,1.46.43-.06.35-.45.64-.44.26,0,1.13.23,1.36.35.16.08.19.28.31.38.09.08.26,0,.4.16.49.6-.31,1.79,1.23,1.57-.32.61.73,1.56,1.28,1.37.22-.07.2-.44.34-.46.25-.03.69.35.95.42.22.06,1.07,0,1.1.04.1.12-.15.88.73,1.05.58.11.77-.22,1.04-.22.26,0,1.1.51,1.55.55.57.05,1.4,0,1.98.07.22.03.39.36.76.38.71.03.61-.76.78-.76.06,0,1.13.28,1.18.3.24.13-.04.83.91.59.16-.04.34-.32.41-.27.01,0-.03.22.1.31.47.32,2.2.25,2.04-.62.1-.11.8,1.12,1.58.62.17-.11.12-.41.49-.47.72-.12,2,.27,2.6.25.3-.01,1.01-.41,1.37-.39.12,0-.08.63.62.6.37-.02.55-.35.76-.38.25-.03.57.18.91.07.21-.07.2-.43.35-.45.18-.03.48.18.74.16.28-.02,1.72-.49,1.91-.7.21-.23.23-.64.55-.83.09.44.11.55.61.53.86-.03.6-.59.69-.69.09-.09,2.25.89,1.22-.92.77-.21.8.56,1.58.28.19-.07,1.19-1.06.71-1.35.57-.22,1.42.14,1.83-.24.29-.27.22-.64.35-.8.09-.11,1.14-.72,1.33-.89.18-.16.16-.44.32-.6s.5-.16.68-.39c.4-.52-.19-1.15.46-1.54.23-.14.53.04.86-.04.26-.07.27-.33.41-.39.27-.12.9-.18,1.07-.35.21-.21.12-.68.23-.92.2-.44.74-1.06.85-1.62.1-.51-.35-.63.26-1.11.79-.62.91.43,1.73.05.24-.11.09-.39.33-.36.21.89-.66,1.38-.88,2.11-.32,1.05-.11,2.28-.24,3.16-.02.16-.27.32-.28.64-.04,1.2,1.5.11,1.75-.42.17-.36-.06-.59.03-.87.08-.26.52-.6.66-.87.5-.93.72-1.63,1.72-2.26.38-.25,1.05-.05.91-.92-.04-.29-.36-.39-.31-.7,1.45.46.81-.79,1.23-1.69.26-.04.16.36.15.53-.09,1.23-.88,2.91.46,3.68-.89,0-.34,1.34-.32,1.97.03,1.01-.2,1.98.33,3.05.05.1.56.17.3.42-.16.15-.87-.07-.76.98.13,1.36,2.05.52,1.38-.42-.1-.15-.44-.05-.31-.33.09-.21.85-.47,1.08-1.06.22-.56-.03-.78.03-1.06.04-.21.52-.49.54-.97,0-.31-.33-.53-.25-.86.08-.31.65-.48.74-.96.06-.33.16-2.83.12-3.19-.04-.46-.51-.47-.58-.64-.25-.62.79-.14.62-1.07-.07-.41-.51-.35-.47-.46.12-.33.92-.22,1.22-.23.09.39-.35.62-.32.99.03.3.37.42.44.65.3,1.03.41,2.39.9,3.38.12.25.43.27.55.53.31.67.03,1.78,1.34,1.35.13.5-.32.18-.47.4-.38.54.1.91.16,1.37.09.65-.08,2.39.99,2.37,1.04-.02.75-1.96.39-2.22-.11-.08-.35-.04-.43-.1-.02-.01-.04-.42-.02-.43.32-.21,1.34.01,1.36-1.15.02-.8-.79-1.24-.88-1.57-.07-.28.19-.76.13-.81-.05-.04-.65.16-.62-.69,1.22-.25.15-1.19.15-1.99,0-.29.43-.23.44-.21.06.08.03.35.17.52.54.66.5,1.01.76,1.34.14.17,1.16.82,1.46,1.18.54.67.84,1.58,1.35,2.25.1.14.47.26.66.5.24.31.6,1.23.71,1.35.34.37,1.05-.05,1.18.04.04.03.07.37.18.51.33.42,1.08.97,1.37,1.39.52.77.97,2.29,1.84,2.91.56.39.43-.08,1.01.68.09.12.29.15.32.21.13.23,0,.62.19.93.21.36,1.33.84,1.59.22.26-.61-.33-1.12-.64-1.6-.49-.76-.34-.42-.75-.86-.58-.63-1.35-3.46-2.25-4.57-.16-.19-.52-.28-.54-.31-.02-.03.19-.37.12-.64-.06-.23-.4-.36-.51-.58-.21-.42-.18-1.31-.93-1.22-.07,0-.08.59-.31.16-.29-.55-.03-.96-.07-1.45-.05-.73-.77-1.48-1.54-1.31v-.15c.42.14.4-.67.27-.89-.04-.08-.44-.17-.59-.4-.15-.24-.13-.67-.29-.78-.24-.17-1.05-.02-1.31-.69-.12-.29.23-.8-.02-1.34-.06-.14-1.35-.67-.12-.66.52,0,1.09,1.15,1.76.94l-.15,1.07c.36.02.99-.07,1.29.14.13.09.06.33.14.41.26.28.67.57.94.84.16.17.17.49.28.57.12.08.38,0,.42.03.05.04-.44.76.22,1.24.47.34.77-.03,1.07.02.25.05.29.39.45.54.08.07.3.02.36.08.26.24.12.86.28,1.19.19.41.78.35.96.5.14.12.08.44.29.59.41.28,1.35-.35,1.37.53,0,.26-.41.39-.08.9.11.17,1.85,1.8,2.05,1.94.71.48,2,.27,1.53-.76-.19-.41-.73-.4-.81-.49-.1-.12-.03-.5-.14-.7-.24-.45-1.41-2.13-1.8-2.49-.51-.47-1.65-.67-1.7-.75-.15-.23-.06-1.09-.39-1.6-.04-.07-.78-.96-.84-1-.26-.17-.79-.14-.82-.17-.04-.04.01-.73-.11-1.03-.12-.29-.59-.24-.51-.65.38.16,1.11.17,1.41.31.12.05.81.8,1,.91.95.56,1.15.42,2.18.16.03.02-.22.41-.16.66,0,.04.59.62.63.64.27.17.69-.01.93.15.2.14.18,1.11,1.21.54-.3,1.8.85,1,.92,1.07.04.04-.05.51.25.61.76.25.84-.79.63-1.25-.13-.3-.41-.43-.55-.68-.2-.37-.48-1.22-.71-1.44-.34-.32-.85-.23-.97-.33-.09-.08-.02-.49-.34-.66-.18-.09-.53-.03-.59-.09-.08-.08.05-.53-.16-.69-.27-.2-.88.12-1.24-.06.59-1.37-1.1-.94-1.22-1.07-.03-.04.08-.55-.14-.86-.36-.5-2.24-.77-2.46-1.75.28-.09.41.04.6.11,1.1.41,2.25.81,3.35,1.25.24.1.69.06.85.16.19.11.05.44.17.62.16.25,1.18.54,1.51.46.09-.02.16-.61.4-.31.05.06-.07.43.02.59.04.06,1.24.6,1.31.61.5.08.8-.48,1.03-.43.29.06.34,1.26,1.32,1.01.33-.08.22-.41.53-.4.15,0,.76.68,1.15.39-.14-.32-.72-.36-.85-.53Z"/><path class="cls-1" d="M120.95,318.42l-5.8-28.53,11.42-2.32,1.13,5.55-5.68,1.15.93,4.55,5.38-1.09,1.12,5.48-5.38,1.09,2.64,12.95-5.74,1.17Z"/><path class="cls-1" d="M128.39,287.2l8.77-1.78c1.39-.28,2.54-.19,3.43.29.89.47,1.59,1.26,2.08,2.34s.93,2.52,1.29,4.29c.33,1.62.38,2.92.14,3.92-.23.99-.84,1.77-1.81,2.34.9,0,1.61.3,2.14.91s.91,1.5,1.15,2.67l2.13,10.81-5.58,1.14-2.27-11.16c-.16-.8-.42-1.28-.78-1.43s-.94-.15-1.76.01l2.65,13.02-5.78,1.17-5.8-28.53ZM137.71,296.3c.8-.16,1.02-1.11.67-2.83-.15-.75-.3-1.31-.44-1.67s-.32-.6-.52-.71c-.21-.11-.48-.13-.81-.06l-1.33.27,1.07,5.28,1.36-.28Z"/><path class="cls-1" d="M150.04,312.5l-5.8-28.53,11.42-2.32,1.12,5.51-5.61,1.14,1.13,5.55,5.38-1.09,1.09,5.38-5.38,1.1,1.33,6.54,5.98-1.21,1.13,5.54-11.79,2.4Z"/><path class="cls-1" d="M163.72,309.72l-5.8-28.53,11.42-2.32,1.12,5.51-5.61,1.14,1.13,5.55,5.38-1.1,1.1,5.38-5.38,1.09,1.33,6.54,5.98-1.22,1.13,5.55-11.79,2.4Z"/><path class="cls-1" d="M185.99,303.45c-1.41-1.05-2.41-3-2.99-5.86l-.57-2.79,5.61-1.14.72,3.55c.29,1.42.89,2.03,1.79,1.85.51-.1.83-.33.97-.67.14-.34.13-.86,0-1.57-.19-.93-.46-1.68-.8-2.24-.35-.56-.73-1.01-1.16-1.35-.43-.34-1.17-.85-2.23-1.54l-2.96-1.96c-2.28-1.47-3.65-3.34-4.11-5.6-.5-2.44-.31-4.4.54-5.91.86-1.5,2.36-2.47,4.51-2.9,2.57-.52,4.55-.22,5.96.91,1.41,1.13,2.41,3.15,3,6.05l-5.81,1.18-.43-1.95c-.08-.38-.24-.65-.5-.83-.26-.18-.57-.23-.95-.15-.44.09-.75.28-.92.57-.17.29-.22.64-.13,1.06.19.93.92,1.79,2.18,2.56l3.97,2.51c.93.6,1.71,1.18,2.36,1.75.65.57,1.22,1.29,1.71,2.14.5.86.88,1.91,1.13,3.18.57,2.81.49,5.05-.24,6.71-.73,1.66-2.29,2.73-4.66,3.21-2.59.53-4.59.26-6-.79Z"/><path class="cls-1" d="M199.72,302.39l-3.05-29.09,9.66-1.96,8.53,27.97-5.41,1.1-1.34-4.54-3.45.7.61,4.68-5.54,1.13ZM204.16,291.94l2.59-.53-4.21-14.26-.27.05,1.89,14.73Z"/><path class="cls-1" d="M216.59,298.96l-5.8-28.53,5.88-1.2,5.4,13.12-2.78-13.65,5.51-1.12,5.8,28.53-5.58,1.13-5.76-13.7,2.91,14.28-5.58,1.13Z"/><path class="cls-1" d="M227.32,267.07l7.87-1.6c2.04-.41,3.68-.16,4.93.76s2.11,2.49,2.58,4.7l2.78,13.34c.6,2.81.54,5.02-.17,6.64-.71,1.62-2.21,2.66-4.52,3.13l-7.67,1.56-5.8-28.53ZM238.84,289.17c1.04-.21,1.46-.83,1.25-1.84l-2.99-14.71c-.13-.64-.28-1.11-.44-1.41-.17-.3-.39-.48-.68-.54-.29-.06-.71-.03-1.26.08l-.63.13,3.76,18.5,1-.2Z"/><path class="cls-1" d="M251.72,291.81l-8.86-27.91,5.58-1.13,5.26,17.68-2.07-18.33,5.31-1.08,5.19,17.69-2.13-18.31,5.65-1.15,2.68,29.16-6.84,1.39-4.23-13.46,1.44,14.03-6.97,1.42Z"/><path class="cls-1" d="M272.88,287.51l-5.8-28.53,5.51-1.12,5.8,28.53-5.51,1.12Z"/><path class="cls-1" d="M281.98,283.89c-1.52-1.05-2.51-2.72-2.97-5l-2.68-13.15c-.58-2.83-.45-5.08.39-6.75s2.46-2.75,4.88-3.24c2.1-.43,3.91-.2,5.43.69s2.5,2.42,2.94,4.59l1,4.91-5.68,1.16-.86-4.22c-.17-.82-.38-1.37-.64-1.63-.26-.27-.64-.36-1.12-.26-.51.1-.82.35-.94.74-.12.39-.1.93.04,1.62l2.91,14.31c.15.75.38,1.28.67,1.58s.66.4,1.1.31c.88-.18,1.18-.99.89-2.43l-1.05-5.15,5.75-1.17,1.09,5.38c.97,4.78-.94,7.66-5.75,8.64-2.08.42-3.88.11-5.4-.94Z"/><path class="cls-1" d="M296.42,282.71l-5.8-28.53,5.68-1.16,2.07,10.2,2.69-.55-2.07-10.2,5.68-1.16,5.8,28.53-5.68,1.16-2.64-12.95-2.69.55,2.63,12.95-5.68,1.16Z"/><path class="cls-1" d="M182.05,339.47l-4.69-23.05-3.39.69-1.12-5.48,12.49-2.54,1.12,5.48-3.39.69,4.69,23.05-5.71,1.16Z"/><path class="cls-1" d="M191.98,337.45l-3.05-29.09,9.67-1.97,8.53,27.97-5.41,1.1-1.34-4.54-3.45.7.61,4.68-5.55,1.13ZM196.42,327l2.59-.53-4.22-14.26-.26.05,1.89,14.73Z"/><path class="cls-1" d="M211.31,333.52l-4.69-23.05-3.39.69-1.12-5.48,12.49-2.54,1.12,5.48-3.39.69,4.69,23.05-5.71,1.16Z"/><path class="cls-1" d="M224.46,330.84l-4.69-23.05-3.39.69-1.12-5.48,12.49-2.54,1.12,5.48-3.39.69,4.69,23.05-5.71,1.16Z"/><path class="cls-1" d="M236.34,326.51c-1.48-1.16-2.48-3.02-3-5.56l-2.76-13.58c-.5-2.46-.28-4.43.66-5.93s2.56-2.48,4.87-2.94c2.3-.47,4.18-.2,5.63.81,1.45,1.01,2.43,2.74,2.93,5.2l2.76,13.58c.52,2.57.33,4.67-.58,6.31-.91,1.64-2.52,2.69-4.82,3.16-2.3.47-4.2.12-5.68-1.04ZM241.84,321.43c.09-.48.05-1.12-.12-1.91l-2.84-13.95c-.12-.62-.31-1.11-.55-1.46-.24-.35-.62-.48-1.13-.38-.95.19-1.28,1.01-.99,2.45l2.83,13.92c.17.82.39,1.42.68,1.8s.69.52,1.22.41c.51-.1.81-.39.89-.88Z"/><path class="cls-1" d="M252.48,323.22c-1.48-1.16-2.48-3.02-3-5.56l-2.76-13.58c-.5-2.46-.28-4.43.66-5.93.94-1.49,2.56-2.47,4.87-2.94s4.18-.2,5.63.81,2.42,2.74,2.92,5.2l2.76,13.58c.52,2.57.33,4.67-.58,6.31s-2.52,2.69-4.82,3.16-4.2.12-5.68-1.04ZM257.98,318.14c.09-.48.05-1.12-.11-1.91l-2.84-13.95c-.12-.62-.31-1.11-.56-1.46-.24-.35-.62-.48-1.13-.38-.95.19-1.28,1.01-.99,2.45l2.83,13.91c.17.82.39,1.42.68,1.8.29.38.69.52,1.22.41.51-.1.81-.39.89-.87Z"/></g></svg>