<?xml version="1.0" encoding="UTF-8"?><svg id="Layer_2" xmlns="http://www.w3.org/2000/svg" viewBox="0 0 333.94 302.13"><defs><style>.cls-1{fill:#faf0e0;}.cls-2{fill:#f03010;}</style></defs><g id="Wireframe"><path class="cls-2" d="M178.05,227.73c-3.69-13.37-8.81-26.99-12.97-40.31-6.05-19.32-12.02-38.94-18.11-58.05-3.58-11.24-7.18-22.47-10.65-33.74-.44-1.02-1.31-1.78-2.39-2.05-5.43-1.39-10.57-.92-15.87-1.55-3.5-.42-4.23-2.87-5.5-5.77-3.6-8.25-6.17-16.82-9.24-25.25-1.54-4.24-6.46-14.42-6.94-18.03-.09-.7.52-.97.48-1.48-.04-.5-2.52-7.55-2.84-8.08-.4-.67-1.25-.9-1.37-1.32-.08-.27.21-.81.04-1.41-.44-1.52-2.2-7.06-3.52-7.46-1.14-.35-11.42,3.2-13.17,3.95-.82.35-4.17,2.02-4.72,2.45-.35.27-1.1,1.16-1.16,1.54-.05.33,1.82,5.43,2.13,6.26.86,2.28.88,3.43,1.62,5.55.79,2.29,1.84,4.29,2.9,6.29l14.44,46.15.52,1.67c.25,1.55.02,3.95-2.76,6.15,0,0,0,0-.01.01-4.58,3.63-11.14,9.28-10.34,12.4.8,3.12,44.85,115.87,44.85,115.87l7.32,19.07c1.7,4.46,6.77,17.28,6.77,17.28,0,0,2.59,5.78,5.99,4.44.24-.1.49-.19.73-.29,3.25-1.26,9.54-3.63,11.36-4.31,9.66-3.53,19.41-6.83,29.04-10.47.51-.75.98-1.59,1.11-2.5.65-4.68-4.15-13.12-5.79-17.71-1.35-3.77-1.01-5.9-1.95-9.32Z"/><path class="cls-2" d="M251.56,215.35c-.66-2.17-2.16-3.78-2.6-5.28-.03-.11-.06-.24-.08-.36l-.17-1.9c-.03-.83-.06-1.68-.21-2.37-1.6-7.35-6.07-16.83-8.55-24.24-6.02-17.99-11.57-36.15-17.5-54.21-6.13-18.67-12.48-37.27-18.46-55.99-.8-1.56-2.88-1.77-4.44-2.05-1.8-.32-5.02-.76-6.77-.75-2.59.02-6.32,1.29-8.79-.43-1.52-1.05-3.68-6.53-4.49-8.49-3.24-7.92-6.79-16.85-9.98-25.51l-4.36-12.4-.38-1.55c-.18-1.19-.02-1.95-.28-3.23-.24-1.22-.85-2.66-1.52-4.09h0s0,0,0,0c-.72-1.54-1.5-3.07-1.99-4.35-.64-1.65-1.64-6.98-3.04-7.89-1.27-.83-5.34.74-6.89,1.24-2.51.8-4.97,1.9-7.45,2.81l2.95,9.05c-1.46.87-5.49,1.46-5.51,3.42,0,.75,2.36,7.38,2.83,8.13l6.07,15.27,10.25,31.08.6,4.23c-.05.35-.14.69-.31,1.02-.75,1.43-2.73,2.87-4.64,4.31,0,0-8.83,6.26-8.33,9.56,0,.01,0,.03,0,.05-.03.55.13,1.19.37,1.79.06.15.12.24.18.3,2.02,6.53,8.59,23.42,8.59,23.42l38.24,95.74c1,2.58,2.08,5.31,3,7.52h0c.42,1.01.81,1.91,1.15,2.64l8.23,20.45s.17.82.66,1.79c.06.17.14.36.25.45.67,1.14,1.79,2.33,3.57,2.67.35.12.67.19.91.21.28.02.82-.08,1.48-.25,1.08-.22,2.21-.6,3.32-1.06,1.62-.57,3.19-1.16,3.92-1.42,6.11-2.2,11.99-3.64,18.02-5.89,2.91-1.08,6.65-2.57,9.44-3.88,4.81-2.25,7.05-3.05,6.18-9.03-.5-3.44-2.51-7.28-3.5-10.51ZM142.33,18.92c-.14-.55-.32-1.06-.24-1.64.46.18.78,1.5.92,1.98.2.69.43,1.39.44,2.12-.59-.34-.95-1.81-1.12-2.46ZM200.32,71.04s-.05-.04-.08-.06l.25-.08c-.05.05-.12.09-.17.14Z"/><path class="cls-2" d="M329.5,185.91c-2.62-10.21-5.04-20.45-7.57-30.68-3.6-14.55-7.52-29.02-11.1-43.58.15-2.68.98-1.25,1.79-1.23.24,0,4.14-.69,4.34-.78,1.87-.78,1.2-3.3,1.42-3.54.12-.12.71-.03.96-.21,1.11-.82.36-5.43,1.06-6.85-.74-1.54.16-2.99-1.32-3.79.17-1.38-2.1-3.95-1.76-5.03.22-.7,1.27-.4,1.7-.72.34-.25.21-.88.43-1.1.2-.2.79-.1,1.09-.44.52-.58.88-2.42-.33-2.39-.46.1-.99,4.5-3.77,2.06-1.21-1.06-.45-1.95-.52-2.04-.06-.08-1.42-.26-1.89-.68-1.16-1.04-3.55-6.63-4.79-8.53-.43-.66-1.27-1.1-1.66-1.76-.38-.65-.41-1.74-.85-2.22-.56-.6-1.23-.32-1.64-.58-.41-.26-.57-1.44-.89-1.84-.32-.4-1.3-.83-1.8-1.28-1.78-1.58-4.78-4.45-6.92-1.36-1.19,1.72-.29,2.71-.07,4.43.15,1.2.48,2.33.56,3.02.14,1.27-.68,3.25-.79,4.55-.09,1.03.85,2.32-.25,3.14-2.03-.03-2.09-2.55-2.24-2.7-.17-.18-4.52-.43-4.95-.38-.9.12-1.4.85-2.35.72-.89-.12-1.42-1.51-2.83-1.65-.33-.03-3.11.12-3.36.23-.88.38-.9,1.08-1.53,1.57-1.34,1.06-2.38,1.31-3.35,3.14-1.37,2.59-.33,3.49-.39,5.74-.06,2.1-.48,4.24-.69,6.33-2.16.48-2.41-1.83-3.85-2.47-.65-.29-2.8-.71-3.47-.61-2.05.31-.76,2.57-.88,2.72-.09.12-2.49,1.29-2.64,1.32-2.04.43-4.95-2.83-8.7-1.28-.43.18-.78,1.24-1.82,1.33-1.17.1-2.67-.64-4.35-.26-.92.21-2.05,1.91-3,2.47-1.36.8-4.73,1.46-5.03,3.51-.04.28.23,3.56.3,4.01.2,1.24,2.57,5.73,2.37,6.5-2.44,1.39-5.15-.5-4.42,3.75.37,2.15,4.74,3.57,4.75,4.79,0,.57-1.31,3.85-1.55,4.94-.21.98-.04,1.93-.24,2.83-.92,4.16-2.43,6.28-1.25,10.98.53,2.09,4.71,7.3,6.78,7.9.83.24,4.38.67,5.37.71,1.22.05,5.82-.61,6.55-.16l27.19,57.36,7.02,14.98,39.85-14.27c.8-.31,1.55-.74,1.72-1.65-1.46-6.33-2.83-12.69-4.44-18.98Z"/><path class="cls-2" d="M96.7,254.36c-2.47-7.91-3.33-15.1-5.31-22.96-3.29-13.04-7.43-26.27-10-39.52-.32-1.63-1.05-4.96-1.12-6.42-.04-.76.07-1.47.4-2.15,2.69-.05,5.46.31,8.04-.66,3.5-1.32,2.08-3.18,3.72-5.17.87-1.05,3.67-1.93,4.07-2.76,1.14-2.35-.86-5.07-3.39-4.78-.61.07-1.15.66-1.68.62-.71-.06-2.45-1.95-3.98-2.19-.97-.15-1.77.33-2.74.2l.68-.68c-1.61-.03-4.42-.03-5.79.86-.15.1-2.38,2.33-2.56,2.57-1.59,2.11-.71,5.12-1.3,5.7-3.07,3.01-3.11-5.6-3.37-6.88-.91-4.53-2.54-12.27-4.48-16.35-.49-1.03-2.71-2.86-3.87-2.96-.19-.02-2.71.08-2.9.11-.85.16-1.47.91-2.29,1.16-1.1.33-2.79.2-3.86.58-.23.08-3.13,1.74-3.23,1.9-.16.27-.46,1.85-.48,2.25-.2,4.59.42,10.34,1.95,14.72.31.88,1.61,1.88.94,2.85-.58.85-3.36.56-4.37.75-2.78.52-5.36,1.72-8.11,2.3.14-1.51.74-3.86.7-5.28-.06-1.97-.46-3.92-.69-5.84-.23-1.93.22-2.71-.76-4.7-.87-1.76-2.68-4.51-4.83-3.24-1.03.61-2.42,3.13-2.99,3.5-1.33.88-4.31-.21-3.6,2.61.17.66,1.01.7,1.08,1.3.06.57-.47.9-.38,1.43.12.7,1.23,1.62,1.21,2.19-.01.5-.7.87-.64,1.31.05.33.69.77.83,1.23,1.22,4.06,1.38,8.87,1.9,13.13.07.58,1.18,3.96.13,3.96-.63,0-.49-2.74-.92-3.52-.26-.48-.88-.54-1.07-.99-.33-.79-.19-1.78-.6-2.79-.52-1.29-2.25-2.14-2.34-2.47-.19-.67.69-1.01.55-1.84-.04-.24-1.94-4.15-2.11-4.42-.84-1.25-6.06-2.4-7.24-1.29-.62.58-1.3,4.64-1.05,5.47.15.49.9.99,1.21,1.88.42,1.17,0,1.97.15,2.56.16.61,1.66,1.93,2.05,2.74,1.32,2.7,2.47,6.27,3.58,9.05.08.21,1.5,1.03.79,1.78-1.19,1.24-4.24-4.37-4.84-5.24-1.79-2.64-2.52-4.99-4.09-7.52-.53-.85-1.71-1.5-2.08-2.36-.27-.64-.17-1.37-.44-1.95-.36-.76-1.56-1.03-2.02-1.74-.47-.72-.46-1.86-1.05-2.7-.48-.69-1.39-.96-1.68-1.4-.4-.62-.3-1.64-.87-2.54-.77-1.22-2.06-1.33-2.75-2.03-.66-.67-.66-2.22-2.14-2.15-1.69.08-4.48,3.55-4.65,5.25-.22,2.13.72,1.77,1.11,2.6.56,1.21.39,2.73,1.63,3.83.37.33,1.22.45,1.3.58.21.34-.08,1.28.23,2,.36.82,2.11,1.6,2.38,2.06.31.54.17,1.4.56,2.17.35.68,1.33,1.16,1.68,1.74,1.99,3.25,3.82,6.92,5.49,10.22.37.73,1.49,1.28,1.82,1.94,1.5,3.05-1.58,3.68-1.19,5.56.05.23.54.15.68.49.12.28-.1.93.03,1.08.11.12.96-.12,1.52.36.46.39,1.03,2.55,1.46,3.32,5.92,10.81,10.75,22.51,16.17,33.69,3.25,6.7,7.01,13.14,10.26,19.79,5.37,10.96,9.5,22.67,14.54,33.62.92,2,2.39,4.2,3.35,6.25.3.04.61,0,.83-.16l6.54-1.23s.06,0,.1,0c1.17-.14,2.48-.4,3.89-.75h.03c6.78-1.67,15.72-5.38,21.19-7.62,1.86-.76,8.74-3.44,9.53-4.81.18-.31.35-.63.37-1-1.73-6.18-3.09-12.5-4.87-18.67-1.27-4.41-2.6-9.11-3.97-13.52ZM95.99,173.21c.1,1.74-2.8,2.31-3.36,1.44-.25-.39-.07-2.33-.74-3.01,1.61-.66,3.98-.62,4.1,1.56Z"/><path class="cls-2" d="M317.3,83.19c-.18-.18-1.96.44-1.36,1.02.18.18,1.96-.44,1.36-1.02Z"/><path class="cls-1" d="M116.69,160.6l-7.75-28.2,9.21-3.51,12.97,26.21-5.16,1.97-2.06-4.26-3.29,1.26,1.36,4.52-5.29,2.02ZM119.37,149.57l2.47-.94-6.48-13.38-.25.1,4.26,14.22Z"/><path class="cls-1" d="M122.4,127.26l8.36-3.19c1.33-.51,2.47-.6,3.43-.27.96.32,1.77.98,2.44,1.97.67.99,1.32,2.33,1.97,4.02.59,1.54.85,2.82.78,3.84-.07,1.02-.54,1.89-1.4,2.6.89-.14,1.64.04,2.26.55s1.14,1.33,1.57,2.45l3.86,10.32-5.32,2.03-4.06-10.64c-.29-.76-.62-1.19-1-1.29-.38-.1-.96,0-1.73.3l4.73,12.41-5.51,2.1-10.38-27.2ZM133.08,134.72c.76-.29.83-1.26.2-2.9-.27-.72-.51-1.24-.71-1.58-.2-.33-.41-.54-.63-.61-.22-.07-.49-.05-.81.07l-1.27.48,1.92,5.04,1.3-.5Z"/><path class="cls-1" d="M137.5,121.5l7.38-2.81c1.98-.76,3.61-.82,4.88-.19s2.32,2.04,3.16,4.24l.46,1.2c.99,2.6.65,4.5-1.01,5.72,1.25-.14,2.32.24,3.19,1.14.88.9,1.65,2.24,2.33,4.01,1.1,2.89,1.5,5.25,1.21,7.06-.3,1.82-1.58,3.16-3.84,4.02l-7.38,2.81-10.38-27.2ZM147.83,129.28c.46-.18.71-.47.75-.89s-.07-.93-.31-1.57l-1.04-2.72c-.34-.89-.9-1.18-1.68-.88l-1.14.43,2.31,6.05,1.11-.42ZM153.26,138.85l-1.29-3.39c-.31-.82-.67-1.4-1.08-1.73-.4-.33-.91-.38-1.52-.14l-1.01.39,3.01,7.88.55-.17c1.41-.54,1.86-1.49,1.35-2.84Z"/><path class="cls-1" d="M166.34,141.66l-3.42-8.96-11.29-16.58,5.38-2.05,5.04,8.63-1.99-9.79,5.38-2.05,2.62,19.89,3.42,8.96-5.13,1.96Z"/><path class="cls-1" d="M170.35,118.12l-.39-4.06-1.96.75-1.75-4.59,5.79-2.21,1.7,4.46-.13,4.4-3.26,1.24Z"/><path class="cls-1" d="M185.02,132.72c-1.56-.8-2.87-2.57-3.9-5.29l-1.02-2.66,5.35-2.04,1.29,3.39c.52,1.35,1.21,1.86,2.07,1.53.48-.18.77-.46.85-.81.08-.36,0-.87-.27-1.55-.34-.89-.72-1.58-1.16-2.08-.43-.5-.89-.88-1.36-1.15s-1.29-.65-2.45-1.15l-3.24-1.45c-2.49-1.08-4.15-2.7-4.97-4.85-.89-2.32-1.03-4.29-.43-5.91.6-1.62,1.93-2.82,3.98-3.6,2.45-.93,4.46-.96,6.03-.07,1.57.89,2.88,2.71,3.94,5.48l-5.54,2.11-.74-1.86c-.14-.36-.35-.61-.63-.74-.28-.13-.6-.13-.96,0-.42.16-.7.4-.82.71-.12.31-.11.67.04,1.07.34.89,1.2,1.61,2.57,2.18l4.32,1.83c1.01.43,1.89.88,2.62,1.34.73.46,1.41,1.07,2.04,1.83.63.76,1.17,1.75,1.63,2.95,1.02,2.68,1.31,4.9.85,6.66-.45,1.76-1.81,3.07-4.07,3.93-2.47.94-4.49,1.01-6.05.2Z"/><path class="cls-1" d="M134.38,188.97l-13.74-25.95,5.19-1.98,9.06,17.76-5.29-19.2,5.19-1.98,7.03,28.51-7.44,2.84Z"/><path class="cls-1" d="M147.55,181.94c-1.65-.91-2.94-2.57-3.87-5l-4.94-12.95c-.89-2.34-1-4.33-.31-5.96.68-1.63,2.12-2.86,4.32-3.7,2.2-.84,4.09-.88,5.69-.12,1.59.76,2.84,2.31,3.73,4.65l4.94,12.95c.93,2.45,1.09,4.56.45,6.32-.63,1.76-2.05,3.07-4.24,3.9-2.2.84-4.12.8-5.77-.1ZM152.15,176.03c0-.49-.13-1.11-.42-1.87l-5.07-13.3c-.22-.59-.49-1.04-.79-1.35-.3-.31-.69-.37-1.18-.19-.91.35-1.1,1.21-.58,2.58l5.06,13.27c.3.78.62,1.34.96,1.67s.77.39,1.27.2c.49-.18.73-.52.74-1.01Z"/><path class="cls-1" d="M151.75,151.19l7.51-2.86c1.94-.74,3.6-.76,4.98-.05s2.49,2.11,3.31,4.21l4.92,12.71c1.04,2.67,1.35,4.87.91,6.58-.44,1.71-1.75,2.99-3.95,3.83l-7.31,2.79-10.38-27.2ZM166.71,171.13c.99-.38,1.3-1.05.93-2.02l-5.35-14.03c-.23-.61-.46-1.05-.67-1.32-.21-.27-.46-.41-.76-.42-.29,0-.71.09-1.23.29l-.6.23,6.73,17.64.95-.36Z"/><path class="cls-1" d="M177.73,172.44l-10.38-27.2,5.38-2.05,4.15,10.89-1.62-11.86,5.48-2.09,1.71,13.6,9.3,13.36-5.64,2.15-8-12.04,5.03,13.17-5.41,2.07Z"/><path class="cls-1" d="M191.95,167.01l-7.75-28.2,9.21-3.51,12.97,26.21-5.16,1.97-2.06-4.26-3.29,1.26,1.36,4.52-5.29,2.02ZM194.63,155.98l2.47-.94-6.48-13.38-.25.1,4.27,14.22Z"/></g></svg>